<svg width="16" height="16" viewBox="0 0 16 16" fill="none" xmlns="http://www.w3.org/2000/svg">
<path opacity="0.4" fill-rule="evenodd" clip-rule="evenodd" d="M1.99976 8.00065C1.99976 7.63246 2.29823 7.33399 2.66642 7.33399L13.3331 7.33398C13.7013 7.33398 13.9998 7.63246 13.9998 8.00065C13.9998 8.36884 13.7013 8.66732 13.3331 8.66732L2.66642 8.66732C2.29823 8.66732 1.99976 8.36884 1.99976 8.00065Z" fill="white"/>
<path d="M3.35142 8C3.41362 8.10318 3.54401 8.28859 3.68659 8.44996C3.97042 8.77118 4.36158 9.1381 4.76991 9.49263C5.17493 9.84429 5.58191 10.1709 5.88883 10.4104C6.04193 10.5299 6.30614 10.7295 6.3949 10.7965C6.69132 11.0149 6.75464 11.4322 6.53631 11.7286C6.31797 12.0251 5.90064 12.0884 5.60418 11.8701L5.6017 11.8682C5.50545 11.7955 5.22636 11.5847 5.06853 11.4616C4.75044 11.2133 4.32408 10.8713 3.89577 10.4994C3.47077 10.1304 3.02859 9.71893 2.68742 9.33281C2.51751 9.14051 2.35855 8.93881 2.23846 8.7396C2.12941 8.5587 1.99952 8.29547 1.99951 8.00002C1.99952 7.70458 2.12941 7.4413 2.23846 7.2604C2.35855 7.06119 2.51751 6.85949 2.68742 6.66719C3.02859 6.28107 3.47077 5.86956 3.89577 5.50056C4.32408 5.12869 4.75044 4.78668 5.06853 4.53845C5.22636 4.41527 5.50526 4.20462 5.60152 4.13192L5.60417 4.12991C5.90064 3.91157 6.31797 3.97491 6.53631 4.27137C6.75464 4.56782 6.69132 4.98512 6.3949 5.20347C6.30614 5.27051 6.04193 5.4701 5.88883 5.58958C5.58191 5.8291 5.17493 6.15571 4.76991 6.50737C4.36158 6.8619 3.97042 7.22882 3.68659 7.55004C3.54401 7.71141 3.41362 7.89682 3.35142 8Z" fill="white"/>
</svg>
