<svg width="20" height="20" viewBox="0 0 20 20" fill="none" xmlns="http://www.w3.org/2000/svg">
<path fill-rule="evenodd" clip-rule="evenodd" d="M9.86926 1.45801C9.40161 1.45795 8.97433 1.45789 8.61903 1.5197C8.2135 1.59025 7.85378 1.74736 7.54936 2.0817C7.26534 2.39365 7.09657 2.7872 6.95924 3.23703C6.83483 3.64455 6.71936 4.15937 6.58087 4.79142L3.6586 4.79138C3.32848 4.79109 3.05308 4.79084 2.81728 4.84978C2.14305 5.01831 1.59101 5.54617 1.47628 6.25071C1.4366 6.49434 1.47476 6.76626 1.51484 7.05196L1.52485 7.12361L1.53805 7.21897C1.65796 8.08565 1.73442 8.63831 1.92758 9.10852C2.02751 9.35179 2.14997 9.58304 2.29231 9.80058L2.29231 11.2944C2.2923 12.8278 2.29229 14.0389 2.41255 14.986C2.53581 15.9567 2.79498 16.7444 3.385 17.3692C3.97978 17.9989 4.7378 18.2802 5.67115 18.4131C6.57245 18.5414 7.7221 18.5414 9.16438 18.5413H10.8368C12.2791 18.5414 13.4288 18.5414 14.3301 18.4131C15.2635 18.2802 16.0215 17.9989 16.6163 17.3692C17.2063 16.7444 17.4655 15.9567 17.5887 14.986C17.709 14.0389 17.709 12.8278 17.709 11.2944V9.80051C17.8513 9.58299 17.9737 9.35177 18.0737 9.10852C18.2668 8.63831 18.3433 8.08564 18.4632 7.21896L18.4764 7.12361L18.4864 7.05197C18.5265 6.76627 18.5646 6.49435 18.525 6.25071C18.4102 5.54617 17.8582 5.01831 17.184 4.84978C16.9482 4.79084 16.6728 4.79109 16.3426 4.79138L13.4203 4.79142C13.2818 4.15937 13.1664 3.64455 13.042 3.23703C12.9046 2.7872 12.7359 2.39365 12.4518 2.0817C12.1474 1.74736 11.7877 1.59025 11.3822 1.5197C11.0269 1.45789 10.5996 1.45795 10.1319 1.45801H9.86926ZM12.1403 4.79142C12.0285 4.28673 11.9388 3.90461 11.8464 3.60202C11.7279 3.21363 11.6254 3.03077 11.5276 2.92325C11.4501 2.83814 11.3652 2.78552 11.1679 2.7512C10.9321 2.71017 10.6148 2.70802 10.0859 2.70802H9.91531C9.38637 2.70802 9.06912 2.71017 8.83328 2.7512C8.63603 2.78552 8.55114 2.83814 8.47364 2.92325C8.37575 3.03077 8.27334 3.21363 8.15477 3.60202C8.06239 3.90461 7.97268 4.28673 7.86085 4.79142H12.1403ZM3.34761 9.12972C3.4041 9.18337 3.45057 9.24745 3.48392 9.31889C3.9514 9.91752 4.6596 10.3637 5.50044 10.5418C5.87605 10.6214 6.33079 10.6248 7.43181 10.6248H7.72625C7.73358 10.567 7.74397 10.5103 7.75866 10.4555C7.8935 9.95224 8.28659 9.55915 8.78985 9.4243C8.97864 9.37372 9.18951 9.37414 9.39165 9.37454L9.44508 9.37461H10.5562L10.6096 9.37454C10.8118 9.37414 11.0226 9.37372 11.2114 9.4243C11.7147 9.55915 12.1078 9.95224 12.2426 10.4555C12.2573 10.5103 12.2677 10.567 12.275 10.6248H12.5694C13.6704 10.6248 14.1252 10.6214 14.5008 10.5418C15.3417 10.3637 16.0499 9.91745 16.5174 9.31875C16.5508 9.24742 16.5972 9.18342 16.6536 9.12983C16.7578 8.97259 16.8463 8.80656 16.9174 8.63354C17.0426 8.32894 17.1004 7.94652 17.2382 6.95207C17.264 6.76592 17.28 6.6493 17.2877 6.56039C17.2953 6.47432 17.2912 6.45135 17.2912 6.45163C17.2664 6.29924 17.1317 6.12517 16.8808 6.06247C16.8159 6.04623 16.7122 6.04142 16.2709 6.04142H3.7303C3.289 6.04142 3.18538 6.04623 3.12041 6.06247C2.86957 6.12517 2.73484 6.29924 2.71003 6.45163C2.71007 6.45135 2.70598 6.47433 2.7135 6.56039C2.72127 6.6493 2.73724 6.76592 2.76303 6.95207C2.90079 7.94652 2.95869 8.32894 3.08382 8.63354C3.15488 8.80652 3.24337 8.97252 3.34761 9.12972ZM3.54231 11.2497V11.0532C4.04604 11.3898 4.62307 11.6337 5.2414 11.7647C5.76175 11.8749 6.35755 11.8749 7.34435 11.8748L7.71832 11.8748C7.82364 13.0427 8.80526 13.9579 10.0006 13.9579C11.196 13.9579 12.1776 13.0427 12.2829 11.8748L12.6569 11.8748C13.6437 11.8749 14.2395 11.8749 14.7598 11.7647C15.3782 11.6337 15.9552 11.3897 16.459 11.0532V11.2497C16.459 12.8377 16.4578 13.9694 16.3487 14.8285C16.2414 15.6732 16.0396 16.1593 15.7075 16.5109C15.3802 16.8574 14.9352 17.0643 14.154 17.1755C13.3509 17.2899 12.2904 17.2913 10.7877 17.2913H9.2136C7.71088 17.2913 6.65035 17.2899 5.84731 17.1755C5.0661 17.0643 4.62105 16.8574 4.29376 16.5109C3.96171 16.1593 3.75984 15.6732 3.65259 14.8285C3.54349 13.9694 3.54231 12.8377 3.54231 11.2497ZM8.96662 10.777C8.9862 10.7068 9.0411 10.6518 9.11135 10.6323C9.11539 10.6316 9.13175 10.6292 9.16969 10.6275C9.22997 10.6248 9.31025 10.6246 9.44508 10.6246H10.5562C10.691 10.6246 10.7713 10.6248 10.8316 10.6275C10.8695 10.6292 10.8859 10.6316 10.8899 10.6323C10.9602 10.6518 11.0151 10.7068 11.0346 10.777C11.0353 10.781 11.0377 10.7974 11.0394 10.8353C11.0421 10.8956 11.0423 10.9759 11.0423 11.1107V11.6663C11.0423 12.2416 10.5759 12.7079 10.0006 12.7079C9.42533 12.7079 8.95896 12.2416 8.95896 11.6663V11.1107C8.95896 10.9759 8.95912 10.8956 8.96187 10.8353C8.96359 10.7974 8.96595 10.781 8.96662 10.777Z" fill="#696C68"/>
</svg>
