<svg width="20" height="20" viewBox="0 0 20 20" fill="none" xmlns="http://www.w3.org/2000/svg">
<path d="M6.04167 5.00033C6.04167 4.65515 6.32149 4.37533 6.66667 4.37533H8.33333C8.67851 4.37533 8.95833 4.65515 8.95833 5.00033C8.95833 5.3455 8.67851 5.62533 8.33333 5.62533L6.66667 5.62533C6.32149 5.62533 6.04167 5.3455 6.04167 5.00033Z" fill="#696C68"/>
<path d="M6.04167 7.50033C6.04167 7.15515 6.32149 6.87533 6.66667 6.87533L8.33333 6.87533C8.67851 6.87533 8.95833 7.15515 8.95833 7.50033C8.95833 7.8455 8.67851 8.12533 8.33333 8.12533L6.66667 8.12533C6.32149 8.12533 6.04167 7.8455 6.04167 7.50033Z" fill="#696C68"/>
<path d="M6.04167 10.0003C6.04167 9.65515 6.32149 9.37533 6.66667 9.37533H8.33333C8.67851 9.37533 8.95833 9.65515 8.95833 10.0003C8.95833 10.3455 8.67851 10.6253 8.33333 10.6253H6.66667C6.32149 10.6253 6.04167 10.3455 6.04167 10.0003Z" fill="#696C68"/>
<path fill-rule="evenodd" clip-rule="evenodd" d="M5 1.04199C4.46939 1.04199 4.00082 1.06885 3.60269 1.15631C3.19749 1.24533 2.82644 1.40542 2.53243 1.69943C2.23843 1.99343 2.07834 2.36448 1.98932 2.76969C1.90186 3.16781 1.875 3.63638 1.875 4.16699L1.875 18.3337C1.875 18.6788 2.15482 18.9587 2.5 18.9587L17.5 18.9587C17.8452 18.9587 18.125 18.6788 18.125 18.3337V9.16699C18.125 8.63638 18.0981 8.16781 18.0107 7.76969C17.9217 7.36448 17.7616 6.99343 17.4676 6.69943C17.1736 6.40542 16.8025 6.24533 16.3973 6.15631C15.9992 6.06885 15.5306 6.04199 15 6.04199L13.125 6.04199L13.125 4.16699C13.125 3.63638 13.0981 3.16781 13.0107 2.76969C12.9217 2.36448 12.7616 1.99343 12.4676 1.69943C12.1736 1.40542 11.8025 1.24533 11.3973 1.15631C10.9992 1.06885 10.5306 1.04199 10 1.04199L5 1.04199ZM11.875 17.7087H10.2083L10.2083 14.963C10.2084 14.6024 10.2084 14.2717 10.1723 14.0027C10.1324 13.7064 10.0387 13.3933 9.7812 13.1358C9.52368 12.8783 9.21058 12.7846 8.91434 12.7447C8.64534 12.7086 8.31464 12.7086 7.95396 12.7087H7.04605C6.68537 12.7086 6.35468 12.7086 6.08567 12.7447C5.78943 12.7846 5.47633 12.8783 5.21881 13.1358C4.96129 13.3933 4.86758 13.7064 4.82776 14.0027C4.79159 14.2717 4.79163 14.6024 4.79167 14.963L4.79167 17.7087H3.125L3.125 4.16699C3.125 3.66343 3.1521 3.30242 3.21021 3.03789C3.26677 2.78044 3.34386 2.65576 3.41632 2.58331C3.48877 2.51085 3.61345 2.43376 3.8709 2.3772C4.13543 2.31909 4.49644 2.29199 5 2.29199L10 2.29199C10.5036 2.29199 10.8646 2.31909 11.1291 2.3772C11.3866 2.43376 11.5112 2.51085 11.5837 2.58331C11.6561 2.65576 11.7332 2.78044 11.7898 3.03789C11.8479 3.30242 11.875 3.66343 11.875 4.16699L11.875 17.7087ZM6.04167 17.7087L6.04167 15.0003C6.04167 14.5898 6.043 14.3448 6.06661 14.1692C6.07743 14.0888 6.09017 14.0485 6.09764 14.0303C6.09937 14.0261 6.10071 14.0233 6.10156 14.0217L6.1027 14.0197L6.10473 14.0185C6.10634 14.0177 6.10911 14.0164 6.11331 14.0146C6.13146 14.0072 6.17176 13.9944 6.25223 13.9836C6.42783 13.96 6.67283 13.9587 7.08334 13.9587H7.91667C8.32718 13.9587 8.57218 13.96 8.74779 13.9836C8.82825 13.9944 8.86855 14.0072 8.8867 14.0146C8.89091 14.0164 8.89367 14.0177 8.89528 14.0185L8.89731 14.0197L8.89846 14.0217C8.8993 14.0233 8.90064 14.0261 8.90237 14.0303C8.90984 14.0485 8.92258 14.0888 8.9334 14.1692C8.95701 14.3448 8.95834 14.5898 8.95834 15.0003V17.7087H6.04167ZM13.125 7.29199L15 7.29199C15.5036 7.29199 15.8646 7.31909 16.1291 7.3772C16.3866 7.43376 16.5112 7.51085 16.5837 7.58331C16.6561 7.65576 16.7332 7.78044 16.7898 8.03789C16.8479 8.30242 16.875 8.66343 16.875 9.16699L16.875 17.7087H13.125L13.125 7.29199Z" fill="#696C68"/>
</svg>
