<svg width="40" height="40" viewBox="0 0 40 40" fill="none" xmlns="http://www.w3.org/2000/svg">
<path opacity="0.4" d="M7.20539 2.31214C8.00164 2.13722 8.93878 2.0835 10 2.0835L20 2.0835C21.0612 2.0835 21.9984 2.13722 22.7946 2.31214C23.605 2.49017 24.3471 2.81036 24.9351 3.39836C25.5231 3.98637 25.8433 4.72848 26.0214 5.53888C26.1963 6.33514 26.25 7.27228 26.25 8.3335L26.25 36.6668C26.25 37.3572 25.6904 37.9168 25 37.9168L5 37.9168C4.30964 37.9168 3.75 37.3572 3.75 36.6668L3.75 8.3335C3.75 7.27228 3.80372 6.33514 3.97864 5.53888C4.15668 4.72848 4.47686 3.98637 5.06487 3.39836C5.65287 2.81036 6.39498 2.49017 7.20539 2.31214Z" fill="#AE6675"/>
<path d="M12.1714 25.4888C12.7094 25.4165 13.3708 25.4166 14.0921 25.4167H15.908C16.6293 25.4166 17.2907 25.4165 17.8287 25.4888C18.4212 25.5685 19.0474 25.7559 19.5624 26.2709C20.0775 26.786 20.2649 27.4122 20.3446 28.0047C20.4169 28.5427 20.4168 29.2041 20.4167 29.9255L20.4167 37.9167H17.9167V30C17.9167 29.179 17.9141 28.689 17.8668 28.3378C17.8285 28.0529 17.7812 28.0049 17.4956 27.9665C17.1444 27.9193 16.6544 27.9167 15.8334 27.9167H14.1667C13.3457 27.9167 12.8557 27.9193 12.5045 27.9665C12.2074 28.0065 12.1723 28.0472 12.1333 28.3378C12.086 28.689 12.0834 29.179 12.0834 30L12.0834 37.9167H9.58339L9.58338 29.9254C9.58329 29.2041 9.58322 28.5427 9.65555 28.0047C9.73521 27.4122 9.92262 26.786 10.4377 26.2709C10.9527 25.7559 11.5789 25.5685 12.1714 25.4888Z" fill="#AE6675"/>
<path d="M26.25 11.25L29.5834 11.25C30.6536 11.25 31.6266 11.3036 32.4674 11.4883C33.327 11.6772 34.1513 12.0251 34.8131 12.6869C35.475 13.3488 35.8228 14.173 36.0117 15.0327C36.1964 15.8734 36.25 16.8464 36.25 17.9167L36.25 36.25C36.25 37.1705 35.5039 37.9167 34.5834 37.9167L25 37.9167C25.6904 37.9167 26.25 37.357 26.25 36.6667V34.5833L32.9167 34.5833L32.9167 17.9167C32.9167 16.9186 32.8624 16.2324 32.756 15.7479C32.6537 15.2822 32.5272 15.115 32.4561 15.0439C32.3851 14.9729 32.2178 14.8463 31.7522 14.744C31.2676 14.6376 30.5815 14.5833 29.5834 14.5833L26.25 14.5833V11.25Z" fill="#AE6675"/>
<path d="M12.0834 10C12.0834 9.30964 12.643 8.75 13.3334 8.75H16.6667C17.3571 8.75 17.9167 9.30964 17.9167 10C17.9167 10.6904 17.3571 11.25 16.6667 11.25L13.3334 11.25C12.643 11.25 12.0834 10.6904 12.0834 10Z" fill="#AE6675"/>
<path d="M12.0834 15C12.0834 14.3096 12.643 13.75 13.3334 13.75L16.6667 13.75C17.3571 13.75 17.9167 14.3096 17.9167 15C17.9167 15.6904 17.3571 16.25 16.6667 16.25H13.3334C12.643 16.25 12.0834 15.6904 12.0834 15Z" fill="#AE6675"/>
<path d="M12.0834 20C12.0834 19.3096 12.643 18.75 13.3334 18.75H16.6667C17.3571 18.75 17.9167 19.3096 17.9167 20C17.9167 20.6904 17.3571 21.25 16.6667 21.25H13.3334C12.643 21.25 12.0834 20.6904 12.0834 20Z" fill="#AE6675"/>
</svg>
