<svg width="20" height="20" viewBox="0 0 20 20" fill="none" xmlns="http://www.w3.org/2000/svg">
<path d="M9.16665 10.2087C8.82147 10.2087 8.54165 10.4885 8.54165 10.8337C8.54165 11.1788 8.82147 11.4587 9.16665 11.4587H13.3333C13.6785 11.4587 13.9583 11.1788 13.9583 10.8337C13.9583 10.4885 13.6785 10.2087 13.3333 10.2087H9.16665Z" fill="#696C68"/>
<path d="M6.66665 10.2087C6.32147 10.2087 6.04165 10.4885 6.04165 10.8337C6.04165 11.1788 6.32147 11.4587 6.66665 11.4587H6.67413C7.01931 11.4587 7.29913 11.1788 7.29913 10.8337C7.29913 10.4885 7.01931 10.2087 6.67413 10.2087H6.66665Z" fill="#696C68"/>
<path d="M6.66665 13.542C6.32147 13.542 6.04165 13.8218 6.04165 14.167C6.04165 14.5122 6.32147 14.792 6.66665 14.792H10.8333C11.1785 14.792 11.4583 14.5122 11.4583 14.167C11.4583 13.8218 11.1785 13.542 10.8333 13.542H6.66665Z" fill="#696C68"/>
<path d="M13.3258 13.542C12.9807 13.542 12.7008 13.8218 12.7008 14.167C12.7008 14.5122 12.9807 14.792 13.3258 14.792H13.3333C13.6785 14.792 13.9583 14.5122 13.9583 14.167C13.9583 13.8218 13.6785 13.542 13.3333 13.542H13.3258Z" fill="#696C68"/>
<path fill-rule="evenodd" clip-rule="evenodd" d="M5.62498 1.66699C5.62498 1.32181 5.34516 1.04199 4.99998 1.04199C4.6548 1.04199 4.37498 1.32181 4.37498 1.66699V2.19598C3.70435 2.38606 3.13873 2.69499 2.66793 3.20396C2.01967 3.90478 1.73152 4.79026 1.59352 5.89992C1.4583 6.98725 1.4583 8.38071 1.45831 10.1587V10.6753C1.4583 12.4533 1.4583 13.8467 1.59352 14.9341C1.73152 16.0437 2.01967 16.9292 2.66793 17.63C3.3226 18.3378 4.16062 18.6587 5.20938 18.8112C6.22441 18.9587 7.52127 18.9587 9.15768 18.9587H10.8423C12.4787 18.9587 13.7755 18.9587 14.7906 18.8112C15.8393 18.6587 16.6774 18.3378 17.332 17.63C17.9803 16.9292 18.2684 16.0437 18.4064 14.9341C18.5417 13.8467 18.5417 12.4533 18.5416 10.6753V10.1587C18.5417 8.38073 18.5417 6.98725 18.4064 5.89992C18.2684 4.79026 17.9803 3.90478 17.332 3.20396C16.8612 2.69499 16.2956 2.38606 15.625 2.19598V1.66699C15.625 1.32181 15.3452 1.04199 15 1.04199C14.6548 1.04199 14.375 1.32181 14.375 1.66699V1.9719C13.4283 1.8753 12.2633 1.87531 10.8423 1.87533H9.15768C7.73667 1.87531 6.5717 1.8753 5.62498 1.9719V1.66699ZM3.58556 4.05276C3.80167 3.81912 4.05939 3.64025 4.39881 3.5052C4.47337 3.76697 4.71429 3.95866 4.99998 3.95866C5.34516 3.95866 5.62498 3.67884 5.62498 3.33366V3.22915C6.50915 3.12662 7.65196 3.12533 9.20831 3.12533H10.7916C12.348 3.12533 13.4908 3.12662 14.375 3.22915V3.33366C14.375 3.67884 14.6548 3.95866 15 3.95866C15.2857 3.95866 15.5266 3.76697 15.6011 3.5052C15.9406 3.64025 16.1983 3.81912 16.4144 4.05276C16.8079 4.47822 17.0412 5.06146 17.1645 6.04199H2.83549C2.95875 5.06146 3.19201 4.47822 3.58556 4.05276ZM2.74075 7.29199C2.70877 8.0894 2.70831 9.04266 2.70831 10.203V10.631C2.70831 12.4629 2.70945 13.7786 2.83396 14.7798C2.95682 15.7677 3.19038 16.354 3.58556 16.7812C3.97432 17.2015 4.49771 17.4446 5.38918 17.5742C6.30395 17.7071 7.50988 17.7087 9.20831 17.7087H10.7916C12.4901 17.7087 13.696 17.7071 14.6108 17.5742C15.5022 17.4446 16.0256 17.2015 16.4144 16.7812C16.8096 16.354 17.0431 15.7677 17.166 14.7798C17.2905 13.7786 17.2916 12.4629 17.2916 10.631V10.203C17.2916 9.04266 17.2912 8.0894 17.2592 7.29199H2.74075Z" fill="#696C68"/>
</svg>
