<svg width="20" height="20" viewBox="0 0 20 20" fill="none" xmlns="http://www.w3.org/2000/svg">
<path d="M7.49992 10.2087C7.15474 10.2087 6.87492 10.4885 6.87492 10.8337C6.87492 11.1788 7.15474 11.4587 7.49992 11.4587H7.70824L7.70825 14.167C7.70825 14.5122 7.98808 14.792 8.33325 14.792C8.67843 14.792 8.95825 14.5122 8.95825 14.167L8.95824 11.123C8.95824 10.6958 8.63741 10.2087 8.07874 10.2087H7.49992Z" fill="#696C68"/>
<path d="M10.8333 10.2087C10.4881 10.2087 10.2083 10.4885 10.2083 10.8337C10.2083 11.1788 10.4881 11.4587 10.8333 11.4587H11.6962L10.772 13.9496C10.6519 14.2732 10.8169 14.6329 11.1406 14.753C11.4642 14.873 11.8239 14.708 11.9439 14.3844L13.0727 11.342C13.2963 10.7393 12.8055 10.2087 12.2672 10.2087H10.8333Z" fill="#696C68"/>
<path d="M4.99992 6.04199C4.65474 6.04199 4.37492 6.32181 4.37492 6.66699C4.37492 7.01217 4.65474 7.29199 4.99992 7.29199H14.9999C15.3451 7.29199 15.6249 7.01217 15.6249 6.66699C15.6249 6.32181 15.3451 6.04199 14.9999 6.04199H4.99992Z" fill="#696C68"/>
<path fill-rule="evenodd" clip-rule="evenodd" d="M5.62492 1.66699C5.62492 1.32181 5.3451 1.04199 4.99992 1.04199C4.65474 1.04199 4.37492 1.32181 4.37492 1.66699V2.19598C3.70429 2.38606 3.13867 2.69499 2.66787 3.20396C2.01961 3.90478 1.73146 4.79026 1.59346 5.89992C1.45824 6.98725 1.45824 8.38071 1.45825 10.1587V10.6753C1.45824 12.4533 1.45824 13.8467 1.59346 14.9341C1.73146 16.0437 2.01961 16.9292 2.66787 17.63C3.32254 18.3378 4.16056 18.6587 5.20932 18.8112C6.22435 18.9587 7.52121 18.9587 9.15762 18.9587H10.8422C12.4786 18.9587 13.7755 18.9587 14.7905 18.8112C15.8393 18.6587 16.6773 18.3378 17.332 17.63C17.9802 16.9292 18.2684 16.0437 18.4064 14.9341C18.5416 13.8467 18.5416 12.4533 18.5416 10.6753V10.1587C18.5416 8.38073 18.5416 6.98725 18.4064 5.89992C18.2684 4.79026 17.9802 3.90478 17.332 3.20396C16.8612 2.69499 16.2956 2.38606 15.6249 2.19598V1.66699C15.6249 1.32181 15.3451 1.04199 14.9999 1.04199C14.6547 1.04199 14.3749 1.32181 14.3749 1.66699V1.9719C13.4282 1.8753 12.2632 1.87531 10.8422 1.87533H9.15762C7.73661 1.87531 6.57164 1.8753 5.62492 1.9719V1.66699ZM3.5855 4.05276C3.80161 3.81912 4.05933 3.64025 4.39875 3.5052C4.47331 3.76697 4.71423 3.95866 4.99992 3.95866C5.3451 3.95866 5.62492 3.67884 5.62492 3.33366V3.22915C6.50909 3.12662 7.6519 3.12533 9.20825 3.12533H10.7916C12.3479 3.12533 13.4907 3.12662 14.3749 3.22915V3.33366C14.3749 3.67884 14.6547 3.95866 14.9999 3.95866C15.2856 3.95866 15.5265 3.76697 15.6011 3.5052C15.9405 3.64025 16.1982 3.81912 16.4143 4.05276C16.8095 4.47998 17.0431 5.06629 17.1659 6.05418C17.2904 7.05538 17.2916 8.37111 17.2916 10.203V10.631C17.2916 12.4629 17.2904 13.7786 17.1659 14.7798C17.0431 15.7677 16.8095 16.354 16.4143 16.7812C16.0256 17.2015 15.5022 17.4446 14.6107 17.5742C13.696 17.7071 12.49 17.7087 10.7916 17.7087H9.20825C7.50982 17.7087 6.30388 17.7071 5.38912 17.5742C4.49765 17.4446 3.97426 17.2015 3.5855 16.7812C3.19032 16.354 2.95676 15.7677 2.8339 14.7798C2.70939 13.7786 2.70825 12.4629 2.70825 10.631V10.203C2.70825 8.37111 2.70939 7.05538 2.8339 6.05418C2.95676 5.06629 3.19032 4.47998 3.5855 4.05276Z" fill="#696C68"/>
</svg>
