<svg width="20" height="20" viewBox="0 0 20 20" fill="none" xmlns="http://www.w3.org/2000/svg">
<path fill-rule="evenodd" clip-rule="evenodd" d="M4.4304 1.07149C4.90264 1.16909 5.27872 1.48637 5.51238 1.90557L6.25672 3.24093C6.53089 3.73277 6.76162 4.14668 6.9123 4.50649C7.07214 4.88817 7.16707 5.26455 7.12367 5.68069C7.08028 6.09682 6.90973 6.44552 6.67459 6.78601C6.45291 7.10699 6.14175 7.46438 5.772 7.88907L3.91545 10.0216C5.38782 12.4349 7.56193 14.61 9.97773 16.0839L12.1103 14.2273C12.5349 13.8576 12.8923 13.5464 13.2133 13.3247C13.5538 13.0896 13.9025 12.919 14.3186 12.8757C14.7348 12.8323 15.1112 12.9272 15.4928 13.087C15.8526 13.2377 16.2666 13.4684 16.7584 13.7426L18.0938 14.4869C18.513 14.7206 18.8302 15.0967 18.9278 15.5689C19.0265 16.0461 18.881 16.5257 18.5597 16.9199C17.3939 18.3502 15.5262 19.2609 13.5669 18.8657C12.3625 18.6227 11.1741 18.2179 9.73689 17.3937C6.8491 15.7375 4.25987 13.1469 2.60564 10.2624C1.78138 8.82518 1.37662 7.63685 1.13366 6.43247C0.738416 4.47311 1.64911 2.60538 3.07941 1.43963C3.47361 1.11834 3.95323 0.972866 4.4304 1.07149ZM11.142 16.7276C12.114 17.2065 12.9594 17.4679 13.814 17.6403C15.2274 17.9255 16.6543 17.2792 17.5908 16.1302C17.7137 15.9793 17.7145 15.874 17.7037 15.8219C17.6919 15.7649 17.6442 15.6674 17.4852 15.5788L16.1797 14.8511C15.65 14.5559 15.2974 14.3604 15.01 14.24C14.7372 14.1258 14.5807 14.1051 14.4483 14.1189C14.3159 14.1327 14.167 14.1852 13.9236 14.3533C13.6673 14.5304 13.3626 14.7944 12.9052 15.1926L11.142 16.7276ZM3.27173 8.85732L4.80671 7.09415C5.20491 6.63677 5.46897 6.33205 5.64603 6.07568C5.8141 5.83231 5.86661 5.6834 5.88041 5.55103C5.89422 5.41867 5.87356 5.26213 5.75932 4.98932C5.63897 4.70193 5.44345 4.34929 5.14819 3.81959L4.42054 2.51416C4.33189 2.35512 4.23441 2.3074 4.17739 2.29562C4.12531 2.28485 4.02 2.28561 3.86914 2.40856C2.72015 3.34503 2.07387 4.77192 2.35898 6.18529C2.53138 7.03994 2.79279 7.88534 3.27173 8.85732Z" fill="#696C68"/>
</svg>
