<svg width="48" height="48" viewBox="0 0 48 48" fill="none" xmlns="http://www.w3.org/2000/svg">
<path opacity="0.4" d="M19.1867 10.5C22.1395 10.5 24.5063 10.4999 26.365 10.7474C28.2883 11.0036 29.8911 11.5489 31.163 12.8088C32.437 14.0706 32.9903 15.6639 33.2498 17.5757C33.5001 19.4195 33.5 21.7662 33.5 24.6886V31.3114C33.5 34.2338 33.5001 36.5805 33.2498 38.4243C32.9903 40.3361 32.437 41.9294 31.163 43.1912C29.8911 44.4511 28.2883 44.9964 26.365 45.2526C24.5064 45.5001 22.1395 45.5 19.1867 45.5H16.8133C13.8605 45.5 11.4936 45.5001 9.63501 45.2526C7.71171 44.9964 6.10894 44.4511 4.83697 43.1912C3.56301 41.9294 3.0097 40.3361 2.7502 38.4243C2.49993 36.5805 2.49996 34.2338 2.5 31.3115V31.3114V24.6886V24.6886C2.49996 21.7662 2.49993 19.4195 2.7502 17.5757C3.0097 15.6639 3.56301 14.0706 4.83697 12.8088C6.10894 11.5489 7.71171 11.0036 9.63501 10.7474C11.4937 10.4999 13.8605 10.5 16.8133 10.5H16.8134H19.1866H19.1867Z" fill="#B3707D"/>
<path d="M32.5588 2.5C35.05 2.49993 37.1219 2.49986 38.7654 2.72326C40.4996 2.95897 42.0521 3.47625 43.2959 4.73374C44.5368 5.9882 45.0444 7.54885 45.2762 9.29163C45.4966 10.9489 45.4965 13.0396 45.4964 15.5615V21.4385C45.4965 23.9604 45.4966 26.0512 45.2762 27.7084C45.0444 29.4512 44.5368 31.0118 43.2959 32.2663C42.0521 33.5238 40.4996 34.041 38.7654 34.2768C37.3291 34.472 35.5657 34.4966 33.4812 34.4996C33.4964 33.5231 33.4964 32.4619 33.4964 31.3114V30.4993C35.5845 30.4952 37.0736 30.4699 38.2267 30.3132C39.5093 30.1389 40.0735 29.836 40.4521 29.4533C40.8337 29.0676 41.1372 28.4882 41.3111 27.1811C41.4923 25.8186 41.4964 23.9958 41.4964 21.3V15.7C41.4964 13.0042 41.4923 11.1814 41.3111 9.81894C41.1372 8.51181 40.8337 7.93242 40.4521 7.54668C40.0735 7.16397 39.5093 6.86115 38.2267 6.68681C36.8842 6.50435 35.0864 6.50001 32.418 6.50001H30.5716C27.9033 6.50001 26.1054 6.50435 24.763 6.68681C24.4066 6.73525 24.2957 7.16686 24.5664 7.4037L29.2616 11.512C28.3944 11.1201 27.4271 10.8894 26.3614 10.7474C24.5028 10.4999 22.1359 10.5 19.183 10.5H17.5938C17.6272 10.0263 17.6721 9.57758 17.7324 9.15426C17.9219 7.82221 18.283 6.58001 19.0479 5.50217C19.242 5.22875 19.4571 4.97297 19.6937 4.73374C20.9375 3.47625 22.49 2.95897 24.2242 2.72326C25.8678 2.49986 27.9397 2.49993 30.4309 2.5H32.5588Z" fill="#B3707D"/>
<path d="M12 22C10.8954 22 10 22.8954 10 24C10 25.1046 10.8954 26 12 26H18C19.1046 26 20 25.1046 20 24C20 22.8954 19.1046 22 18 22H12Z" fill="#B3707D"/>
<path d="M12 32C10.8954 32 10 32.8954 10 34C10 35.1046 10.8954 36 12 36H22C23.1046 36 24 35.1046 24 34C24 32.8954 23.1046 32 22 32H12Z" fill="#B3707D"/>
</svg>
