<svg width="50" height="50" viewBox="0 0 50 50" fill="none" xmlns="http://www.w3.org/2000/svg">
<path opacity="0.4" d="M45.8337 24.9994C45.8337 13.4931 36.5066 4.16602 25.0003 4.16602C13.4941 4.16602 4.16699 13.4931 4.16699 24.9994C4.16699 36.5056 13.4941 45.8327 25.0003 45.8327C36.5066 45.8327 45.8337 36.5056 45.8337 24.9994Z" fill="#1E874C"/>
<path d="M20.327 32.0513C20.6083 32.5243 21.1187 32.8117 21.6666 32.8117H21.6687C21.682 32.8117 21.6958 32.8112 21.7099 32.8107C21.7244 32.8102 21.7393 32.8097 21.7541 32.8097C22.3333 32.7764 22.8479 32.4263 23.0895 31.8993C23.1375 31.7951 27.9583 21.3868 34.0854 18.0368C34.8416 17.6222 35.1208 16.6721 34.7062 15.9159C34.2916 15.1596 33.3416 14.8805 32.5854 15.2951C27.4083 18.1263 23.2916 24.8138 21.3875 28.3429C19.5937 26.4471 17.5541 25.2701 17.4416 25.2055C16.6937 24.7785 15.7416 25.0388 15.3125 25.7867C14.8854 26.5346 15.1437 27.4888 15.8916 27.9179C15.9208 27.9346 18.8979 29.6638 20.327 32.0513Z" fill="#1E874C"/>
<path fill-rule="evenodd" clip-rule="evenodd" d="M2.60449 24.9994C2.60449 37.3493 12.6503 47.3952 25.0003 47.3952C37.3503 47.3952 47.3962 37.3493 47.3962 24.9994C47.3962 12.6494 37.3503 2.60352 25.0003 2.60352C12.6503 2.60352 2.60449 12.6494 2.60449 24.9994ZM5.72949 24.9994C5.72949 14.3743 14.3753 5.72852 25.0003 5.72852C35.6253 5.72852 44.2712 14.3743 44.2712 24.9994C44.2712 35.6244 35.6253 44.2702 25.0003 44.2702C14.3753 44.2702 5.72949 35.6244 5.72949 24.9994Z" fill="#1E874C"/>
</svg>
