<svg width="16" height="16" viewBox="0 0 16 16" fill="none" xmlns="http://www.w3.org/2000/svg">
<path opacity="0.4" d="M7.04417 1.20267C7.32151 0.990672 7.62616 0.833336 8.00016 0.833336C8.37416 0.833336 8.67882 0.990672 8.95615 1.20267C9.21615 1.40067 9.50282 1.68733 9.83815 2.02266L9.86149 2.04603C10.2048 2.38936 10.5035 2.52403 10.9655 2.52403C11.0228 2.52403 11.0962 2.52199 11.1788 2.51999C11.3888 2.51399 11.6602 2.50598 11.8975 2.52598C12.2448 2.55531 12.6802 2.64866 13.0128 2.978C13.3475 3.31 13.4428 3.74733 13.4735 4.09733C13.4942 4.33667 13.4862 4.61002 13.4802 4.82136C13.4782 4.90402 13.4762 4.97664 13.4762 5.03464C13.4762 5.3353 13.5095 5.50334 13.5675 5.63601C13.6268 5.77201 13.7315 5.91601 13.9542 6.13867L13.9775 6.16198C14.3128 6.49732 14.5995 6.78401 14.7975 7.04401C15.0095 7.32135 15.1668 7.626 15.1668 8C15.1668 8.374 15.0095 8.67866 14.7975 8.95599C14.5995 9.21599 14.3128 9.50269 13.9775 9.83802L13.9542 9.86133C13.7315 10.084 13.6268 10.228 13.5675 10.364C13.5095 10.4967 13.4762 10.6647 13.4762 10.9654C13.4762 11.0234 13.4782 11.096 13.4802 11.1786C13.4862 11.39 13.4942 11.6633 13.4735 11.9027C13.4428 12.2527 13.3475 12.69 13.0128 13.022C12.6802 13.3513 12.2448 13.4447 11.8975 13.474C11.6602 13.494 11.3888 13.486 11.1788 13.48C11.0962 13.478 11.0235 13.476 10.9655 13.476C10.6715 13.476 10.5062 13.5053 10.3762 13.5593C10.2462 13.6126 10.1068 13.7086 9.89749 13.918C9.85283 13.9626 9.79349 14.026 9.72549 14.0994C9.57215 14.2634 9.37282 14.4766 9.18682 14.64C8.90415 14.8866 8.49883 15.1667 8.00016 15.1667C7.5015 15.1667 7.09618 14.8866 6.81351 14.64C6.62751 14.4766 6.42817 14.2634 6.27484 14.0994C6.20684 14.026 6.1475 13.9626 6.10283 13.918C5.8935 13.7086 5.75415 13.6126 5.62415 13.5593C5.49415 13.5053 5.32883 13.476 5.03483 13.476C4.97683 13.476 4.90415 13.478 4.82148 13.48C4.61148 13.486 4.34017 13.494 4.10283 13.474C3.7555 13.4447 3.32017 13.3513 2.9875 13.022C2.65283 12.69 2.55749 12.2527 2.52682 11.9027C2.50616 11.6633 2.51415 11.39 2.52015 11.1786C2.52215 11.096 2.52415 11.0234 2.52415 10.9654C2.52415 10.6647 2.49085 10.4967 2.43285 10.364C2.37351 10.228 2.26883 10.084 2.04616 9.86133L2.02282 9.83802C1.68749 9.50269 1.40083 9.21599 1.20283 8.95599C0.990832 8.67866 0.833496 8.374 0.833496 8C0.833496 7.626 0.990832 7.32135 1.20283 7.04401C1.40083 6.78401 1.68749 6.49732 2.02282 6.16198L2.04616 6.13867C2.38949 5.79534 2.52415 5.49597 2.52415 5.03464C2.52415 4.97664 2.52215 4.90402 2.52015 4.82136C2.51415 4.61136 2.50617 4.34001 2.52617 4.10267C2.55551 3.75534 2.64882 3.31997 2.97816 2.98731C3.31016 2.65264 3.74749 2.55736 4.09749 2.5267C4.33683 2.50603 4.61015 2.51399 4.82148 2.51999C4.90415 2.52199 4.97683 2.52403 5.03483 2.52403C5.49616 2.52403 5.7955 2.38936 6.13883 2.04603L6.16217 2.02266C6.49751 1.68733 6.78417 1.40067 7.04417 1.20267Z" fill="#AE6675"/>
<path d="M15.2846 1.08344C15.4226 1.42477 15.258 1.81341 14.9166 1.95141C14.2206 2.23341 13.47 2.82213 12.7166 3.60746C11.9713 4.3848 11.264 5.3108 10.648 6.21013C10.034 7.10746 9.5193 7.96609 9.15797 8.60076C8.96397 8.94142 8.77264 9.28476 8.5953 9.63409C8.47864 9.86409 8.23931 10.0074 7.98131 10.0001C7.72331 9.99277 7.49262 9.83742 7.38928 9.60076C6.85128 8.37142 6.27464 7.88544 5.91197 7.68878C5.63264 7.53811 5.44395 7.53479 5.40595 7.53546H5.40195C5.04595 7.57212 4.72195 7.32008 4.67262 6.96208C4.62328 6.59742 4.87795 6.26143 5.24329 6.21143C5.68662 6.1521 6.16264 6.30877 6.54664 6.51677C7.01797 6.77211 7.52663 7.20879 8.00396 7.93279C8.3773 7.27679 8.90997 6.38875 9.54797 5.45675C10.1873 4.52275 10.9406 3.53274 11.754 2.68474C12.56 1.84474 13.466 1.1008 14.4166 0.71547C14.758 0.57747 15.1466 0.742105 15.2846 1.08344Z" fill="#AE6675"/>
</svg>
