<svg width="20" height="20" viewBox="0 0 20 20" fill="none" xmlns="http://www.w3.org/2000/svg">
<path d="M8.54199 9.99925C8.54199 9.65407 8.82182 9.37425 9.16699 9.37425H10.8337C11.1788 9.37425 11.4587 9.65407 11.4587 9.99925C11.4587 10.3444 11.1788 10.6242 10.8337 10.6242H9.16699C8.82182 10.6242 8.54199 10.3444 8.54199 9.99925Z" fill="#696C68"/>
<path d="M8.54199 12.4992C8.54199 12.1541 8.82182 11.8742 9.16699 11.8742H10.8337C11.1788 11.8742 11.4587 12.1541 11.4587 12.4992C11.4587 12.8444 11.1788 13.1242 10.8337 13.1242H9.16699C8.82182 13.1242 8.54199 12.8444 8.54199 12.4992Z" fill="#696C68"/>
<path d="M8.54199 14.9992C8.54199 14.6541 8.82182 14.3742 9.16699 14.3742H10.8337C11.1788 14.3742 11.4587 14.6541 11.4587 14.9992C11.4587 15.3444 11.1788 15.6242 10.8337 15.6242H9.16699C8.82182 15.6242 8.54199 15.3444 8.54199 14.9992Z" fill="#696C68"/>
<path fill-rule="evenodd" clip-rule="evenodd" d="M1.66699 17.7076C1.32181 17.7076 1.04199 17.9874 1.04199 18.3326C1.04199 18.6778 1.32181 18.9576 1.66699 18.9576L18.3337 18.9576C18.6788 18.9576 18.9587 18.6778 18.9587 18.3326C18.9587 17.9874 18.6788 17.7076 18.3337 17.7076H18.1253L18.1253 6.79027C18.1253 6.30431 18.1254 5.89367 18.091 5.55469C18.0546 5.19489 17.9757 4.86359 17.7861 4.55033C17.596 4.23629 17.3395 4.01425 17.0379 3.81832C16.7551 3.63457 16.3943 3.45033 15.9695 3.23346L12.3239 1.37205C12.0695 1.24216 11.8179 1.13188 11.5826 1.07805C11.3494 1.0247 11.0285 1.00374 10.7344 1.19406C10.4457 1.38094 10.3303 1.67704 10.2775 1.90331C10.2233 2.13551 10.2087 2.40705 10.2087 2.68983L10.2087 6.04091L8.33366 6.04091C7.80305 6.04091 7.33448 6.06778 6.93635 6.15524C6.53115 6.24425 6.1601 6.40434 5.86609 6.69835C5.57209 6.99235 5.412 7.3634 5.32298 7.76861C5.23552 8.16673 5.20866 8.6353 5.20866 9.16591V9.37425L3.33366 9.37425C3.14777 9.37425 2.95573 9.38312 2.77849 9.42206C2.59417 9.46255 2.38836 9.54358 2.21651 9.71543C2.04466 9.88728 1.96363 10.0931 1.92314 10.2774C1.8842 10.4547 1.87533 10.6467 1.87533 10.8326L1.87533 17.7076H1.66699ZM3.12533 17.7076L3.12533 10.8326C3.12533 10.7445 3.12813 10.6793 3.13226 10.6312C3.18033 10.6271 3.24556 10.6242 3.33366 10.6242L5.20866 10.6242L5.20866 17.7076H3.12533ZM6.45866 17.7076L6.45866 9.16591C6.45866 8.66236 6.48576 8.30134 6.54387 8.03681C6.60043 7.77936 6.67752 7.65469 6.74998 7.58223C6.82243 7.50978 6.94711 7.43268 7.20456 7.37612C7.46909 7.31801 7.8301 7.29091 8.33366 7.29091L11.667 7.29091C12.1706 7.29091 12.5316 7.31801 12.7961 7.37612C13.0535 7.43268 13.1782 7.50978 13.2507 7.58223C13.3231 7.65469 13.4002 7.77936 13.4568 8.03681C13.5149 8.30134 13.542 8.66236 13.542 9.16591L13.542 17.7076L6.45866 17.7076ZM14.792 17.7076L14.792 9.16591C14.792 8.6353 14.7651 8.16673 14.6777 7.76861C14.5887 7.3634 14.4286 6.99235 14.1346 6.69835C13.8406 6.40434 13.4695 6.24425 13.0643 6.15524C12.6662 6.06778 12.1976 6.04091 11.667 6.04091H11.4587L11.4587 2.68983C11.4587 2.54878 11.4632 2.43833 11.4708 2.35264C11.5454 2.38296 11.6391 2.42591 11.7555 2.48533L15.3735 4.33266C15.8333 4.56742 16.1353 4.72251 16.3569 4.86649C16.5658 5.00227 16.6579 5.10031 16.7167 5.19755C16.776 5.29557 16.8216 5.42581 16.8474 5.68061C16.8746 5.94921 16.8753 6.29623 16.8753 6.82059L16.8753 17.7076H14.792Z" fill="#696C68"/>
</svg>
