<svg width="20" height="20" viewBox="0 0 20 20" fill="none" xmlns="http://www.w3.org/2000/svg">
<path d="M9.16699 6.04102C8.82182 6.04102 8.54199 6.32084 8.54199 6.66602C8.54199 7.01119 8.82182 7.29102 9.16699 7.29102L10.8337 7.29102C11.1788 7.29102 11.4587 7.01119 11.4587 6.66602C11.4587 6.32084 11.1788 6.04102 10.8337 6.04102L9.16699 6.04102Z" fill="#696C68"/>
<path d="M9.16699 8.95768C8.82182 8.95768 8.54199 9.2375 8.54199 9.58268C8.54199 9.92786 8.82182 10.2077 9.16699 10.2077H10.8337C11.1788 10.2077 11.4587 9.92786 11.4587 9.58268C11.4587 9.2375 11.1788 8.95768 10.8337 8.95768L9.16699 8.95768Z" fill="#696C68"/>
<path d="M9.16699 11.8743C8.82182 11.8743 8.54199 12.1542 8.54199 12.4993C8.54199 12.8445 8.82182 13.1243 9.16699 13.1243H10.8337C11.1788 13.1243 11.4587 12.8445 11.4587 12.4993C11.4587 12.1542 11.1788 11.8743 10.8337 11.8743H9.16699Z" fill="#696C68"/>
<path fill-rule="evenodd" clip-rule="evenodd" d="M1.04199 18.3327C1.04199 17.9875 1.32181 17.7077 1.66699 17.7077H1.87533L1.87533 12.4993C1.87533 12.1411 1.89319 11.8108 1.95639 11.5231C2.02115 11.2283 2.14171 10.9399 2.37463 10.707C2.60756 10.4741 2.89599 10.3535 3.19075 10.2887C3.47844 10.2256 3.80874 10.2077 4.16699 10.2077L6.04199 10.2077L6.04199 4.99935C6.04199 4.6411 6.05986 4.31079 6.12306 4.02311C6.18781 3.72835 6.30837 3.43992 6.5413 3.20699C6.77423 2.97406 7.06266 2.8535 7.35742 2.78875C7.6451 2.72555 7.97541 2.70768 8.33366 2.70768H9.37533V1.66602C9.37533 1.32084 9.65515 1.04102 10.0003 1.04102C10.3455 1.04102 10.6253 1.32084 10.6253 1.66602V2.70768H11.667C12.0252 2.70768 12.3555 2.72555 12.6432 2.78875C12.938 2.8535 13.2264 2.97406 13.4594 3.20699C13.6923 3.43992 13.8128 3.72835 13.8776 4.02311C13.9408 4.31079 13.9587 4.6411 13.9587 4.99935V10.2077H15.8337C16.1919 10.2077 16.5222 10.2256 16.8099 10.2887C17.1047 10.3535 17.3931 10.4741 17.626 10.707C17.8589 10.9399 17.9795 11.2283 18.0443 11.5231C18.1075 11.8108 18.1253 12.1411 18.1253 12.4993V17.7077H18.3337C18.6788 17.7077 18.9587 17.9875 18.9587 18.3327C18.9587 18.6779 18.6788 18.9577 18.3337 18.9577L1.66699 18.9577C1.32181 18.9577 1.04199 18.6779 1.04199 18.3327ZM9.37533 16.666V17.7077L7.29199 17.7077L7.29199 4.99935C7.29199 4.66815 7.3101 4.4454 7.34395 4.29132C7.37624 4.14431 7.41381 4.10225 7.42518 4.09087C7.43656 4.0795 7.47862 4.04193 7.62563 4.00964C7.77971 3.97579 8.00246 3.95768 8.33366 3.95768L11.667 3.95768C11.9982 3.95768 12.2209 3.97579 12.375 4.00964C12.522 4.04193 12.5641 4.0795 12.5755 4.09087C12.5868 4.10225 12.6244 4.14431 12.6567 4.29132C12.6906 4.4454 12.7087 4.66815 12.7087 4.99935L12.7087 17.7077H10.6253V16.666C10.6253 16.3208 10.3455 16.041 10.0003 16.041C9.65515 16.041 9.37533 16.3208 9.37533 16.666ZM15.8337 11.4577H13.9587L13.9587 17.7077H16.8753V12.4993C16.8753 12.1682 16.8572 11.9454 16.8234 11.7913C16.7911 11.6443 16.7535 11.6023 16.7421 11.5909C16.7308 11.5795 16.6887 11.5419 16.5417 11.5096C16.3876 11.4758 16.1649 11.4577 15.8337 11.4577ZM6.04199 11.4577L6.04199 17.7077H3.12533L3.12533 12.4993C3.12533 12.1682 3.14343 11.9454 3.17728 11.7913C3.20957 11.6443 3.24714 11.6023 3.25852 11.5909C3.2699 11.5795 3.31195 11.5419 3.45896 11.5096C3.61305 11.4758 3.8358 11.4577 4.16699 11.4577L6.04199 11.4577Z" fill="#696C68"/>
</svg>
