<svg width="16" height="16" viewBox="0 0 16 16" fill="none" xmlns="http://www.w3.org/2000/svg">
<path opacity="0.4" d="M13.055 10.4379C13.0039 11.2734 12.9633 11.9364 12.8801 12.466C12.7948 13.0091 12.6583 13.4613 12.3852 13.8569C12.1353 14.2189 11.8136 14.5243 11.4405 14.7539C11.0327 15.0048 10.5774 15.1145 10.0354 15.167L5.9516 15.1669C5.409 15.1143 4.95314 15.0044 4.54507 14.753C4.17176 14.523 3.84996 14.217 3.60019 13.8545C3.32715 13.4583 3.19104 13.0053 3.10638 12.4615C3.02383 11.9311 2.98415 11.2672 2.93415 10.4305L2.5 3.16699H13.5L13.055 10.4379Z" fill="#AE6675"/>
<path fill-rule="evenodd" clip-rule="evenodd" d="M8.89823 0.854853C9.27496 0.888547 9.62904 1.00351 9.93309 1.23028C10.158 1.39799 10.3142 1.60329 10.4476 1.82562C10.5713 2.03166 10.6958 2.28854 10.8371 2.57994L11.1216 3.16681H14C14.3682 3.16681 14.6667 3.46529 14.6667 3.83348C14.6667 4.20167 14.3682 4.50014 14 4.50014C9.99988 4.50014 6.00017 4.50014 2.00004 4.50014C1.63185 4.50014 1.33337 4.20167 1.33337 3.83348C1.33337 3.46529 1.63185 3.16681 2.00004 3.16681H4.93988L5.17708 2.64645C5.31478 2.34431 5.43606 2.07822 5.55788 1.8647C5.68929 1.63439 5.84485 1.42125 6.07245 1.24665C6.38025 1.01051 6.74147 0.890799 7.12665 0.855733C7.41665 0.829332 7.709 0.832966 8.00004 0.833434C8.34057 0.833981 8.64668 0.832354 8.89823 0.854853ZM6.40522 3.16681H9.63982C9.48874 2.85521 9.39201 2.65772 9.30444 2.51181C9.17626 2.29826 9.02267 2.20464 8.77945 2.18289C8.6066 2.16743 8.38133 2.16681 8.02306 2.16681C7.65585 2.16681 7.42469 2.16745 7.24754 2.18358C6.99814 2.20628 6.84264 2.30346 6.71598 2.52545C6.63298 2.67092 6.54262 2.86565 6.40522 3.16681Z" fill="#AE6675"/>
</svg>
