<svg width="20" height="20" viewBox="0 0 20 20" fill="none" xmlns="http://www.w3.org/2000/svg">
<path d="M10.625 16.2502C10.625 15.905 10.3452 15.6252 9.99999 15.6252C9.65481 15.6252 9.37499 15.905 9.37499 16.2502L9.37499 17.7085L3.33332 17.7085C2.98814 17.7085 2.70832 17.9883 2.70832 18.3335C2.70832 18.6787 2.98815 18.9585 3.33332 18.9585L16.6667 18.9585C17.0118 18.9585 17.2917 18.6787 17.2917 18.3335C17.2917 17.9883 17.0118 17.7085 16.6667 17.7085L10.625 17.7085L10.625 16.2502Z" fill="#696C68"/>
<path d="M8.12499 7.50016C8.12499 7.15498 8.40481 6.87516 8.74999 6.87516L11.25 6.87516C11.5952 6.87516 11.875 7.15498 11.875 7.50016C11.875 7.84534 11.5952 8.12516 11.25 8.12516L8.74999 8.12516C8.40481 8.12516 8.12499 7.84534 8.12499 7.50016Z" fill="#696C68"/>
<path fill-rule="evenodd" clip-rule="evenodd" d="M3.12499 4.99949C3.12499 4.9878 3.12533 4.97609 3.126 4.96437C3.13097 4.87624 3.15421 4.79298 3.19199 4.71833L3.79967 3.42193C4.02033 2.95115 4.20825 2.55023 4.40309 2.23553C4.61223 1.89774 4.854 1.61644 5.20395 1.40906C5.54907 1.20455 5.91951 1.11941 6.33018 1.07972C6.72237 1.04181 7.2022 1.04182 7.78239 1.04183L12.2179 1.04183C12.7981 1.04182 13.2779 1.04181 13.6701 1.07972C14.0808 1.11941 14.4512 1.20454 14.7963 1.40906C15.1463 1.61644 15.388 1.89774 15.5972 2.23553C15.792 2.55024 15.9799 2.95112 16.2006 3.42193L16.8144 4.7313C16.8198 4.74269 16.8249 4.75428 16.8297 4.76604C16.8322 4.7724 16.8347 4.77881 16.8371 4.78527C16.8652 4.86191 16.8774 4.94113 16.875 5.01894L16.875 8.60045C16.875 9.88433 16.875 10.9107 16.7678 11.7161C16.6571 12.5484 16.4217 13.238 15.8806 13.7846C15.3386 14.3322 14.6534 14.5711 13.8265 14.6834C13.028 14.7919 12.0109 14.7918 10.7411 14.7918L9.25892 14.7918C7.98908 14.7918 6.97196 14.7919 6.17345 14.6834C5.34656 14.5711 4.66142 14.3322 4.1194 13.7846C3.57826 13.238 3.34292 12.5484 3.23215 11.7161C3.12496 10.9107 3.12497 9.88433 3.12499 8.60046L3.12499 4.99949ZM4.73336 4.37516L4.91701 3.98338C5.15613 3.47327 5.31385 3.13909 5.46588 2.89354C5.60787 2.66421 5.71879 2.55697 5.8412 2.48443C5.96844 2.40903 6.13713 2.3542 6.45045 2.32392C6.77544 2.29251 7.19463 2.29183 7.81264 2.29183L12.1876 2.29183C12.8056 2.29183 13.2248 2.29251 13.5498 2.32392C13.8631 2.3542 14.0318 2.40903 14.1591 2.48443C14.2815 2.55697 14.3924 2.66421 14.5344 2.89354C14.6864 3.13909 14.8442 3.47327 15.0833 3.98338L15.2669 4.37516L4.73336 4.37516ZM4.37499 8.55458L4.37499 5.62516L15.625 5.62516L15.625 8.55458C15.625 9.8949 15.6237 10.8379 15.5288 11.5512C15.4361 12.2472 15.2647 12.63 14.9922 12.9052C14.7206 13.1796 14.3443 13.3516 13.6583 13.4448C12.9537 13.5405 12.0217 13.5418 10.6944 13.5418L9.30555 13.5418C7.97825 13.5418 7.04628 13.5405 6.34168 13.4448C5.65573 13.3516 5.27934 13.1796 5.00776 12.9052C4.73532 12.63 4.56386 12.2472 4.47123 11.5512C4.37629 10.8379 4.37499 9.8949 4.37499 8.55458Z" fill="#696C68"/>
</svg>
