<svg width="16" height="16" viewBox="0 0 16 16" fill="none" xmlns="http://www.w3.org/2000/svg">
<path d="M8.50016 2.66602C8.50016 2.38987 8.27631 2.16602 8.00016 2.16602C7.72402 2.16602 7.50016 2.38987 7.50016 2.66602V8.3073L7.49612 8.30254C7.35567 8.13678 7.21814 7.9616 7.08953 7.79778L7.05972 7.75981C6.93157 7.59666 6.79675 7.42525 6.69204 7.31752C6.49957 7.1195 6.18302 7.11501 5.985 7.30748C5.78699 7.49994 5.78249 7.81649 5.97496 8.01451C6.03409 8.07535 6.13117 8.19656 6.2733 8.37751L6.30466 8.41745C6.43137 8.57887 6.58003 8.76827 6.73319 8.94901C6.89732 9.14271 7.08104 9.34391 7.26469 9.50033C7.35672 9.57871 7.46045 9.65602 7.57205 9.71574C7.67967 9.77334 7.82797 9.83268 8.00016 9.83268C8.17235 9.83268 8.32065 9.77334 8.42828 9.71574C8.53988 9.65602 8.64361 9.57871 8.73564 9.50033C8.91929 9.34391 9.103 9.14271 9.26714 8.94901C9.42028 8.76828 9.56892 8.57892 9.69562 8.4175L9.72703 8.37751C9.86915 8.19656 9.96624 8.07535 10.0254 8.01451C10.2178 7.81649 10.2133 7.49994 10.0153 7.30748C9.81731 7.11501 9.50076 7.1195 9.30829 7.31752C9.20358 7.42525 9.06876 7.59666 8.94061 7.75981L8.91079 7.79779C8.78219 7.96159 8.64465 8.13679 8.5042 8.30254L8.50016 8.3073V2.66602Z" fill="#25343E"/>
<path d="M14.4716 9.49911C14.5635 9.23871 14.4269 8.95311 14.1665 8.8612C13.9061 8.7693 13.6205 8.90589 13.5286 9.16629L13.3727 9.60799C13.0656 10.4783 12.8483 11.0917 12.6252 11.5515C12.4077 11.9998 12.2055 12.2562 11.9531 12.4348C11.7007 12.6133 11.3916 12.7187 10.8964 12.7746C10.3886 12.832 9.73788 12.8327 8.81496 12.8327H7.18532C6.26239 12.8327 5.61168 12.832 5.10387 12.7746C4.60869 12.7187 4.29958 12.6133 4.0472 12.4348C3.79482 12.2562 3.59255 11.9998 3.37503 11.5515C3.15196 11.0917 2.93469 10.4783 2.62753 9.60799L2.47163 9.16629C2.37973 8.90589 2.09413 8.7693 1.83373 8.8612C1.57333 8.95311 1.43674 9.23871 1.52864 9.49911L1.6945 9.96904C1.98943 10.8047 2.22477 11.4715 2.47532 11.988C2.73425 12.5216 3.02978 12.9399 3.46963 13.2511C3.90948 13.5623 4.40226 13.7018 4.99169 13.7683C5.56209 13.8327 6.26921 13.8327 7.15538 13.8327H8.84489C9.73106 13.8327 10.4382 13.8327 11.0086 13.7683C11.598 13.7018 12.0908 13.5623 12.5306 13.2511C12.9705 12.9399 13.266 12.5216 13.5249 11.988C13.7755 11.4715 14.0109 10.8047 14.3058 9.96902L14.4716 9.49911Z" fill="#25343E"/>
</svg>
