<svg width="16" height="16" viewBox="0 0 16 16" fill="none" xmlns="http://www.w3.org/2000/svg">
<path d="M10.1351 1.19686C10.9249 0.727184 11.8988 0.712466 12.702 1.15838C13.0352 1.34336 13.3391 1.65402 13.7911 2.11603L13.9138 2.24142C14.3674 2.70444 14.6709 3.01432 14.8512 3.35309C15.2835 4.16583 15.2695 5.14902 14.8137 5.94869C14.6754 6.19146 14.4721 6.41694 14.1915 6.69506C14.0608 6.82466 13.9954 6.88946 13.9128 6.88928C13.8303 6.8891 13.7643 6.82318 13.6325 6.69134L9.37164 2.43049C9.24253 2.30138 9.17797 2.23682 9.17677 2.15572C9.17558 2.07461 9.23755 2.00886 9.36149 1.87736C9.65293 1.56815 9.88441 1.34597 10.1351 1.19686Z" fill="#161614"/>
<path d="M9.16569 13.834C8.7975 13.834 8.49902 14.1325 8.49902 14.5007C8.49902 14.8688 8.7975 15.1673 9.16569 15.1673H14.499C14.8672 15.1673 15.1657 14.8688 15.1657 14.5007C15.1657 14.1325 14.8672 13.834 14.499 13.834H9.16569Z" fill="#161614"/>
<path opacity="0.4" d="M12.6558 8.17533C12.7939 8.04226 12.863 7.97572 12.8638 7.89178C12.8646 7.80784 12.7968 7.74002 12.6611 7.60439L8.48908 3.43233C8.35078 3.29404 8.28163 3.22489 8.19645 3.22659C8.11127 3.2283 8.04495 3.30016 7.9123 3.44388L2.76168 9.02433C2.01497 9.83311 1.55731 10.3288 1.28941 10.9454C1.02202 11.5609 0.969369 12.238 0.883273 13.3452L0.883124 13.3471C0.882969 13.3491 0.826131 14.0762 0.834905 14.2336C0.844841 14.4119 0.887303 14.6287 1.05278 14.8164C1.21974 15.0059 1.43079 15.0741 1.60847 15.1037C1.76303 15.1295 2.45915 15.1476 2.46056 15.1477C3.72532 15.181 4.50716 15.2016 5.22614 14.9207C5.9441 14.6403 6.51148 14.0936 7.43205 13.2066L12.6558 8.17533Z" fill="#161614"/>
</svg>
