<svg width="24" height="24" viewBox="0 0 24 24" fill="none" xmlns="http://www.w3.org/2000/svg">
<path fill-rule="evenodd" clip-rule="evenodd" d="M15.2039 1.79431C16.3885 1.0898 17.8495 1.06772 19.0543 1.7366C19.5541 2.01406 20.0099 2.48005 20.6879 3.17307L20.872 3.36114C21.5523 4.05567 22.0076 4.52051 22.278 5.02866C22.9265 6.24777 22.9054 7.72256 22.2218 8.92207C21.9369 9.42205 21.4682 9.87313 20.7683 10.5468L11.1497 19.8112C9.76885 21.1416 8.91774 21.9617 7.84081 22.3823C6.76232 22.8036 5.58966 22.7727 3.69246 22.7227L3.2055 22.71C2.92746 22.7028 2.64638 22.6955 2.41431 22.6568C2.14778 22.6123 1.83121 22.5101 1.58076 22.2259C1.33255 21.9442 1.26886 21.6191 1.25396 21.3517C1.24078 21.1152 1.26291 20.832 1.28516 20.5473L1.32607 20.022C1.45536 18.3594 1.53439 17.3431 1.93571 16.4194C2.33756 15.4944 3.02405 14.7509 4.14411 13.5377L13.6126 3.2791C14.2704 2.5659 14.7125 2.08656 15.2039 1.79431ZM18.3262 3.04805C17.5884 2.63846 16.6967 2.65172 15.9707 3.08354C15.6923 3.24909 15.4068 3.54677 14.6247 4.39413L14.5432 4.4825L19.6255 9.56488L19.6339 9.55682C20.4625 8.75877 20.7551 8.46624 20.9186 8.17934C21.3474 7.42702 21.3609 6.49847 20.9537 5.73319C20.7984 5.4413 20.5142 5.13994 19.709 4.31741C18.9028 3.49383 18.609 3.20504 18.3262 3.04805ZM5.34044 14.4532L13.525 5.58565L18.545 10.6056L10.2302 18.6141C8.68769 20.0998 8.05888 20.6868 7.29508 20.9851C6.53295 21.2828 5.68457 21.2743 3.56486 21.2188L3.28487 21.2115C3.12535 21.2073 2.99901 21.204 2.89052 21.1983C2.8343 21.1954 2.78808 21.192 2.74977 21.1884C2.75017 21.0681 2.76238 20.8981 2.7837 20.6244L2.8107 20.2779C2.95456 18.4314 3.02243 17.6824 3.31148 17.0171C3.59996 16.3531 4.09635 15.8011 5.34044 14.4532Z" fill="#25343E"/>
<path d="M14 21.25C13.5858 21.25 13.25 21.5858 13.25 22C13.25 22.4142 13.5858 22.75 14 22.75H22C22.4142 22.75 22.75 22.4142 22.75 22C22.75 21.5858 22.4142 21.25 22 21.25H14Z" fill="#25343E"/>
</svg>
