<svg width="20" height="20" viewBox="0 0 20 20" fill="none" xmlns="http://www.w3.org/2000/svg">
<path fill-rule="evenodd" clip-rule="evenodd" d="M2.80051 17.2006C4.14217 18.5423 6.09967 18.5423 9.99967 18.5423C13.8997 18.5423 15.8563 18.5422 17.1988 17.2014C18.5413 15.8597 18.5413 13.9015 18.5413 10.0007C18.5413 6.09984 18.5413 4.14228 17.1988 2.80062C15.8572 1.45898 13.8998 1.45898 9.99996 1.45898C6.10003 1.45898 4.14216 1.45898 2.80051 2.7998C1.45801 4.14147 1.45801 6.09982 1.45801 10.0007C1.45801 13.9015 1.45801 15.8589 2.80051 17.2006ZM9.99964 2.70898C13.5546 2.70898 15.3397 2.70898 16.3155 3.68481C17.2913 4.65981 17.2913 6.44481 17.2913 10.0006C17.2913 13.5564 17.2913 15.3414 16.3155 16.3164C15.3979 17.2332 13.7675 17.2887 10.6254 17.2921L10.6628 12.2926L12.4037 12.2926C12.7487 12.2926 13.0287 12.0126 13.0287 11.6676C13.0287 11.3226 12.7487 11.0426 12.4037 11.0426L10.672 11.0426L10.6928 8.26335C10.6962 7.74168 11.1262 7.31754 11.6512 7.31754H14.1045C14.4495 7.31754 14.7295 7.03755 14.7295 6.69254C14.7295 6.34755 14.4495 6.06754 14.1045 6.06754H11.6512C10.442 6.06754 9.45116 7.04832 9.44283 8.25415L9.422 11.0426H8.40116C8.05616 11.0426 7.77616 11.3226 7.77616 11.6676C7.77616 12.0126 8.05616 12.2926 8.40116 12.2926H9.41282L9.37537 17.2921C6.23224 17.2888 4.6008 17.2334 3.68384 16.3164C2.70801 15.3414 2.70801 13.5565 2.70801 10.0007C2.70801 6.44488 2.70801 4.65981 3.68384 3.68481C4.6605 2.70898 6.44466 2.70898 9.99964 2.70898Z" fill="#696C68"/>
</svg>
