<svg width="16" height="16" viewBox="0 0 16 16" fill="none" xmlns="http://www.w3.org/2000/svg">
<path opacity="0.4" d="M11.459 0.985478C10.8041 0.916975 9.98227 0.916982 8.95487 0.916992H8.40152C8.0417 0.916992 7.75 1.20869 7.75 1.56852C7.75 1.92834 8.0417 2.22004 8.40152 2.22004H8.91827C9.99068 2.22004 10.7448 2.22087 11.3244 2.28151C11.8937 2.34106 12.2163 2.45224 12.4549 2.62093C12.6158 2.73476 12.7574 2.86882 12.8759 3.01839C13.0463 3.23338 13.1593 3.52191 13.2208 4.04644C13.284 4.58628 13.2851 5.29116 13.2851 6.3068L13.2852 8.24026C13.2852 8.41827 13.285 8.84397 13.098 9.15876C12.9827 9.35274 12.8351 9.51481 12.6834 9.59736C12.4391 9.73037 12.159 9.80595 11.8612 9.80595L11.1676 9.78162C10.9142 9.77636 10.6185 9.78436 10.3331 9.86084C9.77711 10.0098 9.34284 10.4441 9.19386 11.0001C9.11738 11.2855 9.10938 11.5812 9.11464 11.8346L9.13897 12.5282C9.13897 12.84 9.05604 13.1114 8.91115 13.3637C8.82668 13.5107 8.67951 13.6453 8.47635 13.7635C8.16825 13.9428 7.79932 13.9445 7.57388 13.9455C7.34845 13.9465 7.1106 13.9473 6.91189 13.9473C5.68914 13.9473 5.2444 13.938 4.90882 13.8197C4.32707 13.6148 3.88327 13.187 3.67654 12.6634C3.62478 12.5323 3.58822 12.36 3.56859 12.0614C3.54859 11.757 3.54826 11.3683 3.54826 10.8082V8.0661C3.54826 7.7076 3.25763 7.41697 2.89913 7.41697C2.54062 7.41697 2.25 7.7076 2.25 8.0661V10.8303C2.25 11.3631 2.24999 11.7948 2.27315 12.1471C2.29701 12.5102 2.34742 12.834 2.4696 13.1435C2.82214 14.0363 3.56109 14.7258 4.4788 15.0492C5.05133 15.2509 6.03272 15.2506 7.06939 15.2503C8.96246 15.2505 10.0869 15.2507 11.0085 14.9259C12.4885 14.4045 13.671 13.296 14.2333 11.872C14.4207 11.3973 14.5037 10.8875 14.5439 10.2763C14.5833 9.6758 14.5833 8.93404 14.5833 7.98852V6.26619C14.5833 5.3008 14.5834 4.51903 14.5101 3.89415C14.434 3.24522 14.2719 2.68663 13.892 2.20725C13.6952 1.95892 13.4628 1.73974 13.2026 1.55571C12.7061 1.2046 12.1319 1.05588 11.459 0.985478Z" fill="#AE6675"/>
<path fill-rule="evenodd" clip-rule="evenodd" d="M4.74996 0.75C5.11815 0.75 5.41663 1.04848 5.41663 1.41667V3.41667H7.41663C7.78482 3.41667 8.08329 3.71514 8.08329 4.08333C8.08329 4.45152 7.78482 4.75 7.41663 4.75H5.41663V6.75C5.41663 7.11819 5.11815 7.41667 4.74996 7.41667C4.38177 7.41667 4.08329 7.11819 4.08329 6.75V4.75H2.08329C1.7151 4.75 1.41663 4.45152 1.41663 4.08333C1.41663 3.71514 1.7151 3.41667 2.08329 3.41667H4.08329V1.41667C4.08329 1.04848 4.38177 0.75 4.74996 0.75Z" fill="#AE6675"/>
</svg>
