<svg width="24" height="24" viewBox="0 0 24 24" fill="none" xmlns="http://www.w3.org/2000/svg">
<path fill-rule="evenodd" clip-rule="evenodd" d="M11.001 22.7339H10.728C7.31309 22.7339 5.59799 22.7339 4.27101 21.7959C3.89101 21.5259 3.553 21.2099 3.265 20.8549C2.25 19.5739 2.25 17.9499 2.25 14.7129V12.1629C2.25 12.1038 2.25 12.0453 2.25 11.9873L2.25 11.9839C2.25 11.9819 2.25 11.9798 2.25 11.9778C2.25022 9.04943 2.26065 7.55388 2.77101 6.25791C3.60601 4.15291 5.362 2.49794 7.589 1.71494C8.968 1.23294 10.589 1.23291 13.818 1.23291C15.6989 1.23291 16.644 1.23291 17.482 1.5249C18.844 2.0079 19.917 3.02088 20.429 4.30488C20.75 5.11987 20.75 6.01691 20.75 7.80287V12.9829C20.75 13.3969 20.414 13.7329 20 13.7329C19.586 13.7329 19.25 13.3969 19.25 12.9829V7.80293C19.25 6.20707 19.25 5.40589 19.034 4.85791C18.683 3.97791 17.935 3.27694 16.984 2.93994C16.39 2.73294 15.53 2.73291 13.818 2.73291H13.8168C13.5435 2.73291 13.2823 2.73291 13.0325 2.73319C13.0217 2.73365 13.0109 2.73389 13 2.73389C11.576 2.73389 10.417 3.89087 10.417 5.31387C10.417 5.47524 10.425 5.64914 10.4335 5.83294L10.4353 5.87217C10.4602 6.41563 10.4884 7.03014 10.335 7.60693C10.112 8.44593 9.45501 9.10292 8.62001 9.31992C8.04401 9.47092 7.423 9.44392 6.875 9.41992L6.84328 9.4186C6.66294 9.41106 6.49173 9.40391 6.33301 9.40391C4.91097 9.40391 3.75319 10.5577 3.75 11.978C3.75 12.039 3.75 12.1006 3.75 12.1629V14.7129C3.75 17.6019 3.75 19.0519 4.436 19.9169C4.632 20.1589 4.87 20.3809 5.137 20.5709C6.074 21.2329 7.629 21.2329 10.727 21.2329H11C11.414 21.2329 11.75 21.5689 11.75 21.9829C11.75 22.3969 11.414 22.7329 11 22.7329L11.001 22.7339ZM3.80363 8.78322C4.49967 8.23283 5.37868 7.90391 6.33301 7.90391C6.53401 7.90391 6.74 7.91288 6.94 7.92188L6.94478 7.92208C7.4063 7.94202 7.88323 7.96262 8.24 7.86895C8.554 7.78695 8.8 7.53988 8.885 7.22188C8.98 6.86688 8.958 6.39294 8.936 5.93594C8.926 5.73194 8.917 5.51987 8.917 5.31387C8.917 4.3725 9.23769 3.50465 9.77558 2.81359C9.0919 2.87024 8.555 2.96669 8.086 3.13086C6.27 3.76886 4.841 5.10986 4.166 6.80986C3.96016 7.3324 3.85617 7.94798 3.80363 8.78322Z" fill="#696C68"/>
<path d="M15.501 21.7332C15.313 21.7332 15.125 21.6633 14.979 21.5223C14.872 21.4183 14.633 21.2312 14.38 21.0332C13.133 20.0552 12.251 19.2993 12.25 18.4853V18.4832C12.25 17.6692 13.133 16.9133 14.38 15.9353C14.633 15.7373 14.872 15.5492 14.979 15.4462C15.277 15.1582 15.751 15.1652 16.04 15.4632C16.328 15.7602 16.321 16.2353 16.023 16.5233C15.86 16.6813 15.616 16.8733 15.307 17.1153L15.3015 17.1196C15.1143 17.2668 14.8232 17.4955 14.541 17.7342H21.001C21.415 17.7342 21.751 18.0702 21.751 18.4842C21.751 18.8982 21.415 19.2342 21.001 19.2342H14.541C14.826 19.4752 15.12 19.7072 15.307 19.8532C15.616 20.0952 15.86 20.2872 16.023 20.4452C16.321 20.7332 16.328 21.2082 16.04 21.5052C15.893 21.6572 15.697 21.7332 15.501 21.7332Z" fill="#696C68"/>
</svg>
