<svg width="20" height="20" viewBox="0 0 20 20" fill="none" xmlns="http://www.w3.org/2000/svg">
<path fill-rule="evenodd" clip-rule="evenodd" d="M1.04199 9.99935C1.04199 14.9393 5.06033 18.9577 10.0003 18.9577C14.9403 18.9577 18.9587 14.9393 18.9587 9.99935C18.9587 5.05946 14.9405 1.04119 10.0007 1.04102C5.06066 1.04102 1.04199 5.05935 1.04199 9.99935ZM17.478 8.12435C17.6286 8.72478 17.7087 9.35291 17.7087 9.99935C17.7087 10.6458 17.6286 11.2739 17.478 11.8743H13.8125C13.9061 11.2793 13.9595 10.6532 13.9595 9.99912C13.9595 9.34525 13.9061 8.71931 13.8126 8.12435H17.478ZM17.0464 6.87435L13.549 6.87435C13.0332 4.92702 12.1307 3.39832 11.4302 2.42399C13.9446 2.89763 16.0321 4.59652 17.0464 6.87435ZM12.5412 8.12435C12.6471 8.71707 12.7087 9.34355 12.7087 9.99912C12.7087 10.6548 12.6471 11.2815 12.5411 11.8743L7.45954 11.8743C7.35358 11.2815 7.29199 10.6549 7.29199 9.99912C7.29199 9.34358 7.35355 8.71709 7.45944 8.12435L12.5412 8.12435ZM7.75786 6.87435L12.2427 6.87435C11.6387 4.856 10.5926 3.35622 10.0003 2.61826C9.40801 3.35568 8.36192 4.85572 7.75786 6.87435ZM6.18889 8.12435C6.09534 8.71931 6.04199 9.34525 6.04199 9.99912C6.04199 10.6532 6.09538 11.2793 6.189 11.8743L2.52264 11.8743C2.372 11.2739 2.29199 10.6458 2.29199 9.99935C2.29199 9.35291 2.372 8.72478 2.52264 8.12435H6.18889ZM2.9542 6.87435H6.45235C6.96808 4.92695 7.87049 3.39822 8.57103 2.42389C6.05636 2.89739 3.9686 4.59636 2.9542 6.87435ZM11.4302 17.5747C13.9446 17.101 16.0321 15.4022 17.0464 13.1243H13.549C13.0332 15.0718 12.1307 16.6005 11.4302 17.5747ZM10.0003 17.38C10.5926 16.6426 11.6386 15.1427 12.2427 13.1243L7.75805 13.1243C8.36214 15.1425 9.40807 16.6421 10.0003 17.38ZM8.57183 17.575C7.87128 16.6007 6.96852 15.0719 6.45257 13.1243L2.9542 13.1243C3.96871 15.4026 6.05681 17.1017 8.57183 17.575Z" fill="#696C68"/>
</svg>
