<svg width="20" height="20" viewBox="0 0 20 20" fill="none" xmlns="http://www.w3.org/2000/svg">
<path fill-rule="evenodd" clip-rule="evenodd" d="M3.54175 8.71085L2.91098 8.37861L2.84516 8.33545C2.35386 8.0133 1.92587 7.73267 1.62929 7.4665C1.31516 7.18458 1.02426 6.81021 1.04257 6.28905C1.06095 5.76605 1.37931 5.41439 1.7143 5.15811C2.02944 4.91701 2.47653 4.67271 2.98841 4.39302L6.99712 2.20221C7.64459 1.84836 8.16839 1.56208 8.62028 1.36746C9.08984 1.16523 9.52481 1.04199 10.0001 1.04199C10.4754 1.04199 10.9104 1.16523 11.3799 1.36746C11.8318 1.56208 12.3556 1.84836 13.0031 2.20222L17.0118 4.39302C17.5237 4.67271 17.9708 4.91701 18.2859 5.15811C18.6209 5.41439 18.9393 5.76605 18.9576 6.28905C18.9759 6.81021 18.685 7.18458 18.3709 7.4665C18.0743 7.73267 17.6463 8.0133 17.155 8.33546L17.0892 8.37861L16.4584 8.71087V12.5196C16.4584 14.492 15.5036 16.3419 13.9084 17.3789L12.7417 18.1372C11.0567 19.2325 8.94346 19.2325 7.25848 18.1372L6.09181 17.3789C4.49658 16.3419 3.54175 14.492 3.54175 12.5196V8.71085ZM7.5704 3.3134C8.25022 2.94187 8.72292 2.68426 9.11473 2.51551C9.49495 2.35175 9.75501 2.29199 10.0001 2.29199C10.2452 2.29199 10.5053 2.35175 10.8855 2.51551C11.2773 2.68426 11.75 2.94187 12.4298 3.3134L16.3691 5.46627C16.9371 5.77669 17.2971 5.97546 17.5264 6.15089C17.6351 6.23403 17.6812 6.28797 17.6996 6.31575C17.7053 6.3242 17.7076 6.3291 17.7083 6.33083L17.7084 6.33295L17.7082 6.33623L17.707 6.33961C17.7058 6.34242 17.7037 6.34722 17.6998 6.35413C17.6824 6.38495 17.6391 6.44368 17.536 6.53621C17.3222 6.72812 16.9835 6.95302 16.4537 7.30054L15.77 7.66068C14.0852 7.16051 12.1078 6.87533 10.0001 6.87533C7.89235 6.87533 5.91498 7.16051 4.2302 7.66068L3.54646 7.30054C3.01667 6.95302 2.67803 6.72812 2.46419 6.53621C2.36108 6.44368 2.31779 6.38495 2.30043 6.35413C2.29654 6.34722 2.29437 6.34242 2.29322 6.33961C2.29231 6.3374 2.2918 6.33568 2.2918 6.33568L2.2918 6.33295L2.29192 6.33083C2.29264 6.3291 2.29494 6.3242 2.30056 6.31575C2.31903 6.28797 2.36515 6.23403 2.47383 6.15089C2.70313 5.97546 3.06311 5.77669 3.6311 5.46628L7.5704 3.3134ZM4.79175 8.79949V10.4214C6.3479 10.0184 8.12226 9.79199 10.0001 9.79199C11.8779 9.79199 13.6523 10.0184 15.2084 10.4214V8.79949C13.6942 8.37342 11.9129 8.12533 10.0001 8.12533C8.08722 8.12533 6.30593 8.37342 4.79175 8.79949ZM10.0001 11.042C11.9129 11.042 13.6942 11.2901 15.2084 11.7162V12.5196C15.2084 14.099 14.4431 15.5404 13.2271 16.3308L12.0604 17.0892C10.7897 17.9152 9.21045 17.9152 7.93972 17.0892L6.77306 16.3308C5.55704 15.5404 4.79175 14.099 4.79175 12.5196V11.7162C6.30593 11.2901 8.08722 11.042 10.0001 11.042Z" fill="#696C68"/>
</svg>
