<svg width="20" height="20" viewBox="0 0 20 20" fill="none" xmlns="http://www.w3.org/2000/svg">
<path fill-rule="evenodd" clip-rule="evenodd" d="M9.99998 10.2087C8.50665 10.2087 7.29165 8.99366 7.29165 7.50033C7.29165 6.00699 8.50665 4.79199 9.99998 4.79199C11.4933 4.79199 12.7083 6.00699 12.7083 7.50033C12.7083 8.99366 11.4933 10.2087 9.99998 10.2087ZM9.99998 6.04199C9.19581 6.04199 8.54165 6.69616 8.54165 7.50033C8.54165 8.30449 9.19581 8.95866 9.99998 8.95866C10.8041 8.95866 11.4583 8.30449 11.4583 7.50033C11.4583 6.69616 10.8041 6.04199 9.99998 6.04199Z" fill="#696C68"/>
<path fill-rule="evenodd" clip-rule="evenodd" d="M8.51911 15.0295C8.91911 15.4137 9.44495 15.6253 9.99995 15.6253C10.5549 15.6253 11.0799 15.4137 11.4799 15.0287C11.6749 14.8412 11.875 14.6512 12.0775 14.4595C14.575 12.0912 17.6833 9.14362 15.9658 5.01365C14.9783 2.63782 12.5799 1.04199 9.99995 1.04199C7.41995 1.04199 5.02244 2.63782 4.03494 5.01365C2.32327 9.12782 5.40577 12.062 7.88243 14.4195L7.9064 14.4423C8.11323 14.6395 8.31772 14.8345 8.51911 15.0295ZM5.18911 5.49365C5.98495 3.57865 7.91828 2.29199 9.99995 2.29199V2.29116C12.0816 2.29116 14.0158 3.57782 14.8124 5.49282C16.1991 8.82782 13.6675 11.2295 11.2183 13.552C11.0133 13.7462 10.8116 13.9378 10.6141 14.1278C10.4483 14.2878 10.2299 14.3753 9.99995 14.3753C9.76995 14.3753 9.5516 14.287 9.38744 14.1295C9.17744 13.9262 8.96246 13.7212 8.74413 13.5137C6.31754 11.2037 3.8075 8.81436 5.18911 5.49365Z" fill="#696C68"/>
<path d="M9.99998 18.9587C7.29165 18.9587 2.70831 18.4328 2.70831 16.462C2.70831 15.5345 3.71332 14.837 5.69582 14.3903C6.03249 14.3145 6.36663 14.5262 6.4433 14.8628C6.51913 15.1995 6.30747 15.5337 5.9708 15.6103C4.53747 15.9337 4.0483 16.3228 3.9658 16.4628C4.1658 16.837 6.15496 17.7087 10.0008 17.7087C13.8466 17.7087 15.835 16.837 16.0358 16.4628C15.9533 16.3228 15.4642 15.9328 14.0308 15.6103C13.6942 15.5345 13.4825 15.2003 13.5583 14.8628C13.6342 14.5262 13.9683 14.3145 14.3058 14.3903C16.2883 14.837 17.2933 15.5337 17.2933 16.462C17.2933 17.2903 16.4825 17.9386 14.885 18.387C13.5725 18.7553 11.8383 18.9587 10.0016 18.9587H9.99998Z" fill="#696C68"/>
</svg>
