<svg width="71" height="80" viewBox="0 0 71 80" fill="none" xmlns="http://www.w3.org/2000/svg">
<path d="M27.3074 48.267C27.3074 48.3023 27.287 48.3246 27.2479 48.3301C27.1959 48.3376 27.1272 48.3469 27.0398 48.3561C26.9525 48.3654 26.828 48.3692 26.6663 48.3692C26.5697 48.3692 26.4786 48.3617 26.3894 48.345C26.3002 48.3283 26.2241 48.2985 26.1572 48.2521C26.0903 48.2056 26.0364 48.1406 25.9955 48.0551C25.9546 47.9696 25.936 47.86 25.936 47.7243V46.7302C25.936 46.5945 25.9565 46.4849 25.9955 46.4013C26.0364 46.3177 26.0903 46.2526 26.1572 46.2062C26.2241 46.1597 26.3021 46.13 26.3913 46.1133C26.4805 46.0965 26.5734 46.0891 26.6682 46.0891C26.7481 46.0891 26.8187 46.0891 26.88 46.0928C26.9413 46.0965 26.9934 46.0984 27.0398 46.104C27.0863 46.1077 27.1253 46.1114 27.1587 46.1151C27.1922 46.1188 27.2219 46.1226 27.2479 46.1263C27.287 46.1318 27.3074 46.1523 27.3074 46.1857V46.4645C27.3074 46.4812 27.3018 46.4942 27.2888 46.5072C27.2758 46.5202 27.2628 46.5258 27.2461 46.5258H26.6384C26.5678 46.5258 26.5195 46.5407 26.4898 46.5685C26.4601 46.5964 26.447 46.6503 26.447 46.7283V47.0015H27.2219C27.2387 47.0015 27.2517 47.0071 27.2647 47.0201C27.2758 47.0312 27.2832 47.0461 27.2832 47.0628V47.3471C27.2832 47.3639 27.2777 47.3769 27.2647 47.3899C27.2535 47.401 27.2387 47.4084 27.2219 47.4084H26.447V47.7262C26.447 47.8043 26.4619 47.8581 26.4898 47.886C26.5177 47.9139 26.5678 47.9288 26.6384 47.9288H27.2461C27.2628 47.9288 27.2758 47.9343 27.2888 47.9473C27.3018 47.9603 27.3074 47.9733 27.3074 47.9901V48.2688V48.267Z" fill="#AE6675"/>
<path d="M33.2981 48.3005C33.2981 48.3172 33.2925 48.3283 33.2814 48.3339C33.2702 48.3395 33.2591 48.3432 33.2461 48.3432H32.8503C32.8373 48.3432 32.8243 48.3376 32.8168 48.3246C32.8075 48.3135 32.8038 48.2986 32.8038 48.2819V47.0331C32.8038 47.0164 32.7983 47.009 32.789 47.009C32.7815 47.009 32.7722 47.0164 32.7648 47.0294L32.4954 47.5237C32.4749 47.5572 32.4452 47.5739 32.4062 47.5739H32.1665C32.1274 47.5739 32.0958 47.5572 32.0773 47.5237L31.8078 47.0294C31.8004 47.0146 31.7911 47.009 31.7837 47.009C31.7744 47.009 31.7688 47.0164 31.7688 47.0331V48.2819C31.7688 48.2986 31.7651 48.3116 31.7558 48.3246C31.7465 48.3358 31.7353 48.3432 31.7223 48.3432H31.3265C31.3154 48.3432 31.3024 48.3395 31.2931 48.3339C31.2819 48.3283 31.2764 48.3172 31.2764 48.3005V46.2192C31.2764 46.1876 31.2857 46.1616 31.3061 46.1449C31.3265 46.1263 31.3526 46.1189 31.3841 46.1189H31.6647C31.7242 46.1189 31.7688 46.1449 31.7967 46.1988L32.2557 47.0517C32.2668 47.0777 32.278 47.0907 32.2891 47.0907C32.2965 47.0907 32.3077 47.0777 32.3225 47.0517L32.7815 46.1988C32.8094 46.1449 32.854 46.1189 32.9135 46.1189H33.1941C33.2256 46.1189 33.2517 46.1282 33.2721 46.1468C33.2925 46.1654 33.3018 46.1914 33.3018 46.223V48.3005H33.2981Z" fill="#AE6675"/>
<path d="M39.0476 48.2948C39.0476 48.3264 39.0309 48.3431 38.9975 48.3431H38.5775C38.5608 48.3431 38.5478 48.3375 38.5385 48.3282C38.5292 48.3189 38.5217 48.3059 38.518 48.2892L38.4103 47.7986H37.797L37.6893 48.2892C37.6855 48.3059 37.6781 48.3189 37.6688 48.3282C37.6595 48.3375 37.6465 48.3431 37.6298 48.3431H37.2098C37.1764 48.3431 37.1597 48.3264 37.1597 48.2948C37.1597 48.2929 37.1597 48.2911 37.1597 48.2892C37.1597 48.2873 37.1597 48.2836 37.1597 48.2799L37.6056 46.4235C37.6242 46.3511 37.6502 46.2935 37.6837 46.2507C37.7171 46.2061 37.758 46.1727 37.8026 46.1504C37.8472 46.1281 37.8955 46.1114 37.9476 46.1039C37.9996 46.0965 38.0516 46.0928 38.1036 46.0928C38.1557 46.0928 38.2077 46.0965 38.2579 46.1039C38.3081 46.1114 38.3564 46.1281 38.401 46.1504C38.4456 46.1727 38.4846 46.2061 38.5199 46.2507C38.5533 46.2953 38.5794 46.3529 38.5979 46.4235L39.0439 48.2799C39.0439 48.2799 39.0439 48.2873 39.0439 48.2892C39.0439 48.2911 39.0439 48.2929 39.0439 48.2948H39.0476ZM38.1427 46.561C38.139 46.5443 38.1352 46.5332 38.1315 46.5276C38.1278 46.5202 38.1185 46.5164 38.1055 46.5164C38.0832 46.5164 38.0702 46.5313 38.0628 46.561L37.8807 47.388H38.3266L38.1445 46.561H38.1427Z" fill="#AE6675"/>
<path d="M44.5851 47.4233C44.5851 47.5812 44.5628 47.7187 44.5201 47.8377C44.4755 47.9566 44.4123 48.0551 44.3324 48.135C44.2506 48.213 44.1503 48.2725 44.0332 48.3115C43.9161 48.3505 43.7824 48.3691 43.6318 48.3691C43.5705 48.3691 43.5073 48.3691 43.4442 48.3654C43.381 48.3617 43.3215 48.3598 43.2639 48.3542C43.2063 48.3505 43.1543 48.3449 43.1078 48.3412C43.0614 48.3375 43.0223 48.3301 42.9926 48.3245C42.9647 48.3208 42.9424 48.3096 42.9276 48.2948C42.9127 48.278 42.9053 48.2539 42.9053 48.2204V46.2414C42.9053 46.208 42.9127 46.182 42.9276 46.1671C42.9424 46.1504 42.9647 46.1411 42.9926 46.1374C43.0223 46.1318 43.0614 46.1262 43.1078 46.1206C43.1543 46.1151 43.2063 46.1114 43.2639 46.1076C43.3215 46.1039 43.381 46.1002 43.4442 46.0965C43.5073 46.0928 43.5687 46.0928 43.6318 46.0928C43.7824 46.0928 43.9161 46.1114 44.0332 46.1504C44.1503 46.1894 44.2506 46.2489 44.3324 46.3269C44.4142 46.405 44.4773 46.5053 44.5201 46.6224C44.5647 46.7413 44.5851 46.8788 44.5851 47.0367V47.4233ZM44.0741 47.0367C44.0741 46.9345 44.063 46.8509 44.0425 46.7859C44.0221 46.7209 43.9923 46.667 43.9533 46.6279C43.9143 46.5889 43.8678 46.5629 43.8139 46.548C43.7601 46.5332 43.6987 46.5257 43.6318 46.5257C43.5947 46.5257 43.5538 46.5257 43.5129 46.5257C43.472 46.5257 43.4404 46.5276 43.4181 46.5295V47.9268C43.4404 47.9287 43.472 47.9306 43.5129 47.9306C43.5538 47.9306 43.5928 47.9306 43.6318 47.9306C43.7006 47.9306 43.7601 47.9231 43.8139 47.9083C43.8678 47.8934 43.9143 47.8655 43.9533 47.8284C43.9923 47.7893 44.0221 47.7373 44.0425 47.6704C44.063 47.6035 44.0741 47.5199 44.0741 47.4195V47.033V47.0367Z" fill="#AE6675"/>
<mask id="mask0_2001_112716" style="mask-type:luminance" maskUnits="userSpaceOnUse" x="14" y="52" width="18" height="12">
<path d="M30.1682 52.4138L14.8223 53.8401L15.6929 63.2079L31.0389 61.7816L30.1682 52.4138Z" fill="white"/>
</mask>
<g mask="url(#mask0_2001_112716)">
<path d="M30.7042 58.2234L28.688 59.8326L30.2972 61.8506L30.4254 60.7023L30.5759 59.3718L30.7042 58.2234Z" fill="#AE6675"/>
<path d="M26.3056 58.6323L24.2876 60.2415L25.8987 62.2596L26.0269 61.1112L26.1756 59.7807L26.3056 58.6323Z" fill="#AE6675"/>
<path d="M21.9053 59.041L19.8892 60.6502L21.4984 62.6683L21.6285 61.5199L21.7771 60.1894L21.9053 59.041Z" fill="#AE6675"/>
<path d="M17.5069 59.45L15.4907 61.0592L17.0999 63.0772L17.2282 61.9288L17.3787 60.5983L17.5069 59.45Z" fill="#AE6675"/>
<path d="M28.0171 52.6135L30.2953 53.8251L29.0856 56.1033L28.7474 54.9995L28.3553 53.7192L28.0171 52.6135Z" fill="#AE6675"/>
<path d="M23.6167 53.0222L25.8967 54.2338L24.6852 56.512L24.347 55.4082L23.9549 54.1279L23.6167 53.0222Z" fill="#AE6675"/>
<path d="M19.2183 53.4312L21.4964 54.6427L20.2867 56.9209L19.9485 55.8171L19.5565 54.5349L19.2183 53.4312Z" fill="#AE6675"/>
<path d="M14.8198 53.8398L17.098 55.0514L15.8883 57.3296L15.5501 56.2258L15.158 54.9436L14.8198 53.8398Z" fill="#AE6675"/>
</g>
<path d="M24.6238 56.2314L25.0995 53.6949L22.563 53.2192L23.2152 54.1725L23.9715 55.2781L24.6238 56.2314Z" fill="#AE6675"/>
<path d="M24.9007 58.5634L23.442 56.4338L21.3125 57.8907L22.4479 58.1044L23.7654 58.3497L24.9007 58.5634Z" fill="#AE6675"/>
<path d="M26.7441 60.0166L24.2076 59.5427L23.7319 62.0792L24.6852 61.427L25.7908 60.6688L26.7441 60.0166Z" fill="#AE6675"/>
<path d="M29.0763 59.7417L26.9468 61.1986L28.4036 63.3281L28.6173 62.1927L28.8626 60.8771L29.0763 59.7417Z" fill="#AE6675"/>
<path d="M30.5294 57.8982L30.0537 60.4347L32.592 60.9085L31.9379 59.9553L31.1816 58.8496L30.5294 57.8982Z" fill="#AE6675"/>
<path d="M30.2544 55.5662L31.7112 57.6957L33.8408 56.237L32.7054 56.0251L31.3898 55.778L30.2544 55.5662Z" fill="#AE6675"/>
<path d="M28.4092 54.1111L30.9457 54.5868L31.4214 52.0503L30.4681 52.7025L29.3625 53.4588L28.4092 54.1111Z" fill="#AE6675"/>
<path d="M26.0786 54.388L28.2081 52.9293L26.7494 50.7998L26.5376 51.9352L26.2905 53.2527L26.0786 54.388Z" fill="#AE6675"/>
<mask id="mask1_2001_112716" style="mask-type:luminance" maskUnits="userSpaceOnUse" x="10" y="51" width="18" height="12">
<path d="M26.4379 51.7837L10.189 53.2939L11.0223 62.2603L27.2712 60.75L26.4379 51.7837Z" fill="white"/>
</mask>
<g mask="url(#mask1_2001_112716)">
<path d="M26.9562 57.3948L24.6743 58.5989L25.8784 60.8808L26.2185 59.777L26.2129 59.7938L26.6087 58.5153L26.6143 58.4967L26.9562 57.3948Z" fill="#AE6675"/>
<path d="M22.3312 57.824L20.0493 59.0281L21.2534 61.31L21.5954 60.2062L21.5879 60.2248L21.9837 58.9445L21.9912 58.9259L22.3312 57.824Z" fill="#AE6675"/>
<path d="M17.7057 58.2532L15.4238 59.4573L16.628 61.7392L16.9699 60.6373L16.9624 60.654L17.3582 59.3737L17.3657 59.357L17.7057 58.2532Z" fill="#AE6675"/>
<path d="M13.0807 58.6824L10.7988 59.8865L12.003 62.1703L12.3449 61.0665L12.3374 61.0832L12.7332 59.8029L12.7407 59.7861L13.0807 58.6824Z" fill="#AE6675"/>
<path d="M24.061 52.0059L26.5269 52.7696L25.7632 55.2336L25.2243 54.2134L25.2336 54.2283L24.6092 53.0427L24.5999 53.0279L24.061 52.0059Z" fill="#AE6675"/>
<path d="M19.436 52.4351L21.9019 53.1988L21.1382 55.6647L20.5993 54.6426L20.6104 54.6575L19.9842 53.4719L19.9749 53.4571L19.436 52.4351Z" fill="#AE6675"/>
<path d="M14.8105 52.8643L17.2764 53.628L16.5127 56.0939L15.9738 55.0718L15.9849 55.0886L15.3587 53.903L15.3494 53.8863L14.8105 52.8643Z" fill="#AE6675"/>
<path d="M10.1875 53.2954L12.6515 54.0573L11.8896 56.5231L11.3508 55.5011L11.36 55.5178L10.7357 54.3323L10.7245 54.3156L10.1875 53.2954Z" fill="#AE6675"/>
</g>
<mask id="mask2_2001_112716" style="mask-type:luminance" maskUnits="userSpaceOnUse" x="29" y="52" width="19" height="18">
<path d="M40.9523 52.1309L29.3755 62.3049L35.5861 69.3719L47.1629 59.1978L40.9523 52.1309Z" fill="white"/>
</mask>
<g mask="url(#mask2_2001_112716)">
<path d="M47.0322 62.3224L49.5873 61.9619L49.9478 64.5188L49.0242 63.8239L47.9539 63.0174L47.0322 62.3224Z" fill="#AE6675"/>
<path d="M43.7134 65.2399L46.2684 64.8794L46.6289 67.4345L45.7054 66.7395L44.6351 65.9349L43.7134 65.2399Z" fill="#AE6675"/>
<path d="M40.3945 68.1554L42.9496 67.7949L43.3101 70.3518L42.3865 69.6569L41.3162 68.8504L40.3945 68.1554Z" fill="#AE6675"/>
<path d="M44.8004 56.5173L44.1147 59.0036L46.6029 59.6893L46.0324 58.6859L45.3709 57.5208L44.8004 56.5173Z" fill="#AE6675"/>
<path d="M41.4816 59.4331L40.7959 61.9213L43.2841 62.607L42.7136 61.6017L42.0521 60.4365L41.4816 59.4331Z" fill="#AE6675"/>
<path d="M38.1627 62.3486L37.4771 64.8368L39.9652 65.5225L39.3947 64.519L38.7332 63.3539L38.1627 62.3486Z" fill="#AE6675"/>
<path d="M34.8444 65.2659L34.1587 67.754L36.6469 68.4397L36.0764 67.4344L35.4148 66.2693L34.8444 65.2659Z" fill="#AE6675"/>
<path d="M31.5255 68.1816L30.8398 70.6698L33.328 71.3555L32.7575 70.352L32.096 69.1869L31.5255 68.1816Z" fill="#AE6675"/>
<path d="M42.647 50.6417L45.2039 50.2812L45.5644 52.8363L44.6409 52.1413L43.5705 51.3367L42.647 50.6417Z" fill="#AE6675"/>
<path d="M39.3301 53.5574L41.8851 53.1987L42.2456 55.7538L41.3221 55.0588L40.2518 54.2523L39.3301 53.5574Z" fill="#AE6675"/>
<path d="M36.0112 56.4748L38.5663 56.1143L38.9268 58.6693L38.0032 57.9743L36.9329 57.1697L36.0112 56.4748Z" fill="#AE6675"/>
<path d="M32.6924 59.3903L35.2474 59.0298L35.6079 61.5867L34.6844 60.8917L33.6141 60.0853L32.6924 59.3903Z" fill="#AE6675"/>
<path d="M29.3735 62.3078L31.9286 61.9473L32.2891 64.5023L31.3656 63.8074L30.2952 63.0027L29.3735 62.3078Z" fill="#AE6675"/>
<path d="M33.7794 50.6677L33.0938 53.1559L35.5819 53.8416L35.0114 52.8381L34.3499 51.6712L33.7794 50.6677Z" fill="#AE6675"/>
<path d="M30.4606 53.5852L29.7749 56.0715L32.2631 56.7572L31.6926 55.7538L31.0311 54.5886L30.4606 53.5852Z" fill="#AE6675"/>
</g>
<path d="M38.7112 58.4779L37.6036 56.1477L35.2734 57.2534L36.3605 57.6417L37.6222 58.0914L38.7112 58.4779Z" fill="#AE6675"/>
<path d="M40.3038 60.2024L37.8733 59.3364L37.0073 61.7688L38.0516 61.2727L39.2614 60.6985L40.3038 60.2024Z" fill="#AE6675"/>
<path d="M42.6505 60.2954L40.3203 61.4029L41.426 63.7331L41.8143 62.6461L42.264 61.3825L42.6505 60.2954Z" fill="#AE6675"/>
<path d="M44.3752 58.7009L43.5093 61.1333L45.9398 61.9993L45.4456 60.955L44.8714 59.7452L44.3752 58.7009Z" fill="#AE6675"/>
<path d="M44.4678 56.356L45.5734 58.6862L47.9055 57.5805L46.8184 57.1922L45.5548 56.7425L44.4678 56.356Z" fill="#AE6675"/>
<path d="M42.8735 54.6314L45.3041 55.4974L46.17 53.0649L45.1276 53.5611L43.9179 54.1353L42.8735 54.6314Z" fill="#AE6675"/>
<path d="M40.5283 54.5385L42.8585 53.431L41.7529 51.1008L41.3645 52.1879L40.9148 53.4496L40.5283 54.5385Z" fill="#AE6675"/>
<path d="M38.8043 56.1328L39.6702 53.7004L37.2378 52.8345L37.7339 53.8788L38.3081 55.0885L38.8043 56.1328Z" fill="#AE6675"/>
<mask id="mask3_2001_112716" style="mask-type:luminance" maskUnits="userSpaceOnUse" x="25" y="53" width="19" height="19">
<path d="M37.5626 53.814L25.3047 64.5867L31.2492 71.3507L43.5071 60.5781L37.5626 53.814Z" fill="white"/>
</mask>
<g mask="url(#mask3_2001_112716)">
<path d="M43.208 63.854L45.6516 63.0215L46.4822 65.4651L45.4472 64.954L45.4639 64.9615L44.2616 64.3706L44.2449 64.3631L43.208 63.854Z" fill="#AE6675"/>
<path d="M39.7183 66.9199L42.1618 66.0874L42.9943 68.531L41.9574 68.02L41.9742 68.0274L40.7719 67.4365L40.7552 67.429L39.7183 66.9199Z" fill="#AE6675"/>
<path d="M36.2305 69.986L38.6722 69.1536L39.5047 71.5971L38.4678 71.0861L38.4864 71.0936L37.2841 70.5026L37.2655 70.4952L36.2305 69.986Z" fill="#AE6675"/>
<path d="M41.2812 58.0488L40.1421 60.3642L42.4574 61.5033L42.0858 60.4106L42.0895 60.4274L41.6584 59.16L41.6528 59.1415L41.2812 58.0488Z" fill="#AE6675"/>
<path d="M37.7914 61.1147L36.6523 63.4301L38.9696 64.5692L38.596 63.4766L38.6016 63.4933L38.1687 62.226L38.1649 62.2074L37.7914 61.1147Z" fill="#AE6675"/>
<path d="M34.3036 64.1809L33.1646 66.4963L35.4799 67.6354L35.1083 66.5427L35.112 66.5594L34.6809 65.2921L34.6753 65.2735L34.3036 64.1809Z" fill="#AE6675"/>
<path d="M30.8139 67.2471L29.6748 69.5624L31.992 70.7015L31.6185 69.6089L31.6241 69.6256L31.1911 68.3583L31.1855 68.3397L30.8139 67.2471Z" fill="#AE6675"/>
<path d="M27.3242 70.313L26.187 72.6283L28.5024 73.7674L28.1289 72.6748L28.1344 72.6915L27.7015 71.4242L27.6977 71.4056L27.3242 70.313Z" fill="#AE6675"/>
<path d="M39.2612 52.3254L41.7029 51.4929L42.5354 53.9365L41.4985 53.4273L41.5153 53.4329L40.313 52.842L40.2963 52.8346L39.2612 52.3254Z" fill="#AE6675"/>
<path d="M35.7715 55.3916L38.215 54.5591L39.0457 57.0026L38.0106 56.4935L38.0274 56.4991L36.8251 55.9082L36.8084 55.9007L35.7715 55.3916Z" fill="#AE6675"/>
<path d="M32.2817 58.4575L34.7253 57.625L35.5578 60.0686L34.5209 59.5594L34.5376 59.565L33.3353 58.9741L33.3186 58.9666L32.2817 58.4575Z" fill="#AE6675"/>
<path d="M28.7939 61.5236L31.2375 60.6912L32.0681 63.1347L31.0313 62.6237L31.0498 62.6312L29.8476 62.0402L29.829 62.0328L28.7939 61.5236Z" fill="#AE6675"/>
<path d="M25.3042 64.5898L27.7478 63.7573L28.5784 66.2009L27.5434 65.6899L27.5601 65.6973L26.3578 65.1064L26.3411 65.099L25.3042 64.5898Z" fill="#AE6675"/>
<path d="M30.3549 52.6523L29.2158 54.9677L31.533 56.1068L31.1595 55.0142L31.1651 55.0309L30.7321 53.7636L30.7284 53.745L30.3549 52.6523Z" fill="#AE6675"/>
<path d="M26.8671 55.7185L25.728 58.0339L28.0434 59.1729L27.6717 58.0803L27.6754 58.097L27.2443 56.8297L27.2388 56.8111L26.8671 55.7185Z" fill="#AE6675"/>
</g>
<mask id="mask4_2001_112716" style="mask-type:luminance" maskUnits="userSpaceOnUse" x="46" y="45" width="13" height="18">
<path d="M49.5082 45.5647L46.1226 60.6003L55.3009 62.6671L58.6866 47.6314L49.5082 45.5647Z" fill="white"/>
</mask>
<g mask="url(#mask4_2001_112716)">
<path d="M58.4795 58.8571L60.334 57.064L62.1272 58.9185L60.9732 58.8999L59.6335 58.8757L58.4795 58.8571Z" fill="#AE6675"/>
<path d="M57.5078 63.1665L59.3642 61.3733L61.1574 63.2297L60.0034 63.2092L58.6636 63.1869L57.5078 63.1665Z" fill="#AE6675"/>
<path d="M55.2017 46.8494L56.1103 49.2651L58.526 48.3582L57.4743 47.8807L56.2534 47.3269L55.2017 46.8494Z" fill="#AE6675"/>
<path d="M54.2314 51.1604L55.1383 53.5761L57.5558 52.6693L56.5041 52.1917L55.2832 51.638L54.2314 51.1604Z" fill="#AE6675"/>
<path d="M53.2617 55.4697L54.1685 57.8854L56.5842 56.9786L55.5325 56.501L54.3135 55.9473L53.2617 55.4697Z" fill="#AE6675"/>
<path d="M52.29 59.7808L53.1987 62.1965L55.6144 61.2878L54.5627 60.8121L53.3418 60.2583L52.29 59.7808Z" fill="#AE6675"/>
<path d="M49.0361 47.6726L50.8925 45.8794L52.6857 47.7358L51.5317 47.7153L50.1919 47.693L49.0361 47.6726Z" fill="#AE6675"/>
<path d="M48.0659 51.9835L49.9223 50.1885L51.7155 52.0448L50.5597 52.0244L49.2199 52.0021L48.0659 51.9835Z" fill="#AE6675"/>
<path d="M47.0962 56.2929L48.9507 54.4998L50.7439 56.3561L49.5899 56.3357L48.2501 56.3134L47.0962 56.2929Z" fill="#AE6675"/>
<path d="M46.124 60.604L47.9804 58.8108L49.7736 60.6653L48.6196 60.6467L47.2798 60.6226L46.124 60.604Z" fill="#AE6675"/>
<path d="M43.8184 44.2869L44.727 46.7026L47.1427 45.7939L46.091 45.3182L44.8701 44.7644L43.8184 44.2869Z" fill="#AE6675"/>
<path d="M42.8481 48.5962L43.7568 51.0119L46.1725 50.1051L45.1208 49.6275L43.8999 49.0738L42.8481 48.5962Z" fill="#AE6675"/>
</g>
<path d="M51.4295 52.017L49.1625 50.7812L47.9268 53.0464L49.0361 52.7212L50.3202 52.3422L51.4295 52.017Z" fill="#AE6675"/>
<path d="M53.7315 52.4761L51.2563 53.2045L51.9848 55.6797L52.5367 54.6651L53.1778 53.4888L53.7315 52.4761Z" fill="#AE6675"/>
<path d="M55.6844 51.1716L54.4487 53.4368L56.7139 54.6725L56.3887 53.565L56.0096 52.2791L55.6844 51.1716Z" fill="#AE6675"/>
<path d="M56.1416 48.8674L56.87 51.3444L59.347 50.616L58.3325 50.0623L57.1562 49.4212L56.1416 48.8674Z" fill="#AE6675"/>
<path d="M54.8374 46.9163L57.1044 48.152L58.3383 45.885L57.2308 46.2121L55.9468 46.5893L54.8374 46.9163Z" fill="#AE6675"/>
<path d="M52.5352 46.4572L55.0103 45.7288L54.2819 43.2537L53.73 44.2664L53.0889 45.4427L52.5352 46.4572Z" fill="#AE6675"/>
<path d="M50.5822 47.7616L51.8179 45.4946L49.5527 44.2607L49.8779 45.3682L50.257 46.6541L50.5822 47.7616Z" fill="#AE6675"/>
<path d="M50.1249 50.064L49.3965 47.5889L46.9194 48.3173L47.934 48.8692L49.1103 49.5121L50.1249 50.064Z" fill="#AE6675"/>
<mask id="mask5_2001_112716" style="mask-type:luminance" maskUnits="userSpaceOnUse" x="44" y="48" width="13" height="19">
<path d="M47.7587 48.9176L44.1738 64.8379L52.9588 66.8161L56.5437 50.8958L47.7587 48.9176Z" fill="white"/>
</mask>
<g mask="url(#mask5_2001_112716)">
<path d="M56.1841 62.7837L57.6725 60.6765L59.7816 62.1631L58.6425 62.3601L58.6611 62.3563L57.3399 62.5831L57.3232 62.5886L56.1841 62.7837Z" fill="#AE6675"/>
<path d="M55.1641 67.3159L56.6525 65.2068L58.7597 66.6952L57.6225 66.8903L57.6411 66.8866L56.3199 67.1152L56.3032 67.1189L55.1641 67.3159Z" fill="#AE6675"/>
<path d="M53.2539 50.1589L53.6943 52.701L56.2382 52.2606L55.2942 51.5953L55.3072 51.6083L54.2128 50.8353L54.1979 50.8242L53.2539 50.1589Z" fill="#AE6675"/>
<path d="M52.2339 54.6892L52.6743 57.2331L55.2163 56.7927L54.2724 56.1275L54.2872 56.1386L53.1927 55.3675L53.1779 55.3545L52.2339 54.6892Z" fill="#AE6675"/>
<path d="M51.2134 59.2214L51.6538 61.7635L54.1958 61.3231L53.2519 60.6578L53.2667 60.6708L52.1722 59.8978L52.1574 59.8867L51.2134 59.2214Z" fill="#AE6675"/>
<path d="M50.1934 63.752L50.6338 66.2959L53.1758 65.8555L52.2318 65.1902L52.2467 65.2014L51.1522 64.4302L51.1373 64.4172L50.1934 63.752Z" fill="#AE6675"/>
<path d="M47.2349 51.2461L48.7233 49.1389L50.8324 50.6255L49.6933 50.8225L49.7119 50.8187L48.3907 51.0455L48.374 51.051L47.2349 51.2461Z" fill="#AE6675"/>
<path d="M46.2148 55.7783L47.7033 53.6692L49.8105 55.1576L48.6733 55.3527L48.6919 55.349L47.3707 55.5776L47.3521 55.5813L46.2148 55.7783Z" fill="#AE6675"/>
<path d="M45.1948 60.3105L46.6814 58.2014L48.7905 59.688L47.6533 59.885L47.6718 59.8812L46.3506 60.108L46.3321 60.1135L45.1948 60.3105Z" fill="#AE6675"/>
<path d="M44.1748 64.8408L45.6614 62.7317L47.7705 64.2201L46.6332 64.4152L46.65 64.4115L45.3306 64.6401L45.312 64.6438L44.1748 64.8408Z" fill="#AE6675"/>
<path d="M42.2642 47.6838L42.7046 50.2259L45.2466 49.7855L44.3026 49.1202L44.3175 49.1333L43.223 48.3602L43.2081 48.3491L42.2642 47.6838Z" fill="#AE6675"/>
<path d="M41.2441 52.2141L41.6845 54.758L44.2266 54.3176L43.2826 53.6524L43.2975 53.6635L42.2011 52.8924L42.1881 52.8794L41.2441 52.2141Z" fill="#AE6675"/>
</g>
<mask id="mask6_2001_112716" style="mask-type:luminance" maskUnits="userSpaceOnUse" x="52" y="31" width="16" height="19">
<path d="M61.2184 31.4983L52.5781 35.2212L58.6768 49.3753L67.3171 45.6525L61.2184 31.4983Z" fill="white"/>
</mask>
<g mask="url(#mask6_2001_112716)">
<path d="M64.147 32.5892L64.593 30.0471L67.135 30.495L66.1892 31.1565L65.0928 31.9258L64.147 32.5892Z" fill="#AE6675"/>
<path d="M65.8955 36.6458L66.3415 34.1038L68.8835 34.5516L67.9377 35.215L66.8395 35.9843L65.8955 36.6458Z" fill="#AE6675"/>
<path d="M57.9351 32.9164L60.0887 34.3361L61.5103 32.1824L60.3786 32.4147L59.0667 32.6841L57.9351 32.9164Z" fill="#AE6675"/>
<path d="M59.6836 36.9729L61.8373 38.3944L63.2588 36.2407L62.1272 36.473L60.8134 36.7406L59.6836 36.9729Z" fill="#AE6675"/>
<path d="M61.4302 41.0311L63.5857 42.4527L65.0054 40.2971L63.8756 40.5294L62.5618 40.7988L61.4302 41.0311Z" fill="#AE6675"/>
<path d="M63.1787 45.0876L65.3324 46.5092L66.7539 44.3555L65.6223 44.5877L64.3104 44.8572L63.1787 45.0876Z" fill="#AE6675"/>
<path d="M64.9272 49.1461L67.0809 50.5676L68.5025 48.4121L67.3708 48.6444L66.0589 48.9138L64.9272 49.1461Z" fill="#AE6675"/>
<path d="M51.6821 33.1485L52.13 30.6064L54.6702 31.0543L53.7243 31.7158L52.628 32.4851L51.6821 33.1485Z" fill="#AE6675"/>
<path d="M53.4307 37.205L53.8766 34.6648L56.4187 35.1108L55.4729 35.7742L54.3765 36.5435L53.4307 37.205Z" fill="#AE6675"/>
<path d="M55.1792 41.2635L55.6252 38.7214L58.1672 39.1674L57.2214 39.8308L56.125 40.6001L55.1792 41.2635Z" fill="#AE6675"/>
<path d="M56.9258 45.32L57.3736 42.7798L59.9157 43.2258L58.9698 43.8891L57.8716 44.6584L56.9258 45.32Z" fill="#AE6675"/>
<path d="M58.6743 49.3782L59.1221 46.8362L61.6623 47.284L60.7184 47.9455L59.6202 48.7149L58.6743 49.3782Z" fill="#AE6675"/>
<path d="M50.7139 45.6469L52.8694 47.0685L54.2891 44.9148L53.1593 45.1471L51.8455 45.4165L50.7139 45.6469Z" fill="#AE6675"/>
<path d="M52.4624 49.7054L54.6161 51.127L56.0376 48.9714L54.906 49.2037L53.5941 49.4732L52.4624 49.7054Z" fill="#AE6675"/>
</g>
<path d="M57.9181 39.3142L55.3594 39.6468L55.692 42.2056L56.3963 41.2914L57.2139 40.2285L57.9181 39.3142Z" fill="#AE6675"/>
<path d="M60.0514 38.3313L58.4756 40.3753L60.5215 41.9511L60.3728 40.8046L60.2 39.476L60.0514 38.3313Z" fill="#AE6675"/>
<path d="M60.8633 36.1292L61.1959 38.6879L63.7547 38.3553L62.8404 37.651L61.7794 36.8334L60.8633 36.1292Z" fill="#AE6675"/>
<path d="M59.8804 33.996L61.9263 35.5699L63.5002 33.5259L62.3555 33.6745L61.0269 33.8474L59.8804 33.996Z" fill="#AE6675"/>
<path d="M57.6787 33.182L60.2375 32.8513L59.9049 30.2925L59.2006 31.2067L58.383 32.2678L57.6787 33.182Z" fill="#AE6675"/>
<path d="M55.5454 34.1651L57.1212 32.121L55.0771 30.5471L55.2239 31.6918L55.3968 33.0204L55.5454 34.1651Z" fill="#AE6675"/>
<path d="M54.7332 36.3688L54.4006 33.8101L51.8418 34.1427L52.756 34.847L53.8189 35.6646L54.7332 36.3688Z" fill="#AE6675"/>
<path d="M55.716 38.502L53.672 36.9263L52.0962 38.9703L53.2409 38.8217L54.5695 38.6507L55.716 38.502Z" fill="#AE6675"/>
<mask id="mask7_2001_112716" style="mask-type:luminance" maskUnits="userSpaceOnUse" x="53" y="35" width="15" height="19">
<path d="M61.4023 35.4008L53.1323 38.9641L59.5898 53.9511L67.8598 50.3877L61.4023 35.4008Z" fill="white"/>
</mask>
<g mask="url(#mask7_2001_112716)">
<path d="M64.4201 36.6977L64.3848 34.1166L66.964 34.0813L66.1594 34.9101L66.1724 34.8952L65.2377 35.8559L65.2247 35.8708L64.4201 36.6977Z" fill="#AE6675"/>
<path d="M66.258 40.9643L66.2227 38.3832L68.8019 38.3479L67.9973 39.1748L68.0103 39.1618L67.0756 40.1225L67.0626 40.1355L66.258 40.9643Z" fill="#AE6675"/>
<path d="M58.3027 36.7366L60.1535 38.5354L61.9523 36.6846L60.7983 36.7013L60.8169 36.7032L59.4771 36.7217L59.4586 36.7199L58.3027 36.7366Z" fill="#AE6675"/>
<path d="M60.1406 41.0032L61.9914 42.802L63.7902 40.9512L62.6362 40.9679H62.6548L61.315 40.9865H61.2964L60.1406 41.0032Z" fill="#AE6675"/>
<path d="M61.9785 45.2679L63.8293 47.0666L65.6281 45.2158L64.4741 45.2325L64.4927 45.2344L63.1529 45.253L63.1343 45.2511L61.9785 45.2679Z" fill="#AE6675"/>
<path d="M63.8164 49.5342L65.6672 51.333L67.466 49.4822L66.312 49.4989H66.3306L64.9908 49.5193L64.9722 49.5175L63.8164 49.5342Z" fill="#AE6675"/>
<path d="M65.6538 53.7989L67.5046 55.5976L69.3034 53.7468L68.1494 53.7635L68.168 53.7654L66.8282 53.784H66.8096L65.6538 53.7989Z" fill="#AE6675"/>
<path d="M52.2355 36.8891L52.2002 34.3099L54.7813 34.2727L53.9748 35.1015L53.9878 35.0866L53.0531 36.0473L53.042 36.0622L52.2355 36.8891Z" fill="#AE6675"/>
<path d="M54.0734 41.1554L54.0381 38.5744L56.6192 38.5391L55.8127 39.3678L55.8257 39.353L54.891 40.3137L54.8799 40.3267L54.0734 41.1554Z" fill="#AE6675"/>
<path d="M55.9113 45.4201L55.876 42.8409L58.457 42.8037L57.6506 43.6325L57.6636 43.6176L56.7289 44.5783L56.7178 44.5932L55.9113 45.4201Z" fill="#AE6675"/>
<path d="M57.7492 49.6867L57.7139 47.1056L60.2949 47.0703L59.4885 47.8991L59.5015 47.8842L58.5668 48.8449L58.5556 48.8579L57.7492 49.6867Z" fill="#AE6675"/>
<path d="M59.5871 53.953L59.5518 51.372L62.1328 51.3367L61.3264 52.1636L61.3394 52.1506L60.4047 53.1113L60.3935 53.1243L59.5871 53.953Z" fill="#AE6675"/>
<path d="M49.7959 45.461L51.6467 47.2579L53.4436 45.4089L52.2896 45.4238L52.3082 45.4257L50.9684 45.4442H50.9499L49.7959 45.461Z" fill="#AE6675"/>
<path d="M51.6338 49.7256L53.4846 51.5244L55.2833 49.6736L54.1275 49.6903L54.1461 49.6922L52.8063 49.7108L52.7878 49.7089L51.6338 49.7256Z" fill="#AE6675"/>
<path d="M53.4717 53.9922L55.3225 55.791L57.1212 53.9402L55.9654 53.9569H55.984L54.6442 53.9755H54.6256L53.4717 53.9922Z" fill="#AE6675"/>
</g>
<mask id="mask8_2001_112716" style="mask-type:luminance" maskUnits="userSpaceOnUse" x="48" y="16" width="20" height="17">
<path d="M53.7789 16.9617L48.9771 25.0522L62.2306 32.9185L67.0324 24.828L53.7789 16.9617Z" fill="white"/>
</mask>
<g mask="url(#mask8_2001_112716)">
<path d="M60.5881 18.3758L59.4546 16.0567L61.7737 14.925L61.3983 16.0177L60.9635 17.285L60.5881 18.3758Z" fill="#AE6675"/>
<path d="M64.3865 20.6315L63.2549 18.3125L65.574 17.179L65.1986 18.2716L64.7619 19.5389L64.3865 20.6315Z" fill="#AE6675"/>
<path d="M48.1548 17.7811L50.734 17.6659L50.6169 15.0867L49.8383 15.9396L48.9352 16.93L48.1548 17.7811Z" fill="#AE6675"/>
<path d="M51.9551 20.037L54.5324 19.9199L54.4172 17.3425L53.6368 18.1955L52.7337 19.184L51.9551 20.037Z" fill="#AE6675"/>
<path d="M55.7549 22.293L58.3322 22.1759L58.2152 19.5967L57.4366 20.4496L56.5335 21.44L55.7549 22.293Z" fill="#AE6675"/>
<path d="M59.5532 24.547L62.1306 24.4299L62.0154 21.8525L61.2368 22.7055L60.3318 23.694L59.5532 24.547Z" fill="#AE6675"/>
<path d="M63.353 26.8028L65.9304 26.6858L65.8133 24.1084L65.0347 24.9595L64.1316 25.9499L63.353 26.8028Z" fill="#AE6675"/>
<path d="M50.8327 26.1543L49.6992 23.8371L52.0183 22.7036L51.6429 23.7963L51.2081 25.0636L50.8327 26.1543Z" fill="#AE6675"/>
<path d="M54.6307 28.4102L53.499 26.0911L55.8181 24.9595L55.4427 26.0503L55.006 27.3176L54.6307 28.4102Z" fill="#AE6675"/>
<path d="M58.431 30.666L57.2993 28.3469L59.6165 27.2134L59.2412 28.306L58.8063 29.5733L58.431 30.666Z" fill="#AE6675"/>
<path d="M62.2288 32.9202L61.0972 30.6011L63.4162 29.4695L63.0409 30.5603L62.6042 31.8276L62.2288 32.9202Z" fill="#AE6675"/>
<path d="M66.0291 35.176L64.8975 32.8569L67.2165 31.7234L66.8393 32.816L66.4045 34.0833L66.0291 35.176Z" fill="#AE6675"/>
<path d="M49.7974 32.3255L52.3766 32.2103L52.2595 29.6311L51.4809 30.484L50.5778 31.4726L49.7974 32.3255Z" fill="#AE6675"/>
<path d="M53.5977 34.5814L56.175 34.4643L56.0598 31.887L55.2794 32.7399L54.3763 33.7285L53.5977 34.5814Z" fill="#AE6675"/>
</g>
<path d="M55.7031 25.2234L53.8281 26.9961L55.6009 28.8711L55.6325 27.7171L55.6696 26.3773L55.7031 25.2234Z" fill="#AE6675"/>
<path d="M56.8494 23.1736L56.7788 25.7528L59.358 25.8253L58.5646 24.9872L57.6429 24.0135L56.8494 23.1736Z" fill="#AE6675"/>
<path d="M56.2124 20.9141L57.987 22.789L59.862 21.0163L58.708 20.9847L57.3682 20.9457L56.2124 20.9141Z" fill="#AE6675"/>
<path d="M54.1646 19.7658L56.7438 19.8383L56.8162 17.259L55.9782 18.0525L55.0045 18.9723L54.1646 19.7658Z" fill="#AE6675"/>
<path d="M51.9048 20.4031L53.7797 18.6303L52.007 16.7554L51.9735 17.9093L51.9364 19.2491L51.9048 20.4031Z" fill="#AE6675"/>
<path d="M50.7563 22.4527L50.8287 19.8735L48.2495 19.801L49.043 20.6391L49.9628 21.6128L50.7563 22.4527Z" fill="#AE6675"/>
<path d="M51.3938 24.7124L49.621 22.8374L47.7461 24.6102L48.9001 24.6417L50.2398 24.6808L51.3938 24.7124Z" fill="#AE6675"/>
<path d="M53.4432 25.8608L50.8621 25.7883L50.7915 28.3675L51.6296 27.5741L52.6033 26.6543L53.4432 25.8608Z" fill="#AE6675"/>
<mask id="mask9_2001_112716" style="mask-type:luminance" maskUnits="userSpaceOnUse" x="51" y="20" width="20" height="17">
<path d="M56.2186 20.008L51.6226 27.7517L65.6559 36.0808L70.252 28.337L56.2186 20.008Z" fill="white"/>
</mask>
<g mask="url(#mask9_2001_112716)">
<path d="M63.4181 21.6556L61.8721 19.5893L63.9384 18.0432L63.7749 19.186L63.7768 19.1674L63.5854 20.4942L63.5835 20.5128L63.4181 21.6556Z" fill="#AE6675"/>
<path d="M67.4137 24.0267L65.8677 21.9604L67.934 20.4143L67.7686 21.5571L67.7705 21.5385L67.5791 22.8653L67.5772 22.8839L67.4137 24.0267Z" fill="#AE6675"/>
<path d="M71.4069 26.3978L69.8608 24.3314L71.9272 22.7854L71.7637 23.9282V23.9096L71.5723 25.2364V25.255L71.4069 26.3978Z" fill="#AE6675"/>
<path d="M50.5054 20.5406L53.0604 20.9086L53.4265 18.3535L52.503 19.0466L52.5178 19.0355L51.4456 19.8382L51.4289 19.8494L50.5054 20.5406Z" fill="#AE6675"/>
<path d="M54.499 22.9117L57.0541 23.2797L57.422 20.7246L56.4966 21.4159L56.5133 21.4066L55.4393 22.2093L55.4244 22.2205L54.499 22.9117Z" fill="#AE6675"/>
<path d="M58.4941 25.2828L61.0473 25.6489L61.4153 23.0957L60.4917 23.787L60.5066 23.7777L59.4344 24.5804L59.4177 24.5897L58.4941 25.2828Z" fill="#AE6675"/>
<path d="M62.4873 27.6539L65.0424 28.02L65.4084 25.4668L64.4849 26.1581L64.4998 26.1488L63.4276 26.9515L63.4127 26.9608L62.4873 27.6539Z" fill="#AE6675"/>
<path d="M66.4824 30.0231L69.0356 30.391L69.4036 27.8359L68.4782 28.5291L68.4949 28.5179L67.4227 29.3225L67.406 29.3318L66.4824 30.0231Z" fill="#AE6675"/>
<path d="M53.6736 28.9714L52.1294 26.905L54.1957 25.3608L54.0304 26.5036L54.0322 26.4851L53.8408 27.81L53.839 27.8286L53.6736 28.9714Z" fill="#AE6675"/>
<path d="M57.6691 31.3426L56.123 29.2763L58.1894 27.7302L58.024 28.873L58.0259 28.8563L57.8345 30.1812V30.1998L57.6691 31.3426Z" fill="#AE6675"/>
<path d="M61.6623 33.7137L60.1182 31.6474L62.1845 30.1013L62.0191 31.2441L62.021 31.2255L61.8296 32.5523L61.8277 32.5709L61.6623 33.7137Z" fill="#AE6675"/>
<path d="M65.6574 36.0848L64.1113 34.0185L66.1777 32.4724L66.0123 33.6152L66.0141 33.5966L65.8228 34.9234L65.8209 34.942L65.6574 36.0848Z" fill="#AE6675"/>
<path d="M69.651 38.4559L68.105 36.3896L70.1713 34.8435L70.0078 35.9863L70.0097 35.9677L69.8183 37.2945L69.8164 37.3131L69.651 38.4559Z" fill="#AE6675"/>
<path d="M48.7495 32.5988L51.3046 32.9667L51.6706 30.4116L50.7471 31.1047L50.762 31.0936L49.6898 31.8963L49.6731 31.9075L48.7495 32.5988Z" fill="#AE6675"/>
<path d="M52.7427 34.9699L55.2977 35.3378L55.6657 32.7827L54.7403 33.4758L54.757 33.4647L53.6829 34.2674L53.6681 34.2786L52.7427 34.9699Z" fill="#AE6675"/>
<path d="M56.7378 37.3409L59.291 37.7089L59.6589 35.1538L58.7354 35.8451L58.7503 35.8358L57.6781 36.6385L57.6613 36.6478L56.7378 37.3409Z" fill="#AE6675"/>
</g>
<mask id="mask10_2001_112716" style="mask-type:luminance" maskUnits="userSpaceOnUse" x="39" y="8" width="17" height="11">
<path d="M54.5638 8.14547L39.2178 9.57178L40.0884 18.9396L55.4344 17.5133L54.5638 8.14547Z" fill="white"/>
</mask>
<g mask="url(#mask10_2001_112716)">
<path d="M39.5479 13.1315L41.564 11.5223L39.9548 9.5061L39.8266 10.6526L39.6761 11.985L39.5479 13.1315Z" fill="#AE6675"/>
<path d="M43.9463 12.7228L45.9643 11.1136L44.3532 9.09741L44.225 10.2439L44.0764 11.5763L43.9463 12.7228Z" fill="#AE6675"/>
<path d="M48.3467 12.3139L50.3629 10.7046L48.7536 8.68848L48.6236 9.835L48.4749 11.1673L48.3467 12.3139Z" fill="#AE6675"/>
<path d="M52.7451 11.9052L54.7613 10.296L53.1521 8.27979L53.0239 9.42631L52.8733 10.7587L52.7451 11.9052Z" fill="#AE6675"/>
<path d="M42.2347 18.7417L39.9565 17.532L41.1662 15.252L41.5044 16.3557L41.8965 17.6379L42.2347 18.7417Z" fill="#AE6675"/>
<path d="M46.635 18.3328L44.355 17.1231L45.5665 14.843L45.9047 15.9468L46.2968 17.229L46.635 18.3328Z" fill="#AE6675"/>
<path d="M51.0336 17.9241L48.7554 16.7144L49.9651 14.4343L50.3033 15.5381L50.6954 16.8203L51.0336 17.9241Z" fill="#AE6675"/>
<path d="M55.432 17.5151L53.1538 16.3054L54.3635 14.0254L54.7017 15.1292L55.0938 16.4114L55.432 17.5151Z" fill="#AE6675"/>
</g>
<path d="M45.628 15.1238L45.1523 17.6603L47.6888 18.136L47.0366 17.1827L46.2803 16.077L45.628 15.1238Z" fill="#AE6675"/>
<path d="M45.3511 12.7935L46.8098 14.923L48.9393 13.4643L47.8039 13.2524L46.4865 13.0053L45.3511 12.7935Z" fill="#AE6675"/>
<path d="M43.5078 11.3384L46.0443 11.8141L46.52 9.27759L45.5667 9.92983L44.4611 10.6861L43.5078 11.3384Z" fill="#AE6675"/>
<path d="M41.1758 11.6153L43.3053 10.1566L41.8485 8.0271L41.6348 9.16248L41.3895 10.48L41.1758 11.6153Z" fill="#AE6675"/>
<path d="M39.7223 13.4587L40.1961 10.9222L37.6597 10.4465L38.3119 11.3998L39.0701 12.5054L39.7223 13.4587Z" fill="#AE6675"/>
<path d="M39.9975 15.7907L38.5407 13.6611L36.4111 15.118L37.5465 15.3317L38.8621 15.577L39.9975 15.7907Z" fill="#AE6675"/>
<path d="M41.8427 17.2439L39.3063 16.77L38.8306 19.3065L39.7838 18.6543L40.8895 17.8961L41.8427 17.2439Z" fill="#AE6675"/>
<path d="M44.173 16.969L42.0435 18.4258L43.5022 20.5554L43.714 19.42L43.9611 18.1044L44.173 16.969Z" fill="#AE6675"/>
<mask id="mask11_2001_112716" style="mask-type:luminance" maskUnits="userSpaceOnUse" x="42" y="9" width="19" height="11">
<path d="M59.2323 9.09134L42.9834 10.6016L43.8168 19.5679L60.0657 18.0577L59.2323 9.09134Z" fill="white"/>
</mask>
<g mask="url(#mask11_2001_112716)">
<path d="M43.2959 13.9621L45.5778 12.758L44.3737 10.4761L44.0336 11.578L44.0392 11.5613L43.6434 12.8416L43.6378 12.8583L43.2959 13.9621Z" fill="#AE6675"/>
<path d="M47.9209 13.5328L50.2028 12.3287L48.9987 10.0449L48.6568 11.1487L48.6642 11.132L48.2684 12.4123L48.261 12.429L47.9209 13.5328Z" fill="#AE6675"/>
<path d="M52.5464 13.1018L54.8283 11.8976L53.6242 9.61572L53.2822 10.7195L53.2897 10.7009L52.8939 11.9812L52.8864 11.9998L52.5464 13.1018Z" fill="#AE6675"/>
<path d="M57.1694 12.6726L59.4532 11.4684L58.2491 9.18652L57.9071 10.2903L57.9146 10.2717L57.5188 11.552L57.5113 11.5688L57.1694 12.6726Z" fill="#AE6675"/>
<path d="M46.191 19.3491L43.7251 18.5872L44.4888 16.1213L45.0277 17.1434L45.0166 17.1266L45.6428 18.3122L45.6521 18.3289L46.191 19.3491Z" fill="#AE6675"/>
<path d="M50.816 18.9199L48.3501 18.158L49.1138 15.6921L49.6527 16.7142L49.6416 16.6974L50.2678 17.883L50.2771 17.8979L50.816 18.9199Z" fill="#AE6675"/>
<path d="M55.4396 18.4907L52.9756 17.7269L53.7393 15.2629L54.2763 16.2831L54.2671 16.2682L54.8914 17.4538L54.9026 17.4687L55.4396 18.4907Z" fill="#AE6675"/>
<path d="M60.0646 18.0614L57.6006 17.2977L58.3625 14.8318L58.9013 15.8538L58.892 15.8389L59.5164 17.0226L59.5276 17.0394L60.0646 18.0614Z" fill="#AE6675"/>
</g>
<mask id="mask12_2001_112716" style="mask-type:luminance" maskUnits="userSpaceOnUse" x="23" y="1" width="18" height="19">
<path d="M34.6686 1.98001L23.0918 12.1541L29.3025 19.221L40.8793 9.04696L34.6686 1.98001Z" fill="white"/>
</mask>
<g mask="url(#mask12_2001_112716)">
<path d="M23.2193 9.03245L20.6642 9.39295L20.3037 6.83789L21.2272 7.53287L22.2976 8.33748L23.2193 9.03245Z" fill="#AE6675"/>
<path d="M26.5381 6.11683L23.9831 6.47733L23.6226 3.92041L24.5461 4.61539L25.6164 5.42186L26.5381 6.11683Z" fill="#AE6675"/>
<path d="M29.857 3.19945L27.3019 3.55994L26.9414 1.00488L27.8649 1.69986L28.9353 2.50447L29.857 3.19945Z" fill="#AE6675"/>
<path d="M25.4509 14.8394L26.1366 12.3512L23.6484 11.6655L24.2189 12.6708L24.8804 13.8359L25.4509 14.8394Z" fill="#AE6675"/>
<path d="M28.7698 11.9238L29.4555 9.43569L26.9673 8.75L27.5378 9.75344L28.1993 10.9185L28.7698 11.9238Z" fill="#AE6675"/>
<path d="M32.0886 9.00637L32.7743 6.51821L30.2861 5.83252L30.8566 6.83782L31.5181 8.00293L32.0886 9.00637Z" fill="#AE6675"/>
<path d="M35.4075 6.09084L36.0931 3.60268L33.605 2.91699L34.1755 3.92044L34.837 5.08554L35.4075 6.09084Z" fill="#AE6675"/>
<path d="M38.7263 3.17336L39.412 0.685197L36.9238 -0.000488281L37.4943 1.00481L38.1558 2.16992L38.7263 3.17336Z" fill="#AE6675"/>
<path d="M27.6031 20.715L25.048 21.0736L24.6875 18.5186L25.611 19.2135L26.6814 20.02L27.6031 20.715Z" fill="#AE6675"/>
<path d="M30.9214 17.7976L28.3664 18.1581L28.0059 15.603L28.9294 16.298L29.9997 17.1026L30.9214 17.7976Z" fill="#AE6675"/>
<path d="M34.2403 14.882L31.6852 15.2406L31.3247 12.6855L32.2482 13.3805L33.3186 14.187L34.2403 14.882Z" fill="#AE6675"/>
<path d="M37.5591 11.9646L35.0041 12.3251L34.6436 9.77002L35.5671 10.465L36.6374 11.2696L37.5591 11.9646Z" fill="#AE6675"/>
<path d="M40.878 9.04896L38.3229 9.40946L37.9624 6.85254L38.8859 7.54752L39.9563 8.35399L40.878 9.04896Z" fill="#AE6675"/>
<path d="M36.4719 20.6871L37.1576 18.2008L34.6694 17.5151L35.2399 18.5186L35.9014 19.6837L36.4719 20.6871Z" fill="#AE6675"/>
<path d="M39.7908 17.7715L40.4764 15.2833L37.9883 14.5977L38.5588 15.6011L39.2203 16.7681L39.7908 17.7715Z" fill="#AE6675"/>
</g>
<path d="M31.5405 12.8772L32.648 15.2093L34.9782 14.1018L33.8912 13.7153L32.6294 13.2656L31.5405 12.8772Z" fill="#AE6675"/>
<path d="M29.9463 11.1528L32.3787 12.0187L33.2446 9.58813L32.2003 10.0824L30.9906 10.6585L29.9463 11.1528Z" fill="#AE6675"/>
<path d="M27.6011 11.0598L29.9313 9.95414L28.8256 7.62207L28.4373 8.71099L27.9876 9.97272L27.6011 11.0598Z" fill="#AE6675"/>
<path d="M25.8766 12.6542L26.7426 10.2236L24.312 9.35767L24.8063 10.4001L25.3805 11.6117L25.8766 12.6542Z" fill="#AE6675"/>
<path d="M25.7839 15.001L24.6783 12.6689L22.3462 13.7764L23.4333 14.163L24.6968 14.6126L25.7839 15.001Z" fill="#AE6675"/>
<path d="M27.378 16.7256L24.9475 15.8596L24.0815 18.2902L25.124 17.7959L26.3337 17.2198L27.378 16.7256Z" fill="#AE6675"/>
<path d="M29.7233 16.8184L27.3931 17.924L28.4987 20.2561L28.8871 19.1672L29.3368 17.9054L29.7233 16.8184Z" fill="#AE6675"/>
<path d="M31.448 15.2241L30.582 17.6547L33.0144 18.5206L32.5183 17.4781L31.9441 16.2666L31.448 15.2241Z" fill="#AE6675"/>
<mask id="mask13_2001_112716" style="mask-type:luminance" maskUnits="userSpaceOnUse" x="26" y="0" width="19" height="18">
<path d="M39.0026 3.86037e-05L26.7446 10.7727L32.6891 17.5368L44.9471 6.76411L39.0026 3.86037e-05Z" fill="white"/>
</mask>
<g mask="url(#mask13_2001_112716)">
<path d="M27.0437 7.50317L24.6002 8.3338L23.7695 5.89209L24.8046 6.40124L24.7878 6.39381L25.9901 6.98658L26.0068 6.99216L27.0437 7.50317Z" fill="#AE6675"/>
<path d="M30.5334 4.43725L28.0898 5.26788L27.2573 2.82617L28.2942 3.33532L28.2775 3.32789L29.4798 3.92067L29.4965 3.92624L30.5334 4.43725Z" fill="#AE6675"/>
<path d="M34.0213 1.37109L31.5777 2.20172L30.7471 -0.23999L31.784 0.269162L31.7654 0.26173L32.9677 0.854505L32.9862 0.860079L34.0213 1.37109Z" fill="#AE6675"/>
<path d="M28.9707 13.3082L30.1098 10.991L27.7944 9.85376L28.1661 10.9464L28.1624 10.9278L28.5935 12.197L28.599 12.2137L28.9707 13.3082Z" fill="#AE6675"/>
<path d="M32.4603 10.2423L33.5994 7.92508L31.2822 6.78784L31.6557 7.88048L31.6502 7.8619L32.0831 9.13106L32.0868 9.14779L32.4603 10.2423Z" fill="#AE6675"/>
<path d="M35.9482 7.17612L37.0873 4.85892L34.772 3.72168L35.1436 4.81432L35.1399 4.79573L35.571 6.0649L35.5766 6.08163L35.9482 7.17612Z" fill="#AE6675"/>
<path d="M39.4379 4.11021L40.577 1.793L38.2598 0.655762L38.6333 1.7484L38.6277 1.72982L39.0607 2.99898L39.0662 3.01571L39.4379 4.11021Z" fill="#AE6675"/>
<path d="M42.9276 1.04404L44.0649 -1.27316L41.7495 -2.4104L42.1212 -1.31776L42.1174 -1.33635L42.5504 -0.0671778L42.5541 -0.0485945L42.9276 1.04404Z" fill="#AE6675"/>
<path d="M30.9905 19.0317L28.5488 19.8624L27.7163 17.4207L28.7532 17.9298L28.7365 17.9224L29.9387 18.5151L29.9555 18.5207L30.9905 19.0317Z" fill="#AE6675"/>
<path d="M34.4802 15.9656L32.0367 16.7962L31.2061 14.3545L32.2411 14.8636L32.2244 14.8562L33.4266 15.449L33.4434 15.4546L34.4802 15.9656Z" fill="#AE6675"/>
<path d="M37.9699 12.8994L35.5263 13.73L34.6938 11.2883L35.7307 11.7975L35.714 11.79L36.9163 12.3828L36.933 12.3884L37.9699 12.8994Z" fill="#AE6675"/>
<path d="M41.4578 9.83349L39.0142 10.6641L38.1836 8.22241L39.2205 8.73157L39.2019 8.72413L40.4042 9.31691L40.4228 9.32248L41.4578 9.83349Z" fill="#AE6675"/>
<path d="M44.9475 6.76733L42.504 7.59796L41.6733 5.15625L42.7084 5.6654L42.6916 5.65797L43.8939 6.25074L43.9106 6.25632L44.9475 6.76733Z" fill="#AE6675"/>
<path d="M39.8969 18.7047L41.0341 16.3875L38.7188 15.2502L39.0923 16.3429L39.0867 16.3243L39.5196 17.5935L39.5234 17.6102L39.8969 18.7047Z" fill="#AE6675"/>
<path d="M43.3848 15.6385L44.5238 13.3213L42.2085 12.1841L42.5801 13.2767L42.5764 13.2581L43.0075 14.5273L43.0131 14.544L43.3848 15.6385Z" fill="#AE6675"/>
</g>
<mask id="mask14_2001_112716" style="mask-type:luminance" maskUnits="userSpaceOnUse" x="11" y="8" width="14" height="18">
<path d="M14.9487 8.68359L11.563 23.7192L20.7414 25.786L24.127 10.7503L14.9487 8.68359Z" fill="white"/>
</mask>
<g mask="url(#mask14_2001_112716)">
<path d="M11.7727 12.5002L9.91819 14.2934L8.125 12.437L9.27896 12.4574L10.6187 12.4798L11.7727 12.5002Z" fill="#AE6675"/>
<path d="M12.7448 8.18901L10.8884 9.9822L9.09521 8.12769L10.2492 8.14627L11.589 8.17042L12.7448 8.18901Z" fill="#AE6675"/>
<path d="M15.0504 24.506L14.1418 22.0903L11.7261 22.9971L12.7778 23.4747L13.9987 24.0285L15.0504 24.506Z" fill="#AE6675"/>
<path d="M16.0207 20.1969L15.1139 17.7812L12.6982 18.6881L13.7481 19.1656L14.969 19.7194L16.0207 20.1969Z" fill="#AE6675"/>
<path d="M16.9905 15.8859L16.0837 13.4702L13.668 14.377L14.7197 14.8546L15.9387 15.4083L16.9905 15.8859Z" fill="#AE6675"/>
<path d="M17.9626 11.5766L17.0539 9.16089L14.6382 10.0677L15.6899 10.5453L16.9108 11.099L17.9626 11.5766Z" fill="#AE6675"/>
<path d="M21.216 23.6829L19.3596 25.4761L17.5664 23.6216L18.7204 23.6402L20.0601 23.6643L21.216 23.6829Z" fill="#AE6675"/>
<path d="M22.1862 19.3737L20.3317 21.1669L18.5366 19.3105L19.6924 19.331L21.0322 19.3533L22.1862 19.3737Z" fill="#AE6675"/>
<path d="M23.156 15.0625L21.3015 16.8557L19.5083 15.0012L20.6623 15.0198L22.002 15.044L23.156 15.0625Z" fill="#AE6675"/>
<path d="M24.1281 10.7534L22.2717 12.5466L20.4785 10.6902L21.6325 10.7106L22.9723 10.7329L24.1281 10.7534Z" fill="#AE6675"/>
<path d="M26.4342 27.0705L25.5256 24.6548L23.1099 25.5616L24.1616 26.0392L25.3825 26.5929L26.4342 27.0705Z" fill="#AE6675"/>
<path d="M27.404 22.7594L26.4971 20.3438L24.0796 21.2524L25.1313 21.7281L26.3522 22.2819L27.404 22.7594Z" fill="#AE6675"/>
</g>
<path d="M18.8247 19.3402L21.0899 20.574L22.3256 18.3088L21.2181 18.6359L19.9322 19.0131L18.8247 19.3402Z" fill="#AE6675"/>
<path d="M16.5205 18.8811L18.9957 18.1526L18.2672 15.6775L17.7153 16.6902L17.0743 17.8665L16.5205 18.8811Z" fill="#AE6675"/>
<path d="M14.5675 20.1855L15.8033 17.9203L13.5381 16.6846L13.8633 17.7921L14.2424 19.078L14.5675 20.1855Z" fill="#AE6675"/>
<path d="M14.1103 22.4879L13.3819 20.0127L10.9067 20.7411L11.9195 21.293L13.0957 21.936L14.1103 22.4879Z" fill="#AE6675"/>
<path d="M15.415 24.4408L13.1498 23.2051L11.9141 25.4703L13.0216 25.1451L14.3075 24.766L15.415 24.4408Z" fill="#AE6675"/>
<path d="M17.7173 24.8999L15.2422 25.6283L15.9706 28.1035L16.5225 27.0889L17.1655 25.9126L17.7173 24.8999Z" fill="#AE6675"/>
<path d="M19.6703 23.5955L18.4346 25.8606L20.6997 27.0964L20.3746 25.9889L19.9955 24.703L19.6703 23.5955Z" fill="#AE6675"/>
<path d="M20.1274 21.2913L20.8559 23.7683L23.3329 23.0399L22.3183 22.4861L21.142 21.845L20.1274 21.2913Z" fill="#AE6675"/>
<mask id="mask15_2001_112716" style="mask-type:luminance" maskUnits="userSpaceOnUse" x="13" y="4" width="14" height="19">
<path d="M17.2929 4.53477L13.708 20.4551L22.493 22.4333L26.0779 6.51294L17.2929 4.53477Z" fill="white"/>
</mask>
<g mask="url(#mask15_2001_112716)">
<path d="M14.0677 8.57153L12.5793 10.6806L10.4702 9.19218L11.6093 8.99707L11.5907 9.00078L12.9119 8.77222L12.9286 8.7685L14.0677 8.57153Z" fill="#AE6675"/>
<path d="M15.0879 4.04126L13.5994 6.14849L11.4922 4.66191L12.6294 4.46494L12.6108 4.46865L13.932 4.24195L13.9506 4.23637L15.0879 4.04126Z" fill="#AE6675"/>
<path d="M16.9981 21.1982L16.5577 18.6543L14.0156 19.0947L14.9577 19.7599L14.9447 19.7488L16.0392 20.52L16.0541 20.533L16.9981 21.1982Z" fill="#AE6675"/>
<path d="M18.0186 16.6661L17.5782 14.124L15.0361 14.5644L15.9801 15.2297L15.9652 15.2167L17.0597 15.9897L17.0746 16.0008L18.0186 16.6661Z" fill="#AE6675"/>
<path d="M19.0386 12.1357L18.5982 9.5918L16.0562 10.0322L17.0001 10.6974L16.9853 10.6863L18.0798 11.4575L18.0946 11.4705L19.0386 12.1357Z" fill="#AE6675"/>
<path d="M20.0586 7.60357L19.6182 5.06152L17.0762 5.50192L18.0202 6.16717L18.0053 6.15416L19.1016 6.92718L19.1146 6.93833L20.0586 7.60357Z" fill="#AE6675"/>
<path d="M23.017 20.1094L21.5285 22.2185L19.4194 20.73L20.5585 20.5331L20.5399 20.5386L21.8611 20.3101L21.8779 20.3063L23.017 20.1094Z" fill="#AE6675"/>
<path d="M24.0371 15.5791L22.5486 17.6863L20.4414 16.1997L21.5786 16.0028L21.5601 16.0065L22.8813 15.7798L22.8998 15.7742L24.0371 15.5791Z" fill="#AE6675"/>
<path d="M25.0571 11.0469L23.5705 13.156L21.4614 11.6675L22.5987 11.4724L22.5819 11.4761L23.9013 11.2476L23.9199 11.2438L25.0571 11.0469Z" fill="#AE6675"/>
<path d="M26.0776 6.51636L24.591 8.62358L22.4819 7.137L23.6192 6.94003L23.6024 6.94375L24.9218 6.71705L24.9404 6.71147L26.0776 6.51636Z" fill="#AE6675"/>
<path d="M27.9878 23.6735L27.5474 21.1296L25.0054 21.57L25.9494 22.2353L25.9345 22.2241L27.029 22.9953L27.0438 23.0083L27.9878 23.6735Z" fill="#AE6675"/>
<path d="M29.0078 19.1412L28.5674 16.5991L26.0254 17.0395L26.9694 17.7048L26.9545 17.6918L28.0509 18.4648L28.0639 18.4759L29.0078 19.1412Z" fill="#AE6675"/>
</g>
<mask id="mask16_2001_112716" style="mask-type:luminance" maskUnits="userSpaceOnUse" x="2" y="21" width="16" height="19">
<path d="M11.5802 21.9763L2.93994 25.6992L9.03861 39.8534L17.6789 36.1305L11.5802 21.9763Z" fill="white"/>
</mask>
<g mask="url(#mask16_2001_112716)">
<path d="M6.10521 38.7676L5.65924 41.3078L3.11719 40.8618L4.06303 40.1984L5.15938 39.4291L6.10521 38.7676Z" fill="#AE6675"/>
<path d="M4.35854 34.7092L3.91071 37.2513L1.36865 36.8053L2.31449 36.1419L3.4127 35.3726L4.35854 34.7092Z" fill="#AE6675"/>
<path d="M12.3174 38.4406L10.1637 37.019L8.74219 39.1727L9.87385 38.9404L11.1858 38.671L12.3174 38.4406Z" fill="#AE6675"/>
<path d="M10.5689 34.3822L8.4152 32.9607L6.99365 35.1162L8.12531 34.884L9.43908 34.6145L10.5689 34.3822Z" fill="#AE6675"/>
<path d="M8.82181 30.3256L6.66627 28.9041L5.24658 31.0577L6.37638 30.8255L7.69015 30.556L8.82181 30.3256Z" fill="#AE6675"/>
<path d="M7.07327 26.2672L4.91959 24.8457L3.49805 27.0012L4.62971 26.769L5.94161 26.4995L7.07327 26.2672Z" fill="#AE6675"/>
<path d="M5.32474 22.209L3.17105 20.7893L1.74951 22.943L2.88117 22.7107L4.19308 22.4413L5.32474 22.209Z" fill="#AE6675"/>
<path d="M18.5701 38.2083L18.1222 40.7484L15.582 40.3025L16.5279 39.6391L17.6242 38.8698L18.5701 38.2083Z" fill="#AE6675"/>
<path d="M16.8215 34.1499L16.3755 36.692L13.8335 36.2441L14.7793 35.5826L15.8757 34.8133L16.8215 34.1499Z" fill="#AE6675"/>
<path d="M15.0748 30.0916L14.627 32.6336L12.085 32.1876L13.0308 31.5242L14.129 30.7549L15.0748 30.0916Z" fill="#AE6675"/>
<path d="M13.3263 26.0352L12.8785 28.5772L10.3364 28.1294L11.2823 27.4678L12.3805 26.6985L13.3263 26.0352Z" fill="#AE6675"/>
<path d="M11.5779 21.9768L11.13 24.5189L8.58984 24.0729L9.53568 23.4095L10.632 22.6402L11.5779 21.9768Z" fill="#AE6675"/>
<path d="M19.5386 25.7079L17.3831 24.2864L15.9634 26.4419L17.0932 26.2096L18.4069 25.9402L19.5386 25.7079Z" fill="#AE6675"/>
<path d="M17.7896 21.6497L15.634 20.23L14.2144 22.3837L15.346 22.1514L16.6579 21.8819L17.7896 21.6497Z" fill="#AE6675"/>
</g>
<path d="M12.334 32.0411L14.8928 31.7103L14.5601 29.1497L13.8559 30.0658L13.0383 31.1268L12.334 32.0411Z" fill="#AE6675"/>
<path d="M10.2006 33.024L11.7764 30.9799L9.73047 29.406L9.87913 30.5507L10.0519 31.8793L10.2006 33.024Z" fill="#AE6675"/>
<path d="M9.38847 35.228L9.05585 32.6692L6.49707 33L7.41132 33.7061L8.47237 34.5237L9.38847 35.228Z" fill="#AE6675"/>
<path d="M10.3713 37.3593L8.32538 35.7854L6.75146 37.8294L7.89613 37.6808L9.22476 37.508L10.3713 37.3593Z" fill="#AE6675"/>
<path d="M12.5734 38.1733L10.0146 38.506L10.3473 41.0647L11.0515 40.1505L11.8692 39.0876L12.5734 38.1733Z" fill="#AE6675"/>
<path d="M14.7066 37.1902L13.1309 39.2342L15.1749 40.81L15.0262 39.6635L14.8553 38.3349L14.7066 37.1902Z" fill="#AE6675"/>
<path d="M15.5186 34.9883L15.8512 37.5471L18.41 37.2144L17.4957 36.5102L16.4347 35.6926L15.5186 34.9883Z" fill="#AE6675"/>
<path d="M14.5356 32.8549L16.5797 34.4288L18.1555 32.3848L17.0108 32.5334L15.6803 32.7062L14.5356 32.8549Z" fill="#AE6675"/>
<mask id="mask17_2001_112716" style="mask-type:luminance" maskUnits="userSpaceOnUse" x="2" y="17" width="16" height="19">
<path d="M10.6655 17.4013L2.39551 20.9646L8.853 35.9515L17.123 32.3882L10.6655 17.4013Z" fill="white"/>
</mask>
<g mask="url(#mask17_2001_112716)">
<path d="M5.83151 34.6572L5.86681 37.2383L3.2876 37.2736L4.09221 36.4467L4.08106 36.4597L5.01389 35.5009L5.0269 35.486L5.83151 34.6572Z" fill="#AE6675"/>
<path d="M3.99362 30.3928L4.02892 32.972L1.44971 33.0092L2.25432 32.1804L2.24317 32.1953L3.176 31.2346L3.18901 31.2197L3.99362 30.3928Z" fill="#AE6675"/>
<path d="M11.9489 34.6183L10.0981 32.8196L8.29932 34.6704L9.45327 34.6536H9.43469L10.7745 34.6351H10.7931L11.9489 34.6183Z" fill="#AE6675"/>
<path d="M10.111 30.3537L8.26019 28.5549L6.46143 30.4057L7.61539 30.389L7.5968 30.3871L8.93658 30.3686H8.95517L10.111 30.3537Z" fill="#AE6675"/>
<path d="M8.27358 26.0871L6.42279 24.2883L4.62402 26.1391L5.77798 26.1224H5.7594L7.09918 26.102L7.11776 26.1038L8.27358 26.0871Z" fill="#AE6675"/>
<path d="M6.43569 21.8208L4.5849 20.0239L2.78613 21.8747L3.94009 21.858L3.92151 21.8561L5.26129 21.8376H5.27987L6.43569 21.8208Z" fill="#AE6675"/>
<path d="M4.59594 17.5561L2.747 15.7573L0.948242 17.6081L2.1022 17.5914H2.08362L3.4234 17.571L3.44198 17.5728L4.59594 17.5561Z" fill="#AE6675"/>
<path d="M18.0161 34.4661L18.0514 37.0471L15.4722 37.0824L16.2768 36.2555L16.2638 36.2685L17.1985 35.3078L17.2115 35.2948L18.0161 34.4661Z" fill="#AE6675"/>
<path d="M16.1782 30.2014L16.2135 32.7806L13.6343 32.8159L14.4389 31.989L14.4259 32.0039L15.3606 31.0432L15.3736 31.0283L16.1782 30.2014Z" fill="#AE6675"/>
<path d="M14.3407 25.9348L14.376 28.514L11.7949 28.5512L12.6014 27.7224L12.5884 27.7373L13.5231 26.7766L13.5361 26.7617L14.3407 25.9348Z" fill="#AE6675"/>
<path d="M12.5028 21.6702L12.5381 24.2494L9.95703 24.2847L10.7635 23.4578L10.7505 23.4726L11.6852 22.5119L11.6982 22.4971L12.5028 21.6702Z" fill="#AE6675"/>
<path d="M10.6649 17.4038L10.7002 19.983L8.11914 20.0202L8.92561 19.1914L8.9126 19.2063L9.84729 18.2456L9.8603 18.2307L10.6649 17.4038Z" fill="#AE6675"/>
<path d="M20.4557 25.8959L18.6049 24.0972L16.8062 25.948L17.962 25.9312L17.9434 25.9294L19.2832 25.9108L19.3017 25.9127L20.4557 25.8959Z" fill="#AE6675"/>
<path d="M18.6183 21.6293L16.7675 19.8306L14.9688 21.6814L16.1246 21.6646H16.106L17.4458 21.6461H17.4643L18.6183 21.6293Z" fill="#AE6675"/>
<path d="M16.7804 17.3647L14.9296 15.5659L13.1309 17.4167L14.2867 17.4L14.2681 17.3981L15.6079 17.3795L15.6265 17.3814L16.7804 17.3647Z" fill="#AE6675"/>
</g>
<mask id="mask18_2001_112716" style="mask-type:luminance" maskUnits="userSpaceOnUse" x="3" y="38" width="19" height="17">
<path d="M8.02307 38.4329L3.22119 46.5234L16.4747 54.3897L21.2766 46.2992L8.02307 38.4329Z" fill="white"/>
</mask>
<g mask="url(#mask18_2001_112716)">
<path d="M9.66543 52.9795L10.7971 55.2986L8.47803 56.4321L8.85339 55.3394L9.29007 54.0721L9.66543 52.9795Z" fill="#AE6675"/>
<path d="M5.86524 50.7256L6.9969 53.0447L4.67969 54.1763L5.05505 53.0837L5.48987 51.8164L5.86524 50.7256Z" fill="#AE6675"/>
<path d="M22.0968 53.5742L19.5176 53.6913L19.6346 56.2686L20.4132 55.4157L21.3163 54.4271L22.0968 53.5742Z" fill="#AE6675"/>
<path d="M18.2966 51.3184L15.7192 51.4354L15.8344 54.0146L16.6149 53.1617L17.518 52.1713L18.2966 51.3184Z" fill="#AE6675"/>
<path d="M14.4968 49.0642L11.9194 49.1813L12.0365 51.7586L12.8151 50.9057L13.7182 49.9171L14.4968 49.0642Z" fill="#AE6675"/>
<path d="M10.6985 46.8083L8.12109 46.9254L8.2363 49.5046L9.01676 48.6517L9.91985 47.6613L10.6985 46.8083Z" fill="#AE6675"/>
<path d="M6.89816 44.5544L4.3208 44.6715L4.43787 47.2489L5.21646 46.3959L6.11956 45.4074L6.89816 44.5544Z" fill="#AE6675"/>
<path d="M19.4189 45.2009L20.5525 47.52L18.2334 48.6516L18.6088 47.5609L19.0436 46.2936L19.4189 45.2009Z" fill="#AE6675"/>
<path d="M15.621 42.9451L16.7527 45.2641L14.4336 46.3977L14.809 45.305L15.2456 44.0377L15.621 42.9451Z" fill="#AE6675"/>
<path d="M11.8208 40.6912L12.9525 43.0102L10.6353 44.1419L11.0106 43.0493L11.4454 41.7838L11.8208 40.6912Z" fill="#AE6675"/>
<path d="M8.02286 38.4353L9.15451 40.7544L6.83545 41.8879L7.21081 40.7952L7.64749 39.5279L8.02286 38.4353Z" fill="#AE6675"/>
<path d="M4.22256 36.1812L5.35422 38.5002L3.03516 39.6319L3.41238 38.5392L3.8472 37.2719L4.22256 36.1812Z" fill="#AE6675"/>
<path d="M20.4542 39.0298L17.875 39.1469L17.9921 41.7242L18.7707 40.8713L19.6738 39.8827L20.4542 39.0298Z" fill="#AE6675"/>
<path d="M16.654 36.7759L14.0767 36.8911L14.1937 39.4703L14.9723 38.6174L15.8754 37.6269L16.654 36.7759Z" fill="#AE6675"/>
</g>
<path d="M14.5488 46.1338L16.4238 44.361L14.651 42.4861L14.6194 43.64L14.5823 44.9798L14.5488 46.1338Z" fill="#AE6675"/>
<path d="M13.4022 48.1815L13.4746 45.6023L10.8936 45.5298L11.687 46.3697L12.6087 47.3434L13.4022 48.1815Z" fill="#AE6675"/>
<path d="M14.0378 50.4411L12.2651 48.5662L10.3901 50.3389L11.5441 50.3724L12.8839 50.4095L14.0378 50.4411Z" fill="#AE6675"/>
<path d="M16.0872 51.5896L13.508 51.5171L13.4355 54.0963L14.2736 53.3028L15.2473 52.383L16.0872 51.5896Z" fill="#AE6675"/>
<path d="M18.3471 50.9521L16.4722 52.7249L18.2449 54.5998L18.2784 53.4459L18.3155 52.1061L18.3471 50.9521Z" fill="#AE6675"/>
<path d="M19.4953 48.9043L19.4229 51.4835L22.0021 51.556L21.2086 50.7161L20.2888 49.7424L19.4953 48.9043Z" fill="#AE6675"/>
<path d="M18.8579 46.6428L20.6307 48.5196L22.5056 46.7469L21.3516 46.7134L20.0119 46.6763L18.8579 46.6428Z" fill="#AE6675"/>
<path d="M16.8086 45.4965L19.3897 45.569L19.4603 42.9897L18.6222 43.7832L17.6485 44.703L16.8086 45.4965Z" fill="#AE6675"/>
<mask id="mask19_2001_112716" style="mask-type:luminance" maskUnits="userSpaceOnUse" x="0" y="35" width="19" height="17">
<path d="M4.59607 35.2704L0 43.0142L14.0333 51.3432L18.6294 43.5995L4.59607 35.2704Z" fill="white"/>
</mask>
<g mask="url(#mask19_2001_112716)">
<path d="M6.83329 49.6997L8.37933 51.7679L6.31299 53.3121L6.47651 52.1693L6.47465 52.1879L6.66605 50.863L6.66791 50.8444L6.83329 49.6997Z" fill="#AE6675"/>
<path d="M2.83817 47.3306L4.38422 49.3969L2.31787 50.943L2.48325 49.7983L2.4814 49.8169L2.67279 48.492L2.67465 48.4734L2.83817 47.3306Z" fill="#AE6675"/>
<path d="M-1.15499 44.9595L0.391054 47.0258L-1.67529 48.5719L-1.51177 47.4291V47.4476L-1.32037 46.1209V46.1023L-1.15499 44.9595Z" fill="#AE6675"/>
<path d="M19.7463 50.8148L17.1913 50.4487L16.8252 53.0019L17.7487 52.3107L17.7339 52.32L18.8061 51.5172L18.8228 51.5079L19.7463 50.8148Z" fill="#AE6675"/>
<path d="M15.7531 48.4435L13.198 48.0774L12.8301 50.6325L13.7555 49.9393L13.7406 49.9505L14.8128 49.1459L14.8277 49.1366L15.7531 48.4435Z" fill="#AE6675"/>
<path d="M11.758 46.0745L9.20484 45.7065L8.83691 48.2616L9.76045 47.5685L9.74559 47.5796L10.8178 46.7769L10.8345 46.7657L11.758 46.0745Z" fill="#AE6675"/>
<path d="M7.76439 43.7034L5.20933 43.3354L4.84326 45.8905L5.7668 45.1974L5.75193 45.2085L6.82413 44.4058L6.839 44.3946L7.76439 43.7034Z" fill="#AE6675"/>
<path d="M3.76928 41.332L1.21607 40.9641L0.848145 43.5192L1.77354 42.8279L1.75682 42.8372L2.82901 42.0345L2.84574 42.0233L3.76928 41.332Z" fill="#AE6675"/>
<path d="M16.5778 42.384L18.122 44.4504L16.0557 45.9964L16.221 44.8536L16.2192 44.8722L16.4106 43.5454L16.4124 43.5268L16.5778 42.384Z" fill="#AE6675"/>
<path d="M12.5828 40.0127L14.1288 42.079L12.0625 43.6251L12.2279 42.4823L12.226 42.5009L12.4174 41.1741V41.1555L12.5828 40.0127Z" fill="#AE6675"/>
<path d="M8.58964 37.6416L10.1357 39.708L8.06934 41.254L8.23286 40.1112L8.231 40.1298L8.4224 38.803L8.42426 38.7863L8.58964 37.6416Z" fill="#AE6675"/>
<path d="M4.59452 35.2725L6.14056 37.3388L4.07422 38.883L4.2396 37.7402L4.23774 37.7588L4.42914 36.4339L4.431 36.4153L4.59452 35.2725Z" fill="#AE6675"/>
<path d="M0.60087 32.9014L2.14691 34.9677L0.0805664 36.5138L0.244091 35.3709V35.3895L0.43363 34.0628L0.435488 34.0442L0.60087 32.9014Z" fill="#AE6675"/>
<path d="M21.5022 38.7567L18.9471 38.3906L18.5811 40.9438L19.5046 40.2526L19.4897 40.2619L20.5619 39.4591L20.5786 39.4498L21.5022 38.7567Z" fill="#AE6675"/>
<path d="M17.5089 36.3856L14.9539 36.0195L14.5859 38.5727L15.5113 37.8815L15.4965 37.8908L16.5687 37.088L16.5835 37.0787L17.5089 36.3856Z" fill="#AE6675"/>
<path d="M13.5139 34.0164L10.9607 33.6484L10.5928 36.2035L11.5163 35.5104L11.5014 35.5215L12.5736 34.7169L12.5904 34.7076L13.5139 34.0164Z" fill="#AE6675"/>
</g>
<path d="M20.8355 45.4629L20.6831 44.9854C22.6603 43.9652 24.1821 43.0565 25.2469 42.2593C26.3117 41.4622 26.845 40.8211 26.845 40.3361C26.845 40.1837 26.7372 39.9719 26.5198 39.7043C26.3024 39.4367 25.9326 39.1338 25.4104 38.7956C24.8864 38.4574 24.1729 38.1043 23.2679 37.7327C23.3571 37.4131 23.4816 37.0414 23.6414 36.6122C23.8012 36.1848 23.9759 35.7518 24.1673 35.3114C24.3587 34.871 24.5426 34.4734 24.7229 34.1147C24.9013 33.758 25.0537 33.4959 25.1819 33.3306H25.4495C26.3172 33.7765 27.0252 34.3935 27.5734 35.1776C28.1216 35.9618 28.3966 36.9151 28.3966 38.0393C28.3966 38.7547 28.2981 39.4404 28.0993 40.0964C27.9005 40.7542 27.6533 41.3507 27.3523 41.8858C27.0531 42.421 26.7465 42.8688 26.4343 43.2256C26.1221 43.5824 25.8434 43.8184 25.6018 43.9336C25.2822 44.086 24.6932 44.309 23.8309 44.6044C22.9706 44.898 21.9709 45.1842 20.8355 45.4648V45.4629Z" fill="#AE6675"/>
<path d="M33.7704 43.5677C32.7243 43.5677 31.9643 43.2128 31.4941 42.5048C31.0221 41.7968 30.7861 40.6335 30.7861 39.0132C30.7861 38.7066 30.7899 38.4 30.7954 38.0952C30.801 37.7886 30.814 37.4411 30.8344 37.0527C30.853 36.6644 30.8753 36.198 30.9013 35.6554C30.9274 35.1127 30.9589 34.4531 30.9961 33.6745C31.0463 32.6153 31.1169 31.6546 31.2061 30.7942C31.2953 29.9339 31.4328 29.12 31.6168 28.3544C31.8007 27.5888 32.0665 26.8232 32.4102 26.0576L32.9082 26.1914C32.845 26.485 32.7707 26.944 32.689 27.5684C32.6053 28.1927 32.5254 28.9174 32.4492 29.7406C32.3731 30.5638 32.308 31.4409 32.2579 32.3719C32.2058 33.3028 32.1817 34.2227 32.1817 35.1276C32.1817 36.5566 32.3861 37.5935 32.7949 38.2364C33.2037 38.8812 33.8411 39.2027 34.7089 39.2027C35.0155 39.2027 35.231 39.3662 35.3592 39.6896C35.4874 40.0148 35.5506 40.4719 35.5506 41.0572C35.5506 41.8098 35.4038 42.4156 35.1102 42.8746C34.8166 43.3335 34.3707 43.564 33.7704 43.564V43.5677Z" fill="#AE6675"/>
<path d="M33.7704 43.5676C33.5289 43.5676 33.3244 43.4208 33.1572 43.1272C32.9918 42.8336 32.9082 42.3356 32.9082 41.6351C32.9082 40.8063 33.0736 40.1931 33.4062 39.7973C33.7388 39.4015 34.1718 39.2045 34.707 39.2045C35.5357 39.2045 36.2251 39.0577 36.7733 38.7641C37.3215 38.4705 37.7879 38.0821 38.1707 37.5971L38.4011 37.311C38.8341 36.7628 39.2262 36.38 39.5774 36.1626C39.9286 35.9452 40.2686 35.8374 40.6013 35.8374C40.9339 35.8374 41.3315 35.9006 41.7589 36.0288C42.1863 36.157 42.5598 36.3261 42.8776 36.5361C43.1972 36.7461 43.3551 36.9932 43.3551 37.272C43.3551 37.5507 43.292 37.8331 43.1638 38.1527C43.0355 38.4724 42.8646 38.779 42.6472 39.0707C42.4298 39.3643 42.1882 39.604 41.9206 39.788C41.653 39.972 41.3854 40.0649 41.116 40.0649C40.9506 40.0649 40.7685 40.0277 40.5715 39.9497C40.3746 39.8735 40.1534 39.7713 39.9119 39.6431C39.4399 39.3755 39.0311 39.2417 38.6873 39.2417C38.3807 39.2417 38.1261 39.3494 37.9217 39.5669C37.7173 39.7843 37.4497 40.1726 37.1189 40.7338L36.7547 41.347C36.2827 42.1256 35.8275 42.6905 35.3871 43.0399C34.9467 43.3911 34.4078 43.5658 33.7704 43.5658V43.5676Z" fill="#AE6675"/>
<path d="M42.2107 37.7513C41.7647 37.7513 41.3243 37.7067 40.8895 37.6176C40.4566 37.5284 40.0979 37.3816 39.8173 37.1772C39.5367 36.9727 39.3955 36.7052 39.3955 36.3725C39.3955 36.1291 39.4568 35.8058 39.5776 35.397C39.6984 34.9882 39.8991 34.5496 40.1797 34.0776C40.4603 33.6056 40.8431 33.1597 41.3281 32.7379C40.7409 32.5204 40.3321 32.2398 40.1035 31.8961C39.8731 31.5523 39.7597 31.1175 39.7597 30.5953C39.7597 29.5752 40.4231 28.3877 41.7499 27.0368C43.0766 25.697 44.3068 25.0281 45.444 25.0281C45.8528 25.0281 46.2189 25.1266 46.5441 25.3254C46.8693 25.5242 47.0328 25.8197 47.0328 26.2155C47.0328 26.5723 46.9473 26.8621 46.7745 27.087C46.6017 27.31 46.388 27.4735 46.1334 27.5738H45.9996C45.68 27.2561 45.3883 27.0424 45.1188 26.9328C44.8513 26.825 44.6023 26.7692 44.3718 26.7692C43.8998 26.7692 43.4817 26.8974 43.1175 27.152C42.7533 27.4066 42.5731 27.7578 42.5731 28.2038C42.5731 28.5104 42.666 28.7724 42.8499 28.988C43.0339 29.2054 43.2681 29.3875 43.5486 29.5324C43.8292 29.6792 44.1191 29.787 44.4202 29.8576C44.7193 29.9282 44.9851 29.9635 45.2136 29.9635C45.353 29.9635 45.4886 29.9579 45.615 29.9449C45.7432 29.9319 45.8696 29.8948 45.9978 29.8297C46.2914 29.6774 46.533 29.5398 46.7243 29.4191C46.9157 29.2983 47.1071 29.1663 47.2985 29.027C47.4899 28.8876 47.7129 28.7278 47.9675 28.5476L48.8483 27.9362L49.1159 28.1462C48.9635 28.6182 48.7963 28.9972 48.6179 29.2853C48.4395 29.5733 48.1515 29.8948 47.7575 30.2515C47.6423 30.3537 47.2892 30.599 46.6946 30.9874C46.1018 31.3776 45.2935 31.8515 44.2734 32.4127L42.8184 33.2173C42.3073 33.4979 41.8651 33.7859 41.4879 34.0795C41.1107 34.3731 40.923 34.6723 40.923 34.9789C40.923 35.3357 41.3318 35.6738 42.1475 35.9935C42.9522 36.3131 43.3535 36.7405 43.3535 37.2756C43.3535 37.441 43.2346 37.5618 42.9986 37.6399C42.7626 37.716 42.4969 37.7551 42.2051 37.7551L42.2107 37.7513Z" fill="#AE6675"/>
<path d="M4.99749 78.1863C5.10341 78.1863 5.17217 78.177 5.2019 78.1584C5.23163 78.1399 5.2465 78.0804 5.2465 77.9819V77.2535C5.2465 77.1364 5.2465 77.0156 5.24464 76.893C5.24278 76.7703 5.23906 76.6347 5.23535 76.486C5.23535 76.4563 5.24464 76.4303 5.26322 76.4098C5.2818 76.3894 5.30596 76.3782 5.33755 76.3782H5.60514C5.63858 76.3782 5.66646 76.3894 5.68504 76.4098C5.70362 76.4303 5.71291 76.4563 5.71291 76.486C5.71663 76.6142 5.72034 76.7239 5.7222 76.8112C5.72406 76.8986 5.72592 76.9803 5.72592 77.0565V77.5861C5.72592 77.7682 5.72592 77.9373 5.7222 78.0915C5.72034 78.2476 5.71291 78.3684 5.70176 78.4557C5.69433 78.4929 5.68132 78.5264 5.6646 78.5524C5.64787 78.5784 5.61628 78.6025 5.57169 78.6211C5.54195 78.6323 5.49178 78.6416 5.42117 78.6471C5.35056 78.6527 5.26879 78.6583 5.17588 78.6639C5.08297 78.6694 4.98263 78.6732 4.87485 78.675C4.76707 78.6769 4.6593 78.6787 4.55338 78.6787H3.22289C2.85868 78.6787 2.5595 78.6434 2.32722 78.5728C2.09495 78.5022 1.90912 78.4019 1.77533 78.2718C1.64154 78.1417 1.54863 77.9819 1.4966 77.7942C1.44457 77.6065 1.42041 77.3966 1.42041 77.1661C1.42041 77.0862 1.42227 77.0045 1.4297 76.919C1.43528 76.8335 1.44828 76.7369 1.46687 76.6254C1.47802 76.5529 1.51704 76.5176 1.58022 76.5176H1.81993C1.88497 76.5176 1.91284 76.5548 1.90541 76.631C1.89797 76.7183 1.8924 76.7926 1.88868 76.8521C1.88497 76.9134 1.88311 76.9747 1.88311 77.0398C1.88311 77.2107 1.89797 77.3668 1.9277 77.5062C1.95744 77.6456 2.02247 77.7682 2.1191 77.8704C2.21573 77.9726 2.3551 78.0525 2.53349 78.1064C2.71373 78.1621 2.95345 78.1882 3.25262 78.1882H4.99935L4.99749 78.1863ZM2.86983 75.529C2.86983 75.4919 2.88283 75.4603 2.90699 75.438C2.93115 75.4157 2.96274 75.4045 2.9999 75.4045H3.22103C3.25819 75.4045 3.28978 75.4157 3.3158 75.438C3.33996 75.4603 3.35296 75.4919 3.35296 75.529V75.8357C3.35296 75.8691 3.33996 75.8988 3.31394 75.9211C3.28793 75.9434 3.25634 75.9546 3.22289 75.9546H3.00176C2.96459 75.9546 2.933 75.9434 2.90885 75.9211C2.88469 75.8988 2.87168 75.871 2.87168 75.8357V75.529H2.86983ZM3.79708 75.529C3.79708 75.4919 3.81195 75.4603 3.83982 75.438C3.86769 75.4157 3.89928 75.4045 3.93273 75.4045H4.15386C4.18731 75.4045 4.2189 75.4157 4.24491 75.438C4.27093 75.4603 4.28394 75.4919 4.28394 75.529V75.8357C4.28394 75.8691 4.27093 75.8988 4.24491 75.9211C4.2189 75.9434 4.18731 75.9546 4.15386 75.9546H3.93273C3.89928 75.9546 3.86769 75.9434 3.83982 75.9211C3.81195 75.8988 3.79708 75.871 3.79708 75.8357V75.529Z" fill="#AE6675"/>
<path d="M6.69238 74.5106C6.69238 74.4808 6.70353 74.453 6.72397 74.4307C6.74441 74.4084 6.77043 74.3972 6.80016 74.3972H7.07889C7.10863 74.3972 7.13464 74.4084 7.15322 74.4307C7.1718 74.453 7.1811 74.4808 7.1811 74.5106V78.5615C7.1811 78.5912 7.1718 78.6191 7.15322 78.6414C7.13464 78.6637 7.10863 78.6749 7.07889 78.6749H6.80016C6.77043 78.6749 6.74441 78.6637 6.72397 78.6414C6.70353 78.6191 6.69238 78.5931 6.69238 78.5615V74.5106Z" fill="#AE6675"/>
<path d="M7.95557 78.2885C7.95557 78.2587 7.96671 78.2327 7.98901 78.2141C8.01131 78.1956 8.03919 78.1863 8.06892 78.1863H9.6224L9.61682 77.4857C9.60939 77.1512 9.52391 76.9041 9.3641 76.7406C9.20244 76.577 8.94228 76.4953 8.58179 76.4953C8.54091 76.4953 8.48144 76.4953 8.40526 76.4971C8.32907 76.499 8.26217 76.5046 8.20643 76.512C8.13024 76.5194 8.09308 76.4934 8.09308 76.4321V76.1998C8.09308 76.1701 8.10237 76.1441 8.11909 76.1255C8.13582 76.1069 8.16555 76.0958 8.20643 76.092C8.30491 76.0772 8.39968 76.0679 8.48888 76.0642C8.57807 76.0605 8.64311 76.0586 8.68585 76.0586C8.94414 76.0586 9.16156 76.0921 9.33809 76.1608C9.51462 76.2296 9.6577 76.3262 9.76734 76.4507C9.87697 76.5752 9.95687 76.7238 10.007 76.8948C10.0554 77.0658 10.0851 77.2534 10.0925 77.4578C10.0925 77.4727 10.0925 77.5117 10.0962 77.5712C10.0962 77.6325 10.1 77.6976 10.1018 77.77C10.1018 77.8425 10.1037 77.9094 10.1037 77.9744V78.2049C10.1037 78.2439 10.1037 78.2866 10.1018 78.3294C10.1 78.3739 10.0981 78.4148 10.0962 78.4576C10.0944 78.5003 10.0907 78.5338 10.087 78.5598C10.087 78.636 10.0461 78.6731 9.96245 78.6731H8.07449C8.04476 78.6731 8.01689 78.6638 7.99459 78.6471C7.97229 78.6304 7.96114 78.6062 7.96114 78.5765V78.2866L7.95557 78.2885Z" fill="#AE6675"/>
<path d="M10.9644 74.5106C10.9644 74.4808 10.9755 74.453 10.9959 74.4307C11.0164 74.4084 11.0424 74.3972 11.0721 74.3972H11.3509C11.3806 74.3972 11.4066 74.4084 11.4252 74.4307C11.4438 74.453 11.4531 74.4808 11.4531 74.5106V77.8498C11.4531 77.926 11.4624 77.9855 11.4791 78.0301C11.4958 78.0728 11.52 78.1062 11.5534 78.1304C11.585 78.1527 11.6259 78.1676 11.6723 78.175C11.7207 78.1824 11.7745 78.1861 11.834 78.1861H11.9752V78.6749H11.7076C11.5869 78.6749 11.4809 78.6637 11.3899 78.6433C11.2988 78.6228 11.2208 78.5838 11.1576 78.5299C11.0926 78.4742 11.0443 78.4017 11.0127 78.3106C10.9811 78.2196 10.9644 78.1025 10.9644 77.9576V74.5106Z" fill="#AE6675"/>
<path d="M12.0067 78.6749C11.9528 78.6749 11.9082 78.6675 11.8711 78.6545C11.8339 78.6415 11.8135 78.621 11.8135 78.595V78.2587C11.8135 78.2364 11.8321 78.2178 11.8711 78.2048C11.9082 78.1918 11.9547 78.1843 12.0067 78.1843H13.2648V78.673H12.0067V78.6749Z" fill="#AE6675"/>
<path d="M13.2294 78.6749C13.1755 78.6749 13.1309 78.6675 13.0937 78.6545C13.0566 78.6415 13.0361 78.621 13.0361 78.595V78.2587C13.0361 78.2364 13.0547 78.2178 13.0937 78.2048C13.1309 78.1918 13.1774 78.1843 13.2294 78.1843H14.4874V78.673H13.2294V78.6749Z" fill="#AE6675"/>
<path d="M14.452 78.6749C14.3982 78.6749 14.3536 78.6675 14.3164 78.6545C14.2792 78.6415 14.2588 78.621 14.2588 78.595V78.2587C14.2588 78.2364 14.2774 78.2178 14.3164 78.2048C14.3536 78.1918 14.4 78.1843 14.452 78.1843H15.7101V78.673H14.452V78.6749Z" fill="#AE6675"/>
<path d="M15.6747 78.6749C15.6208 78.6749 15.5762 78.6675 15.539 78.6545C15.5019 78.6415 15.4814 78.621 15.4814 78.595V78.2587C15.4814 78.2364 15.5 78.2178 15.539 78.2048C15.5762 78.1918 15.6227 78.1843 15.6747 78.1843H16.9327V78.673H15.6747V78.6749Z" fill="#AE6675"/>
<path d="M16.7045 78.2605C16.7045 78.2382 16.7231 78.2196 16.7621 78.2066C16.7993 78.1936 16.8457 78.1861 16.8978 78.1861H17.1542C17.1914 78.1861 17.2341 78.1843 17.2787 78.1806C17.3233 78.1768 17.3679 78.1676 17.4088 78.1545C17.4496 78.1415 17.485 78.1211 17.5147 78.0914C17.5426 78.0635 17.5574 78.0245 17.5574 77.9743V76.484C17.5574 76.4543 17.5686 76.4282 17.589 76.4078C17.6095 76.3874 17.6355 76.3762 17.6652 76.3762H17.9272C17.9569 76.3762 17.983 76.3874 18.0034 76.4078C18.0238 76.4282 18.035 76.4543 18.035 76.484V78.0486C18.0461 78.0784 18.0703 78.1025 18.1056 78.1192C18.1409 78.136 18.1818 78.149 18.2245 78.1583C18.2673 78.1676 18.3137 78.175 18.3583 78.1787C18.4029 78.1824 18.4438 78.1843 18.4772 78.1843H18.5571V78.673H18.4884C18.3713 78.673 18.245 78.66 18.1093 78.6358C17.9755 78.6117 17.864 78.5615 17.7767 78.4853C17.6819 78.5615 17.5686 78.6117 17.4385 78.6358C17.3084 78.66 17.1895 78.673 17.0836 78.673H16.8959C16.842 78.673 16.7974 78.6656 16.7602 78.6525C16.7231 78.6395 16.7026 78.6191 16.7026 78.5931V78.2567L16.7045 78.2605ZM17.0074 79.3289C17.0074 79.2918 17.0204 79.2602 17.0446 79.2379C17.0687 79.2156 17.1003 79.2044 17.1375 79.2044H17.3586C17.3958 79.2044 17.4273 79.2156 17.4534 79.2379C17.4775 79.2602 17.4905 79.2918 17.4905 79.3289V79.6355C17.4905 79.6653 17.4775 79.6932 17.4515 79.7173C17.4255 79.7415 17.3939 79.7545 17.3605 79.7545H17.1393C17.1022 79.7545 17.0706 79.7415 17.0464 79.7173C17.0223 79.6932 17.0092 79.6653 17.0092 79.6355V79.3289H17.0074ZM17.9346 79.3289C17.9346 79.2918 17.9495 79.2602 17.9774 79.2379C18.0053 79.2156 18.0368 79.2044 18.0722 79.2044H18.2933C18.3267 79.2044 18.3583 79.2156 18.3843 79.2379C18.4103 79.2602 18.4234 79.2918 18.4234 79.3289V79.6355C18.4234 79.6653 18.4103 79.6932 18.3843 79.7173C18.3583 79.7415 18.3267 79.7545 18.2933 79.7545H18.0722C18.0387 79.7545 18.0071 79.7415 17.9774 79.7173C17.9495 79.6932 17.9346 79.6653 17.9346 79.6355V79.3289Z" fill="#AE6675"/>
<path d="M18.332 78.2605C18.332 78.2382 18.3506 78.2196 18.3896 78.2066C18.4268 78.1936 18.4733 78.1862 18.5253 78.1862H19.276C19.1775 78.1063 19.1013 78.0004 19.0493 77.8684C18.9954 77.7365 18.9694 77.5748 18.9694 77.3853V77.2497C18.9694 76.8631 19.0865 76.564 19.3187 76.3503C19.551 76.1384 19.8744 76.0325 20.2887 76.0325C20.4448 76.0325 20.5972 76.0399 20.7459 76.053C20.8964 76.066 21.0227 76.0883 21.1305 76.118C21.1677 76.1254 21.1937 76.1366 21.2048 76.1514C21.216 76.1663 21.2216 76.1886 21.2216 76.2202V78.1881H21.7103V78.6768H18.5253C18.4714 78.6768 18.4268 78.6693 18.3896 78.6563C18.3525 78.6433 18.332 78.6229 18.332 78.5969V78.2605ZM20.744 78.1973V76.5082C20.6678 76.4971 20.5916 76.4896 20.5136 76.4859C20.4355 76.4822 20.3482 76.4803 20.2497 76.4803C19.9877 76.4803 19.7889 76.5454 19.6532 76.6773C19.5176 76.8074 19.4488 77.0044 19.4488 77.2664V77.3853C19.4488 77.6473 19.5083 77.848 19.6272 77.9874C19.7461 78.1286 19.9338 78.1973 20.1884 78.1973H20.7459H20.744ZM19.4637 74.977C19.4637 74.9399 19.4767 74.9083 19.5009 74.886C19.525 74.8637 19.5566 74.8525 19.5938 74.8525H19.8149C19.8521 74.8525 19.8837 74.8637 19.9097 74.886C19.9338 74.9083 19.9468 74.9399 19.9468 74.977V75.2836C19.9468 75.3171 19.9338 75.3468 19.9078 75.3691C19.8818 75.3914 19.8502 75.4026 19.8168 75.4026H19.5956C19.5585 75.4026 19.5269 75.3914 19.5027 75.3691C19.4786 75.3468 19.4656 75.3171 19.4656 75.2836V74.977H19.4637ZM20.3909 74.977C20.3909 74.9399 20.4058 74.9083 20.4337 74.886C20.4616 74.8637 20.4931 74.8525 20.5285 74.8525H20.7496C20.783 74.8525 20.8146 74.8637 20.8406 74.886C20.8667 74.9083 20.8797 74.9399 20.8797 74.977V75.2836C20.8797 75.3171 20.8667 75.3468 20.8406 75.3691C20.8146 75.3914 20.783 75.4026 20.7496 75.4026H20.5285C20.495 75.4026 20.4634 75.3914 20.4337 75.3691C20.4058 75.3468 20.3909 75.3171 20.3909 75.2836V74.977Z" fill="#AE6675"/>
<path d="M21.4839 78.2606C21.4839 78.2383 21.5025 78.2197 21.5415 78.2067C21.5787 78.1937 21.6251 78.1863 21.6771 78.1863H22.1324C22.242 78.1863 22.3108 78.177 22.3405 78.1584C22.3703 78.1398 22.3833 78.0804 22.3833 77.9819V74.5126C22.3833 74.4828 22.3944 74.4568 22.4149 74.4364C22.4353 74.4159 22.4613 74.4048 22.491 74.4048H22.7698C22.7995 74.4048 22.8255 74.4159 22.8441 74.4364C22.8627 74.4568 22.872 74.4828 22.872 74.5126V77.9484C22.872 78.006 22.872 78.0636 22.8701 78.1249C22.8683 78.1863 22.8645 78.2439 22.8608 78.3015C22.8571 78.3591 22.8515 78.4093 22.8441 78.4557C22.8367 78.4929 22.8255 78.5263 22.8107 78.5523C22.7958 78.5784 22.7661 78.6025 22.7196 78.6211C22.6899 78.6322 22.6453 78.6415 22.5895 78.6471C22.5319 78.6527 22.4706 78.6583 22.4019 78.6638C22.3331 78.6694 22.2625 78.6731 22.1882 78.675C22.1138 78.6768 22.0451 78.6787 21.98 78.6787H21.679C21.6251 78.6787 21.5805 78.6713 21.5433 78.6583C21.5062 78.6453 21.4857 78.6248 21.4857 78.5988V78.2625L21.4839 78.2606Z" fill="#AE6675"/>
<path d="M23.8379 74.5106C23.8379 74.4808 23.849 74.453 23.8695 74.4307C23.8899 74.4084 23.9159 74.3972 23.9457 74.3972H24.2244C24.2541 74.3972 24.2801 74.4084 24.2987 74.4307C24.3173 74.453 24.3266 74.4808 24.3266 74.5106V78.5615C24.3266 78.5912 24.3173 78.6191 24.2987 78.6414C24.2801 78.6637 24.2541 78.6749 24.2244 78.6749H23.9457C23.9159 78.6749 23.8899 78.6637 23.8695 78.6414C23.849 78.6191 23.8379 78.5931 23.8379 78.5615V74.5106Z" fill="#AE6675"/>
<path d="M26.9673 77.1048C27.0287 77.1048 27.0565 77.142 27.0528 77.2181C27.0491 77.2627 27.0435 77.3111 27.0379 77.3631C27.0324 77.4133 27.0268 77.4653 27.0231 77.5173C27.0194 77.5694 27.0156 77.6177 27.0138 77.6623C27.0119 77.7069 27.0101 77.7459 27.0101 77.7756C27.0101 77.9726 27.0249 78.1565 27.0528 78.3238C27.0807 78.491 27.142 78.6378 27.2349 78.7623C27.3278 78.885 27.4598 78.9816 27.6326 79.0522C27.8054 79.1228 28.0358 79.1581 28.3238 79.1581C28.4223 79.1581 28.5134 79.1563 28.5933 79.1526C28.675 79.1488 28.7624 79.1377 28.8572 79.1191C28.8572 79.0169 28.8572 78.924 28.8609 78.8441C28.8609 78.7623 28.8627 78.6861 28.8627 78.6137V76.486C28.8627 76.4563 28.8739 76.4303 28.8943 76.4098C28.9148 76.3894 28.9389 76.3782 28.9649 76.3782H29.2437C29.2734 76.3782 29.2976 76.3894 29.3143 76.4098C29.331 76.4303 29.3403 76.4563 29.3403 76.486V78.1863H29.8699V78.675H29.3403V79.0764C29.3403 79.147 29.3403 79.2139 29.3366 79.2789C29.3329 79.344 29.331 79.3978 29.3273 79.4443C29.3273 79.5056 29.2883 79.5446 29.2084 79.5632C29.0634 79.593 28.9166 79.6153 28.7642 79.6283C28.6119 79.6413 28.4613 79.6487 28.309 79.6487C27.9782 79.6487 27.7013 79.6115 27.4746 79.5372C27.2498 79.4629 27.0677 79.3551 26.9283 79.2102C26.7889 79.0652 26.6905 78.8887 26.6291 78.6787C26.5678 78.4687 26.5381 78.229 26.5381 77.9596C26.5381 77.9261 26.5399 77.8778 26.5437 77.8146C26.5474 77.7515 26.553 77.6846 26.5585 77.6121C26.5641 77.5396 26.5715 77.469 26.579 77.3984C26.5864 77.3278 26.5957 77.2665 26.6068 77.2144C26.6143 77.1735 26.6254 77.1438 26.6403 77.1289C26.6552 77.1141 26.6812 77.1066 26.7202 77.1066H26.9599L26.9673 77.1048ZM27.7236 75.581C27.7236 75.5439 27.7366 75.5123 27.7627 75.49C27.7887 75.4677 27.8184 75.4565 27.8519 75.4565H28.099C28.1324 75.4565 28.1622 75.4677 28.1863 75.49C28.2105 75.5123 28.2235 75.5439 28.2235 75.581V75.8877C28.2235 75.9211 28.2105 75.9508 28.1863 75.9731C28.1622 75.9954 28.1306 76.0066 28.0934 76.0066H27.8519C27.8147 76.0066 27.7831 75.9954 27.7589 75.9731C27.7348 75.9508 27.7218 75.9211 27.7218 75.8877V75.581H27.7236Z" fill="#AE6675"/>
<path d="M29.8402 78.6749C29.7863 78.6749 29.7417 78.6675 29.7046 78.6545C29.6674 78.6415 29.647 78.621 29.647 78.595V78.2587C29.647 78.2364 29.6656 78.2178 29.7046 78.2048C29.7417 78.1918 29.7882 78.1843 29.8402 78.1843H31.0982V78.673H29.8402V78.6749Z" fill="#AE6675"/>
<path d="M31.0629 78.6749C31.009 78.6749 30.9644 78.6675 30.9272 78.6545C30.8901 78.6415 30.8696 78.621 30.8696 78.595V78.2587C30.8696 78.2364 30.8882 78.2178 30.9272 78.2048C30.9644 78.1918 31.0109 78.1843 31.0629 78.1843H32.3209V78.673H31.0629V78.6749Z" fill="#AE6675"/>
<path d="M32.2875 78.6749C32.2336 78.6749 32.189 78.6675 32.1518 78.6545C32.1147 78.6415 32.0942 78.621 32.0942 78.595V78.2587C32.0942 78.2364 32.1128 78.2178 32.1518 78.2048C32.189 78.1918 32.2355 78.1843 32.2875 78.1843H33.5455V78.673H32.2875V78.6749Z" fill="#AE6675"/>
<path d="M33.5101 78.6749C33.4563 78.6749 33.4117 78.6675 33.3745 78.6545C33.3373 78.6415 33.3169 78.621 33.3169 78.595V78.2587C33.3169 78.2364 33.3355 78.2178 33.3745 78.2048C33.4117 78.1918 33.4581 78.1843 33.5101 78.1843H34.7682V78.673H33.5101V78.6749Z" fill="#AE6675"/>
<path d="M34.7328 78.6749C34.6789 78.6749 34.6343 78.6675 34.5972 78.6545C34.56 78.6415 34.5396 78.621 34.5396 78.595V78.2587C34.5396 78.2364 34.5581 78.2178 34.5972 78.2048C34.6343 78.1918 34.6808 78.1843 34.7328 78.1843H35.9908V78.673H34.7328V78.6749Z" fill="#AE6675"/>
<path d="M35.7621 78.2605C35.7621 78.2382 35.7807 78.2196 35.8197 78.2066C35.8569 78.1936 35.9033 78.1861 35.9554 78.1861H36.2118C36.249 78.1861 36.2917 78.1843 36.3363 78.1806C36.3809 78.1768 36.4255 78.1676 36.4664 78.1545C36.5073 78.1415 36.5426 78.1211 36.5723 78.0914C36.6002 78.0635 36.615 78.0245 36.615 77.9743V76.484C36.615 76.4543 36.6262 76.4282 36.6466 76.4078C36.6671 76.3874 36.6931 76.3762 36.7228 76.3762H36.9848C37.0146 76.3762 37.0406 76.3874 37.061 76.4078C37.0815 76.4282 37.0926 76.4543 37.0926 76.484V78.0486C37.1037 78.0784 37.1279 78.1025 37.1632 78.1192C37.1985 78.136 37.2394 78.149 37.2821 78.1583C37.3249 78.1676 37.3713 78.175 37.4159 78.1787C37.4605 78.1824 37.5014 78.1843 37.5349 78.1843H37.6148V78.673H37.546C37.4289 78.673 37.3026 78.66 37.1669 78.6358C37.0331 78.6117 36.9216 78.5615 36.8343 78.4853C36.7395 78.5615 36.6262 78.6117 36.4961 78.6358C36.366 78.66 36.2471 78.673 36.1412 78.673H35.9535C35.8996 78.673 35.855 78.6656 35.8179 78.6525C35.7807 78.6395 35.7603 78.6191 35.7603 78.5931V78.2567L35.7621 78.2605ZM36.0631 79.3289C36.0631 79.2918 36.0761 79.2602 36.1003 79.2379C36.1245 79.2156 36.1561 79.2044 36.1932 79.2044H36.4143C36.4515 79.2044 36.4831 79.2156 36.5091 79.2379C36.5333 79.2602 36.5463 79.2918 36.5463 79.3289V79.6355C36.5463 79.6653 36.5333 79.6932 36.5073 79.7173C36.4812 79.7415 36.4497 79.7545 36.4162 79.7545H36.1951C36.1579 79.7545 36.1263 79.7415 36.1022 79.7173C36.078 79.6932 36.065 79.6653 36.065 79.6355V79.3289H36.0631ZM36.9904 79.3289C36.9904 79.2918 37.0053 79.2602 37.0331 79.2379C37.061 79.2156 37.0926 79.2044 37.1279 79.2044H37.349C37.3825 79.2044 37.4141 79.2156 37.4401 79.2379C37.4661 79.2602 37.4791 79.2918 37.4791 79.3289V79.6355C37.4791 79.6653 37.4661 79.6932 37.4401 79.7173C37.4141 79.7415 37.3825 79.7545 37.349 79.7545H37.1279C37.0945 79.7545 37.0629 79.7415 37.0331 79.7173C37.0053 79.6932 36.9904 79.6653 36.9904 79.6355V79.3289Z" fill="#AE6675"/>
<path d="M37.3901 78.2773C37.3901 78.2476 37.4087 78.2234 37.4477 78.2086C37.4849 78.1937 37.5314 78.1863 37.5834 78.1863H40.564C40.5677 78.0989 40.5714 78.006 40.5733 77.9075C40.5751 77.8091 40.577 77.7143 40.577 77.6232C40.577 77.4188 40.5473 77.2479 40.4859 77.1141C40.4246 76.9803 40.3391 76.8725 40.2295 76.7963C40.1199 76.7183 39.9861 76.6644 39.8318 76.6347C39.6758 76.6049 39.5029 76.5901 39.3134 76.5901C39.2 76.5901 39.0811 76.5901 38.9585 76.5919C38.8358 76.5938 38.7206 76.5938 38.6147 76.5938C38.5088 76.5938 38.4177 76.5938 38.3415 76.5956C38.2654 76.5975 38.217 76.5993 38.1929 76.5993C38.1279 76.5993 38.0907 76.5715 38.0795 76.5139C38.0758 76.5064 38.074 76.4879 38.074 76.4563V76.3931C38.074 76.302 38.0814 76.2147 38.0963 76.1311C38.1111 76.0475 38.1334 75.9638 38.1613 75.8784C38.1892 75.7929 38.2263 75.7037 38.2691 75.6089C38.3118 75.5141 38.3657 75.4119 38.4252 75.3023L38.8526 74.5181C38.8711 74.4884 38.8916 74.4605 38.912 74.4382C38.9325 74.4159 38.9641 74.4048 39.0068 74.4048H39.2744C39.3041 74.4048 39.3264 74.4122 39.3394 74.4252C39.3524 74.4382 39.3599 74.455 39.3599 74.4735C39.3599 74.4921 39.3543 74.5144 39.3431 74.5367L38.808 75.5476C38.7429 75.6684 38.689 75.7854 38.6463 75.8988C38.6017 76.0103 38.5794 76.0939 38.5757 76.1478C38.7578 76.1404 38.912 76.1348 39.0365 76.1311C39.161 76.1274 39.2725 76.1255 39.3729 76.1255C39.6386 76.1255 39.8746 76.1515 40.0846 76.2054C40.2927 76.2593 40.4692 76.3411 40.6142 76.4544C40.7591 76.5678 40.8687 76.7146 40.9449 76.8948C41.0211 77.075 41.0583 77.2906 41.0583 77.5452V77.7403C41.0583 77.7905 41.0583 77.8444 41.0546 77.8982C41.0527 77.954 41.0508 78.006 41.049 78.0562C41.0471 78.1064 41.0453 78.151 41.0453 78.19H41.4727V78.6787H37.5871C37.5332 78.6787 37.4886 78.6694 37.4515 78.6527C37.4143 78.636 37.3939 78.6118 37.3939 78.5821V78.281L37.3901 78.2773Z" fill="#AE6675"/>
<path d="M41.2402 78.2606C41.2402 78.2383 41.2588 78.2197 41.2978 78.2067C41.335 78.1937 41.3815 78.1862 41.4335 78.1862H41.6156C41.6416 78.1862 41.6769 78.1862 41.7215 78.1825C41.7643 78.1825 41.807 78.1751 41.8497 78.1621C41.8906 78.1509 41.9278 78.1342 41.9612 78.1138C41.9928 78.0933 42.0133 78.0636 42.0207 78.0246C42.0318 77.98 42.0374 77.9242 42.0374 77.8592V77.3129C42.0374 76.9226 42.1396 76.6235 42.3422 76.4135C42.5447 76.2054 42.8365 76.1013 43.2155 76.1013C43.5946 76.1013 43.8808 76.2035 44.074 76.4079C44.2673 76.6123 44.3639 76.9134 44.3639 77.3129V77.6306C44.3639 77.6752 44.3639 77.7254 44.3621 77.7793C44.3602 77.8332 44.3546 77.8796 44.3472 77.9205C44.3509 77.9744 44.3695 78.0171 44.4048 78.0525C44.4382 78.0859 44.4773 78.1138 44.5219 78.1324C44.5646 78.1509 44.6111 78.1639 44.6557 78.1732C44.7003 78.1807 44.7393 78.1844 44.769 78.1844H44.8433V78.6731H44.769C44.6445 78.6731 44.5219 78.6545 44.4029 78.6192C44.284 78.5839 44.1874 78.5282 44.1149 78.452C43.9365 78.7103 43.6336 78.8385 43.2044 78.8385C42.9925 78.8385 42.803 78.8069 42.6376 78.7437C42.4722 78.6805 42.3459 78.5858 42.2585 78.4557C42.1824 78.543 42.0839 78.6006 41.9631 78.6285C41.8423 78.6564 41.7104 78.6712 41.571 78.6712H41.4354C41.3815 78.6712 41.3369 78.6638 41.2997 78.6508C41.2625 78.6378 41.2421 78.6173 41.2421 78.5913V78.255L41.2402 78.2606ZM42.515 77.3556V77.6176C42.515 77.7421 42.5224 77.8499 42.5373 77.9354C42.5707 78.0952 42.6451 78.2104 42.7584 78.2829C42.8718 78.3553 43.0204 78.3907 43.2025 78.3907C43.4534 78.3907 43.6299 78.3275 43.7321 78.1993C43.8343 78.0729 43.8863 77.8778 43.8863 77.6158V77.3538C43.8863 77.0955 43.8362 76.8985 43.7358 76.7591C43.6355 76.6216 43.4627 76.551 43.2155 76.551C42.9684 76.551 42.7863 76.6198 42.6785 76.7554C42.5707 76.8911 42.5168 77.0917 42.5168 77.3519L42.515 77.3556Z" fill="#AE6675"/>
<path d="M44.6147 78.2605C44.6147 78.2382 44.6333 78.2196 44.6724 78.2066C44.7095 78.1936 44.756 78.1862 44.808 78.1862H45.2057C45.3153 78.1862 45.3859 78.1769 45.4156 78.1583C45.4454 78.1397 45.4602 78.0803 45.4602 77.9818V77.2534C45.4602 77.1363 45.4602 77.0137 45.4584 76.8892C45.4565 76.7646 45.4528 76.6271 45.4491 76.4803C45.4491 76.4506 45.4584 76.4246 45.4751 76.4042C45.4918 76.3837 45.516 76.3726 45.5457 76.3726H45.8189C45.8523 76.3726 45.8802 76.3837 45.8988 76.4042C45.9174 76.4246 45.9267 76.4506 45.9267 76.4803C45.9304 76.6086 45.9341 76.7182 45.9359 76.8037C45.9378 76.8891 45.9397 76.9728 45.9397 77.0508V77.5823C45.9397 77.7644 45.9397 77.9335 45.9359 78.0877C45.9341 78.2438 45.9267 78.3646 45.9155 78.4519C45.9081 78.4891 45.8951 78.5225 45.8783 78.5485C45.8616 78.5746 45.83 78.5987 45.7854 78.6173C45.7557 78.6284 45.713 78.6377 45.6609 78.6433C45.607 78.6489 45.5476 78.6545 45.4788 78.66C45.4101 78.6656 45.3395 78.6693 45.2688 78.6712C45.1964 78.673 45.1276 78.6749 45.0644 78.6749H44.808C44.7541 78.6749 44.7095 78.6675 44.6724 78.6545C44.6352 78.6415 44.6147 78.621 44.6147 78.595V78.2587V78.2605ZM44.9548 75.2112C44.9548 75.174 44.9678 75.1424 44.992 75.1201C45.0161 75.0978 45.0477 75.0867 45.0849 75.0867H45.306C45.3432 75.0867 45.3748 75.0978 45.3989 75.1201C45.4231 75.1424 45.4361 75.174 45.4361 75.2112V75.5178C45.4361 75.5512 45.4231 75.581 45.3971 75.6033C45.371 75.6256 45.3395 75.6367 45.306 75.6367H45.0849C45.0477 75.6367 45.0161 75.6256 44.992 75.6033C44.9678 75.581 44.9548 75.5512 44.9548 75.5178V75.2112ZM45.8821 75.2112C45.8821 75.174 45.8969 75.1424 45.9248 75.1201C45.9527 75.0978 45.9843 75.0867 46.0177 75.0867H46.2388C46.2723 75.0867 46.3039 75.0978 46.3299 75.1201C46.3559 75.1424 46.3689 75.174 46.3689 75.2112V75.5178C46.3689 75.5512 46.3559 75.581 46.3299 75.6033C46.3039 75.6256 46.2723 75.6367 46.2388 75.6367H46.0177C45.9843 75.6367 45.9527 75.6256 45.9248 75.6033C45.8969 75.581 45.8821 75.5512 45.8821 75.5178V75.2112Z" fill="#AE6675"/>
<path d="M46.9693 79.6356C46.9693 79.5836 46.9991 79.5576 47.0604 79.5576C47.1254 79.5576 47.2072 79.5576 47.3057 79.5613C47.4042 79.5613 47.4841 79.5632 47.5454 79.5632C47.6978 79.5632 47.8334 79.5539 47.9542 79.5372C48.075 79.5204 48.179 79.487 48.2645 79.4405C48.35 79.3922 48.4169 79.3253 48.4633 79.2398C48.5098 79.1544 48.534 79.0429 48.534 78.9054V78.5672C48.5079 78.5895 48.4689 78.608 48.4169 78.621C48.3649 78.6341 48.3091 78.6452 48.2459 78.6545C48.1828 78.6638 48.1214 78.6694 48.062 78.6712C48.0006 78.6731 47.9486 78.6749 47.9022 78.6749C47.5565 78.6749 47.2815 78.5765 47.0771 78.3795C46.8727 78.1825 46.7705 77.8852 46.7705 77.4857V77.3444C46.7705 76.9468 46.8876 76.6309 47.1236 76.4005C47.3596 76.17 47.6922 76.053 48.1252 76.053C48.2775 76.053 48.4243 76.0604 48.5656 76.0734C48.7068 76.0864 48.8276 76.1087 48.9261 76.1384C48.9632 76.1496 48.9892 76.1626 49.0004 76.1756C49.0115 76.1886 49.0171 76.2109 49.0171 76.2407V78.818C49.0171 79.054 48.9837 79.2473 48.9149 79.3978C48.8461 79.5502 48.7514 79.6691 48.6306 79.7583C48.5098 79.8475 48.3649 79.9107 48.1976 79.946C48.0304 79.9813 47.8464 79.9998 47.6457 79.9998C47.6086 79.9998 47.5603 79.9998 47.5008 79.998C47.4413 79.9961 47.3837 79.9943 47.3243 79.9924C47.2648 79.9906 47.2109 79.9868 47.1626 79.985C47.1124 79.9813 47.079 79.9775 47.0604 79.9738C47.0232 79.9664 46.9972 79.9553 46.9861 79.9422C46.9749 79.9292 46.9693 79.9088 46.9693 79.8828V79.6356ZM48.5395 76.525C48.4633 76.5175 48.389 76.512 48.3184 76.5082C48.2459 76.5045 48.1605 76.5027 48.062 76.5027C47.8111 76.5027 47.6141 76.5733 47.4673 76.7126C47.3205 76.8539 47.2481 77.0546 47.2481 77.3147V77.4281C47.2481 77.6975 47.3057 77.8926 47.419 78.0134C47.5324 78.1342 47.7256 78.1955 47.9988 78.1955C48.1475 78.1955 48.2738 78.1862 48.3797 78.1676C48.4857 78.1491 48.5395 78.0952 48.5395 78.0078V76.5231V76.525Z" fill="#AE6675"/>
<path d="M51.5943 77.1048C51.663 77.1048 51.6909 77.1438 51.6797 77.2237C51.6723 77.311 51.6649 77.4002 51.6574 77.4932C51.65 77.5861 51.6463 77.6641 51.6463 77.7292C51.6463 77.9261 51.6593 78.1119 51.6853 78.2866C51.7113 78.4613 51.7689 78.6137 51.8581 78.7419C51.9473 78.8701 52.0774 78.9723 52.2484 79.0466C52.4193 79.121 52.6497 79.1581 52.9433 79.1581C53.0232 79.1581 53.1069 79.1563 53.196 79.1525C53.2852 79.1488 53.3689 79.1377 53.4488 79.1191C53.4525 79.0132 53.4562 78.9203 53.4581 78.8404C53.4599 78.7605 53.4618 78.6843 53.4618 78.6137V74.5126C53.4618 74.4828 53.4711 74.4568 53.4897 74.4364C53.5082 74.4159 53.5324 74.4048 53.564 74.4048H53.8483C53.878 74.4048 53.904 74.4159 53.9226 74.4364C53.9412 74.4568 53.9505 74.4828 53.9505 74.5126V78.1881H54.4745V78.6768H53.9505C53.9505 78.7344 53.9505 78.7976 53.9468 78.8664C53.9449 78.937 53.9431 79.0076 53.9412 79.0764C53.9393 79.147 53.9375 79.2139 53.9356 79.2789C53.9338 79.3439 53.93 79.3978 53.9263 79.4443C53.9226 79.4815 53.9115 79.5093 53.8929 79.5242C53.8743 79.5391 53.8446 79.5521 53.8074 79.5632C53.6755 79.593 53.538 79.6152 53.3949 79.6283C53.2518 79.6413 53.0976 79.6487 52.9303 79.6487C52.5958 79.6487 52.3171 79.6097 52.0941 79.5316C51.8711 79.4536 51.6909 79.3402 51.5571 79.1934C51.4233 79.0466 51.3267 78.8645 51.2691 78.6527C51.2115 78.4408 51.1836 78.1993 51.1836 77.9298C51.1836 77.8927 51.1836 77.8444 51.1854 77.7849C51.1873 77.7254 51.191 77.6641 51.1966 77.5972C51.2022 77.5303 51.2096 77.4653 51.217 77.3984C51.2245 77.3315 51.2338 77.2702 51.2449 77.2144C51.2561 77.142 51.2895 77.1066 51.3471 77.1066H51.5924L51.5943 77.1048Z" fill="#AE6675"/>
<path d="M54.4394 78.6749C54.3855 78.6749 54.3409 78.6675 54.3037 78.6545C54.2665 78.6415 54.2461 78.621 54.2461 78.595V78.2587C54.2461 78.2364 54.2647 78.2178 54.3037 78.2048C54.3409 78.1918 54.3873 78.1843 54.4394 78.1843H55.6974V78.673H54.4394V78.6749Z" fill="#AE6675"/>
<path d="M55.662 78.6749C55.6081 78.6749 55.5635 78.6675 55.5264 78.6545C55.4892 78.6415 55.4688 78.621 55.4688 78.595V78.2587C55.4688 78.2364 55.4873 78.2178 55.5264 78.2048C55.5635 78.1918 55.61 78.1843 55.662 78.1843H56.92V78.673H55.662V78.6749Z" fill="#AE6675"/>
<path d="M56.8847 78.6749C56.8308 78.6749 56.7862 78.6675 56.749 78.6545C56.7118 78.6415 56.6914 78.621 56.6914 78.595V78.2587C56.6914 78.2364 56.71 78.2178 56.749 78.2048C56.7862 78.1918 56.8326 78.1843 56.8847 78.1843H58.1427V78.673H56.8847V78.6749Z" fill="#AE6675"/>
<path d="M58.1073 78.6749C58.0534 78.6749 58.0088 78.6675 57.9717 78.6545C57.9345 78.6415 57.9141 78.621 57.9141 78.595V78.2587C57.9141 78.2364 57.9326 78.2178 57.9717 78.2048C58.0088 78.1918 58.0553 78.1843 58.1073 78.1843H59.3653V78.673H58.1073V78.6749Z" fill="#AE6675"/>
<path d="M59.1371 78.2605C59.1371 78.2382 59.1557 78.2196 59.1947 78.2066C59.2319 78.1936 59.2783 78.1861 59.3304 78.1861H59.5868C59.624 78.1861 59.6667 78.1843 59.7113 78.1806C59.7559 78.1768 59.8005 78.1676 59.8414 78.1545C59.8823 78.1415 59.9176 78.1211 59.9473 78.0914C59.9752 78.0635 59.99 78.0245 59.99 77.9743V76.484C59.99 76.4543 60.0012 76.4282 60.0216 76.4078C60.0421 76.3874 60.0681 76.3762 60.0978 76.3762H60.3598C60.3896 76.3762 60.4156 76.3874 60.436 76.4078C60.4565 76.4282 60.4676 76.4543 60.4676 76.484V78.0486C60.4787 78.0784 60.5029 78.1025 60.5382 78.1192C60.5735 78.136 60.6144 78.149 60.6571 78.1583C60.6999 78.1676 60.7463 78.175 60.7909 78.1787C60.8355 78.1824 60.8764 78.1843 60.9099 78.1843H60.9898V78.673H60.921C60.8039 78.673 60.6776 78.66 60.5419 78.6358C60.4081 78.6117 60.2966 78.5615 60.2093 78.4853C60.1145 78.5615 60.0012 78.6117 59.8711 78.6358C59.741 78.66 59.6221 78.673 59.5162 78.673H59.3285C59.2746 78.673 59.23 78.6656 59.1929 78.6525C59.1557 78.6395 59.1353 78.6191 59.1353 78.5931V78.2567L59.1371 78.2605ZM59.44 79.3289C59.44 79.2918 59.453 79.2602 59.4772 79.2379C59.5013 79.2156 59.5329 79.2044 59.5701 79.2044H59.7912C59.8284 79.2044 59.86 79.2156 59.886 79.2379C59.9101 79.2602 59.9231 79.2918 59.9231 79.3289V79.6355C59.9231 79.6653 59.9101 79.6932 59.8841 79.7173C59.8581 79.7415 59.8265 79.7545 59.7931 79.7545H59.5719C59.5348 79.7545 59.5032 79.7415 59.479 79.7173C59.4549 79.6932 59.4419 79.6653 59.4419 79.6355V79.3289H59.44ZM60.3673 79.3289C60.3673 79.2918 60.3821 79.2602 60.41 79.2379C60.4379 79.2156 60.4695 79.2044 60.5048 79.2044H60.7259C60.7593 79.2044 60.7909 79.2156 60.8169 79.2379C60.843 79.2602 60.856 79.2918 60.856 79.3289V79.6355C60.856 79.6653 60.843 79.6932 60.8169 79.7173C60.7909 79.7415 60.7593 79.7545 60.7259 79.7545H60.5048C60.4713 79.7545 60.4397 79.7415 60.41 79.7173C60.3821 79.6932 60.3673 79.6653 60.3673 79.6355V79.3289Z" fill="#AE6675"/>
<path d="M60.7646 78.2774C60.7646 78.2477 60.7832 78.2235 60.8223 78.2086C60.8594 78.1938 60.9059 78.1863 60.9579 78.1863H61.6343C61.5674 78.1176 61.5209 78.0321 61.4931 77.9299C61.4652 77.8277 61.4522 77.7125 61.4522 77.5824V77.4003C61.4522 77.0974 61.5377 76.8596 61.7105 76.6886C61.8814 76.5177 62.1304 76.4322 62.4538 76.4322C62.7771 76.4322 63.0205 76.5139 63.1803 76.6793C63.3401 76.8447 63.4201 77.0844 63.4201 77.3985V77.5806C63.4201 77.7051 63.4033 77.8221 63.3717 77.928C63.3383 78.034 63.2881 78.1213 63.2194 78.1901H63.985C64.0147 78.1901 64.0407 78.1845 64.0611 78.1752C64.0816 78.1659 64.0983 78.1436 64.1095 78.1102C64.1206 78.0767 64.1299 78.0284 64.1355 77.9652C64.141 77.902 64.1448 77.8203 64.1448 77.7181V77.4338C64.1448 77.2145 64.1132 77.0305 64.0519 76.8856C63.9887 76.7388 63.9013 76.6217 63.788 76.5325C63.6746 76.4433 63.539 76.3801 63.381 76.3411C63.2231 76.304 63.0521 76.2835 62.8663 76.2835H62.6415C62.5485 76.2835 62.4724 76.2854 62.411 76.2891C62.3348 76.2965 62.2977 76.2724 62.2977 76.2148V75.9769C62.2977 75.9156 62.333 75.8784 62.4055 75.8636C62.4965 75.8487 62.5839 75.8394 62.6693 75.8375C62.7548 75.8375 62.818 75.8357 62.8607 75.8357C63.093 75.8357 63.3141 75.858 63.526 75.9044C63.7378 75.949 63.9255 76.0308 64.089 76.1497C64.2525 76.2668 64.3826 76.4247 64.4792 76.6217C64.5759 76.8187 64.6242 77.0677 64.6242 77.3669V77.6512C64.6242 77.772 64.6205 77.9095 64.613 78.06C64.6056 78.2124 64.587 78.3499 64.5554 78.4744C64.548 78.5115 64.5294 78.5487 64.4978 78.5859C64.4681 78.6212 64.4198 78.6435 64.3566 78.6509C64.3027 78.6583 64.2284 78.6639 64.1299 78.6658C64.0314 78.6676 63.9273 78.6695 63.8177 78.6713C63.7081 78.6732 63.5984 78.6751 63.4869 78.6751H60.9616C60.9077 78.6751 60.8631 78.6658 60.826 78.649C60.7888 78.6323 60.7684 78.6082 60.7684 78.5784V78.2774H60.7646ZM61.9019 77.6103C61.9019 77.7887 61.939 77.9355 62.0134 78.0488C62.0877 78.1622 62.2252 78.2198 62.4259 78.2198C62.6266 78.2198 62.7734 78.164 62.8533 78.0526C62.9332 77.9411 62.9722 77.7943 62.9722 77.6122V77.4189C62.9722 77.2331 62.9369 77.0863 62.8644 76.9785C62.792 76.8707 62.6545 76.8168 62.4501 76.8168C62.2457 76.8168 62.1026 76.8707 62.0227 76.9785C61.9428 77.0863 61.9037 77.2331 61.9037 77.4189V77.6122L61.9019 77.6103Z" fill="#AE6675"/>
<path d="M65.321 74.2784C65.2522 74.2784 65.2188 74.2561 65.2188 74.2097V74.113C65.2188 74.0759 65.2522 74.0554 65.321 74.0554H65.4176C65.3841 74.0145 65.3581 73.9644 65.3432 73.9049C65.3284 73.8454 65.321 73.7878 65.321 73.7321C65.321 73.5723 65.3674 73.4571 65.4603 73.3827C65.5532 73.3084 65.6852 73.2712 65.8561 73.2712C65.8859 73.2712 65.9212 73.2731 65.9583 73.2768C65.9955 73.2805 66.0345 73.2861 66.0717 73.2935C66.1126 73.3084 66.1349 73.3307 66.1349 73.3623V73.4422C66.1349 73.4831 66.1107 73.5054 66.0605 73.5054C66.0531 73.5054 66.0271 73.5054 65.9806 73.5035C65.9342 73.5017 65.9026 73.5017 65.884 73.5017C65.6833 73.5017 65.583 73.5871 65.583 73.7581C65.583 73.838 65.596 73.903 65.622 73.9551C65.648 74.0052 65.6777 74.0387 65.7075 74.0554H66.0884C66.1534 74.0554 66.185 74.0777 66.185 74.1242V74.2152C66.185 74.245 66.1757 74.2654 66.159 74.2728C66.1423 74.2803 66.1181 74.284 66.0884 74.284H65.321V74.2784ZM65.4975 74.8117C65.4975 74.782 65.5086 74.7541 65.5291 74.7318C65.5495 74.7095 65.5755 74.6984 65.6053 74.6984H65.884C65.9137 74.6984 65.9397 74.7095 65.9583 74.7318C65.9769 74.7541 65.9862 74.7801 65.9862 74.8117V77.8499C65.9862 77.9261 65.9955 77.9856 66.0122 78.0302C66.0289 78.0729 66.0531 78.1063 66.0865 78.1305C66.1181 78.1528 66.159 78.1677 66.2055 78.1751C66.2538 78.1825 66.3077 78.1862 66.3671 78.1862H66.5084V78.675H66.2408C66.12 78.675 66.0141 78.6638 65.923 78.6434C65.832 78.6229 65.7539 78.5839 65.6907 78.53C65.6257 78.4743 65.5774 78.4018 65.5458 78.3107C65.5142 78.2197 65.4975 78.1026 65.4975 77.9577V74.8117Z" fill="#AE6675"/>
<path d="M66.2836 78.2605C66.2836 78.2382 66.3022 78.2196 66.3412 78.2066C66.3784 78.1936 66.4248 78.1862 66.4768 78.1862H66.7333C66.7705 78.1862 66.8132 78.1843 66.8578 78.1806C66.9024 78.1769 66.947 78.1676 66.9879 78.1546C67.0287 78.1416 67.0641 78.1211 67.0938 78.0914C67.1217 78.0635 67.1365 78.0245 67.1365 77.9743V76.4841C67.1365 76.4543 67.1477 76.4283 67.1681 76.4079C67.1886 76.3874 67.2146 76.3763 67.2443 76.3763H67.5063C67.536 76.3763 67.5621 76.3874 67.5825 76.4079C67.6029 76.4283 67.6141 76.4543 67.6141 76.4841V78.0487C67.6252 78.0784 67.6494 78.1026 67.6847 78.1193C67.72 78.136 67.7609 78.149 67.8036 78.1583C67.8464 78.1676 67.8928 78.175 67.9374 78.1788C67.982 78.1825 68.0229 78.1843 68.0563 78.1843H68.1362V78.673H68.0675C67.9504 78.673 67.8241 78.66 67.6884 78.6359C67.5546 78.6117 67.4431 78.5615 67.3558 78.4854C67.261 78.5615 67.1477 78.6117 67.0176 78.6359C66.8875 78.66 66.7686 78.673 66.6627 78.673H66.475C66.4211 78.673 66.3765 78.6656 66.3393 78.6526C66.3022 78.6396 66.2817 78.6192 66.2817 78.5931V78.2568L66.2836 78.2605ZM66.6534 75.2112C66.6534 75.174 66.6664 75.1424 66.6905 75.1201C66.7147 75.0978 66.7463 75.0867 66.7835 75.0867H67.0046C67.0417 75.0867 67.0733 75.0978 67.0994 75.1201C67.1235 75.1424 67.1365 75.174 67.1365 75.2112V75.5178C67.1365 75.5512 67.1235 75.581 67.0975 75.6033C67.0715 75.6256 67.0399 75.6367 67.0064 75.6367H66.7853C66.7482 75.6367 66.7166 75.6256 66.6924 75.6033C66.6682 75.581 66.6552 75.5512 66.6552 75.5178V75.2112H66.6534ZM67.5806 75.2112C67.5806 75.174 67.5955 75.1424 67.6234 75.1201C67.6513 75.0978 67.6828 75.0867 67.7163 75.0867H67.9374C67.9709 75.0867 68.0025 75.0978 68.0285 75.1201C68.0545 75.1424 68.0675 75.174 68.0675 75.2112V75.5178C68.0675 75.5512 68.0545 75.581 68.0285 75.6033C68.0025 75.6256 67.9709 75.6367 67.9374 75.6367H67.7163C67.6828 75.6367 67.6513 75.6256 67.6234 75.6033C67.5955 75.581 67.5806 75.5512 67.5806 75.5178V75.2112Z" fill="#AE6675"/>
<path d="M67.9097 78.2606C67.9097 78.2383 67.9283 78.2197 67.9673 78.2067C68.0044 78.1937 68.0509 78.1863 68.1029 78.1863H68.5582C68.6678 78.1863 68.7366 78.177 68.7663 78.1584C68.796 78.1398 68.8091 78.0804 68.8091 77.9819V74.5126C68.8091 74.4828 68.8202 74.4568 68.8406 74.4364C68.8611 74.4159 68.8871 74.4048 68.9168 74.4048H69.1956C69.2253 74.4048 69.2513 74.4159 69.2699 74.4364C69.2885 74.4568 69.2978 74.4828 69.2978 74.5126V77.9484C69.2978 78.006 69.2978 78.0636 69.2959 78.1249C69.2941 78.1863 69.2903 78.2439 69.2866 78.3015C69.2829 78.3591 69.2773 78.4093 69.2699 78.4557C69.2625 78.4929 69.2513 78.5263 69.2364 78.5523C69.2216 78.5784 69.1918 78.6025 69.1454 78.6211C69.1157 78.6322 69.0711 78.6415 69.0153 78.6471C68.9577 78.6527 68.8964 78.6583 68.8276 78.6638C68.7589 78.6694 68.6883 78.6731 68.6139 78.675C68.5396 78.6768 68.4709 78.6787 68.4058 78.6787H68.1048C68.0509 78.6787 68.0063 78.6713 67.9691 78.6583C67.932 78.6453 67.9115 78.6248 67.9115 78.5988V78.2625L67.9097 78.2606Z" fill="#AE6675"/>
</svg>
