<svg width="71" height="80" viewBox="0 0 71 80" fill="none" xmlns="http://www.w3.org/2000/svg">
<path d="M27.3075 48.2667C27.3075 48.302 27.287 48.3243 27.248 48.3299C27.196 48.3373 27.1272 48.3466 27.0399 48.3559C26.9525 48.3652 26.828 48.3689 26.6664 48.3689C26.5698 48.3689 26.4787 48.3615 26.3895 48.3448C26.3003 48.328 26.2241 48.2983 26.1572 48.2518C26.0903 48.2054 26.0364 48.1403 25.9956 48.0549C25.9547 47.9694 25.9361 47.8598 25.9361 47.7241V46.73C25.9361 46.5943 25.9565 46.4847 25.9956 46.401C26.0364 46.3174 26.0903 46.2524 26.1572 46.2059C26.2241 46.1595 26.3022 46.1297 26.3914 46.113C26.4806 46.0963 26.5735 46.0889 26.6682 46.0889C26.7481 46.0889 26.8188 46.0889 26.8801 46.0926C26.9414 46.0963 26.9934 46.0982 27.0399 46.1037C27.0863 46.1074 27.1254 46.1112 27.1588 46.1149C27.1923 46.1186 27.222 46.1223 27.248 46.126C27.287 46.1316 27.3075 46.152 27.3075 46.1855V46.4642C27.3075 46.481 27.3019 46.494 27.2889 46.507C27.2759 46.52 27.2629 46.5255 27.2461 46.5255H26.6385C26.5679 46.5255 26.5196 46.5404 26.4898 46.5683C26.4601 46.5962 26.4471 46.6501 26.4471 46.7281V47.0013H27.222C27.2387 47.0013 27.2517 47.0068 27.2647 47.0198C27.2759 47.031 27.2833 47.0459 27.2833 47.0626V47.3469C27.2833 47.3636 27.2777 47.3766 27.2647 47.3896C27.2536 47.4008 27.2387 47.4082 27.222 47.4082H26.4471V47.726C26.4471 47.804 26.462 47.8579 26.4898 47.8858C26.5177 47.9136 26.5679 47.9285 26.6385 47.9285H27.2461C27.2629 47.9285 27.2759 47.9341 27.2889 47.9471C27.3019 47.9601 27.3075 47.9731 27.3075 47.9898V48.2686V48.2667Z" fill="white"/>
<path d="M33.2984 48.2997C33.2984 48.3164 33.2928 48.3276 33.2817 48.3332C33.2706 48.3387 33.2594 48.3425 33.2464 48.3425H32.8506C32.8376 48.3425 32.8246 48.3369 32.8171 48.3239C32.8079 48.3127 32.8041 48.2979 32.8041 48.2811V47.0324C32.8041 47.0157 32.7986 47.0083 32.7893 47.0083C32.7818 47.0083 32.7725 47.0157 32.7651 47.0287L32.4957 47.523C32.4752 47.5564 32.4455 47.5732 32.4065 47.5732H32.1668C32.1277 47.5732 32.0961 47.5564 32.0776 47.523L31.8081 47.0287C31.8007 47.0138 31.7914 47.0083 31.784 47.0083C31.7747 47.0083 31.7691 47.0157 31.7691 47.0324V48.2811C31.7691 48.2979 31.7654 48.3109 31.7561 48.3239C31.7468 48.335 31.7357 48.3425 31.7226 48.3425H31.3268C31.3157 48.3425 31.3027 48.3387 31.2934 48.3332C31.2822 48.3276 31.2767 48.3164 31.2767 48.2997V46.2185C31.2767 46.1869 31.286 46.1609 31.3064 46.1442C31.3268 46.1256 31.3529 46.1182 31.3844 46.1182H31.665C31.7245 46.1182 31.7691 46.1442 31.797 46.1981L32.256 47.051C32.2671 47.077 32.2783 47.09 32.2894 47.09C32.2968 47.09 32.308 47.077 32.3229 47.051L32.7818 46.1981C32.8097 46.1442 32.8543 46.1182 32.9138 46.1182H33.1944C33.226 46.1182 33.252 46.1275 33.2724 46.146C33.2928 46.1646 33.3021 46.1906 33.3021 46.2222V48.2997H33.2984Z" fill="white"/>
<path d="M39.0477 48.2948C39.0477 48.3264 39.031 48.3431 38.9976 48.3431H38.5776C38.5609 48.3431 38.5479 48.3375 38.5386 48.3282C38.5293 48.3189 38.5219 48.3059 38.5182 48.2892L38.4104 47.7986H37.7972L37.6894 48.2892C37.6857 48.3059 37.6782 48.3189 37.6689 48.3282C37.6597 48.3375 37.6466 48.3431 37.6299 48.3431H37.21C37.1765 48.3431 37.1598 48.3264 37.1598 48.2948C37.1598 48.2929 37.1598 48.2911 37.1598 48.2892C37.1598 48.2873 37.1598 48.2836 37.1598 48.2799L37.6058 46.4235C37.6243 46.3511 37.6504 46.2935 37.6838 46.2507C37.7173 46.2061 37.7581 46.1727 37.8027 46.1504C37.8473 46.1281 37.8956 46.1114 37.9477 46.1039C37.9997 46.0965 38.0517 46.0928 38.1038 46.0928C38.1558 46.0928 38.2078 46.0965 38.258 46.1039C38.3082 46.1114 38.3565 46.1281 38.4011 46.1504C38.4457 46.1727 38.4847 46.2061 38.52 46.2507C38.5535 46.2953 38.5795 46.3529 38.5981 46.4235L39.044 48.2799C39.044 48.2799 39.044 48.2873 39.044 48.2892C39.044 48.2911 39.044 48.2929 39.044 48.2948H39.0477ZM38.1428 46.561C38.1391 46.5443 38.1354 46.5332 38.1316 46.5276C38.1279 46.5202 38.1186 46.5164 38.1056 46.5164C38.0833 46.5164 38.0703 46.5313 38.0629 46.561L37.8808 47.388H38.3268L38.1446 46.561H38.1428Z" fill="white"/>
<path d="M44.5853 47.4233C44.5853 47.5812 44.563 47.7187 44.5203 47.8377C44.4757 47.9566 44.4125 48.0551 44.3326 48.135C44.2508 48.213 44.1505 48.2725 44.0334 48.3115C43.9163 48.3505 43.7825 48.3691 43.632 48.3691C43.5707 48.3691 43.5075 48.3691 43.4443 48.3654C43.3812 48.3617 43.3217 48.3598 43.2641 48.3542C43.2065 48.3505 43.1545 48.3449 43.108 48.3412C43.0616 48.3375 43.0225 48.3301 42.9928 48.3245C42.9649 48.3208 42.9426 48.3096 42.9278 48.2948C42.9129 48.278 42.9055 48.2539 42.9055 48.2204V46.2414C42.9055 46.208 42.9129 46.182 42.9278 46.1671C42.9426 46.1504 42.9649 46.1411 42.9928 46.1374C43.0225 46.1318 43.0616 46.1262 43.108 46.1206C43.1545 46.1151 43.2065 46.1114 43.2641 46.1076C43.3217 46.1039 43.3812 46.1002 43.4443 46.0965C43.5075 46.0928 43.5688 46.0928 43.632 46.0928C43.7825 46.0928 43.9163 46.1114 44.0334 46.1504C44.1505 46.1894 44.2508 46.2489 44.3326 46.3269C44.4143 46.405 44.4775 46.5053 44.5203 46.6224C44.5649 46.7413 44.5853 46.8788 44.5853 47.0367V47.4233ZM44.0743 47.0367C44.0743 46.9345 44.0631 46.8509 44.0427 46.7859C44.0223 46.7209 43.9925 46.667 43.9535 46.6279C43.9145 46.5889 43.868 46.5629 43.8141 46.548C43.7602 46.5332 43.6989 46.5257 43.632 46.5257C43.5949 46.5257 43.554 46.5257 43.5131 46.5257C43.4722 46.5257 43.4406 46.5276 43.4183 46.5295V47.9268C43.4406 47.9287 43.4722 47.9306 43.5131 47.9306C43.554 47.9306 43.593 47.9306 43.632 47.9306C43.7008 47.9306 43.7602 47.9231 43.8141 47.9083C43.868 47.8934 43.9145 47.8655 43.9535 47.8284C43.9925 47.7893 44.0223 47.7373 44.0427 47.6704C44.0631 47.6035 44.0743 47.5199 44.0743 47.4195V47.033V47.0367Z" fill="white"/>
<mask id="mask0_2074_76315" style="mask-type:luminance" maskUnits="userSpaceOnUse" x="14" y="52" width="18" height="12">
<path d="M30.1686 52.4145L14.8226 53.8408L15.6932 63.2086L31.0392 61.7823L30.1686 52.4145Z" fill="white"/>
</mask>
<g mask="url(#mask0_2074_76315)">
<path d="M30.7043 58.2246L28.6882 59.8338L30.2974 61.8519L30.4256 60.7035L30.5761 59.373L30.7043 58.2246Z" fill="white"/>
<path d="M26.3059 58.6328L24.2878 60.242L25.8989 62.2601L26.0271 61.1117L26.1758 59.7812L26.3059 58.6328Z" fill="white"/>
<path d="M21.9056 59.042L19.8895 60.6512L21.4987 62.6692L21.6288 61.5209L21.7774 60.1904L21.9056 59.042Z" fill="white"/>
<path d="M17.5072 59.4502L15.491 61.0594L17.1002 63.0775L17.2285 61.9291L17.379 60.5986L17.5072 59.4502Z" fill="white"/>
<path d="M28.0173 52.6143L30.2955 53.8258L29.0858 56.104L28.7476 55.0002L28.3555 53.7199L28.0173 52.6143Z" fill="white"/>
<path d="M23.6171 53.0234L25.8971 54.235L24.6855 56.5132L24.3473 55.4094L23.9553 54.1291L23.6171 53.0234Z" fill="white"/>
<path d="M19.2186 53.4316L21.4968 54.6432L20.2871 56.9214L19.9489 55.8176L19.5568 54.5354L19.2186 53.4316Z" fill="white"/>
<path d="M14.8202 53.8408L17.0984 55.0524L15.8887 57.3306L15.5505 56.2268L15.1584 54.9446L14.8202 53.8408Z" fill="white"/>
</g>
<path d="M24.6242 56.2309L25.0999 53.6945L22.5634 53.2188L23.2157 54.172L23.972 55.2777L24.6242 56.2309Z" fill="white"/>
<path d="M24.9011 58.5631L23.4424 56.4336L21.3129 57.8904L22.4482 58.1041L23.7657 58.3494L24.9011 58.5631Z" fill="white"/>
<path d="M26.7445 60.0168L24.208 59.543L23.7323 62.0795L24.6856 61.4272L25.7912 60.6691L26.7445 60.0168Z" fill="white"/>
<path d="M29.0765 59.7412L26.947 61.1981L28.4039 63.3276L28.6176 62.1922L28.8629 60.8766L29.0765 59.7412Z" fill="white"/>
<path d="M30.5297 57.8984L30.054 60.4349L32.5923 60.9088L31.9382 59.9555L31.1819 58.8498L30.5297 57.8984Z" fill="white"/>
<path d="M30.2546 55.5664L31.7115 57.6959L33.841 56.2372L32.7056 56.0254L31.39 55.7782L30.2546 55.5664Z" fill="white"/>
<path d="M28.4094 54.1116L30.9459 54.5873L31.4216 52.0508L30.4683 52.703L29.3627 53.4593L28.4094 54.1116Z" fill="white"/>
<path d="M26.0792 54.388L28.2087 52.9293L26.75 50.7998L26.5381 51.9352L26.291 53.2527L26.0792 54.388Z" fill="white"/>
<mask id="mask1_2074_76315" style="mask-type:luminance" maskUnits="userSpaceOnUse" x="10" y="51" width="18" height="12">
<path d="M26.438 51.7827L10.1891 53.293L11.0224 62.2593L27.2714 60.7491L26.438 51.7827Z" fill="white"/>
</mask>
<g mask="url(#mask1_2074_76315)">
<path d="M26.9563 57.3945L24.6744 58.5987L25.8785 60.8806L26.2186 59.7768L26.213 59.7935L26.6088 58.515L26.6144 58.4965L26.9563 57.3945Z" fill="white"/>
<path d="M22.3312 57.8242L20.0493 59.0284L21.2534 61.3103L21.5954 60.2065L21.5879 60.2251L21.9837 58.9447L21.9912 58.9262L22.3312 57.8242Z" fill="white"/>
<path d="M17.706 58.2529L15.4241 59.4571L16.6283 61.739L16.9702 60.637L16.9627 60.6538L17.3585 59.3734L17.366 59.3567L17.706 58.2529Z" fill="white"/>
<path d="M13.081 58.6826L10.7991 59.8867L12.0032 62.1705L12.3451 61.0667L12.3377 61.0834L12.7335 59.8031L12.7409 59.7864L13.081 58.6826Z" fill="white"/>
<path d="M24.0612 52.0059L26.527 52.7696L25.7633 55.2336L25.2244 54.2134L25.2337 54.2283L24.6093 53.0427L24.6 53.0279L24.0612 52.0059Z" fill="white"/>
<path d="M19.4361 52.4355L21.902 53.1993L21.1382 55.6651L20.5993 54.6431L20.6105 54.658L19.9843 53.4724L19.975 53.4576L19.4361 52.4355Z" fill="white"/>
<path d="M14.8109 52.8643L17.2768 53.628L16.513 56.0939L15.9742 55.0718L15.9853 55.0886L15.3591 53.903L15.3498 53.8863L14.8109 52.8643Z" fill="white"/>
<path d="M10.1877 53.2959L12.6517 54.0578L11.8898 56.5236L11.3509 55.5016L11.3602 55.5183L10.7359 54.3328L10.7247 54.3161L10.1877 53.2959Z" fill="white"/>
</g>
<mask id="mask2_2074_76315" style="mask-type:luminance" maskUnits="userSpaceOnUse" x="29" y="52" width="19" height="18">
<path d="M40.9525 52.1306L29.3757 62.3047L35.5863 69.3716L47.1631 59.1976L40.9525 52.1306Z" fill="white"/>
</mask>
<g mask="url(#mask2_2074_76315)">
<path d="M47.0326 62.3224L49.5877 61.9619L49.9481 64.5188L49.0246 63.8239L47.9543 63.0174L47.0326 62.3224Z" fill="white"/>
<path d="M43.7137 65.2404L46.2688 64.8799L46.6293 67.4349L45.7058 66.74L44.6354 65.9354L43.7137 65.2404Z" fill="white"/>
<path d="M40.395 68.1554L42.9501 67.7949L43.3106 70.3518L42.387 69.6569L41.3167 68.8504L40.395 68.1554Z" fill="white"/>
<path d="M44.8009 56.5176L44.1152 59.0039L46.6033 59.6896L46.0329 58.6861L45.3713 57.521L44.8009 56.5176Z" fill="white"/>
<path d="M41.4821 59.4326L40.7964 61.9208L43.2845 62.6065L42.7141 61.6012L42.0525 60.4361L41.4821 59.4326Z" fill="white"/>
<path d="M38.1632 62.3486L37.4775 64.8368L39.9657 65.5225L39.3952 64.519L38.7337 63.3539L38.1632 62.3486Z" fill="white"/>
<path d="M34.8445 65.2656L34.1588 67.7538L36.647 68.4395L36.0765 67.4342L35.415 66.2691L34.8445 65.2656Z" fill="white"/>
<path d="M31.5257 68.1816L30.84 70.6698L33.3281 71.3555L32.7577 70.352L32.0961 69.1869L31.5257 68.1816Z" fill="white"/>
<path d="M42.6472 50.6417L45.2041 50.2812L45.5646 52.8363L44.641 52.1413L43.5707 51.3367L42.6472 50.6417Z" fill="white"/>
<path d="M39.3303 53.5569L41.8853 53.1982L42.2458 55.7533L41.3223 55.0583L40.2519 54.2519L39.3303 53.5569Z" fill="white"/>
<path d="M36.0114 56.4748L38.5665 56.1143L38.927 58.6693L38.0034 57.9743L36.9331 57.1697L36.0114 56.4748Z" fill="white"/>
<path d="M32.6926 59.3898L35.2477 59.0293L35.6082 61.5862L34.6846 60.8912L33.6143 60.0848L32.6926 59.3898Z" fill="white"/>
<path d="M29.3738 62.3078L31.9289 61.9473L32.2894 64.5023L31.3659 63.8074L30.2955 63.0027L29.3738 62.3078Z" fill="white"/>
<path d="M33.7797 50.668L33.094 53.1561L35.5822 53.8418L35.0117 52.8384L34.3502 51.6714L33.7797 50.668Z" fill="white"/>
<path d="M30.4609 53.585L29.7752 56.0713L32.2634 56.757L31.6929 55.7535L31.0314 54.5884L30.4609 53.585Z" fill="white"/>
</g>
<path d="M38.7114 58.4777L37.6039 56.1475L35.2737 57.2531L36.3607 57.6415L37.6225 58.0912L38.7114 58.4777Z" fill="white"/>
<path d="M40.3039 60.2019L37.8733 59.3359L37.0074 61.7684L38.0517 61.2722L39.2614 60.698L40.3039 60.2019Z" fill="white"/>
<path d="M42.6508 60.2949L40.3206 61.4024L41.4263 63.7326L41.8146 62.6456L42.2643 61.382L42.6508 60.2949Z" fill="white"/>
<path d="M44.3753 58.7012L43.5093 61.1336L45.9399 61.9995L45.4456 60.9552L44.8714 59.7455L44.3753 58.7012Z" fill="white"/>
<path d="M44.4681 56.3555L45.5738 58.6857L47.9059 57.58L46.8188 57.1917L45.5552 56.742L44.4681 56.3555Z" fill="white"/>
<path d="M42.8738 54.6309L45.3043 55.4969L46.1703 53.0645L45.1278 53.5606L43.9181 54.1348L42.8738 54.6309Z" fill="white"/>
<path d="M40.5287 54.5383L42.859 53.4308L41.7533 51.1006L41.3649 52.1876L40.9153 53.4494L40.5287 54.5383Z" fill="white"/>
<path d="M38.8043 56.1323L39.6703 53.6999L37.2379 52.834L37.734 53.8783L38.3082 55.088L38.8043 56.1323Z" fill="white"/>
<mask id="mask3_2074_76315" style="mask-type:luminance" maskUnits="userSpaceOnUse" x="25" y="53" width="19" height="19">
<path d="M37.5629 53.8133L25.3049 64.5859L31.2494 71.35L43.5074 60.5773L37.5629 53.8133Z" fill="white"/>
</mask>
<g mask="url(#mask3_2074_76315)">
<path d="M43.2084 63.853L45.6519 63.0205L46.4826 65.4641L45.4475 64.9531L45.4643 64.9605L44.262 64.3696L44.2453 64.3621L43.2084 63.853Z" fill="white"/>
<path d="M39.7186 66.9194L42.1621 66.0869L42.9946 68.5305L41.9577 68.0195L41.9745 68.0269L40.7722 67.436L40.7555 67.4285L39.7186 66.9194Z" fill="white"/>
<path d="M36.2307 69.9848L38.6724 69.1523L39.5049 71.5959L38.468 71.0849L38.4866 71.0923L37.2843 70.5014L37.2657 70.494L36.2307 69.9848Z" fill="white"/>
<path d="M41.2814 58.0479L40.1423 60.3632L42.4576 61.5023L42.086 60.4097L42.0897 60.4264L41.6586 59.1591L41.653 59.1405L41.2814 58.0479Z" fill="white"/>
<path d="M37.7916 61.1143L36.6525 63.4296L38.9697 64.5687L38.5962 63.4761L38.6018 63.4928L38.1688 62.2255L38.1651 62.2069L37.7916 61.1143Z" fill="white"/>
<path d="M34.3037 64.1797L33.1646 66.495L35.48 67.6341L35.1083 66.5415L35.112 66.5582L34.6809 65.2909L34.6754 65.2723L34.3037 64.1797Z" fill="white"/>
<path d="M30.814 67.2461L29.6749 69.5614L31.9921 70.7005L31.6186 69.6079L31.6241 69.6246L31.1912 68.3573L31.1856 68.3387L30.814 67.2461Z" fill="white"/>
<path d="M27.3242 70.3125L26.187 72.6279L28.5023 73.7669L28.1288 72.6743L28.1344 72.691L27.7014 71.4237L27.6977 71.4051L27.3242 70.3125Z" fill="white"/>
<path d="M39.2615 52.3247L41.7032 51.4922L42.5357 53.9358L41.4988 53.4266L41.5155 53.4322L40.3132 52.8413L40.2965 52.8338L39.2615 52.3247Z" fill="white"/>
<path d="M35.7717 55.3911L38.2153 54.5586L39.0459 57.0022L38.0109 56.493L38.0276 56.4986L36.8253 55.9077L36.8086 55.9002L35.7717 55.3911Z" fill="white"/>
<path d="M32.282 58.4565L34.7255 57.624L35.558 60.0676L34.5211 59.5584L34.5379 59.564L33.3356 58.9731L33.3189 58.9657L32.282 58.4565Z" fill="white"/>
<path d="M28.7941 61.5229L31.2376 60.6904L32.0683 63.134L31.0314 62.623L31.05 62.6304L29.8477 62.0395L29.8291 62.0321L28.7941 61.5229Z" fill="white"/>
<path d="M25.3043 64.5893L27.7479 63.7568L28.5785 66.2004L27.5435 65.6894L27.5602 65.6968L26.3579 65.1059L26.3412 65.0985L25.3043 64.5893Z" fill="white"/>
<path d="M30.355 52.6514L29.2159 54.9667L31.5331 56.1058L31.1596 55.0132L31.1652 55.0299L30.7322 53.7626L30.7285 53.744L30.355 52.6514Z" fill="white"/>
<path d="M26.8671 55.7178L25.728 58.0331L28.0434 59.1722L27.6717 58.0796L27.6754 58.0963L27.2443 56.829L27.2388 56.8104L26.8671 55.7178Z" fill="white"/>
</g>
<mask id="mask4_2074_76315" style="mask-type:luminance" maskUnits="userSpaceOnUse" x="46" y="45" width="13" height="18">
<path d="M49.508 45.564L46.1224 60.5996L55.3008 62.6664L58.6864 47.6307L49.508 45.564Z" fill="white"/>
</mask>
<g mask="url(#mask4_2074_76315)">
<path d="M58.4792 58.8576L60.3338 57.0645L62.1269 58.919L60.973 58.9004L59.6332 58.8762L58.4792 58.8576Z" fill="white"/>
<path d="M57.5074 63.1662L59.3638 61.373L61.1569 63.2294L60.003 63.209L58.6632 63.1867L57.5074 63.1662Z" fill="white"/>
<path d="M55.2014 46.8496L56.11 49.2653L58.5257 48.3585L57.474 47.8809L56.2531 47.3272L55.2014 46.8496Z" fill="white"/>
<path d="M54.2313 51.1611L55.1381 53.5768L57.5557 52.67L56.5039 52.1925L55.2831 51.6387L54.2313 51.1611Z" fill="white"/>
<path d="M53.2614 55.4697L54.1682 57.8854L56.5839 56.9786L55.5321 56.501L54.3131 55.9473L53.2614 55.4697Z" fill="white"/>
<path d="M52.2895 59.7812L53.1982 62.1969L55.6139 61.2883L54.5621 60.8126L53.3412 60.2588L52.2895 59.7812Z" fill="white"/>
<path d="M49.0358 47.6731L50.8921 45.8799L52.6853 47.7362L51.5314 47.7158L50.1916 47.6935L49.0358 47.6731Z" fill="white"/>
<path d="M48.0657 51.9835L49.9221 50.1885L51.7153 52.0448L50.5595 52.0244L49.2197 52.0021L48.0657 51.9835Z" fill="white"/>
<path d="M47.0958 56.2932L48.9503 54.5L50.7435 56.3564L49.5895 56.3359L48.2497 56.3136L47.0958 56.2932Z" fill="white"/>
<path d="M46.1239 60.6037L47.9803 58.8105L49.7735 60.6651L48.6195 60.6465L47.2797 60.6223L46.1239 60.6037Z" fill="white"/>
<path d="M43.8178 44.2871L44.7265 46.7028L47.1422 45.7941L46.0904 45.3184L44.8696 44.7647L43.8178 44.2871Z" fill="white"/>
<path d="M42.8478 48.5967L43.7565 51.0124L46.1722 50.1056L45.1205 49.628L43.8996 49.0742L42.8478 48.5967Z" fill="white"/>
</g>
<path d="M51.4291 52.017L49.162 50.7812L47.9263 53.0464L49.0357 52.7212L50.3197 52.3422L51.4291 52.017Z" fill="white"/>
<path d="M53.7314 52.4766L51.2563 53.205L51.9847 55.6801L52.5366 54.6656L53.1777 53.4893L53.7314 52.4766Z" fill="white"/>
<path d="M55.6844 51.1719L54.4487 53.4371L56.7139 54.6728L56.3887 53.5653L56.0096 52.2794L55.6844 51.1719Z" fill="white"/>
<path d="M56.1415 48.8672L56.87 51.3442L59.347 50.6158L58.3324 50.062L57.1561 49.4209L56.1415 48.8672Z" fill="white"/>
<path d="M54.8371 46.9161L57.1041 48.1518L58.338 45.8848L57.2305 46.2118L55.9465 46.589L54.8371 46.9161Z" fill="white"/>
<path d="M52.5347 46.4575L55.0099 45.7291L54.2815 43.2539L53.7296 44.2666L53.0885 45.4429L52.5347 46.4575Z" fill="white"/>
<path d="M50.5818 47.7616L51.8175 45.4946L49.5523 44.2607L49.8775 45.3682L50.2566 46.6541L50.5818 47.7616Z" fill="white"/>
<path d="M50.1246 50.064L49.3962 47.5889L46.9192 48.3173L47.9338 48.8692L49.11 49.5121L50.1246 50.064Z" fill="white"/>
<mask id="mask5_2074_76315" style="mask-type:luminance" maskUnits="userSpaceOnUse" x="44" y="48" width="13" height="19">
<path d="M47.7586 48.9176L44.1738 64.8379L52.9588 66.8161L56.5436 50.8958L47.7586 48.9176Z" fill="white"/>
</mask>
<g mask="url(#mask5_2074_76315)">
<path d="M56.1843 62.785L57.6727 60.6777L59.7818 62.1643L58.6427 62.3613L58.6613 62.3576L57.3401 62.5843L57.3234 62.5898L56.1843 62.785Z" fill="white"/>
<path d="M55.1641 67.3171L56.6525 65.208L58.7597 66.6964L57.6225 66.8916L57.6411 66.8878L56.3199 67.1164L56.3032 67.1201L55.1641 67.3171Z" fill="white"/>
<path d="M53.2538 50.1602L53.6942 52.7022L56.2382 52.2618L55.2942 51.5966L55.3072 51.6096L54.2127 50.8365L54.1978 50.8254L53.2538 50.1602Z" fill="white"/>
<path d="M52.2337 54.6904L52.6741 57.2343L55.2162 56.7939L54.2722 56.1287L54.287 56.1398L53.1925 55.3687L53.1777 55.3557L52.2337 54.6904Z" fill="white"/>
<path d="M51.2135 59.2227L51.6539 61.7647L54.196 61.3243L53.252 60.6591L53.2668 60.6721L52.1723 59.8991L52.1575 59.8879L51.2135 59.2227Z" fill="white"/>
<path d="M50.1934 63.7529L50.6338 66.2968L53.1758 65.8564L52.2318 65.1912L52.2467 65.2023L51.1522 64.4312L51.1373 64.4182L50.1934 63.7529Z" fill="white"/>
<path d="M47.235 51.2469L48.7235 49.1396L50.8326 50.6262L49.6935 50.8232L49.7121 50.8195L48.3909 51.0462L48.3741 51.0518L47.235 51.2469Z" fill="white"/>
<path d="M46.2149 55.779L47.7033 53.6699L49.8106 55.1584L48.6733 55.3535L48.6919 55.3498L47.3707 55.5783L47.3521 55.582L46.2149 55.779Z" fill="white"/>
<path d="M45.1947 60.3112L46.6813 58.2021L48.7904 59.6887L47.6531 59.8857L47.6717 59.882L46.3505 60.1087L46.3319 60.1143L45.1947 60.3112Z" fill="white"/>
<path d="M44.1746 64.8415L45.6611 62.7324L47.7702 64.2209L46.633 64.416L46.6497 64.4123L45.3304 64.6408L45.3118 64.6445L44.1746 64.8415Z" fill="white"/>
<path d="M42.2643 47.6846L42.7047 50.2266L45.2467 49.7862L44.3028 49.121L44.3176 49.134L43.2231 48.361L43.2083 48.3498L42.2643 47.6846Z" fill="white"/>
<path d="M41.2441 52.2148L41.6845 54.7588L44.2266 54.3184L43.2826 53.6531L43.2975 53.6643L42.2011 52.8931L42.1881 52.8801L41.2441 52.2148Z" fill="white"/>
</g>
<mask id="mask6_2074_76315" style="mask-type:luminance" maskUnits="userSpaceOnUse" x="52" y="31" width="16" height="19">
<path d="M61.2183 31.4978L52.578 35.2207L58.6767 49.3748L67.3169 45.652L61.2183 31.4978Z" fill="white"/>
</mask>
<g mask="url(#mask6_2074_76315)">
<path d="M64.1467 32.5889L64.5927 30.0469L67.1348 30.4947L66.1889 31.1562L65.0926 31.9255L64.1467 32.5889Z" fill="white"/>
<path d="M65.8953 36.6456L66.3413 34.1035L68.8834 34.5513L67.9375 35.2147L66.8393 35.984L65.8953 36.6456Z" fill="white"/>
<path d="M57.9346 32.9156L60.0883 34.3353L61.5099 32.1816L60.3782 32.4139L59.0663 32.6834L57.9346 32.9156Z" fill="white"/>
<path d="M59.6833 36.9724L61.837 38.3939L63.2585 36.2402L62.1269 36.4725L60.8131 36.7401L59.6833 36.9724Z" fill="white"/>
<path d="M61.43 41.0309L63.5855 42.4524L65.0052 40.2969L63.8754 40.5292L62.5617 40.7986L61.43 41.0309Z" fill="white"/>
<path d="M63.1786 45.0876L65.3323 46.5092L66.7538 44.3555L65.6222 44.5877L64.3102 44.8572L63.1786 45.0876Z" fill="white"/>
<path d="M64.9272 49.1461L67.0809 50.5676L68.5024 48.4121L67.3708 48.6444L66.0588 48.9138L64.9272 49.1461Z" fill="white"/>
<path d="M51.6818 33.1485L52.1296 30.6064L54.6698 31.0543L53.724 31.7158L52.6276 32.4851L51.6818 33.1485Z" fill="white"/>
<path d="M53.4304 37.2052L53.8763 34.665L56.4184 35.111L55.4725 35.7744L54.3762 36.5437L53.4304 37.2052Z" fill="white"/>
<path d="M55.179 41.2628L55.6249 38.7207L58.167 39.1667L57.2211 39.8301L56.1248 40.5994L55.179 41.2628Z" fill="white"/>
<path d="M56.9257 45.3195L57.3735 42.7793L59.9155 43.2253L58.9697 43.8887L57.8715 44.658L56.9257 45.3195Z" fill="white"/>
<path d="M58.6743 49.378L59.1221 46.8359L61.6623 47.2838L60.7183 47.9453L59.6201 48.7146L58.6743 49.378Z" fill="white"/>
<path d="M50.7136 45.6472L52.8692 47.0687L54.2888 44.915L53.159 45.1473L51.8453 45.4168L50.7136 45.6472Z" fill="white"/>
<path d="M52.4622 49.7047L54.6159 51.1262L56.0374 48.9707L54.9058 49.203L53.5939 49.4724L52.4622 49.7047Z" fill="white"/>
</g>
<path d="M57.918 39.3135L55.3593 39.6461L55.6919 42.2049L56.3961 41.2906L57.2138 40.2277L57.918 39.3135Z" fill="white"/>
<path d="M60.0512 38.3311L58.4755 40.3751L60.5214 41.9509L60.3727 40.8044L60.1999 39.4757L60.0512 38.3311Z" fill="white"/>
<path d="M60.8633 36.1289L61.196 38.6877L63.7547 38.3551L62.8405 37.6508L61.7794 36.8332L60.8633 36.1289Z" fill="white"/>
<path d="M59.8803 33.9955L61.9262 35.5694L63.5001 33.5254L62.3555 33.6741L61.0268 33.8469L59.8803 33.9955Z" fill="white"/>
<path d="M57.6783 33.1815L60.2371 32.8508L59.9044 30.292L59.2002 31.2062L58.3826 32.2673L57.6783 33.1815Z" fill="white"/>
<path d="M55.5451 34.1648L57.1208 32.1208L55.0768 30.5469L55.2236 31.6915L55.3964 33.0202L55.5451 34.1648Z" fill="white"/>
<path d="M54.733 36.3684L54.4004 33.8096L51.8416 34.1422L52.7559 34.8465L53.8188 35.6641L54.733 36.3684Z" fill="white"/>
<path d="M55.716 38.5016L53.672 36.9258L52.0962 38.9698L53.2409 38.8212L54.5695 38.6502L55.716 38.5016Z" fill="white"/>
<mask id="mask7_2074_76315" style="mask-type:luminance" maskUnits="userSpaceOnUse" x="53" y="35" width="15" height="19">
<path d="M61.402 35.4006L53.1321 38.9639L59.5896 53.9508L67.8595 50.3875L61.402 35.4006Z" fill="white"/>
</mask>
<g mask="url(#mask7_2074_76315)">
<path d="M64.4199 36.6974L64.3846 34.1164L66.9639 34.0811L66.1592 34.9098L66.1723 34.895L65.2376 35.8557L65.2246 35.8705L64.4199 36.6974Z" fill="white"/>
<path d="M66.2577 40.964L66.2224 38.383L68.8016 38.3477L67.997 39.1746L68.01 39.1616L67.0753 40.1223L67.0623 40.1353L66.2577 40.964Z" fill="white"/>
<path d="M58.3027 36.7366L60.1535 38.5354L61.9522 36.6846L60.7983 36.7013L60.8169 36.7032L59.4771 36.7217L59.4585 36.7199L58.3027 36.7366Z" fill="white"/>
<path d="M60.1404 41.0032L61.9912 42.802L63.79 40.9512L62.636 40.9679H62.6546L61.3148 40.9865H61.2963L60.1404 41.0032Z" fill="white"/>
<path d="M61.9783 45.2679L63.8291 47.0666L65.6278 45.2158L64.4739 45.2325L64.4925 45.2344L63.1527 45.253L63.1341 45.2511L61.9783 45.2679Z" fill="white"/>
<path d="M63.816 49.5345L65.6668 51.3332L67.4656 49.4824L66.3116 49.4991H66.3302L64.9904 49.5196L64.9719 49.5177L63.816 49.5345Z" fill="white"/>
<path d="M65.6538 53.7991L67.5046 55.5979L69.3034 53.7471L68.1494 53.7638L68.168 53.7657L66.8282 53.7842H66.8096L65.6538 53.7991Z" fill="white"/>
<path d="M52.2356 36.8888L52.2003 34.3096L54.7813 34.2725L53.9749 35.1012L53.9879 35.0864L53.0532 36.0471L53.042 36.0619L52.2356 36.8888Z" fill="white"/>
<path d="M54.0734 41.1554L54.0381 38.5744L56.6192 38.5391L55.8127 39.3678L55.8257 39.353L54.891 40.3137L54.8799 40.3267L54.0734 41.1554Z" fill="white"/>
<path d="M55.9111 45.4201L55.8758 42.8409L58.4569 42.8037L57.6504 43.6325L57.6634 43.6176L56.7287 44.5783L56.7176 44.5932L55.9111 45.4201Z" fill="white"/>
<path d="M57.7489 49.6867L57.7136 47.1056L60.2946 47.0703L59.4882 47.8991L59.5012 47.8842L58.5665 48.8449L58.5553 48.8579L57.7489 49.6867Z" fill="white"/>
<path d="M59.5867 53.9533L59.5514 51.3722L62.1325 51.3369L61.326 52.1638L61.339 52.1508L60.4043 53.1115L60.3932 53.1245L59.5867 53.9533Z" fill="white"/>
<path d="M49.7957 45.4612L51.6465 47.2581L53.4434 45.4092L52.2895 45.424L52.308 45.4259L50.9683 45.4445H50.9497L49.7957 45.4612Z" fill="white"/>
<path d="M51.6335 49.7259L53.4843 51.5246L55.283 49.6738L54.1272 49.6906L54.1458 49.6924L52.806 49.711L52.7874 49.7091L51.6335 49.7259Z" fill="white"/>
<path d="M53.4713 53.9915L55.3221 55.7902L57.1209 53.9395L55.965 53.9562H55.9836L54.6439 53.9748H54.6253L53.4713 53.9915Z" fill="white"/>
</g>
<mask id="mask8_2074_76315" style="mask-type:luminance" maskUnits="userSpaceOnUse" x="48" y="16" width="20" height="17">
<path d="M53.7789 16.9613L48.9771 25.0518L62.2306 32.918L67.0324 24.8275L53.7789 16.9613Z" fill="white"/>
</mask>
<g mask="url(#mask8_2074_76315)">
<path d="M60.5884 18.3746L59.4549 16.0555L61.774 14.9238L61.3986 16.0165L60.9638 17.2838L60.5884 18.3746Z" fill="white"/>
<path d="M64.3866 20.6303L63.2549 18.3113L65.574 17.1777L65.1986 18.2704L64.762 19.5377L64.3866 20.6303Z" fill="white"/>
<path d="M48.155 17.7804L50.7342 17.6652L50.6172 15.0859L49.8386 15.9389L48.9355 16.9293L48.155 17.7804Z" fill="white"/>
<path d="M51.9551 20.0362L54.5324 19.9192L54.4172 17.3418L53.6368 18.1947L52.7337 19.1833L51.9551 20.0362Z" fill="white"/>
<path d="M55.7551 22.292L58.3325 22.1749L58.2154 19.5957L57.4368 20.4486L56.5337 21.4391L55.7551 22.292Z" fill="white"/>
<path d="M59.5534 24.546L62.1308 24.4289L62.0156 21.8516L61.237 22.7045L60.332 23.6931L59.5534 24.546Z" fill="white"/>
<path d="M63.3535 26.8018L65.9308 26.6848L65.8137 24.1074L65.0352 24.9585L64.1321 25.9489L63.3535 26.8018Z" fill="white"/>
<path d="M50.8327 26.1529L49.6992 23.8357L52.0183 22.7021L51.6429 23.7948L51.2081 25.0621L50.8327 26.1529Z" fill="white"/>
<path d="M54.6309 28.4087L53.4993 26.0897L55.8183 24.958L55.443 26.0488L55.0063 27.3161L54.6309 28.4087Z" fill="white"/>
<path d="M58.431 30.6645L57.2993 28.3454L59.6165 27.2119L59.2412 28.3046L58.8063 29.5719L58.431 30.6645Z" fill="white"/>
<path d="M62.2292 32.9185L61.0975 30.5994L63.4166 29.4678L63.0412 30.5586L62.6046 31.8259L62.2292 32.9185Z" fill="white"/>
<path d="M66.0293 35.1752L64.8976 32.8562L67.2167 31.7227L66.8395 32.8153L66.4047 34.0826L66.0293 35.1752Z" fill="white"/>
<path d="M49.7977 32.3243L52.3769 32.2091L52.2599 29.6299L51.4813 30.4828L50.5782 31.4714L49.7977 32.3243Z" fill="white"/>
<path d="M53.5978 34.5802L56.1751 34.4631L56.0599 31.8857L55.2795 32.7387L54.3764 33.7272L53.5978 34.5802Z" fill="white"/>
</g>
<path d="M55.7031 25.2227L53.8281 26.9954L55.6009 28.8704L55.6325 27.7164L55.6696 26.3766L55.7031 25.2227Z" fill="white"/>
<path d="M56.8496 23.1729L56.779 25.7521L59.3582 25.8245L58.5647 24.9865L57.6431 24.0128L56.8496 23.1729Z" fill="white"/>
<path d="M56.2123 20.9141L57.9869 22.789L59.8618 21.0163L58.7079 20.9847L57.3681 20.9457L56.2123 20.9141Z" fill="white"/>
<path d="M54.1645 19.7655L56.7437 19.838L56.8162 17.2588L55.9781 18.0523L55.0044 18.9721L54.1645 19.7655Z" fill="white"/>
<path d="M51.9048 20.4026L53.7798 18.6298L52.007 16.7549L51.9736 17.9088L51.9364 19.2486L51.9048 20.4026Z" fill="white"/>
<path d="M50.7565 22.4525L50.829 19.8732L48.2498 19.8008L49.0432 20.6388L49.963 21.6126L50.7565 22.4525Z" fill="white"/>
<path d="M51.3939 24.7119L49.6211 22.8369L47.7462 24.6097L48.9001 24.6412L50.2399 24.6803L51.3939 24.7119Z" fill="white"/>
<path d="M53.4434 25.8606L50.8624 25.7881L50.7917 28.3673L51.6298 27.5738L52.6035 26.654L53.4434 25.8606Z" fill="white"/>
<mask id="mask9_2074_76315" style="mask-type:luminance" maskUnits="userSpaceOnUse" x="51" y="20" width="20" height="17">
<path d="M56.2186 20.0082L51.6226 27.752L65.6559 36.081L70.252 28.3373L56.2186 20.0082Z" fill="white"/>
</mask>
<g mask="url(#mask9_2074_76315)">
<path d="M63.4185 21.6554L61.8724 19.589L63.9388 18.043L63.7753 19.1858L63.7771 19.1672L63.5857 20.494L63.5839 20.5126L63.4185 21.6554Z" fill="white"/>
<path d="M67.4137 24.0265L65.8676 21.9601L67.934 20.4141L67.7686 21.5569L67.7704 21.5383L67.579 22.8651L67.5772 22.8836L67.4137 24.0265Z" fill="white"/>
<path d="M71.407 26.3975L69.861 24.3312L71.9273 22.7852L71.7638 23.928V23.9094L71.5724 25.2362V25.2547L71.407 26.3975Z" fill="white"/>
<path d="M50.5057 20.5406L53.0607 20.9086L53.4268 18.3535L52.5033 19.0466L52.5181 19.0355L51.4459 19.8382L51.4292 19.8494L50.5057 20.5406Z" fill="white"/>
<path d="M54.499 22.9117L57.054 23.2797L57.422 20.7246L56.4966 21.4159L56.5133 21.4066L55.4392 22.2093L55.4244 22.2205L54.499 22.9117Z" fill="white"/>
<path d="M58.4941 25.2828L61.0473 25.6489L61.4153 23.0957L60.4917 23.787L60.5066 23.7777L59.4344 24.5804L59.4177 24.5897L58.4941 25.2828Z" fill="white"/>
<path d="M62.4875 27.6539L65.0425 28.02L65.4086 25.4668L64.4851 26.1581L64.4999 26.1488L63.4277 26.9515L63.4129 26.9608L62.4875 27.6539Z" fill="white"/>
<path d="M66.4827 30.0231L69.0359 30.391L69.4038 27.8359L68.4784 28.5291L68.4951 28.5179L67.4229 29.3225L67.4062 29.3318L66.4827 30.0231Z" fill="white"/>
<path d="M53.6739 28.9709L52.1298 26.9045L54.1961 25.3604L54.0307 26.5032L54.0326 26.4846L53.8412 27.8095L53.8393 27.8281L53.6739 28.9709Z" fill="white"/>
<path d="M57.6691 31.3419L56.123 29.2755L58.1894 27.7295L58.024 28.8723L58.0259 28.8556L57.8345 30.1805V30.1991L57.6691 31.3419Z" fill="white"/>
<path d="M61.6625 33.713L60.1183 31.6466L62.1846 30.1006L62.0193 31.2434L62.0211 31.2248L61.8297 32.5516L61.8279 32.5702L61.6625 33.713Z" fill="white"/>
<path d="M65.6576 36.0841L64.1116 34.0177L66.1779 32.4717L66.0125 33.6145L66.0144 33.5959L65.823 34.9227L65.8211 34.9413L65.6576 36.0841Z" fill="white"/>
<path d="M69.651 38.4552L68.1049 36.3888L70.1713 34.8428L70.0077 35.9856L70.0096 35.967L69.8182 37.2938L69.8163 37.3124L69.651 38.4552Z" fill="white"/>
<path d="M48.7496 32.5983L51.3047 32.9662L51.6708 30.4111L50.7472 31.1042L50.7621 31.0931L49.6899 31.8959L49.6732 31.907L48.7496 32.5983Z" fill="white"/>
<path d="M52.743 34.9694L55.298 35.3373L55.666 32.7822L54.7406 33.4753L54.7573 33.4642L53.6832 34.267L53.6684 34.2781L52.743 34.9694Z" fill="white"/>
<path d="M56.7382 37.3404L59.2914 37.7084L59.6593 35.1533L58.7358 35.8446L58.7506 35.8353L57.6784 36.638L57.6617 36.6473L56.7382 37.3404Z" fill="white"/>
</g>
<mask id="mask10_2074_76315" style="mask-type:luminance" maskUnits="userSpaceOnUse" x="39" y="8" width="17" height="11">
<path d="M54.5635 8.14596L39.2175 9.57227L40.0881 18.9401L55.4341 17.5138L54.5635 8.14596Z" fill="white"/>
</mask>
<g mask="url(#mask10_2074_76315)">
<path d="M39.5476 13.1322L41.5638 11.523L39.9546 9.50684L39.8263 10.6534L39.6758 11.9857L39.5476 13.1322Z" fill="white"/>
<path d="M43.946 12.7231L45.964 11.1138L44.3529 9.09766L44.2247 10.2442L44.0761 11.5765L43.946 12.7231Z" fill="white"/>
<path d="M48.3463 12.3149L50.3625 10.7056L48.7533 8.68945L48.6232 9.83598L48.4745 11.1683L48.3463 12.3149Z" fill="white"/>
<path d="M52.7448 11.9057L54.7609 10.2965L53.1517 8.28027L53.0235 9.4268L52.873 10.7591L52.7448 11.9057Z" fill="white"/>
<path d="M42.2346 18.7417L39.9564 17.532L41.1661 15.252L41.5043 16.3557L41.8964 17.6379L42.2346 18.7417Z" fill="white"/>
<path d="M46.6349 18.3335L44.3549 17.1238L45.5664 14.8438L45.9046 15.9475L46.2967 17.2297L46.6349 18.3335Z" fill="white"/>
<path d="M51.0333 17.9243L48.7551 16.7146L49.9648 14.4346L50.303 15.5384L50.6951 16.8205L51.0333 17.9243Z" fill="white"/>
<path d="M55.4317 17.5161L53.1535 16.3064L54.3632 14.0264L54.7014 15.1302L55.0935 16.4123L55.4317 17.5161Z" fill="white"/>
</g>
<path d="M45.6277 15.124L45.152 17.6605L47.6885 18.1362L47.0363 17.1829L46.28 16.0773L45.6277 15.124Z" fill="white"/>
<path d="M45.3508 12.7939L46.8095 14.9235L48.9391 13.4648L47.8037 13.2529L46.4862 13.0058L45.3508 12.7939Z" fill="white"/>
<path d="M43.5075 11.3391L46.044 11.8148L46.5197 9.27832L45.5664 9.93056L44.4608 10.6869L43.5075 11.3391Z" fill="white"/>
<path d="M41.1754 11.6156L43.3049 10.1569L41.8481 8.02734L41.6344 9.16272L41.3891 10.4802L41.1754 11.6156Z" fill="white"/>
<path d="M39.7223 13.4585L40.1961 10.922L37.6597 10.4463L38.3119 11.3996L39.0701 12.5052L39.7223 13.4585Z" fill="white"/>
<path d="M39.9973 15.7907L38.5405 13.6611L36.4109 15.118L37.5463 15.3317L38.8619 15.577L39.9973 15.7907Z" fill="white"/>
<path d="M41.8426 17.2444L39.3061 16.7705L38.8304 19.307L39.7837 18.6547L40.8893 17.8966L41.8426 17.2444Z" fill="white"/>
<path d="M44.1727 16.9688L42.0432 18.4256L43.5019 20.5551L43.7138 19.4198L43.9609 18.1041L44.1727 16.9688Z" fill="white"/>
<mask id="mask11_2074_76315" style="mask-type:luminance" maskUnits="userSpaceOnUse" x="42" y="9" width="19" height="11">
<path d="M59.2322 9.09134L42.9833 10.6016L43.8167 19.5679L60.0656 18.0577L59.2322 9.09134Z" fill="white"/>
</mask>
<g mask="url(#mask11_2074_76315)">
<path d="M43.2957 13.9636L45.5776 12.7594L44.3734 10.4775L44.0334 11.5795L44.0389 11.5627L43.6431 12.8431L43.6376 12.8598L43.2957 13.9636Z" fill="white"/>
<path d="M47.9208 13.5338L50.2027 12.3297L48.9985 10.0459L48.6566 11.1497L48.6641 11.133L48.2683 12.4133L48.2608 12.43L47.9208 13.5338Z" fill="white"/>
<path d="M52.5459 13.1032L54.8278 11.8991L53.6237 9.61719L53.2818 10.721L53.2892 10.7024L52.8934 11.9827L52.886 12.0013L52.5459 13.1032Z" fill="white"/>
<path d="M57.1691 12.6735L59.4529 11.4694L58.2488 9.1875L57.9068 10.2913L57.9143 10.2727L57.5185 11.553L57.511 11.5697L57.1691 12.6735Z" fill="white"/>
<path d="M46.1908 19.3498L43.7249 18.5879L44.4886 16.1221L45.0275 17.1441L45.0164 17.1274L45.6426 18.3129L45.6519 18.3296L46.1908 19.3498Z" fill="white"/>
<path d="M50.8159 18.9211L48.35 18.1592L49.1138 15.6934L49.6526 16.7154L49.6415 16.6987L50.2677 17.8842L50.277 17.8991L50.8159 18.9211Z" fill="white"/>
<path d="M55.4392 18.4914L52.9752 17.7277L53.7389 15.2637L54.2759 16.2838L54.2666 16.269L54.891 17.4545L54.9021 17.4694L55.4392 18.4914Z" fill="white"/>
<path d="M60.0643 18.0626L57.6003 17.2989L58.3622 14.833L58.901 15.855L58.8917 15.8402L59.5161 17.0239L59.5273 17.0406L60.0643 18.0626Z" fill="white"/>
</g>
<mask id="mask12_2074_76315" style="mask-type:luminance" maskUnits="userSpaceOnUse" x="23" y="1" width="18" height="19">
<path d="M34.6687 1.98025L23.0919 12.1543L29.3025 19.2213L40.8793 9.04721L34.6687 1.98025Z" fill="white"/>
</mask>
<g mask="url(#mask12_2074_76315)">
<path d="M23.2194 9.03245L20.6643 9.39295L20.3038 6.83789L21.2274 7.53287L22.2977 8.33748L23.2194 9.03245Z" fill="white"/>
<path d="M26.5382 6.11732L23.9832 6.47782L23.6227 3.9209L24.5462 4.61588L25.6166 5.42235L26.5382 6.11732Z" fill="white"/>
<path d="M29.857 3.19945L27.3019 3.55994L26.9414 1.00488L27.8649 1.69986L28.9353 2.50447L29.857 3.19945Z" fill="white"/>
<path d="M25.4511 14.8399L26.1368 12.3517L23.6486 11.666L24.2191 12.6713L24.8806 13.8364L25.4511 14.8399Z" fill="white"/>
<path d="M28.7699 11.9238L29.4556 9.43569L26.9675 8.75L27.5379 9.75344L28.1995 10.9185L28.7699 11.9238Z" fill="white"/>
<path d="M32.0887 9.00686L32.7744 6.51869L30.2863 5.83301L30.8567 6.83831L31.5183 8.00342L32.0887 9.00686Z" fill="white"/>
<path d="M35.4075 6.09084L36.0932 3.60268L33.605 2.91699L34.1755 3.92044L34.837 5.08554L35.4075 6.09084Z" fill="white"/>
<path d="M38.7263 3.17385L39.412 0.685686L36.9238 0L37.4943 1.0053L38.1558 2.17041L38.7263 3.17385Z" fill="white"/>
<path d="M27.603 20.7159L25.0479 21.0746L24.6874 18.5195L25.611 19.2145L26.6813 20.021L27.603 20.7159Z" fill="white"/>
<path d="M30.9217 17.7981L28.3667 18.1586L28.0062 15.6035L28.9297 16.2985L30 17.1031L30.9217 17.7981Z" fill="white"/>
<path d="M34.2406 14.8829L31.6855 15.2416L31.325 12.6865L32.2486 13.3815L33.3189 14.188L34.2406 14.8829Z" fill="white"/>
<path d="M37.5593 11.9651L35.0042 12.3256L34.6437 9.77051L35.5673 10.4655L36.6376 11.2701L37.5593 11.9651Z" fill="white"/>
<path d="M40.8781 9.04994L38.3231 9.41043L37.9626 6.85352L38.8861 7.54849L39.9565 8.35496L40.8781 9.04994Z" fill="white"/>
<path d="M36.4723 20.6876L37.158 18.2013L34.6698 17.5156L35.2403 18.5191L35.9018 19.6842L36.4723 20.6876Z" fill="white"/>
<path d="M39.7911 17.7725L40.4768 15.2843L37.9886 14.5986L38.5591 15.6021L39.2206 16.769L39.7911 17.7725Z" fill="white"/>
</g>
<path d="M31.5405 12.877L32.648 15.209L34.9782 14.1015L33.8912 13.715L32.6294 13.2653L31.5405 12.877Z" fill="white"/>
<path d="M29.9461 11.1525L32.3785 12.0185L33.2445 9.58789L32.2001 10.0822L30.9904 10.6582L29.9461 11.1525Z" fill="white"/>
<path d="M27.6011 11.0598L29.9313 9.95414L28.8256 7.62207L28.4373 8.71099L27.9876 9.97272L27.6011 11.0598Z" fill="white"/>
<path d="M25.8766 12.6539L26.7426 10.2234L24.312 9.35742L24.8063 10.3999L25.3805 11.6115L25.8766 12.6539Z" fill="white"/>
<path d="M25.7837 15.001L24.6781 12.6689L22.346 13.7764L23.4331 14.163L24.6967 14.6126L25.7837 15.001Z" fill="white"/>
<path d="M27.3781 16.7253L24.9475 15.8594L24.0816 18.2899L25.1241 17.7956L26.3338 17.2196L27.3781 16.7253Z" fill="white"/>
<path d="M29.7232 16.8184L27.3929 17.924L28.4986 20.2561L28.887 19.1672L29.3366 17.9054L29.7232 16.8184Z" fill="white"/>
<path d="M31.4476 15.2236L30.5817 17.6542L33.0141 18.5201L32.5179 17.4777L31.9437 16.2661L31.4476 15.2236Z" fill="white"/>
<mask id="mask13_2074_76315" style="mask-type:luminance" maskUnits="userSpaceOnUse" x="26" y="0" width="19" height="18">
<path d="M39.0025 -0.000205537L26.7445 10.7725L32.689 17.5365L44.9469 6.76386L39.0025 -0.000205537Z" fill="white"/>
</mask>
<g mask="url(#mask13_2074_76315)">
<path d="M27.0437 7.50366L24.6001 8.33429L23.7695 5.89258L24.8045 6.40173L24.7878 6.3943L25.99 6.98707L26.0068 6.99265L27.0437 7.50366Z" fill="white"/>
<path d="M30.5334 4.43725L28.0899 5.26788L27.2574 2.82617L28.2943 3.33532L28.2775 3.32789L29.4798 3.92067L29.4966 3.92624L30.5334 4.43725Z" fill="white"/>
<path d="M34.0213 1.37085L31.5778 2.20147L30.7471 -0.240234L31.784 0.268918L31.7654 0.261486L32.9677 0.85426L32.9863 0.859835L34.0213 1.37085Z" fill="white"/>
<path d="M28.9706 13.3089L30.1097 10.9917L27.7944 9.85449L28.166 10.9471L28.1623 10.9285L28.5934 12.1977L28.599 12.2144L28.9706 13.3089Z" fill="white"/>
<path d="M32.4604 10.2425L33.5995 7.92532L31.2823 6.78809L31.6558 7.88072L31.6502 7.86214L32.0832 9.13131L32.0869 9.14803L32.4604 10.2425Z" fill="white"/>
<path d="M35.9483 7.17612L37.0874 4.85892L34.772 3.72168L35.1437 4.81432L35.14 4.79573L35.5711 6.0649L35.5766 6.08163L35.9483 7.17612Z" fill="white"/>
<path d="M39.4381 4.11069L40.5772 1.79349L38.2599 0.65625L38.6335 1.74889L38.6279 1.7303L39.0608 2.99947L39.0664 3.0162L39.4381 4.11069Z" fill="white"/>
<path d="M42.9278 1.04429L44.065 -1.27292L41.7497 -2.41016L42.1213 -1.31752L42.1176 -1.3361L42.5506 -0.0669336L42.5543 -0.0483503L42.9278 1.04429Z" fill="white"/>
<path d="M30.9906 19.032L28.5489 19.8626L27.7164 17.4209L28.7533 17.9301L28.7365 17.9226L29.9388 18.5154L29.9555 18.521L30.9906 19.032Z" fill="white"/>
<path d="M34.4803 15.9656L32.0367 16.7962L31.2061 14.3545L32.2411 14.8636L32.2244 14.8562L33.4267 15.449L33.4434 15.4546L34.4803 15.9656Z" fill="white"/>
<path d="M37.97 12.9001L35.5265 13.7308L34.694 11.2891L35.7309 11.7982L35.7141 11.7908L36.9164 12.3836L36.9331 12.3891L37.97 12.9001Z" fill="white"/>
<path d="M41.458 9.83374L39.0144 10.6644L38.1838 8.22266L39.2207 8.73181L39.2021 8.72438L40.4044 9.31715L40.4229 9.32273L41.458 9.83374Z" fill="white"/>
<path d="M44.9477 6.76733L42.5042 7.59796L41.6735 5.15625L42.7086 5.6654L42.6918 5.65797L43.8941 6.25074L43.9108 6.25632L44.9477 6.76733Z" fill="white"/>
<path d="M39.897 18.7044L41.0342 16.3872L38.7189 15.25L39.0924 16.3426L39.0868 16.3241L39.5198 17.5932L39.5235 17.6099L39.897 18.7044Z" fill="white"/>
<path d="M43.3849 15.639L44.524 13.3218L42.2087 12.1846L42.5803 13.2772L42.5766 13.2586L43.0077 14.5278L43.0133 14.5445L43.3849 15.639Z" fill="white"/>
</g>
<mask id="mask14_2074_76315" style="mask-type:luminance" maskUnits="userSpaceOnUse" x="11" y="8" width="14" height="18">
<path d="M14.9488 8.6831L11.5632 23.7188L20.7416 25.7855L24.1272 10.7499L14.9488 8.6831Z" fill="white"/>
</mask>
<g mask="url(#mask14_2074_76315)">
<path d="M11.7726 12.4997L9.91813 14.2929L8.12494 12.4365L9.2789 12.457L10.6187 12.4793L11.7726 12.4997Z" fill="white"/>
<path d="M12.7445 8.18827L10.8881 9.98146L9.09491 8.12695L10.2489 8.14554L11.5886 8.16969L12.7445 8.18827Z" fill="white"/>
<path d="M15.0505 24.5055L14.1418 22.0898L11.7261 22.9967L12.7779 23.4742L13.9987 24.028L15.0505 24.5055Z" fill="white"/>
<path d="M16.0206 20.196L15.1138 17.7803L12.6981 18.6871L13.748 19.1646L14.9688 19.7184L16.0206 20.196Z" fill="white"/>
<path d="M16.9905 15.8854L16.0837 13.4697L13.668 14.3765L14.7198 14.8541L15.9388 15.4079L16.9905 15.8854Z" fill="white"/>
<path d="M17.9624 11.5758L17.0537 9.16016L14.638 10.067L15.6898 10.5445L16.9106 11.0983L17.9624 11.5758Z" fill="white"/>
<path d="M21.2161 23.6824L19.3598 25.4756L17.5666 23.6211L18.7205 23.6397L20.0603 23.6638L21.2161 23.6824Z" fill="white"/>
<path d="M22.1861 19.3727L20.3316 21.1659L18.5366 19.3096L19.6924 19.33L21.0322 19.3523L22.1861 19.3727Z" fill="white"/>
<path d="M23.1561 15.0623L21.3016 16.8555L19.5084 15.001L20.6624 15.0196L22.0022 15.0437L23.1561 15.0623Z" fill="white"/>
<path d="M24.1279 10.7526L22.2716 12.5458L20.4784 10.6895L21.6324 10.7099L22.9721 10.7322L24.1279 10.7526Z" fill="white"/>
<path d="M26.434 27.07L25.5253 24.6543L23.1096 25.5611L24.1614 26.0387L25.3822 26.5924L26.434 27.07Z" fill="white"/>
<path d="M27.404 22.7585L26.4972 20.3428L24.0797 21.2514L25.1314 21.7272L26.3523 22.2809L27.404 22.7585Z" fill="white"/>
</g>
<path d="M18.8246 19.3389L21.0898 20.5728L22.3255 18.3076L21.218 18.6347L19.9321 19.0119L18.8246 19.3389Z" fill="white"/>
<path d="M16.5204 18.8803L18.9956 18.1519L18.2672 15.6768L17.7153 16.6895L17.0742 17.8657L16.5204 18.8803Z" fill="white"/>
<path d="M14.5674 20.1845L15.8031 17.9193L13.538 16.6836L13.8632 17.7911L14.2422 19.077L14.5674 20.1845Z" fill="white"/>
<path d="M14.1103 22.4869L13.3819 20.0117L10.9067 20.7401L11.9195 21.292L13.0957 21.935L14.1103 22.4869Z" fill="white"/>
<path d="M15.4148 24.4398L13.1496 23.2041L11.9139 25.4693L13.0214 25.1441L14.3073 24.765L15.4148 24.4398Z" fill="white"/>
<path d="M17.7172 24.8994L15.242 25.6278L15.9704 28.103L16.5223 27.0884L17.1653 25.9121L17.7172 24.8994Z" fill="white"/>
<path d="M19.6701 23.5947L18.4344 25.8599L20.6996 27.0956L20.3744 25.9881L19.9953 24.7022L19.6701 23.5947Z" fill="white"/>
<path d="M20.1273 21.29L20.8557 23.7671L23.3327 23.0386L22.3181 22.4849L21.1418 21.8438L20.1273 21.29Z" fill="white"/>
<mask id="mask15_2074_76315" style="mask-type:luminance" maskUnits="userSpaceOnUse" x="13" y="4" width="14" height="19">
<path d="M17.2927 4.53379L13.7078 20.4541L22.4928 22.4323L26.0777 6.51196L17.2927 4.53379Z" fill="white"/>
</mask>
<g mask="url(#mask15_2074_76315)">
<path d="M14.0676 8.57129L12.5791 10.6804L10.47 9.19194L11.6091 8.99682L11.5905 9.00054L12.9117 8.77198L12.9285 8.76826L14.0676 8.57129Z" fill="white"/>
<path d="M15.0877 4.04102L13.5993 6.14825L11.4921 4.66167L12.6293 4.46469L12.6107 4.46841L13.9319 4.2417L13.9505 4.23613L15.0877 4.04102Z" fill="white"/>
<path d="M16.998 21.1982L16.5576 18.6543L14.0156 19.0947L14.9577 19.7599L14.9447 19.7488L16.0392 20.52L16.054 20.533L16.998 21.1982Z" fill="white"/>
<path d="M18.0182 16.6661L17.5778 14.124L15.0357 14.5644L15.9797 15.2297L15.9648 15.2167L17.0593 15.9897L17.0742 16.0008L18.0182 16.6661Z" fill="white"/>
<path d="M19.0384 12.1357L18.598 9.5918L16.0559 10.0322L16.9999 10.6974L16.985 10.6863L18.0795 11.4575L18.0944 11.4705L19.0384 12.1357Z" fill="white"/>
<path d="M20.0585 7.60357L19.6181 5.06152L17.076 5.50192L18.02 6.16717L18.0052 6.15416L19.1015 6.92718L19.1145 6.93833L20.0585 7.60357Z" fill="white"/>
<path d="M23.0168 20.1094L21.5283 22.2185L19.4193 20.73L20.5583 20.5331L20.5398 20.5386L21.861 20.3101L21.8777 20.3063L23.0168 20.1094Z" fill="white"/>
<path d="M24.0369 15.5791L22.5485 17.6863L20.4413 16.1997L21.5785 16.0028L21.5599 16.0065L22.8811 15.7798L22.8997 15.7742L24.0369 15.5791Z" fill="white"/>
<path d="M25.0571 11.0469L23.5705 13.156L21.4614 11.6675L22.5987 11.4724L22.5819 11.4761L23.9013 11.2476L23.9199 11.2438L25.0571 11.0469Z" fill="white"/>
<path d="M26.0772 6.5166L24.5907 8.62383L22.4816 7.13725L23.6188 6.94028L23.6021 6.94399L24.9214 6.71729L24.94 6.71172L26.0772 6.5166Z" fill="white"/>
<path d="M27.9875 23.6728L27.5471 21.1289L25.0051 21.5693L25.949 22.2346L25.9342 22.2234L27.0287 22.9946L27.0435 23.0076L27.9875 23.6728Z" fill="white"/>
<path d="M29.0077 19.1407L28.5673 16.5986L26.0253 17.039L26.9692 17.7043L26.9544 17.6913L28.0507 18.4643L28.0637 18.4754L29.0077 19.1407Z" fill="white"/>
</g>
<mask id="mask16_2074_76315" style="mask-type:luminance" maskUnits="userSpaceOnUse" x="2" y="21" width="16" height="19">
<path d="M11.5802 21.9763L2.93994 25.6992L9.03861 39.8534L17.6789 36.1305L11.5802 21.9763Z" fill="white"/>
</mask>
<g mask="url(#mask16_2074_76315)">
<path d="M6.10509 38.7686L5.65912 41.3088L3.11707 40.8628L4.0629 40.1994L5.15926 39.4301L6.10509 38.7686Z" fill="white"/>
<path d="M4.35836 34.71L3.91052 37.252L1.36847 36.806L2.31431 36.1427L3.41252 35.3733L4.35836 34.71Z" fill="white"/>
<path d="M12.3171 38.4411L10.1634 37.0195L8.74188 39.1732L9.87354 38.9409L11.1855 38.6715L12.3171 38.4411Z" fill="white"/>
<path d="M10.5686 34.3825L8.41489 32.9609L6.99335 35.1165L8.12501 34.8842L9.43877 34.6148L10.5686 34.3825Z" fill="white"/>
<path d="M8.82187 30.3258L6.66633 28.9043L5.24664 31.058L6.37644 30.8257L7.69021 30.5563L8.82187 30.3258Z" fill="white"/>
<path d="M7.07321 26.2682L4.91953 24.8467L3.49799 27.0022L4.62965 26.7699L5.94155 26.5005L7.07321 26.2682Z" fill="white"/>
<path d="M5.32468 22.2097L3.17099 20.79L1.74945 22.9437L2.88111 22.7114L4.19302 22.442L5.32468 22.2097Z" fill="white"/>
<path d="M18.5701 38.209L18.1222 40.7492L15.582 40.3032L16.5279 39.6398L17.6242 38.8705L18.5701 38.209Z" fill="white"/>
<path d="M16.8215 34.1504L16.3755 36.6924L13.8335 36.2446L14.7793 35.5831L15.8757 34.8138L16.8215 34.1504Z" fill="white"/>
<path d="M15.0747 30.0918L14.6269 32.6338L12.0848 32.1879L13.0307 31.5245L14.1289 30.7552L15.0747 30.0918Z" fill="white"/>
<path d="M13.3262 26.0352L12.8784 28.5772L10.3363 28.1294L11.2821 27.4678L12.3804 26.6985L13.3262 26.0352Z" fill="white"/>
<path d="M11.5776 21.9775L11.1297 24.5196L8.58954 24.0736L9.53537 23.4102L10.6317 22.6409L11.5776 21.9775Z" fill="white"/>
<path d="M19.5382 25.7087L17.3827 24.2871L15.963 26.4427L17.0928 26.2104L18.4066 25.9409L19.5382 25.7087Z" fill="white"/>
<path d="M17.7896 21.6502L15.634 20.2305L14.2144 22.3842L15.346 22.1519L16.6579 21.8824L17.7896 21.6502Z" fill="white"/>
</g>
<path d="M12.3339 32.0408L14.8926 31.71L14.56 29.1494L13.8557 30.0655L13.0381 31.1266L12.3339 32.0408Z" fill="white"/>
<path d="M10.2006 33.0242L11.7764 30.9802L9.73047 29.4062L9.87913 30.5509L10.0519 31.8795L10.2006 33.0242Z" fill="white"/>
<path d="M9.38859 35.2277L9.05597 32.6689L6.49719 32.9997L7.41144 33.7058L8.47249 34.5235L9.38859 35.2277Z" fill="white"/>
<path d="M10.3716 37.3591L8.32569 35.7852L6.75177 37.8292L7.89643 37.6805L9.22507 37.5077L10.3716 37.3591Z" fill="white"/>
<path d="M12.5736 38.1729L10.0148 38.5055L10.3475 41.0643L11.0517 40.15L11.8693 39.0871L12.5736 38.1729Z" fill="white"/>
<path d="M14.7068 37.1904L13.131 39.2345L15.1751 40.8103L15.0264 39.6637L14.8555 38.3351L14.7068 37.1904Z" fill="white"/>
<path d="M15.5189 34.9883L15.8515 37.5471L18.4103 37.2144L17.496 36.5102L16.435 35.6926L15.5189 34.9883Z" fill="white"/>
<path d="M14.5359 32.8549L16.5799 34.4288L18.1557 32.3848L17.011 32.5334L15.6806 32.7062L14.5359 32.8549Z" fill="white"/>
<mask id="mask17_2074_76315" style="mask-type:luminance" maskUnits="userSpaceOnUse" x="2" y="17" width="16" height="19">
<path d="M10.6656 17.4015L2.39569 20.9648L8.85319 35.9518L17.1231 32.3885L10.6656 17.4015Z" fill="white"/>
</mask>
<g mask="url(#mask17_2074_76315)">
<path d="M5.83193 34.6582L5.86724 37.2393L3.28802 37.2746L4.09264 36.4477L4.08149 36.4607L5.01432 35.5018L5.02733 35.487L5.83193 34.6582Z" fill="white"/>
<path d="M3.99411 30.3936L4.02941 32.9728L1.4502 33.0099L2.25481 32.1812L2.24366 32.196L3.17649 31.2353L3.18949 31.2205L3.99411 30.3936Z" fill="white"/>
<path d="M11.9492 34.6191L10.0984 32.8203L8.29962 34.6711L9.45358 34.6544H9.43499L10.7748 34.6358H10.7934L11.9492 34.6191Z" fill="white"/>
<path d="M10.1113 30.3544L8.26056 28.5557L6.46179 30.4065L7.61575 30.3897L7.59717 30.3879L8.93695 30.3693H8.95553L10.1113 30.3544Z" fill="white"/>
<path d="M8.27358 26.0878L6.42279 24.2891L4.62402 26.1399L5.77798 26.1231H5.7594L7.09918 26.1027L7.11776 26.1045L8.27358 26.0878Z" fill="white"/>
<path d="M6.43581 21.8213L4.58502 20.0244L2.78625 21.8752L3.94021 21.8585L3.92163 21.8566L5.26141 21.838H5.27999L6.43581 21.8213Z" fill="white"/>
<path d="M4.59618 17.5566L2.74725 15.7578L0.948486 17.6086L2.10244 17.5919H2.08386L3.42364 17.5714L3.44222 17.5733L4.59618 17.5566Z" fill="white"/>
<path d="M18.0163 34.4668L18.0516 37.0479L15.4724 37.0832L16.277 36.2563L16.264 36.2693L17.1986 35.3086L17.2117 35.2956L18.0163 34.4668Z" fill="white"/>
<path d="M16.1785 30.2021L16.2138 32.7814L13.6346 32.8167L14.4392 31.9898L14.4262 32.0046L15.3609 31.0439L15.3739 31.0291L16.1785 30.2021Z" fill="white"/>
<path d="M14.3408 25.9355L14.3761 28.5148L11.795 28.5519L12.6015 27.7232L12.5884 27.738L13.5231 26.7773L13.5361 26.7625L14.3408 25.9355Z" fill="white"/>
<path d="M12.5029 21.6709L12.5382 24.2501L9.95715 24.2854L10.7636 23.4585L10.7506 23.4734L11.6853 22.5127L11.6983 22.4978L12.5029 21.6709Z" fill="white"/>
<path d="M10.6652 17.4043L10.7005 19.9835L8.11938 20.0207L8.92585 19.1919L8.91285 19.2068L9.84753 18.2461L9.86054 18.2312L10.6652 17.4043Z" fill="white"/>
<path d="M20.4561 25.8964L18.6053 24.0977L16.8066 25.9484L17.9624 25.9317L17.9438 25.9299L19.2836 25.9113L19.3022 25.9131L20.4561 25.8964Z" fill="white"/>
<path d="M18.6183 21.6298L16.7675 19.8311L14.9688 21.6818L16.1246 21.6651H16.106L17.4458 21.6465H17.4643L18.6183 21.6298Z" fill="white"/>
<path d="M16.7806 17.3652L14.9298 15.5664L13.131 17.4172L14.2869 17.4005L14.2683 17.3986L15.6081 17.38L15.6266 17.3819L16.7806 17.3652Z" fill="white"/>
</g>
<mask id="mask18_2074_76315" style="mask-type:luminance" maskUnits="userSpaceOnUse" x="3" y="38" width="19" height="17">
<path d="M8.02325 38.4329L3.22137 46.5234L16.4749 54.3897L21.2768 46.2992L8.02325 38.4329Z" fill="white"/>
</mask>
<g mask="url(#mask18_2074_76315)">
<path d="M9.66549 52.9795L10.7972 55.2986L8.47809 56.4321L8.85345 55.3394L9.29013 54.0721L9.66549 52.9795Z" fill="white"/>
<path d="M5.86542 50.7246L6.99708 53.0437L4.67987 54.1753L5.05523 53.0827L5.49006 51.8154L5.86542 50.7246Z" fill="white"/>
<path d="M22.097 53.5732L19.5178 53.6903L19.6348 56.2677L20.4134 55.4147L21.3165 54.4262L22.097 53.5732Z" fill="white"/>
<path d="M18.297 51.3174L15.7196 51.4345L15.8348 54.0137L16.6153 53.1607L17.5184 52.1703L18.297 51.3174Z" fill="white"/>
<path d="M14.4969 49.0635L11.9195 49.1805L12.0366 51.7579L12.8152 50.905L13.7183 49.9164L14.4969 49.0635Z" fill="white"/>
<path d="M10.6987 46.8076L8.12134 46.9247L8.23655 49.5039L9.017 48.651L9.9201 47.6605L10.6987 46.8076Z" fill="white"/>
<path d="M6.89859 44.5537L4.32123 44.6708L4.43829 47.2481L5.21689 46.3952L6.11999 45.4066L6.89859 44.5537Z" fill="white"/>
<path d="M19.4193 45.2002L20.5528 47.5193L18.2338 48.6509L18.6091 47.5601L19.044 46.2928L19.4193 45.2002Z" fill="white"/>
<path d="M15.6211 42.9443L16.7528 45.2634L14.4337 46.3969L14.8091 45.3043L15.2458 44.037L15.6211 42.9443Z" fill="white"/>
<path d="M11.821 40.6904L12.9526 43.0095L10.6354 44.1412L11.0108 43.0485L11.4456 41.7831L11.821 40.6904Z" fill="white"/>
<path d="M8.02279 38.4346L9.15445 40.7536L6.83539 41.8872L7.21075 40.7945L7.64743 39.5272L8.02279 38.4346Z" fill="white"/>
<path d="M4.22275 36.1807L5.35441 38.4997L3.03534 39.6314L3.41256 38.5388L3.84738 37.2714L4.22275 36.1807Z" fill="white"/>
<path d="M20.4543 39.0293L17.8751 39.1464L17.9922 41.7237L18.7708 40.8708L19.6739 39.8822L20.4543 39.0293Z" fill="white"/>
<path d="M16.6543 36.7754L14.0769 36.8906L14.194 39.4698L14.9726 38.6169L15.8757 37.6265L16.6543 36.7754Z" fill="white"/>
</g>
<path d="M14.5489 46.134L16.4238 44.3613L14.6511 42.4863L14.6195 43.6403L14.5823 44.9801L14.5489 46.134Z" fill="white"/>
<path d="M13.4023 48.182L13.4748 45.6027L10.8937 45.5303L11.6872 46.3702L12.6089 47.3439L13.4023 48.182Z" fill="white"/>
<path d="M14.0379 50.4414L12.2651 48.5664L10.3902 50.3392L11.5442 50.3726L12.8839 50.4098L14.0379 50.4414Z" fill="white"/>
<path d="M16.0875 51.59L13.5083 51.5176L13.4358 54.0968L14.2738 53.3033L15.2476 52.3835L16.0875 51.59Z" fill="white"/>
<path d="M18.3471 50.9521L16.4722 52.7249L18.2449 54.5998L18.2784 53.4459L18.3155 52.1061L18.3471 50.9521Z" fill="white"/>
<path d="M19.4955 48.9043L19.423 51.4835L22.0023 51.556L21.2088 50.7161L20.289 49.7424L19.4955 48.9043Z" fill="white"/>
<path d="M18.8582 46.6436L20.6309 48.5204L22.5059 46.7476L21.3519 46.7142L20.0121 46.677L18.8582 46.6436Z" fill="white"/>
<path d="M16.8085 45.497L19.3896 45.5695L19.4602 42.9902L18.6222 43.7837L17.6485 44.7035L16.8085 45.497Z" fill="white"/>
<mask id="mask19_2074_76315" style="mask-type:luminance" maskUnits="userSpaceOnUse" x="0" y="35" width="19" height="17">
<path d="M4.59607 35.2709L0 43.0146L14.0333 51.3437L18.6294 43.6L4.59607 35.2709Z" fill="white"/>
</mask>
<g mask="url(#mask19_2074_76315)">
<path d="M6.83353 49.7002L8.37958 51.7684L6.31323 53.3126L6.47675 52.1698L6.4749 52.1884L6.66629 50.8634L6.66815 50.8449L6.83353 49.7002Z" fill="white"/>
<path d="M2.83836 47.3301L4.3844 49.3964L2.31805 50.9425L2.48344 49.7978L2.48158 49.8164L2.67298 48.4915L2.67483 48.4729L2.83836 47.3301Z" fill="white"/>
<path d="M-1.15499 44.959L0.391054 47.0253L-1.67529 48.5714L-1.51177 47.4286V47.4472L-1.32037 46.1204V46.1018L-1.15499 44.959Z" fill="white"/>
<path d="M19.7463 50.8143L17.1913 50.4482L16.8252 53.0014L17.7487 52.3102L17.7339 52.3195L18.8061 51.5167L18.8228 51.5074L19.7463 50.8143Z" fill="white"/>
<path d="M15.753 48.4432L13.1979 48.0771L12.83 50.6322L13.7554 49.9391L13.7405 49.9502L14.8127 49.1456L14.8276 49.1363L15.753 48.4432Z" fill="white"/>
<path d="M11.7578 46.074L9.2046 45.7061L8.83667 48.2611L9.76021 47.568L9.74534 47.5791L10.8175 46.7764L10.8343 46.7652L11.7578 46.074Z" fill="white"/>
<path d="M7.76451 43.7029L5.20945 43.335L4.84338 45.89L5.76692 45.1969L5.75206 45.208L6.82425 44.4053L6.83912 44.3942L7.76451 43.7029Z" fill="white"/>
<path d="M3.76934 41.3318L1.21613 40.9639L0.848206 43.5189L1.7736 42.8277L1.75688 42.837L2.82907 42.0342L2.8458 42.0231L3.76934 41.3318Z" fill="white"/>
<path d="M16.578 42.3838L18.1222 44.4501L16.0558 45.9962L16.2212 44.8534L16.2194 44.872L16.4108 43.5452L16.4126 43.5266L16.578 42.3838Z" fill="white"/>
<path d="M12.5829 40.0127L14.1289 42.079L12.0626 43.6251L12.2279 42.4823L12.2261 42.5009L12.4175 41.1741V41.1555L12.5829 40.0127Z" fill="white"/>
<path d="M8.58952 37.6416L10.1356 39.708L8.06921 41.254L8.23274 40.1112L8.23088 40.1298L8.42228 38.803L8.42414 38.7863L8.58952 37.6416Z" fill="white"/>
<path d="M4.59434 35.2725L6.14038 37.3388L4.07404 38.883L4.23942 37.7402L4.23756 37.7588L4.42896 36.4339L4.43081 36.4153L4.59434 35.2725Z" fill="white"/>
<path d="M0.600992 32.9014L2.14704 34.9677L0.0806885 36.5138L0.244213 35.3709V35.3895L0.433752 34.0628L0.43561 34.0442L0.600992 32.9014Z" fill="white"/>
<path d="M21.5024 38.7567L18.9473 38.3906L18.5812 40.9438L19.5048 40.2526L19.4899 40.2619L20.5621 39.4591L20.5788 39.4498L21.5024 38.7567Z" fill="white"/>
<path d="M17.5091 36.3856L14.954 36.0195L14.5861 38.5727L15.5115 37.8815L15.4966 37.8908L16.5688 37.088L16.5837 37.0787L17.5091 36.3856Z" fill="white"/>
<path d="M13.5138 34.0164L10.9606 33.6484L10.5927 36.2035L11.5163 35.5104L11.5014 35.5215L12.5736 34.7169L12.5903 34.7076L13.5138 34.0164Z" fill="white"/>
</g>
<path d="M20.8353 45.4634L20.6829 44.9858C22.6601 43.9657 24.182 43.057 25.2467 42.2598C26.3115 41.4626 26.8448 40.8216 26.8448 40.3366C26.8448 40.1842 26.737 39.9724 26.5196 39.7048C26.3022 39.4372 25.9324 39.1343 25.4102 38.7961C24.8862 38.4579 24.1727 38.1048 23.2677 37.7332C23.3569 37.4136 23.4814 37.0419 23.6412 36.6127C23.801 36.1853 23.9757 35.7523 24.1671 35.3119C24.3585 34.8715 24.5425 34.4739 24.7227 34.1152C24.9011 33.7584 25.0535 33.4964 25.1817 33.3311H25.4493C26.3171 33.777 27.025 34.394 27.5732 35.1781C28.1214 35.9623 28.3964 36.9156 28.3964 38.0398C28.3964 38.7552 28.2979 39.4409 28.0991 40.0969C27.9003 40.7547 27.6531 41.3512 27.3521 41.8863C27.0529 42.4215 26.7463 42.8693 26.4341 43.2261C26.1219 43.5829 25.8432 43.8189 25.6016 43.9341C25.282 44.0865 24.693 44.3094 23.8308 44.6049C22.9704 44.8985 21.9707 45.1847 20.8353 45.4653V45.4634Z" fill="white"/>
<path d="M33.7704 43.5677C32.7242 43.5677 31.9642 43.2128 31.4941 42.5048C31.0221 41.7968 30.7861 40.6335 30.7861 39.0132C30.7861 38.7066 30.7898 38.4 30.7954 38.0952C30.8009 37.7886 30.8139 37.4411 30.8344 37.0527C30.853 36.6644 30.8753 36.198 30.9013 35.6554C30.9273 35.1127 30.9589 34.4531 30.9961 33.6745C31.0462 32.6153 31.1168 31.6546 31.206 30.7942C31.2952 29.9339 31.4327 29.12 31.6167 28.3544C31.8007 27.5888 32.0664 26.8232 32.4102 26.0576L32.9082 26.1914C32.845 26.485 32.7707 26.944 32.6889 27.5684C32.6053 28.1927 32.5254 28.9174 32.4492 29.7406C32.373 30.5638 32.308 31.4409 32.2578 32.3719C32.2058 33.3028 32.1816 34.2227 32.1816 35.1276C32.1816 36.5566 32.386 37.5935 32.7948 38.2364C33.2036 38.8812 33.841 39.2027 34.7088 39.2027C35.0154 39.2027 35.231 39.3662 35.3592 39.6896C35.4874 40.0148 35.5506 40.4719 35.5506 41.0572C35.5506 41.8098 35.4038 42.4156 35.1102 42.8746C34.8166 43.3335 34.3706 43.564 33.7704 43.564V43.5677Z" fill="white"/>
<path d="M33.7704 43.5681C33.5289 43.5681 33.3244 43.4213 33.1572 43.1277C32.9918 42.8341 32.9082 42.3361 32.9082 41.6356C32.9082 40.8068 33.0736 40.1936 33.4062 39.7978C33.7388 39.402 34.1718 39.205 34.707 39.205C35.5357 39.205 36.2251 39.0582 36.7733 38.7646C37.3215 38.471 37.7879 38.0826 38.1707 37.5976L38.4011 37.3115C38.8341 36.7633 39.2262 36.3805 39.5774 36.1631C39.9286 35.9457 40.2686 35.8379 40.6013 35.8379C40.9339 35.8379 41.3315 35.9011 41.7589 36.0293C42.1863 36.1575 42.5598 36.3266 42.8776 36.5366C43.1972 36.7466 43.3551 36.9937 43.3551 37.2724C43.3551 37.5512 43.292 37.8336 43.1638 38.1532C43.0355 38.4729 42.8646 38.7795 42.6472 39.0712C42.4298 39.3648 42.1882 39.6045 41.9206 39.7885C41.653 39.9724 41.3854 40.0654 41.116 40.0654C40.9506 40.0654 40.7685 40.0282 40.5715 39.9501C40.3746 39.874 40.1534 39.7718 39.9119 39.6435C39.4399 39.376 39.0311 39.2422 38.6873 39.2422C38.3807 39.2422 38.1261 39.3499 37.9217 39.5674C37.7173 39.7848 37.4497 40.1731 37.1189 40.7343L36.7547 41.3475C36.2827 42.1261 35.8275 42.691 35.3871 43.0404C34.9467 43.3916 34.4078 43.5662 33.7704 43.5662V43.5681Z" fill="white"/>
<path d="M42.2105 37.7516C41.7645 37.7516 41.3241 37.707 40.8893 37.6178C40.4563 37.5286 40.0977 37.3818 39.8171 37.1774C39.5365 36.973 39.3953 36.7054 39.3953 36.3728C39.3953 36.1294 39.4566 35.806 39.5774 35.3972C39.6982 34.9884 39.8988 34.5499 40.1794 34.0779C40.46 33.6059 40.8428 33.1599 41.3278 32.7381C40.7406 32.5207 40.3318 32.2401 40.1032 31.8963C39.8728 31.5525 39.7595 31.1177 39.7595 30.5956C39.7595 29.5754 40.4229 28.388 41.7496 27.0371C43.0764 25.6973 44.3066 25.0283 45.4438 25.0283C45.8526 25.0283 46.2187 25.1268 46.5439 25.3256C46.869 25.5245 47.0326 25.8199 47.0326 26.2157C47.0326 26.5725 46.9471 26.8624 46.7743 27.0872C46.6015 27.3102 46.3878 27.4737 46.1332 27.5741H45.9994C45.6798 27.2563 45.388 27.0426 45.1186 26.933C44.851 26.8252 44.602 26.7695 44.3716 26.7695C43.8996 26.7695 43.4815 26.8977 43.1173 27.1523C42.7531 27.4068 42.5728 27.7581 42.5728 28.204C42.5728 28.5106 42.6657 28.7726 42.8497 28.9882C43.0337 29.2056 43.2678 29.3877 43.5484 29.5327C43.829 29.6795 44.1189 29.7872 44.4199 29.8578C44.7191 29.9285 44.9848 29.9638 45.2134 29.9638C45.3527 29.9638 45.4884 29.9582 45.6147 29.9452C45.743 29.9322 45.8693 29.895 45.9975 29.83C46.2911 29.6776 46.5327 29.5401 46.7241 29.4193C46.9155 29.2985 47.1069 29.1666 47.2983 29.0272C47.4897 28.8879 47.7127 28.728 47.9673 28.5478L48.8481 27.9364L49.1156 28.1464C48.9633 28.6184 48.796 28.9975 48.6176 29.2855C48.4392 29.5735 48.1512 29.895 47.7573 30.2518C47.6421 30.354 47.289 30.5993 46.6944 30.9876C46.1016 31.3779 45.2933 31.8517 44.2731 32.4129L42.8181 33.2175C42.3071 33.4981 41.8648 33.7861 41.4876 34.0797C41.1104 34.3733 40.9227 34.6725 40.9227 34.9791C40.9227 35.3359 41.3315 35.6741 42.1473 35.9937C42.9519 36.3133 43.3533 36.7407 43.3533 37.2759C43.3533 37.4413 43.2344 37.5621 42.9984 37.6401C42.7624 37.7163 42.4966 37.7553 42.2049 37.7553L42.2105 37.7516Z" fill="white"/>
<path d="M4.99762 78.1861C5.10354 78.1861 5.17229 78.1768 5.20202 78.1582C5.23175 78.1396 5.24662 78.0801 5.24662 77.9817V77.2532C5.24662 77.1362 5.24662 77.0154 5.24476 76.8927C5.2429 76.7701 5.23919 76.6344 5.23547 76.4858C5.23547 76.4561 5.24476 76.43 5.26334 76.4096C5.28192 76.3892 5.30608 76.378 5.33767 76.378H5.60526C5.63871 76.378 5.66658 76.3892 5.68516 76.4096C5.70374 76.43 5.71303 76.4561 5.71303 76.4858C5.71675 76.614 5.72047 76.7236 5.72232 76.811C5.72418 76.8983 5.72604 76.9801 5.72604 77.0563V77.5859C5.72604 77.768 5.72604 77.9371 5.72232 78.0913C5.72047 78.2474 5.71303 78.3682 5.70188 78.4555C5.69445 78.4927 5.68144 78.5261 5.66472 78.5521C5.64799 78.5781 5.61641 78.6023 5.57181 78.6209C5.54208 78.632 5.4919 78.6413 5.42129 78.6469C5.35068 78.6525 5.26892 78.658 5.176 78.6636C5.08309 78.6692 4.98275 78.6729 4.87497 78.6748C4.7672 78.6766 4.65942 78.6785 4.5535 78.6785H3.22301C2.8588 78.6785 2.55962 78.6432 2.32735 78.5726C2.09507 78.502 1.90924 78.4016 1.77545 78.2715C1.64166 78.1415 1.54875 77.9817 1.49672 77.794C1.44469 77.6063 1.42053 77.3963 1.42053 77.1659C1.42053 77.086 1.42239 77.0042 1.42982 76.9187C1.4354 76.8333 1.44841 76.7366 1.46699 76.6252C1.47814 76.5527 1.51716 76.5174 1.58034 76.5174H1.82005C1.88509 76.5174 1.91296 76.5545 1.90553 76.6307C1.8981 76.7181 1.89252 76.7924 1.8888 76.8519C1.88509 76.9132 1.88323 76.9745 1.88323 77.0395C1.88323 77.2105 1.8981 77.3666 1.92783 77.5059C1.95756 77.6453 2.0226 77.768 2.11922 77.8702C2.21585 77.9724 2.35522 78.0523 2.53361 78.1062C2.71386 78.1619 2.95357 78.1879 3.25274 78.1879H4.99947L4.99762 78.1861ZM2.86995 75.5288C2.86995 75.4916 2.88296 75.46 2.90711 75.4377C2.93127 75.4154 2.96286 75.4043 3.00002 75.4043H3.22115C3.25832 75.4043 3.28991 75.4154 3.31592 75.4377C3.34008 75.46 3.35309 75.4916 3.35309 75.5288V75.8354C3.35309 75.8689 3.34008 75.8986 3.31406 75.9209C3.28805 75.9432 3.25646 75.9543 3.22301 75.9543H3.00188C2.96472 75.9543 2.93313 75.9432 2.90897 75.9209C2.88481 75.8986 2.87181 75.8707 2.87181 75.8354V75.5288H2.86995ZM3.7972 75.5288C3.7972 75.4916 3.81207 75.46 3.83994 75.4377C3.86782 75.4154 3.89941 75.4043 3.93285 75.4043H4.15398C4.18743 75.4043 4.21902 75.4154 4.24503 75.4377C4.27105 75.46 4.28406 75.4916 4.28406 75.5288V75.8354C4.28406 75.8689 4.27105 75.8986 4.24503 75.9209C4.21902 75.9432 4.18743 75.9543 4.15398 75.9543H3.93285C3.89941 75.9543 3.86782 75.9432 3.83994 75.9209C3.81207 75.8986 3.7972 75.8707 3.7972 75.8354V75.5288Z" fill="white"/>
<path d="M6.69232 74.5108C6.69232 74.4811 6.70347 74.4532 6.72391 74.4309C6.74435 74.4086 6.77037 74.3975 6.8001 74.3975H7.07883C7.10856 74.3975 7.13458 74.4086 7.15316 74.4309C7.17174 74.4532 7.18104 74.4811 7.18104 74.5108V78.5618C7.18104 78.5915 7.17174 78.6194 7.15316 78.6417C7.13458 78.664 7.10856 78.6751 7.07883 78.6751H6.8001C6.77037 78.6751 6.74435 78.664 6.72391 78.6417C6.70347 78.6194 6.69232 78.5933 6.69232 78.5618V74.5108Z" fill="white"/>
<path d="M7.95593 78.2885C7.95593 78.2587 7.96708 78.2327 7.98938 78.2141C8.01168 78.1956 8.03955 78.1863 8.06928 78.1863H9.62276L9.61719 77.4857C9.60975 77.1512 9.52428 76.9041 9.36447 76.7406C9.2028 76.577 8.94265 76.4953 8.58215 76.4953C8.54127 76.4953 8.48181 76.4953 8.40562 76.4971C8.32944 76.499 8.26254 76.5046 8.20679 76.512C8.13061 76.5194 8.09344 76.4934 8.09344 76.4321V76.1998C8.09344 76.1701 8.10273 76.1441 8.11946 76.1255C8.13618 76.1069 8.16591 76.0958 8.20679 76.092C8.30528 76.0772 8.40005 76.0679 8.48924 76.0642C8.57844 76.0605 8.64347 76.0586 8.68621 76.0586C8.94451 76.0586 9.16192 76.0921 9.33845 76.1608C9.51498 76.2296 9.65807 76.3262 9.7677 76.4507C9.87734 76.5752 9.95724 76.7238 10.0074 76.8948C10.0557 77.0658 10.0855 77.2534 10.0929 77.4578C10.0929 77.4727 10.0929 77.5117 10.0966 77.5712C10.0966 77.6325 10.1003 77.6976 10.1022 77.77C10.1022 77.8425 10.104 77.9094 10.104 77.9744V78.2049C10.104 78.2439 10.104 78.2866 10.1022 78.3294C10.1003 78.3739 10.0985 78.4148 10.0966 78.4576C10.0948 78.5003 10.091 78.5338 10.0873 78.5598C10.0873 78.636 10.0464 78.6731 9.96282 78.6731H8.07486C8.04513 78.6731 8.01725 78.6638 7.99495 78.6471C7.97266 78.6304 7.96151 78.6062 7.96151 78.5765V78.2866L7.95593 78.2885Z" fill="white"/>
<path d="M10.9644 74.5108C10.9644 74.4811 10.9756 74.4532 10.996 74.4309C11.0164 74.4086 11.0425 74.3975 11.0722 74.3975H11.3509C11.3807 74.3975 11.4067 74.4086 11.4253 74.4309C11.4438 74.4532 11.4531 74.4811 11.4531 74.5108V77.85C11.4531 77.9262 11.4624 77.9857 11.4791 78.0303C11.4959 78.073 11.52 78.1065 11.5535 78.1306C11.5851 78.1529 11.6259 78.1678 11.6724 78.1752C11.7207 78.1827 11.7746 78.1864 11.8341 78.1864H11.9753V78.6751H11.7077C11.5869 78.6751 11.481 78.664 11.3899 78.6435C11.2989 78.6231 11.2209 78.5841 11.1577 78.5302C11.0926 78.4744 11.0443 78.4019 11.0127 78.3109C10.9811 78.2198 10.9644 78.1028 10.9644 77.9578V74.5108Z" fill="white"/>
<path d="M12.0069 78.6751C11.953 78.6751 11.9084 78.6677 11.8712 78.6547C11.834 78.6417 11.8136 78.6213 11.8136 78.5952V78.2589C11.8136 78.2366 11.8322 78.218 11.8712 78.205C11.9084 78.192 11.9548 78.1846 12.0069 78.1846H13.2649V78.6733H12.0069V78.6751Z" fill="white"/>
<path d="M13.2296 78.6751C13.1757 78.6751 13.1311 78.6677 13.0939 78.6547C13.0568 78.6417 13.0363 78.6213 13.0363 78.5952V78.2589C13.0363 78.2366 13.0549 78.218 13.0939 78.205C13.1311 78.192 13.1775 78.1846 13.2296 78.1846H14.4876V78.6733H13.2296V78.6751Z" fill="white"/>
<path d="M14.4523 78.6751C14.3984 78.6751 14.3538 78.6677 14.3166 78.6547C14.2795 78.6417 14.259 78.6213 14.259 78.5952V78.2589C14.259 78.2366 14.2776 78.218 14.3166 78.205C14.3538 78.192 14.4003 78.1846 14.4523 78.1846H15.7103V78.6733H14.4523V78.6751Z" fill="white"/>
<path d="M15.6749 78.6751C15.6211 78.6751 15.5765 78.6677 15.5393 78.6547C15.5021 78.6417 15.4817 78.6213 15.4817 78.5952V78.2589C15.4817 78.2366 15.5003 78.218 15.5393 78.205C15.5765 78.192 15.6229 78.1846 15.6749 78.1846H16.933V78.6733H15.6749V78.6751Z" fill="white"/>
<path d="M16.7044 78.2612C16.7044 78.2389 16.723 78.2203 16.762 78.2073C16.7992 78.1943 16.8457 78.1869 16.8977 78.1869H17.1541C17.1913 78.1869 17.234 78.185 17.2786 78.1813C17.3232 78.1776 17.3678 78.1683 17.4087 78.1553C17.4496 78.1423 17.4849 78.1218 17.5146 78.0921C17.5425 78.0642 17.5574 78.0252 17.5574 77.975V76.4847C17.5574 76.455 17.5685 76.429 17.589 76.4085C17.6094 76.3881 17.6354 76.377 17.6651 76.377H17.9271C17.9569 76.377 17.9829 76.3881 18.0033 76.4085C18.0238 76.429 18.0349 76.455 18.0349 76.4847V78.0494C18.0461 78.0791 18.0702 78.1032 18.1055 78.12C18.1408 78.1367 18.1817 78.1497 18.2245 78.159C18.2672 78.1683 18.3137 78.1757 18.3583 78.1794C18.4029 78.1832 18.4437 78.185 18.4772 78.185H18.5571V78.6737H18.4883C18.3713 78.6737 18.2449 78.6607 18.1093 78.6366C17.9755 78.6124 17.864 78.5622 17.7766 78.486C17.6819 78.5622 17.5685 78.6124 17.4384 78.6366C17.3084 78.6607 17.1894 78.6737 17.0835 78.6737H16.8958C16.8419 78.6737 16.7973 78.6663 16.7602 78.6533C16.723 78.6403 16.7026 78.6198 16.7026 78.5938V78.2575L16.7044 78.2612ZM17.0073 79.3297C17.0073 79.2925 17.0203 79.2609 17.0445 79.2386C17.0686 79.2163 17.1002 79.2052 17.1374 79.2052H17.3585C17.3957 79.2052 17.4273 79.2163 17.4533 79.2386C17.4775 79.2609 17.4905 79.2925 17.4905 79.3297V79.6363C17.4905 79.666 17.4775 79.6939 17.4514 79.718C17.4254 79.7422 17.3938 79.7552 17.3604 79.7552H17.1393C17.1021 79.7552 17.0705 79.7422 17.0463 79.718C17.0222 79.6939 17.0092 79.666 17.0092 79.6363V79.3297H17.0073ZM17.9346 79.3297C17.9346 79.2925 17.9494 79.2609 17.9773 79.2386C18.0052 79.2163 18.0368 79.2052 18.0721 79.2052H18.2932C18.3267 79.2052 18.3583 79.2163 18.3843 79.2386C18.4103 79.2609 18.4233 79.2925 18.4233 79.3297V79.6363C18.4233 79.666 18.4103 79.6939 18.3843 79.718C18.3583 79.7422 18.3267 79.7552 18.2932 79.7552H18.0721C18.0386 79.7552 18.0071 79.7422 17.9773 79.718C17.9494 79.6939 17.9346 79.666 17.9346 79.6363V79.3297Z" fill="white"/>
<path d="M18.3323 78.2605C18.3323 78.2382 18.3509 78.2196 18.3899 78.2066C18.427 78.1936 18.4735 78.1862 18.5255 78.1862H19.2763C19.1778 78.1063 19.1016 78.0004 19.0496 77.8684C18.9957 77.7365 18.9696 77.5748 18.9696 77.3853V77.2497C18.9696 76.8631 19.0867 76.564 19.319 76.3503C19.5513 76.1384 19.8746 76.0325 20.289 76.0325C20.4451 76.0325 20.5975 76.0399 20.7461 76.053C20.8966 76.066 21.023 76.0883 21.1308 76.118C21.1679 76.1254 21.1939 76.1366 21.2051 76.1514C21.2162 76.1663 21.2218 76.1886 21.2218 76.2202V78.1881H21.7105V78.6768H18.5255C18.4716 78.6768 18.427 78.6693 18.3899 78.6563C18.3527 78.6433 18.3323 78.6229 18.3323 78.5969V78.2605ZM20.7443 78.1973V76.5082C20.6681 76.4971 20.5919 76.4896 20.5138 76.4859C20.4358 76.4822 20.3485 76.4803 20.25 76.4803C19.988 76.4803 19.7891 76.5454 19.6535 76.6773C19.5178 76.8074 19.4491 77.0044 19.4491 77.2664V77.3853C19.4491 77.6473 19.5085 77.848 19.6275 77.9874C19.7464 78.1286 19.9341 78.1973 20.1886 78.1973H20.7461H20.7443ZM19.4639 74.977C19.4639 74.9399 19.4769 74.9083 19.5011 74.886C19.5253 74.8637 19.5568 74.8525 19.594 74.8525H19.8151C19.8523 74.8525 19.8839 74.8637 19.9099 74.886C19.9341 74.9083 19.9471 74.9399 19.9471 74.977V75.2836C19.9471 75.3171 19.9341 75.3468 19.908 75.3691C19.882 75.3914 19.8504 75.4026 19.817 75.4026H19.5959C19.5587 75.4026 19.5271 75.3914 19.503 75.3691C19.4788 75.3468 19.4658 75.3171 19.4658 75.2836V74.977H19.4639ZM20.3912 74.977C20.3912 74.9399 20.4061 74.9083 20.4339 74.886C20.4618 74.8637 20.4934 74.8525 20.5287 74.8525H20.7498C20.7833 74.8525 20.8149 74.8637 20.8409 74.886C20.8669 74.9083 20.8799 74.9399 20.8799 74.977V75.2836C20.8799 75.3171 20.8669 75.3468 20.8409 75.3691C20.8149 75.3914 20.7833 75.4026 20.7498 75.4026H20.5287C20.4953 75.4026 20.4637 75.3914 20.4339 75.3691C20.4061 75.3468 20.3912 75.3171 20.3912 75.2836V74.977Z" fill="white"/>
<path d="M21.4838 78.2611C21.4838 78.2388 21.5023 78.2202 21.5414 78.2072C21.5785 78.1942 21.625 78.1868 21.677 78.1868H22.1323C22.2419 78.1868 22.3107 78.1775 22.3404 78.1589C22.3701 78.1403 22.3831 78.0808 22.3831 77.9824V74.513C22.3831 74.4833 22.3943 74.4573 22.4147 74.4369C22.4352 74.4164 22.4612 74.4053 22.4909 74.4053H22.7697C22.7994 74.4053 22.8254 74.4164 22.844 74.4369C22.8626 74.4573 22.8719 74.4833 22.8719 74.513V77.9489C22.8719 78.0065 22.8719 78.0641 22.87 78.1254C22.8681 78.1868 22.8644 78.2444 22.8607 78.302C22.857 78.3596 22.8514 78.4097 22.844 78.4562C22.8366 78.4934 22.8254 78.5268 22.8105 78.5528C22.7957 78.5788 22.7659 78.603 22.7195 78.6216C22.6898 78.6327 22.6452 78.642 22.5894 78.6476C22.5318 78.6532 22.4705 78.6587 22.4017 78.6643C22.333 78.6699 22.2624 78.6736 22.188 78.6755C22.1137 78.6773 22.0449 78.6792 21.9799 78.6792H21.6789C21.625 78.6792 21.5804 78.6718 21.5432 78.6588C21.5061 78.6457 21.4856 78.6253 21.4856 78.5993V78.263L21.4838 78.2611Z" fill="white"/>
<path d="M23.8381 74.5108C23.8381 74.4811 23.8493 74.4532 23.8697 74.4309C23.8902 74.4086 23.9162 74.3975 23.9459 74.3975H24.2246C24.2544 74.3975 24.2804 74.4086 24.299 74.4309C24.3176 74.4532 24.3268 74.4811 24.3268 74.5108V78.5618C24.3268 78.5915 24.3176 78.6194 24.299 78.6417C24.2804 78.664 24.2544 78.6751 24.2246 78.6751H23.9459C23.9162 78.6751 23.8902 78.664 23.8697 78.6417C23.8493 78.6194 23.8381 78.5933 23.8381 78.5618V74.5108Z" fill="white"/>
<path d="M26.9674 77.1053C27.0287 77.1053 27.0566 77.1424 27.0529 77.2186C27.0492 77.2632 27.0436 77.3115 27.038 77.3636C27.0324 77.4137 27.0269 77.4658 27.0231 77.5178C27.0194 77.5698 27.0157 77.6181 27.0139 77.6627C27.012 77.7073 27.0101 77.7464 27.0101 77.7761C27.0101 77.9731 27.025 78.157 27.0529 78.3243C27.0807 78.4915 27.1421 78.6383 27.235 78.7628C27.3279 78.8855 27.4598 78.9821 27.6326 79.0527C27.8055 79.1233 28.0359 79.1586 28.3239 79.1586C28.4224 79.1586 28.5134 79.1568 28.5933 79.153C28.6751 79.1493 28.7624 79.1382 28.8572 79.1196C28.8572 79.0174 28.8572 78.9245 28.8609 78.8446C28.8609 78.7628 28.8628 78.6866 28.8628 78.6142V76.4865C28.8628 76.4568 28.8739 76.4307 28.8944 76.4103C28.9148 76.3899 28.939 76.3787 28.965 76.3787H29.2437C29.2735 76.3787 29.2976 76.3899 29.3143 76.4103C29.3311 76.4307 29.3403 76.4568 29.3403 76.4865V78.1868H29.8699V78.6755H29.3403V79.0769C29.3403 79.1475 29.3404 79.2144 29.3366 79.2794C29.3329 79.3444 29.3311 79.3983 29.3273 79.4448C29.3273 79.5061 29.2883 79.5451 29.2084 79.5637C29.0635 79.5934 28.9167 79.6157 28.7643 79.6287C28.6119 79.6418 28.4614 79.6492 28.309 79.6492C27.9783 79.6492 27.7014 79.612 27.4747 79.5377C27.2498 79.4634 27.0677 79.3556 26.9284 79.2106C26.789 79.0657 26.6905 78.8892 26.6292 78.6792C26.5679 78.4692 26.5381 78.2295 26.5381 77.9601C26.5381 77.9266 26.54 77.8783 26.5437 77.8151C26.5474 77.7519 26.553 77.6851 26.5586 77.6126C26.5642 77.5401 26.5716 77.4695 26.579 77.3989C26.5865 77.3283 26.5958 77.2669 26.6069 77.2149C26.6143 77.174 26.6255 77.1443 26.6403 77.1294C26.6552 77.1146 26.6812 77.1071 26.7203 77.1071H26.96L26.9674 77.1053ZM27.7237 75.5815C27.7237 75.5444 27.7367 75.5128 27.7627 75.4905C27.7887 75.4682 27.8185 75.457 27.8519 75.457H28.0991C28.1325 75.457 28.1622 75.4682 28.1864 75.4905C28.2105 75.5128 28.2236 75.5444 28.2236 75.5815V75.8881C28.2236 75.9216 28.2105 75.9513 28.1864 75.9736C28.1622 75.9959 28.1306 76.0071 28.0935 76.0071H27.8519C27.8147 76.0071 27.7832 75.9959 27.759 75.9736C27.7348 75.9513 27.7218 75.9216 27.7218 75.8881V75.5815H27.7237Z" fill="white"/>
<path d="M29.8402 78.6751C29.7863 78.6751 29.7417 78.6677 29.7046 78.6547C29.6674 78.6417 29.647 78.6213 29.647 78.5952V78.2589C29.647 78.2366 29.6656 78.218 29.7046 78.205C29.7417 78.192 29.7882 78.1846 29.8402 78.1846H31.0982V78.6733H29.8402V78.6751Z" fill="white"/>
<path d="M31.0629 78.6751C31.0091 78.6751 30.9645 78.6677 30.9273 78.6547C30.8901 78.6417 30.8697 78.6213 30.8697 78.5952V78.2589C30.8697 78.2366 30.8883 78.218 30.9273 78.205C30.9645 78.192 31.0109 78.1846 31.0629 78.1846H32.321V78.6733H31.0629V78.6751Z" fill="white"/>
<path d="M32.2876 78.6751C32.2337 78.6751 32.1891 78.6677 32.1519 78.6547C32.1147 78.6417 32.0943 78.6213 32.0943 78.5952V78.2589C32.0943 78.2366 32.1129 78.218 32.1519 78.205C32.1891 78.192 32.2355 78.1846 32.2876 78.1846H33.5456V78.6733H32.2876V78.6751Z" fill="white"/>
<path d="M33.5102 78.6751C33.4563 78.6751 33.4117 78.6677 33.3746 78.6547C33.3374 78.6417 33.317 78.6213 33.317 78.5952V78.2589C33.317 78.2366 33.3355 78.218 33.3746 78.205C33.4117 78.192 33.4582 78.1846 33.5102 78.1846H34.7682V78.6733H33.5102V78.6751Z" fill="white"/>
<path d="M34.7329 78.6751C34.679 78.6751 34.6344 78.6677 34.5973 78.6547C34.5601 78.6417 34.5397 78.6213 34.5397 78.5952V78.2589C34.5397 78.2366 34.5583 78.218 34.5973 78.205C34.6344 78.192 34.6809 78.1846 34.7329 78.1846H35.9909V78.6733H34.7329V78.6751Z" fill="white"/>
<path d="M35.7624 78.2612C35.7624 78.2389 35.781 78.2203 35.82 78.2073C35.8572 78.1943 35.9036 78.1869 35.9557 78.1869H36.2121C36.2493 78.1869 36.292 78.185 36.3366 78.1813C36.3812 78.1776 36.4258 78.1683 36.4667 78.1553C36.5076 78.1423 36.5429 78.1218 36.5726 78.0921C36.6005 78.0642 36.6153 78.0252 36.6153 77.975V76.4847C36.6153 76.455 36.6265 76.429 36.6469 76.4085C36.6674 76.3881 36.6934 76.377 36.7231 76.377H36.9851C37.0149 76.377 37.0409 76.3881 37.0613 76.4085C37.0818 76.429 37.0929 76.455 37.0929 76.4847V78.0494C37.1041 78.0791 37.1282 78.1032 37.1635 78.12C37.1988 78.1367 37.2397 78.1497 37.2824 78.159C37.3252 78.1683 37.3716 78.1757 37.4162 78.1794C37.4608 78.1832 37.5017 78.185 37.5352 78.185H37.6151V78.6737H37.5463C37.4292 78.6737 37.3029 78.6607 37.1672 78.6366C37.0334 78.6124 36.9219 78.5622 36.8346 78.486C36.7398 78.5622 36.6265 78.6124 36.4964 78.6366C36.3663 78.6607 36.2474 78.6737 36.1415 78.6737H35.9538C35.8999 78.6737 35.8553 78.6663 35.8182 78.6533C35.781 78.6403 35.7606 78.6198 35.7606 78.5938V78.2575L35.7624 78.2612ZM36.0635 79.3297C36.0635 79.2925 36.0765 79.2609 36.1006 79.2386C36.1248 79.2163 36.1564 79.2052 36.1935 79.2052H36.4147C36.4518 79.2052 36.4834 79.2163 36.5094 79.2386C36.5336 79.2609 36.5466 79.2925 36.5466 79.3297V79.6363C36.5466 79.666 36.5336 79.6939 36.5076 79.718C36.4815 79.7422 36.45 79.7552 36.4165 79.7552H36.1954C36.1582 79.7552 36.1266 79.7422 36.1025 79.718C36.0783 79.6939 36.0653 79.666 36.0653 79.6363V79.3297H36.0635ZM36.9907 79.3297C36.9907 79.2925 37.0056 79.2609 37.0334 79.2386C37.0613 79.2163 37.0929 79.2052 37.1282 79.2052H37.3493C37.3828 79.2052 37.4144 79.2163 37.4404 79.2386C37.4664 79.2609 37.4794 79.2925 37.4794 79.3297V79.6363C37.4794 79.666 37.4664 79.6939 37.4404 79.718C37.4144 79.7422 37.3828 79.7552 37.3493 79.7552H37.1282C37.0948 79.7552 37.0632 79.7422 37.0334 79.718C37.0056 79.6939 36.9907 79.666 36.9907 79.6363V79.3297Z" fill="white"/>
<path d="M37.3902 78.2778C37.3902 78.2481 37.4088 78.2239 37.4478 78.2091C37.485 78.1942 37.5314 78.1868 37.5835 78.1868H40.5641C40.5678 78.0994 40.5715 78.0065 40.5733 77.908C40.5752 77.8095 40.5771 77.7148 40.5771 77.6237C40.5771 77.4193 40.5473 77.2484 40.486 77.1146C40.4247 76.9808 40.3392 76.873 40.2296 76.7968C40.1199 76.7188 39.9861 76.6649 39.8319 76.6351C39.6758 76.6054 39.503 76.5905 39.3135 76.5905C39.2001 76.5905 39.0812 76.5905 38.9585 76.5924C38.8359 76.5943 38.7207 76.5943 38.6148 76.5943C38.5088 76.5943 38.4178 76.5943 38.3416 76.5961C38.2654 76.598 38.2171 76.5998 38.193 76.5998C38.1279 76.5998 38.0907 76.572 38.0796 76.5144C38.0759 76.5069 38.074 76.4883 38.074 76.4568V76.3936C38.074 76.3025 38.0815 76.2152 38.0963 76.1316C38.1112 76.0479 38.1335 75.9643 38.1614 75.8788C38.1892 75.7934 38.2264 75.7042 38.2691 75.6094C38.3119 75.5146 38.3658 75.4124 38.4252 75.3028L38.8526 74.5186C38.8712 74.4889 38.8916 74.461 38.9121 74.4387C38.9325 74.4164 38.9641 74.4053 39.0069 74.4053H39.2744C39.3042 74.4053 39.3265 74.4127 39.3395 74.4257C39.3525 74.4387 39.3599 74.4554 39.3599 74.474C39.3599 74.4926 39.3543 74.5149 39.3432 74.5372L38.808 75.5481C38.743 75.6689 38.6891 75.7859 38.6464 75.8993C38.6018 76.0108 38.5795 76.0944 38.5757 76.1483C38.7579 76.1409 38.9121 76.1353 39.0366 76.1316C39.1611 76.1278 39.2726 76.126 39.3729 76.126C39.6387 76.126 39.8746 76.152 40.0846 76.2059C40.2927 76.2598 40.4693 76.3415 40.6142 76.4549C40.7592 76.5682 40.8688 76.715 40.945 76.8953C41.0212 77.0755 41.0583 77.2911 41.0583 77.5457V77.7408C41.0583 77.791 41.0583 77.8448 41.0546 77.8987C41.0528 77.9545 41.0509 78.0065 41.049 78.0567C41.0472 78.1069 41.0453 78.1515 41.0453 78.1905H41.4727V78.6792H37.5872C37.5333 78.6792 37.4887 78.6699 37.4515 78.6532C37.4144 78.6365 37.3939 78.6123 37.3939 78.5826V78.2815L37.3902 78.2778Z" fill="white"/>
<path d="M41.2405 78.2608C41.2405 78.2385 41.2591 78.2199 41.2981 78.2069C41.3352 78.1939 41.3817 78.1865 41.4337 78.1865H41.6158C41.6419 78.1865 41.6772 78.1865 41.7218 78.1828C41.7645 78.1828 41.8072 78.1753 41.85 78.1623C41.8909 78.1512 41.928 78.1345 41.9615 78.114C41.9931 78.0936 42.0135 78.0638 42.0209 78.0248C42.0321 77.9802 42.0377 77.9245 42.0377 77.8594V77.3131C42.0377 76.9229 42.1399 76.6237 42.3424 76.4137C42.545 76.2056 42.8367 76.1016 43.2158 76.1016C43.5949 76.1016 43.881 76.2038 44.0743 76.4082C44.2675 76.6126 44.3642 76.9136 44.3642 77.3131V77.6309C44.3642 77.6755 44.3642 77.7256 44.3623 77.7795C44.3604 77.8334 44.3549 77.8799 44.3474 77.9208C44.3511 77.9747 44.3697 78.0174 44.405 78.0527C44.4385 78.0861 44.4775 78.114 44.5221 78.1326C44.5648 78.1512 44.6113 78.1642 44.6559 78.1735C44.7005 78.1809 44.7395 78.1846 44.7692 78.1846H44.8436V78.6733H44.7692C44.6447 78.6733 44.5221 78.6548 44.4032 78.6195C44.2843 78.5841 44.1876 78.5284 44.1152 78.4522C43.9368 78.7105 43.6339 78.8387 43.2046 78.8387C42.9928 78.8387 42.8032 78.8071 42.6379 78.744C42.4725 78.6808 42.3461 78.586 42.2588 78.4559C42.1826 78.5433 42.0841 78.6009 41.9633 78.6287C41.8425 78.6566 41.7106 78.6715 41.5712 78.6715H41.4356C41.3817 78.6715 41.3371 78.6641 41.2999 78.651C41.2628 78.638 41.2423 78.6176 41.2423 78.5916V78.2552L41.2405 78.2608ZM42.5152 77.3559V77.6179C42.5152 77.7424 42.5227 77.8502 42.5375 77.9356C42.571 78.0954 42.6453 78.2106 42.7587 78.2831C42.872 78.3556 43.0207 78.3909 43.2028 78.3909C43.4536 78.3909 43.6302 78.3277 43.7324 78.1995C43.8346 78.0731 43.8866 77.878 43.8866 77.616V77.354C43.8866 77.0957 43.8364 76.8987 43.7361 76.7594C43.6357 76.6219 43.4629 76.5512 43.2158 76.5512C42.9686 76.5512 42.7865 76.62 42.6787 76.7557C42.571 76.8913 42.5171 77.092 42.5171 77.3521L42.5152 77.3559Z" fill="white"/>
<path d="M44.615 78.2608C44.615 78.2385 44.6336 78.2199 44.6726 78.2069C44.7098 78.1939 44.7562 78.1864 44.8082 78.1864H45.2059C45.3155 78.1864 45.3862 78.1771 45.4159 78.1586C45.4456 78.14 45.4605 78.0805 45.4605 77.982V77.2536C45.4605 77.1365 45.4605 77.0139 45.4586 76.8894C45.4568 76.7649 45.453 76.6274 45.4493 76.4806C45.4493 76.4509 45.4586 76.4248 45.4753 76.4044C45.4921 76.384 45.5162 76.3728 45.546 76.3728H45.8191C45.8526 76.3728 45.8804 76.384 45.899 76.4044C45.9176 76.4248 45.9269 76.4509 45.9269 76.4806C45.9306 76.6088 45.9343 76.7184 45.9362 76.8039C45.938 76.8894 45.9399 76.973 45.9399 77.0511V77.5825C45.9399 77.7646 45.9399 77.9337 45.9362 78.088C45.9343 78.244 45.9269 78.3648 45.9157 78.4522C45.9083 78.4893 45.8953 78.5228 45.8786 78.5488C45.8619 78.5748 45.8303 78.599 45.7857 78.6175C45.7559 78.6287 45.7132 78.638 45.6612 78.6436C45.6073 78.6491 45.5478 78.6547 45.4791 78.6603C45.4103 78.6659 45.3397 78.6696 45.2691 78.6714C45.1966 78.6733 45.1279 78.6751 45.0647 78.6751H44.8082C44.7544 78.6751 44.7098 78.6677 44.6726 78.6547C44.6354 78.6417 44.615 78.6213 44.615 78.5952V78.2589V78.2608ZM44.955 75.2114C44.955 75.1742 44.9681 75.1427 44.9922 75.1204C45.0164 75.0981 45.048 75.0869 45.0851 75.0869H45.3063C45.3434 75.0869 45.375 75.0981 45.3992 75.1204C45.4233 75.1427 45.4363 75.1742 45.4363 75.2114V75.518C45.4363 75.5515 45.4233 75.5812 45.3973 75.6035C45.3713 75.6258 45.3397 75.637 45.3063 75.637H45.0851C45.048 75.637 45.0164 75.6258 44.9922 75.6035C44.9681 75.5812 44.955 75.5515 44.955 75.518V75.2114ZM45.8823 75.2114C45.8823 75.1742 45.8972 75.1427 45.925 75.1204C45.9529 75.0981 45.9845 75.0869 46.0179 75.0869H46.2391C46.2725 75.0869 46.3041 75.0981 46.3301 75.1204C46.3561 75.1427 46.3692 75.1742 46.3692 75.2114V75.518C46.3692 75.5515 46.3561 75.5812 46.3301 75.6035C46.3041 75.6258 46.2725 75.637 46.2391 75.637H46.0179C45.9845 75.637 45.9529 75.6258 45.925 75.6035C45.8972 75.5812 45.8823 75.5515 45.8823 75.518V75.2114Z" fill="white"/>
<path d="M46.9694 79.6364C46.9694 79.5843 46.9991 79.5583 47.0605 79.5583C47.1255 79.5583 47.2073 79.5583 47.3057 79.562C47.4042 79.562 47.4841 79.5639 47.5454 79.5639C47.6978 79.5639 47.8335 79.5546 47.9543 79.5379C48.075 79.5212 48.1791 79.4877 48.2646 79.4413C48.3501 79.3929 48.417 79.326 48.4634 79.2406C48.5099 79.1551 48.534 79.0436 48.534 78.9061V78.5679C48.508 78.5902 48.469 78.6088 48.417 78.6218C48.3649 78.6348 48.3092 78.6459 48.246 78.6552C48.1828 78.6645 48.1215 78.6701 48.062 78.6719C48.0007 78.6738 47.9487 78.6757 47.9022 78.6757C47.5566 78.6757 47.2816 78.5772 47.0772 78.3802C46.8728 78.1832 46.7706 77.8859 46.7706 77.4864V77.3452C46.7706 76.9475 46.8876 76.6316 47.1236 76.4012C47.3596 76.1708 47.6923 76.0537 48.1252 76.0537C48.2776 76.0537 48.4244 76.0611 48.5656 76.0741C48.7068 76.0872 48.8276 76.1095 48.9261 76.1392C48.9633 76.1503 48.9893 76.1633 49.0004 76.1763C49.0116 76.1894 49.0172 76.2117 49.0172 76.2414V78.8188C49.0172 79.0547 48.9837 79.248 48.915 79.3985C48.8462 79.5509 48.7514 79.6698 48.6306 79.759C48.5099 79.8482 48.3649 79.9114 48.1977 79.9467C48.0304 79.982 47.8465 80.0006 47.6458 80.0006C47.6086 80.0006 47.5603 80.0006 47.5009 79.9987C47.4414 79.9969 47.3838 79.995 47.3243 79.9932C47.2649 79.9913 47.211 79.9876 47.1627 79.9857C47.1125 79.982 47.079 79.9783 47.0605 79.9746C47.0233 79.9671 46.9973 79.956 46.9861 79.943C46.975 79.93 46.9694 79.9095 46.9694 79.8835V79.6364ZM48.5396 76.5257C48.4634 76.5183 48.3891 76.5127 48.3185 76.509C48.246 76.5053 48.1605 76.5034 48.062 76.5034C47.8112 76.5034 47.6142 76.574 47.4674 76.7134C47.3206 76.8546 47.2481 77.0553 47.2481 77.3154V77.4288C47.2481 77.6982 47.3057 77.8934 47.4191 78.0141C47.5324 78.1349 47.7257 78.1962 47.9989 78.1962C48.1475 78.1962 48.2739 78.187 48.3798 78.1684C48.4857 78.1498 48.5396 78.0959 48.5396 78.0086V76.5238V76.5257Z" fill="white"/>
<path d="M51.5945 77.1053C51.6633 77.1053 51.6911 77.1443 51.68 77.2242C51.6725 77.3115 51.6651 77.4007 51.6577 77.4936C51.6503 77.5866 51.6465 77.6646 51.6465 77.7296C51.6465 77.9266 51.6595 78.1124 51.6856 78.2871C51.7116 78.4618 51.7692 78.6141 51.8584 78.7424C51.9476 78.8706 52.0776 78.9728 52.2486 79.0471C52.4196 79.1214 52.65 79.1586 52.9436 79.1586C53.0235 79.1586 53.1071 79.1568 53.1963 79.153C53.2855 79.1493 53.3691 79.1382 53.449 79.1196C53.4527 79.0137 53.4564 78.9208 53.4583 78.8409C53.4602 78.761 53.462 78.6848 53.462 78.6141V74.513C53.462 74.4833 53.4713 74.4573 53.4899 74.4369C53.5085 74.4164 53.5326 74.4053 53.5642 74.4053H53.8485C53.8783 74.4053 53.9043 74.4164 53.9229 74.4369C53.9414 74.4573 53.9507 74.4833 53.9507 74.513V78.1886H54.4748V78.6773H53.9507C53.9507 78.7349 53.9507 78.7981 53.947 78.8669C53.9452 78.9375 53.9433 79.0081 53.9414 79.0769C53.9396 79.1475 53.9377 79.2144 53.9359 79.2794C53.934 79.3444 53.9303 79.3983 53.9266 79.4448C53.9229 79.4819 53.9117 79.5098 53.8931 79.5247C53.8745 79.5395 53.8448 79.5526 53.8077 79.5637C53.6757 79.5934 53.5382 79.6157 53.3951 79.6287C53.252 79.6418 53.0978 79.6492 52.9306 79.6492C52.5961 79.6492 52.3174 79.6102 52.0944 79.5321C51.8714 79.4541 51.6911 79.3407 51.5573 79.1939C51.4235 79.0471 51.3269 78.865 51.2693 78.6532C51.2117 78.4413 51.1838 78.1998 51.1838 77.9303C51.1838 77.8932 51.1838 77.8448 51.1857 77.7854C51.1876 77.7259 51.1913 77.6646 51.1968 77.5977C51.2024 77.5308 51.2099 77.4658 51.2173 77.3989C51.2247 77.332 51.234 77.2707 51.2452 77.2149C51.2563 77.1424 51.2898 77.1071 51.3474 77.1071H51.5926L51.5945 77.1053Z" fill="white"/>
<path d="M54.4394 78.6751C54.3855 78.6751 54.3409 78.6677 54.3038 78.6547C54.2666 78.6417 54.2462 78.6213 54.2462 78.5952V78.2589C54.2462 78.2366 54.2647 78.218 54.3038 78.205C54.3409 78.192 54.3874 78.1846 54.4394 78.1846H55.6974V78.6733H54.4394V78.6751Z" fill="white"/>
<path d="M55.6622 78.6751C55.6083 78.6751 55.5637 78.6677 55.5265 78.6547C55.4894 78.6417 55.4689 78.6213 55.4689 78.5952V78.2589C55.4689 78.2366 55.4875 78.218 55.5265 78.205C55.5637 78.192 55.6102 78.1846 55.6622 78.1846H56.9202V78.6733H55.6622V78.6751Z" fill="white"/>
<path d="M56.8848 78.6751C56.831 78.6751 56.7864 78.6677 56.7492 78.6547C56.712 78.6417 56.6916 78.6213 56.6916 78.5952V78.2589C56.6916 78.2366 56.7102 78.218 56.7492 78.205C56.7864 78.192 56.8328 78.1846 56.8848 78.1846H58.1429V78.6733H56.8848V78.6751Z" fill="white"/>
<path d="M58.1076 78.6751C58.0537 78.6751 58.0091 78.6677 57.9719 78.6547C57.9347 78.6417 57.9143 78.6213 57.9143 78.5952V78.2589C57.9143 78.2366 57.9329 78.218 57.9719 78.205C58.0091 78.192 58.0555 78.1846 58.1076 78.1846H59.3656V78.6733H58.1076V78.6751Z" fill="white"/>
<path d="M59.137 78.2612C59.137 78.2389 59.1556 78.2203 59.1947 78.2073C59.2318 78.1943 59.2783 78.1869 59.3303 78.1869H59.5867C59.6239 78.1869 59.6666 78.185 59.7112 78.1813C59.7558 78.1776 59.8004 78.1683 59.8413 78.1553C59.8822 78.1423 59.9175 78.1218 59.9472 78.0921C59.9751 78.0642 59.99 78.0252 59.99 77.975V76.4847C59.99 76.455 60.0011 76.429 60.0216 76.4085C60.042 76.3881 60.068 76.377 60.0978 76.377H60.3598C60.3895 76.377 60.4155 76.3881 60.436 76.4085C60.4564 76.429 60.4675 76.455 60.4675 76.4847V78.0494C60.4787 78.0791 60.5028 78.1032 60.5382 78.12C60.5735 78.1367 60.6143 78.1497 60.6571 78.159C60.6998 78.1683 60.7463 78.1757 60.7909 78.1794C60.8355 78.1832 60.8763 78.185 60.9098 78.185H60.9897V78.6737H60.9209C60.8039 78.6737 60.6775 78.6607 60.5419 78.6366C60.4081 78.6124 60.2966 78.5622 60.2092 78.486C60.1145 78.5622 60.0011 78.6124 59.871 78.6366C59.741 78.6607 59.622 78.6737 59.5161 78.6737H59.3284C59.2746 78.6737 59.23 78.6663 59.1928 78.6533C59.1556 78.6403 59.1352 78.6198 59.1352 78.5938V78.2575L59.137 78.2612ZM59.4399 79.3297C59.4399 79.2925 59.4529 79.2609 59.4771 79.2386C59.5013 79.2163 59.5329 79.2052 59.57 79.2052H59.7911C59.8283 79.2052 59.8599 79.2163 59.8859 79.2386C59.9101 79.2609 59.9231 79.2925 59.9231 79.3297V79.6363C59.9231 79.666 59.9101 79.6939 59.8841 79.718C59.858 79.7422 59.8264 79.7552 59.793 79.7552H59.5719C59.5347 79.7552 59.5031 79.7422 59.479 79.718C59.4548 79.6939 59.4418 79.666 59.4418 79.6363V79.3297H59.4399ZM60.3672 79.3297C60.3672 79.2925 60.3821 79.2609 60.4099 79.2386C60.4378 79.2163 60.4694 79.2052 60.5047 79.2052H60.7258C60.7593 79.2052 60.7909 79.2163 60.8169 79.2386C60.8429 79.2609 60.8559 79.2925 60.8559 79.3297V79.6363C60.8559 79.666 60.8429 79.6939 60.8169 79.718C60.7909 79.7422 60.7593 79.7552 60.7258 79.7552H60.5047C60.4713 79.7552 60.4397 79.7422 60.4099 79.718C60.3821 79.6939 60.3672 79.666 60.3672 79.6363V79.3297Z" fill="white"/>
<path d="M60.7648 78.2776C60.7648 78.2479 60.7834 78.2237 60.8224 78.2089C60.8596 78.194 60.9061 78.1866 60.9581 78.1866H61.6345C61.5676 78.1178 61.5211 78.0324 61.4933 77.9302C61.4654 77.8279 61.4524 77.7127 61.4524 77.5827V77.4006C61.4524 77.0977 61.5379 76.8598 61.7107 76.6889C61.8816 76.5179 62.1306 76.4324 62.454 76.4324C62.7773 76.4324 63.0207 76.5142 63.1805 76.6796C63.3403 76.8449 63.4202 77.0847 63.4202 77.3987V77.5808C63.4202 77.7053 63.4035 77.8224 63.3719 77.9283C63.3385 78.0342 63.2883 78.1216 63.2195 78.1903H63.9851C64.0149 78.1903 64.0409 78.1847 64.0613 78.1754C64.0818 78.1661 64.0985 78.1439 64.1096 78.1104C64.1208 78.077 64.1301 78.0286 64.1356 77.9655C64.1412 77.9023 64.1449 77.8205 64.1449 77.7183V77.434C64.1449 77.2147 64.1134 77.0308 64.052 76.8858C63.9889 76.739 63.9015 76.622 63.7882 76.5328C63.6748 76.4436 63.5392 76.3804 63.3812 76.3414C63.2233 76.3042 63.0523 76.2838 62.8665 76.2838H62.6416C62.5487 76.2838 62.4725 76.2856 62.4112 76.2893C62.335 76.2968 62.2979 76.2726 62.2979 76.215V75.9772C62.2979 75.9158 62.3332 75.8787 62.4056 75.8638C62.4967 75.8489 62.584 75.8396 62.6695 75.8378C62.755 75.8378 62.8182 75.8359 62.8609 75.8359C63.0932 75.8359 63.3143 75.8582 63.5262 75.9047C63.738 75.9493 63.9257 76.0311 64.0892 76.15C64.2527 76.267 64.3828 76.425 64.4794 76.622C64.5761 76.8189 64.6244 77.0679 64.6244 77.3671V77.6514C64.6244 77.7722 64.6206 77.9097 64.6132 78.0602C64.6058 78.2126 64.5872 78.3501 64.5556 78.4746C64.5482 78.5118 64.5296 78.5489 64.498 78.5861C64.4683 78.6214 64.42 78.6437 64.3568 78.6511C64.3029 78.6586 64.2286 78.6642 64.1301 78.666C64.0316 78.6679 63.9275 78.6697 63.8179 78.6716C63.7083 78.6734 63.5986 78.6753 63.4871 78.6753H60.9618C60.9079 78.6753 60.8633 78.666 60.8262 78.6493C60.789 78.6326 60.7685 78.6084 60.7685 78.5787V78.2776H60.7648ZM61.9021 77.6105C61.9021 77.7889 61.9392 77.9357 62.0136 78.0491C62.0879 78.1624 62.2254 78.22 62.4261 78.22C62.6268 78.22 62.7736 78.1643 62.8535 78.0528C62.9334 77.9413 62.9724 77.7945 62.9724 77.6124V77.4191C62.9724 77.2333 62.9371 77.0865 62.8646 76.9787C62.7922 76.871 62.6546 76.8171 62.4502 76.8171C62.2458 76.8171 62.1028 76.871 62.0228 76.9787C61.9429 77.0865 61.9039 77.2333 61.9039 77.4191V77.6124L61.9021 77.6105Z" fill="white"/>
<path d="M65.3212 74.2787C65.2524 74.2787 65.219 74.2564 65.219 74.2099V74.1133C65.219 74.0761 65.2524 74.0557 65.3212 74.0557H65.4178C65.3844 74.0148 65.3584 73.9646 65.3435 73.9051C65.3286 73.8457 65.3212 73.7881 65.3212 73.7323C65.3212 73.5725 65.3676 73.4573 65.4606 73.383C65.5535 73.3087 65.6854 73.2715 65.8564 73.2715C65.8861 73.2715 65.9214 73.2733 65.9586 73.2771C65.9957 73.2808 66.0348 73.2863 66.0719 73.2938C66.1128 73.3086 66.1351 73.331 66.1351 73.3625V73.4424C66.1351 73.4833 66.1109 73.5056 66.0608 73.5056C66.0533 73.5056 66.0273 73.5056 65.9809 73.5038C65.9344 73.5019 65.9028 73.5019 65.8842 73.5019C65.6835 73.5019 65.5832 73.5874 65.5832 73.7583C65.5832 73.8382 65.5962 73.9033 65.6222 73.9553C65.6482 74.0055 65.678 74.0389 65.7077 74.0557H66.0886C66.1537 74.0557 66.1853 74.078 66.1853 74.1244V74.2155C66.1853 74.2452 66.176 74.2656 66.1593 74.2731C66.1425 74.2805 66.1184 74.2842 66.0886 74.2842H65.3212V74.2787ZM65.4977 74.812C65.4977 74.7822 65.5089 74.7544 65.5293 74.7321C65.5498 74.7098 65.5758 74.6986 65.6055 74.6986H65.8842C65.914 74.6986 65.94 74.7098 65.9586 74.7321C65.9771 74.7544 65.9864 74.7804 65.9864 74.812V77.8502C65.9864 77.9263 65.9957 77.9858 66.0125 78.0304C66.0292 78.0731 66.0533 78.1066 66.0868 78.1307C66.1184 78.153 66.1593 78.1679 66.2057 78.1753C66.254 78.1828 66.3079 78.1865 66.3674 78.1865H66.5086V78.6752H66.241C66.1202 78.6752 66.0143 78.6641 65.9233 78.6436C65.8322 78.6232 65.7542 78.5842 65.691 78.5303C65.6259 78.4745 65.5776 78.402 65.546 78.311C65.5145 78.2199 65.4977 78.1029 65.4977 77.9579V74.812Z" fill="white"/>
<path d="M66.2838 78.2608C66.2838 78.2385 66.3024 78.2199 66.3414 78.2069C66.3786 78.1939 66.425 78.1864 66.477 78.1864H66.7335C66.7706 78.1864 66.8134 78.1846 66.858 78.1809C66.9026 78.1771 66.9472 78.1679 66.988 78.1548C67.0289 78.1418 67.0642 78.1214 67.094 78.0917C67.1218 78.0638 67.1367 78.0248 67.1367 77.9746V76.4843C67.1367 76.4546 67.1479 76.4286 67.1683 76.4081C67.1887 76.3877 67.2147 76.3765 67.2445 76.3765H67.5065C67.5362 76.3765 67.5622 76.3877 67.5827 76.4081C67.6031 76.4286 67.6143 76.4546 67.6143 76.4843V78.0489C67.6254 78.0787 67.6496 78.1028 67.6849 78.1195C67.7202 78.1363 67.7611 78.1493 67.8038 78.1586C67.8465 78.1679 67.893 78.1753 67.9376 78.179C67.9822 78.1827 68.0231 78.1846 68.0565 78.1846H68.1364V78.6733H68.0677C67.9506 78.6733 67.8242 78.6603 67.6886 78.6361C67.5548 78.612 67.4433 78.5618 67.356 78.4856C67.2612 78.5618 67.1479 78.612 67.0178 78.6361C66.8877 78.6603 66.7688 78.6733 66.6629 78.6733H66.4752C66.4213 78.6733 66.3767 78.6659 66.3395 78.6528C66.3024 78.6398 66.2819 78.6194 66.2819 78.5934V78.257L66.2838 78.2608ZM66.6536 75.2114C66.6536 75.1742 66.6666 75.1427 66.6907 75.1204C66.7149 75.0981 66.7465 75.0869 66.7836 75.0869H67.0048C67.0419 75.0869 67.0735 75.0981 67.0995 75.1204C67.1237 75.1427 67.1367 75.1742 67.1367 75.2114V75.518C67.1367 75.5515 67.1237 75.5812 67.0977 75.6035C67.0717 75.6258 67.0401 75.637 67.0066 75.637H66.7855C66.7483 75.637 66.7167 75.6258 66.6926 75.6035C66.6684 75.5812 66.6554 75.5515 66.6554 75.518V75.2114H66.6536ZM67.5808 75.2114C67.5808 75.1742 67.5957 75.1427 67.6236 75.1204C67.6514 75.0981 67.683 75.0869 67.7165 75.0869H67.9376C67.971 75.0869 68.0026 75.0981 68.0287 75.1204C68.0547 75.1427 68.0677 75.1742 68.0677 75.2114V75.518C68.0677 75.5515 68.0547 75.5812 68.0287 75.6035C68.0026 75.6258 67.971 75.637 67.9376 75.637H67.7165C67.683 75.637 67.6514 75.6258 67.6236 75.6035C67.5957 75.5812 67.5808 75.5515 67.5808 75.518V75.2114Z" fill="white"/>
<path d="M67.9097 78.2611C67.9097 78.2388 67.9283 78.2202 67.9673 78.2072C68.0045 78.1942 68.051 78.1868 68.103 78.1868H68.5583C68.6679 78.1868 68.7366 78.1775 68.7664 78.1589C68.7961 78.1403 68.8091 78.0808 68.8091 77.9824V74.513C68.8091 74.4833 68.8203 74.4573 68.8407 74.4369C68.8611 74.4164 68.8872 74.4053 68.9169 74.4053H69.1956C69.2254 74.4053 69.2514 74.4164 69.27 74.4369C69.2885 74.4573 69.2978 74.4833 69.2978 74.513V77.9489C69.2978 78.0065 69.2978 78.0641 69.296 78.1254C69.2941 78.1868 69.2904 78.2444 69.2867 78.302C69.283 78.3596 69.2774 78.4097 69.27 78.4562C69.2625 78.4934 69.2514 78.5268 69.2365 78.5528C69.2216 78.5788 69.1919 78.603 69.1455 78.6216C69.1157 78.6327 69.0711 78.642 69.0154 78.6476C68.9578 78.6532 68.8964 78.6587 68.8277 78.6643C68.7589 78.6699 68.6883 78.6736 68.614 78.6755C68.5397 78.6773 68.4709 78.6792 68.4059 78.6792H68.1048C68.051 78.6792 68.0064 78.6718 67.9692 78.6588C67.932 78.6457 67.9116 78.6253 67.9116 78.5993V78.263L67.9097 78.2611Z" fill="white"/>
</svg>
