<svg width="20" height="20" viewBox="0 0 20 20" fill="none" xmlns="http://www.w3.org/2000/svg">
<path fill-rule="evenodd" clip-rule="evenodd" d="M12.4337 2.32169C10.8061 2.28079 9.19452 2.28079 7.56698 2.32168L7.51851 2.3229C6.24782 2.3548 5.22534 2.38048 4.40591 2.52318C3.54799 2.67259 2.85073 2.95916 2.26167 3.55045C1.67509 4.13927 1.39003 4.82651 1.24346 5.67052C1.1039 6.47416 1.08264 7.47169 1.05631 8.70739L1.05527 8.75634C1.03757 9.58663 1.03757 10.4121 1.05527 11.2424L1.05632 11.2913C1.08265 12.527 1.1039 13.5245 1.24346 14.3282C1.39003 15.1722 1.67509 15.8594 2.26168 16.4482C2.85073 17.0395 3.54799 17.3261 4.40591 17.4755C5.22533 17.6182 6.2478 17.6439 7.51847 17.6758L7.56699 17.677C9.19452 17.7179 10.8061 17.7179 12.4337 17.677L12.4822 17.6758C13.7529 17.6439 14.7753 17.6182 15.5947 17.4755C16.4527 17.3261 17.1499 17.0395 17.739 16.4482C18.3256 15.8594 18.6106 15.1722 18.7572 14.3282C18.8968 13.5245 18.918 12.527 18.9443 11.2913L18.9454 11.2424C18.9631 10.4121 18.9631 9.58664 18.9454 8.75635L18.9443 8.70741C18.918 7.4717 18.8968 6.47418 18.7572 5.67053C18.6106 4.82652 18.3256 4.13928 17.739 3.55047C17.1499 2.95917 16.4527 2.67261 15.5947 2.5232C14.7753 2.38049 13.7528 2.35481 12.4821 2.3229L12.4337 2.32169ZM7.59837 3.57129C9.20498 3.53092 10.7957 3.53093 12.4023 3.57129C13.7328 3.60472 14.6626 3.62967 15.3803 3.75466C16.0699 3.87476 16.4999 4.07777 16.8534 4.43267C16.9984 4.57817 17.1174 4.73481 17.2155 4.91459L12.2648 7.71972C11.2187 8.31243 10.5839 8.54102 10.0004 8.54102C9.41691 8.54102 8.78212 8.31243 7.73604 7.71972L2.78517 4.91452C2.88324 4.73476 3.0023 4.57814 3.14723 4.43266C3.50079 4.07776 3.93076 3.87475 4.62037 3.75465C5.33807 3.62966 6.26782 3.60472 7.59837 3.57129ZM2.43451 6.15254C2.34828 6.81239 2.32922 7.6464 2.30499 8.78299C2.28766 9.59551 2.28766 10.4032 2.30499 11.2157C2.33263 12.512 2.35353 13.4147 2.47503 14.1143C2.59135 14.7842 2.79121 15.2087 3.14724 15.566C3.50079 15.9209 3.93076 16.124 4.62037 16.2441C5.33807 16.369 6.26783 16.394 7.59838 16.4274C9.20499 16.4678 10.7957 16.4678 12.4023 16.4274C13.7328 16.394 14.6626 16.369 15.3803 16.2441C16.0699 16.124 16.4999 15.9209 16.8534 15.566C17.2094 15.2087 17.4093 14.7842 17.5256 14.1143C17.6471 13.4147 17.668 12.512 17.6957 11.2157C17.713 10.4032 17.713 9.59552 17.6957 8.783C17.6714 7.64646 17.6524 6.81246 17.5662 6.15263L12.881 8.80727C11.8033 9.41792 10.9275 9.79102 10.0004 9.79102C9.07333 9.79102 8.19755 9.41792 7.11982 8.80727L2.43451 6.15254Z" fill="#696C68"/>
</svg>
