<svg width="20" height="20" viewBox="0 0 20 20" fill="none" xmlns="http://www.w3.org/2000/svg">
<path opacity="0.4" d="M17.9166 11.7307C16.9169 12.2645 15.775 12.5671 14.5625 12.5671C10.6242 12.5671 7.43152 9.37443 7.43152 5.43608C7.43152 4.22358 7.73413 3.08176 8.26795 2.08203C4.72296 2.91285 2.08325 6.09464 2.08325 9.89297C2.08325 14.3236 5.675 17.9154 10.1057 17.9154C13.904 17.9154 17.0858 15.2757 17.9166 11.7307Z" fill="#25343E"/>
<path fill-rule="evenodd" clip-rule="evenodd" d="M8.76349 1.70119C8.91306 1.8958 8.93488 2.15993 8.81927 2.37644C8.33264 3.28781 8.05652 4.32878 8.05652 5.4361C8.05652 9.02928 10.9694 11.9421 14.5625 11.9421C15.6699 11.9421 16.7108 11.666 17.6222 11.1794C17.8387 11.0638 18.1028 11.0856 18.2974 11.2351C18.4921 11.3847 18.5811 11.6343 18.5251 11.8733C17.6295 15.6945 14.2007 18.5404 10.1057 18.5404C5.32982 18.5404 1.45825 14.6688 1.45825 9.89299C1.45825 5.79794 4.30413 2.3691 8.12533 1.47355C8.3643 1.41754 8.61393 1.50659 8.76349 1.70119ZM7.16357 3.10357C4.54179 4.24123 2.70825 6.85356 2.70825 9.89299C2.70825 13.9785 6.02018 17.2904 10.1057 17.2904C13.1451 17.2904 15.7574 15.4569 16.8951 12.8351C16.1585 13.0671 15.3748 13.1921 14.5625 13.1921C10.279 13.1921 6.80652 9.71963 6.80652 5.4361C6.80652 4.62388 6.93156 3.84016 7.16357 3.10357Z" fill="#25343E"/>
</svg>
