<svg width="20" height="20" viewBox="0 0 20 20" fill="none" xmlns="http://www.w3.org/2000/svg">
<path fill-rule="evenodd" clip-rule="evenodd" d="M5.83399 5.20898C5.59928 5.20898 5.38436 5.34048 5.27751 5.54945C5.17066 5.75842 5.18989 6.00964 5.32731 6.19992L8.5103 10.6071L5.39205 13.7254C5.14797 13.9695 5.14797 14.3652 5.39205 14.6093C5.63612 14.8533 6.03185 14.8533 6.27593 14.6093L9.25162 11.6336L11.3458 14.5332C11.4633 14.6959 11.6518 14.7923 11.8525 14.7923H14.1673C14.402 14.7923 14.6169 14.6608 14.7238 14.4518C14.8306 14.2429 14.8114 13.9917 14.674 13.8014L11.491 9.39418L14.6093 6.27593C14.8533 6.03185 14.8533 5.63612 14.6093 5.39204C14.3652 5.14796 13.9695 5.14796 13.7254 5.39204L10.7497 8.36773L8.65548 5.46805C8.53797 5.30536 8.34949 5.20898 8.1488 5.20898H5.83399ZM12.945 13.5423H12.1721L7.05633 6.45898H7.82923L12.945 13.5423Z" fill="#696C68"/>
<path fill-rule="evenodd" clip-rule="evenodd" d="M10.0483 1.45898H9.95301C8.12742 1.45897 6.69352 1.45896 5.574 1.60948C4.42679 1.76372 3.51658 2.08625 2.80141 2.80141C2.08625 3.51658 1.76372 4.42679 1.60948 5.574C1.45896 6.69352 1.45897 8.12742 1.45898 9.953V10.0483C1.45897 11.8739 1.45896 13.3078 1.60948 14.4273C1.76372 15.5745 2.08625 16.4847 2.80141 17.1999C3.51658 17.9151 4.42679 18.2376 5.574 18.3918C6.69351 18.5423 8.12741 18.5423 9.95298 18.5423H10.0483C11.8739 18.5423 13.3078 18.5423 14.4273 18.3918C15.5745 18.2376 16.4847 17.9151 17.1999 17.1999C17.9151 16.4847 18.2376 15.5745 18.3918 14.4273C18.5423 13.3078 18.5423 11.8739 18.5423 10.0483V9.95301C18.5423 8.12743 18.5423 6.69351 18.3918 5.574C18.2376 4.42679 17.9151 3.51658 17.1999 2.80141C16.4847 2.08625 15.5745 1.76372 14.4273 1.60948C13.3078 1.45896 11.8739 1.45897 10.0483 1.45898ZM3.6853 3.6853C4.1295 3.24109 4.73196 2.98394 5.74056 2.84833C6.76715 2.71031 8.11701 2.70898 10.0007 2.70898C11.8843 2.70898 13.2342 2.71031 14.2607 2.84833C15.2693 2.98394 15.8718 3.24109 16.316 3.6853C16.7602 4.1295 17.0174 4.73196 17.153 5.74056C17.291 6.76715 17.2923 8.11701 17.2923 10.0007C17.2923 11.8843 17.291 13.2342 17.153 14.2607C17.0174 15.2693 16.7602 15.8718 16.316 16.316C15.8718 16.7602 15.2693 17.0174 14.2607 17.153C13.2342 17.291 11.8843 17.2923 10.0007 17.2923C8.11701 17.2923 6.76715 17.291 5.74056 17.153C4.73196 17.0174 4.1295 16.7602 3.6853 16.316C3.24109 15.8718 2.98394 15.2693 2.84833 14.2607C2.71031 13.2342 2.70899 11.8843 2.70899 10.0007C2.70899 8.11701 2.71031 6.76715 2.84833 5.74056C2.98394 4.73196 3.24109 4.1295 3.6853 3.6853Z" fill="#696C68"/>
</svg>
