<svg width="20" height="20" viewBox="0 0 20 20" fill="none" xmlns="http://www.w3.org/2000/svg">
<path opacity="0.4" d="M2.10843 12.3093C1.93122 13.471 2.72349 14.2773 3.69354 14.6792C7.4125 16.2198 12.5878 16.2198 16.3068 14.6792C17.2768 14.2773 18.0691 13.471 17.8919 12.3093C17.783 11.5954 17.2445 11.0009 16.8455 10.4204C16.3229 9.65069 16.271 8.81116 16.2709 7.91797C16.2709 4.46619 13.4634 1.66797 10.0002 1.66797C6.53694 1.66797 3.72943 4.46619 3.72943 7.91797C3.72936 8.81116 3.67743 9.65069 3.15484 10.4204C2.75586 11.0009 2.21734 11.5954 2.10843 12.3093Z" fill="#25343E"/>
<path fill-rule="evenodd" clip-rule="evenodd" d="M10.0009 1.04297C6.19444 1.04297 3.10518 4.11903 3.10515 7.91792C3.10507 8.80153 3.0458 9.46846 2.63945 10.0679C2.58295 10.15 2.50797 10.2529 2.42606 10.3653C2.28378 10.5606 2.12054 10.7846 1.99672 10.9786C1.77819 11.321 1.56469 11.7339 1.49129 12.2151C1.25183 13.7848 2.3557 14.8012 3.45505 15.2566C4.27348 15.5956 5.15782 15.863 6.0802 16.0587C6.5586 17.7425 8.14159 18.9596 10.0001 18.9596C11.8584 18.9596 13.4413 17.7426 13.9198 16.0591C14.8428 15.8633 15.7278 15.5958 16.5467 15.2566C17.646 14.8012 18.7499 13.7848 18.5105 12.2151C18.4371 11.7339 18.2236 11.321 18.005 10.9786C17.8812 10.7846 17.718 10.5606 17.5757 10.3653C17.4938 10.2529 17.4188 10.1501 17.3624 10.0679C16.956 9.4685 16.8967 8.80165 16.8966 7.91797C16.8966 4.11906 13.8073 1.04297 10.0009 1.04297ZM4.35515 7.91797C4.35515 4.81332 6.88087 2.29297 10.0009 2.29297C13.1209 2.29297 15.6466 4.81337 15.6466 7.91802C15.6467 8.82005 15.6912 9.83186 16.3291 10.7715L16.3311 10.7744C16.436 10.927 16.5281 11.0521 16.6149 11.17C16.7305 11.3271 16.8367 11.4714 16.9513 11.6511C17.129 11.9295 17.2392 12.1708 17.2748 12.4036C17.3897 13.1572 16.909 13.7535 16.0683 14.1018C12.5025 15.5789 7.49926 15.5789 3.93345 14.1018C3.09271 13.7535 2.61203 13.1572 2.727 12.4036C2.76251 12.1708 2.87272 11.9295 3.05042 11.6511C3.16505 11.4715 3.27127 11.3271 3.38687 11.1701C3.47353 11.0523 3.56592 10.9268 3.67064 10.7744L3.67263 10.7715C4.31058 9.83186 4.35507 8.81999 4.35515 7.91797ZM12.47 16.3041C10.8462 16.5116 9.15378 16.5115 7.53004 16.3039C8.0063 17.1362 8.92799 17.7096 10.0001 17.7096C11.0721 17.7096 11.9937 17.1363 12.47 16.3041Z" fill="#25343E"/>
</svg>
