<svg width="20" height="20" viewBox="0 0 20 20" fill="none" xmlns="http://www.w3.org/2000/svg">
<path fill-rule="evenodd" clip-rule="evenodd" d="M7.08283 5.625C5.81718 5.625 4.79116 6.65101 4.79116 7.91667C4.79116 9.18232 5.81718 10.2083 7.08283 10.2083C8.34848 10.2083 9.3745 9.18232 9.3745 7.91667C9.3745 6.65101 8.34848 5.625 7.08283 5.625ZM6.04116 7.91667C6.04116 7.34137 6.50753 6.875 7.08283 6.875C7.65813 6.875 8.1245 7.34137 8.1245 7.91667C8.1245 8.49196 7.65813 8.95833 7.08283 8.95833C6.50753 8.95833 6.04116 8.49196 6.04116 7.91667Z" fill="#696C68"/>
<path d="M4.73221 14.015C5.10596 13.2166 6.03322 12.724 7.06721 12.7087C8.0936 12.6935 9.02922 13.1515 9.43345 14.015C9.5798 14.3276 9.95187 14.4624 10.2645 14.316C10.5771 14.1697 10.7119 13.7976 10.5655 13.485C9.8966 12.0561 8.41901 11.4386 7.04876 11.4588C5.68611 11.4789 4.2333 12.1325 3.60012 13.485C3.45377 13.7976 3.58856 14.1697 3.90118 14.316C4.21379 14.4624 4.58586 14.3276 4.73221 14.015Z" fill="#696C68"/>
<path d="M11.8743 8.33333C11.8743 7.98816 12.1542 7.70833 12.4993 7.70833H15.8327C16.1779 7.70833 16.4577 7.98816 16.4577 8.33333C16.4577 8.67851 16.1779 8.95833 15.8327 8.95833H12.4993C12.1542 8.95833 11.8743 8.67851 11.8743 8.33333Z" fill="#696C68"/>
<path d="M12.4993 11.0417C12.1542 11.0417 11.8743 11.3215 11.8743 11.6667C11.8743 12.0118 12.1542 12.2917 12.4993 12.2917H15.8327C16.1779 12.2917 16.4577 12.0118 16.4577 11.6667C16.4577 11.3215 16.1779 11.0417 15.8327 11.0417H12.4993Z" fill="#696C68"/>
<path fill-rule="evenodd" clip-rule="evenodd" d="M10.0428 1.875H9.95588C8.02851 1.87499 6.52447 1.87499 5.35231 2.01682C4.15953 2.16115 3.21548 2.46133 2.4683 3.13379C1.71169 3.81474 1.36524 4.68956 1.20042 5.79289C1.04099 6.86018 1.041 8.22435 1.04102 9.94792V10.0521C1.041 11.7757 1.04099 13.1398 1.20042 14.2071C1.36524 15.3104 1.71169 16.1853 2.4683 16.8662C3.21548 17.5387 4.15953 17.8389 5.35231 17.9832C6.52447 18.125 8.0285 18.125 9.95586 18.125H10.0428C11.9702 18.125 13.4742 18.125 14.6464 17.9832C15.8392 17.8389 16.7832 17.5387 17.5304 16.8662C18.287 16.1853 18.6335 15.3104 18.7983 14.2071C18.9577 13.1398 18.9577 11.7757 18.9577 10.0521V9.94789C18.9577 8.22434 18.9577 6.86017 18.7983 5.79289C18.6335 4.68956 18.287 3.81474 17.5304 3.13379C16.7832 2.46133 15.8392 2.16115 14.6464 2.01682C13.4742 1.87499 11.9702 1.87499 10.0428 1.875ZM3.30451 4.06291C3.77772 3.63702 4.42596 3.38803 5.50246 3.25777C6.59079 3.12608 8.01922 3.125 9.99935 3.125C11.9795 3.125 13.4079 3.12608 14.4962 3.25777C15.5727 3.38803 16.221 3.63702 16.6942 4.06291C17.158 4.48031 17.4217 5.03855 17.562 5.97757C17.7061 6.94191 17.7077 8.21266 17.7077 10C17.7077 11.7873 17.7061 13.0581 17.562 14.0224C17.4217 14.9615 17.158 15.5197 16.6942 15.9371C16.221 16.363 15.5727 16.612 14.4962 16.7422C13.4079 16.8739 11.9795 16.875 9.99935 16.875C8.01922 16.875 6.59079 16.8739 5.50246 16.7422C4.42596 16.612 3.77772 16.363 3.30451 15.9371C2.84073 15.5197 2.57698 14.9615 2.43671 14.0224C2.29265 13.0581 2.29102 11.7873 2.29102 10C2.29102 8.21266 2.29265 6.94191 2.43671 5.97757C2.57698 5.03855 2.84073 4.48031 3.30451 4.06291Z" fill="#696C68"/>
</svg>
