<svg width="30" height="30" viewBox="0 0 30 30" fill="none" xmlns="http://www.w3.org/2000/svg">
<g clip-path="url(#clip0_147_9677)">
<path d="M29.0858 8.77979V28.0499C29.0858 29.0171 28.3018 29.8008 27.3349 29.8008H7.85341C6.88627 29.8008 6.10254 29.0167 6.10254 28.0499V23.7249V1.91493C6.10254 0.948118 6.88627 0.164062 7.85341 0.164062H20.4704C23.1934 0.208518 29.0858 5.43643 29.0858 8.77979Z" fill="#E2E2E2"/>
<path d="M6.10217 12.0316H21.7997C23.0544 12.0316 24.0716 13.0488 24.0716 14.3034V21.4534C24.0716 22.708 23.0544 23.7252 21.7997 23.7252H3.15463C1.90001 23.7252 0.882812 22.708 0.882812 21.4534V9.75977" fill="#F15642"/>
<path d="M0.882812 9.76115C0.882812 11.0158 1.90001 12.033 3.15463 12.033H6.10184V7.625H3.15463C1.90001 7.625 0.882812 8.6422 0.882812 9.89682" fill="#BE4030"/>
<path d="M7.44498 14.9629H5.04375C4.77076 14.9629 4.5498 15.1838 4.5498 15.4568V18.7215V20.9574C4.5498 21.2301 4.77076 21.4514 5.04375 21.4514C5.31674 21.4514 5.5377 21.2301 5.5377 20.9574V19.2154H7.44498C8.27942 19.2154 8.95843 18.5364 8.95843 17.702V16.476C8.95876 15.6416 8.27975 14.9629 7.44498 14.9629ZM7.97087 17.702C7.97087 17.9918 7.73509 18.2275 7.44531 18.2275H5.53802V15.9508H7.44531C7.73509 15.9508 7.97087 16.1866 7.97087 16.4763V17.702Z" fill="white"/>
<path d="M13.294 14.9629H10.9979C10.7249 14.9629 10.5039 15.1838 10.5039 15.4568V20.9574C10.5039 21.2301 10.7249 21.4514 10.9979 21.4514H13.294C14.1864 21.4514 14.9125 20.7253 14.9125 19.8329V16.5811C14.9125 15.6887 14.1864 14.9629 13.294 14.9629ZM13.9246 19.8329C13.9246 20.1806 13.6418 20.4635 13.294 20.4635H11.4918V15.9508H13.294C13.6418 15.9508 13.9246 16.2333 13.9246 16.5811V19.8329Z" fill="white"/>
<path d="M20.4889 14.9629H17.0682C16.7955 14.9629 16.5742 15.1838 16.5742 15.4568V20.9574C16.5742 21.2301 16.7955 21.4514 17.0682 21.4514C17.3408 21.4514 17.5621 21.2301 17.5621 20.9574V18.7007H19.3087C19.5814 18.7007 19.8026 18.4795 19.8026 18.2068C19.8026 17.9341 19.5814 17.7128 19.3087 17.7128H17.5621V15.9505H20.4889C20.7616 15.9505 20.9828 15.7292 20.9828 15.4565C20.9828 15.1838 20.7616 14.9629 20.4889 14.9629Z" fill="white"/>
<path d="M20.4688 0.164062H22.6625C23.5931 0.164062 24.4855 0.533863 25.1434 1.1918L28.0567 4.10509C28.7147 4.76302 29.0845 5.65542 29.0845 6.58601V8.77979C29.0845 7.65392 28.1717 6.74144 27.0461 6.74144H24.4559C23.3797 6.74144 22.5074 5.86913 22.5074 4.79299V2.20274C22.5071 1.07687 21.5946 0.164062 20.4688 0.164062Z" fill="#B7B7B7"/>
</g>
<defs>
<clipPath id="clip0_147_9677">
<rect width="30" height="30" fill="white"/>
</clipPath>
</defs>
</svg>
