<svg width="20" height="20" viewBox="0 0 20 20" fill="none" xmlns="http://www.w3.org/2000/svg">
<path d="M14.5837 8.54102C14.2385 8.54102 13.9587 8.82084 13.9587 9.16602C13.9587 9.51119 14.2385 9.79102 14.5837 9.79102H15.417C15.7622 9.79102 16.042 9.51119 16.042 9.16602C16.042 8.82084 15.7622 8.54102 15.417 8.54102H14.5837Z" fill="#696C68"/>
<path d="M14.5837 11.8743C14.2385 11.8743 13.9587 12.1542 13.9587 12.4993C13.9587 12.8445 14.2385 13.1243 14.5837 13.1243H15.417C15.7622 13.1243 16.042 12.8445 16.042 12.4993C16.042 12.1542 15.7622 11.8743 15.417 11.8743H14.5837Z" fill="#696C68"/>
<path fill-rule="evenodd" clip-rule="evenodd" d="M6.62126 1.04102H6.71272C7.85236 1.041 8.77096 1.04099 9.49343 1.13812C10.2435 1.23897 10.8751 1.45471 11.3767 1.9563C11.8783 2.4579 12.094 3.08946 12.1949 3.83956C12.275 4.43534 12.289 5.1645 12.2915 6.04102L15.0437 6.04102C15.7924 6.04099 16.4167 6.04097 16.9124 6.10761C17.4355 6.17795 17.9079 6.33267 18.2874 6.71223C18.667 7.09178 18.8217 7.56412 18.8921 8.08729C18.9587 8.58294 18.9587 9.2073 18.9587 9.95602V15.0427C18.9587 15.7914 18.9587 16.4158 18.8921 16.9114C18.8217 17.4346 18.667 17.9069 18.2874 18.2865C17.9079 18.666 17.4355 18.8207 16.9124 18.8911C16.4167 18.9577 15.7924 18.9577 15.0437 18.9577H11.667C11.3218 18.9577 11.042 18.6779 11.042 18.3327V6.66602C11.042 5.46983 11.0407 4.63558 10.956 4.00612C10.8738 3.39464 10.7234 3.07083 10.4928 2.8402C10.2622 2.60956 9.93834 2.45918 9.32687 2.37697C8.69741 2.29234 7.86316 2.29102 6.66699 2.29102C5.47081 2.29102 4.63655 2.29234 4.00709 2.37697C3.39561 2.45918 3.0718 2.60956 2.84117 2.84019C2.61053 3.07083 2.46016 3.39464 2.37795 4.00612C2.29332 4.63558 2.29199 5.46984 2.29199 6.66602V8.33268C2.29199 8.67786 2.01217 8.95768 1.66699 8.95768C1.32182 8.95768 1.04199 8.67786 1.04199 8.33268V6.62029C1.04198 5.48063 1.04196 4.56203 1.1391 3.83956C1.23994 3.08947 1.45569 2.45791 1.95729 1.95631C2.45888 1.45471 3.09044 1.23897 3.84053 1.13812C4.563 1.04099 5.48161 1.041 6.62126 1.04102ZM12.292 7.29102V17.7077H15.0003C15.8037 17.7077 16.3433 17.7064 16.7458 17.6522C17.1304 17.6005 17.2949 17.5112 17.4036 17.4026C17.5122 17.294 17.6015 17.1294 17.6532 16.7448C17.7073 16.3423 17.7087 15.8027 17.7087 14.9993V9.99935C17.7087 9.19601 17.7073 8.65638 17.6532 8.25385C17.6015 7.8693 17.5122 7.70472 17.4036 7.59612C17.295 7.48752 17.1304 7.39816 16.7458 7.34646C16.3433 7.29234 15.8037 7.29102 15.0003 7.29102H12.292Z" fill="#696C68"/>
<path d="M4.58366 4.37435C4.23848 4.37435 3.95866 4.65417 3.95866 4.99935C3.95866 5.34453 4.23848 5.62435 4.58366 5.62435H5.41699C5.76217 5.62435 6.04199 5.34453 6.04199 4.99935C6.04199 4.65417 5.76217 4.37435 5.41699 4.37435H4.58366Z" fill="#696C68"/>
<path d="M7.91699 4.37435C7.57181 4.37435 7.29199 4.65417 7.29199 4.99935C7.29199 5.34453 7.57181 5.62435 7.91699 5.62435H8.75033C9.0955 5.62435 9.37533 5.34453 9.37533 4.99935C9.37533 4.65417 9.0955 4.37435 8.75033 4.37435H7.91699Z" fill="#696C68"/>
<path d="M4.58366 6.87435C4.23848 6.87435 3.95866 7.15417 3.95866 7.49935C3.95866 7.84453 4.23848 8.12435 4.58366 8.12435H5.41699C5.76217 8.12435 6.04199 7.84453 6.04199 7.49935C6.04199 7.15417 5.76217 6.87435 5.41699 6.87435H4.58366Z" fill="#696C68"/>
<path d="M7.91699 6.87435C7.57181 6.87435 7.29199 7.15417 7.29199 7.49935C7.29199 7.84453 7.57181 8.12435 7.91699 8.12435H8.75033C9.0955 8.12435 9.37533 7.84453 9.37533 7.49935C9.37533 7.15417 9.0955 6.87435 8.75033 6.87435H7.91699Z" fill="#696C68"/>
<path fill-rule="evenodd" clip-rule="evenodd" d="M5.02109 9.33773C3.7559 9.33773 2.72948 10.3628 2.72948 11.6281C2.72948 12.8935 3.7559 13.9185 5.02109 13.9185C6.28629 13.9185 7.31271 12.8935 7.31271 11.6281C7.31271 10.3628 6.28629 9.33773 5.02109 9.33773ZM3.97948 11.6281C3.97948 11.054 4.4454 10.5877 5.02109 10.5877C5.59679 10.5877 6.06271 11.054 6.06271 11.6281C6.06271 12.2023 5.59679 12.6685 5.02109 12.6685C4.4454 12.6685 3.97948 12.2023 3.97948 11.6281Z" fill="#696C68"/>
<path fill-rule="evenodd" clip-rule="evenodd" d="M5.02174 14.3519C3.8247 14.3506 2.21307 14.9438 1.20116 16.5005C1.05184 16.7302 0.965468 17.0912 1.15961 17.4352C1.29869 17.6817 1.55183 18.0017 1.83036 18.2682C1.97238 18.4041 2.13557 18.5401 2.30992 18.6497C2.47672 18.7545 2.6973 18.8629 2.94706 18.8894C3.51539 18.9498 4.97721 18.9574 5.0189 18.9576L5.02611 18.9576C5.06816 18.9574 6.48622 18.9498 7.05408 18.8894C7.30384 18.8629 7.52443 18.7545 7.69122 18.6497C7.86557 18.5401 8.02876 18.4041 8.17078 18.2682C8.44932 18.0017 8.70245 17.6817 8.84154 17.4352C9.03567 17.0912 8.9493 16.7302 8.79998 16.5005C7.79116 14.9485 6.22404 14.3531 5.02174 14.3519ZM2.69446 17.365C2.56824 17.2442 2.45614 17.1142 2.37236 17.0039C3.12632 15.9811 4.23471 15.6011 5.02044 15.6019C5.80132 15.6027 6.87595 15.9771 7.62894 17.0037C7.54515 17.114 7.43299 17.2441 7.30669 17.365C7.20501 17.4622 7.10847 17.5396 7.02621 17.5913C6.96265 17.6312 6.92758 17.6432 6.91906 17.6461C6.91767 17.6466 6.91698 17.6468 6.917 17.6469C6.91698 17.6469 6.917 17.6469 6.917 17.6469C6.4279 17.698 5.11684 17.707 5.02207 17.7076C4.92517 17.707 3.5735 17.698 3.08414 17.6469C3.08416 17.6468 3.08348 17.6466 3.08208 17.6461C3.07356 17.6432 3.03849 17.6312 2.97494 17.5913C2.89267 17.5396 2.79613 17.4622 2.69446 17.365ZM6.917 17.6469C6.91712 17.6469 6.91759 17.6469 6.91834 17.6468C6.91916 17.6467 6.92037 17.6466 6.92195 17.6464C6.92032 17.6466 6.91865 17.6467 6.917 17.6469Z" fill="#696C68"/>
</svg>
