<svg width="8" height="9" viewBox="0 0 8 9" fill="none" xmlns="http://www.w3.org/2000/svg">
<path d="M4.83859 1.28698L4.75697 1.23648C4.10029 0.830216 3.5493 0.489336 3.0922 0.27763C2.62863 0.062933 2.10004 -0.0990862 1.5488 0.0710071C1.18447 0.183424 0.8608 0.39441 0.605184 0.675232C0.23329 1.0838 0.110712 1.61777 0.0552469 2.15146C-2.75038e-05 2.68332 -1.48711e-05 3.37043 5.10867e-07 4.20715V4.2931C-1.48711e-05 5.12983 -2.75038e-05 5.81695 0.0552469 6.34881C0.110712 6.8825 0.23329 7.41648 0.605184 7.82504C0.8608 8.10586 1.18447 8.31685 1.5488 8.42927C2.10004 8.59936 2.62863 8.43734 3.0922 8.22264C3.5493 8.01094 4.10029 7.67006 4.75696 7.2638L4.83859 7.2133C5.5203 6.79161 6.08867 6.44003 6.50051 6.11245C6.92447 5.77522 7.29785 5.37665 7.43212 4.82112C7.52263 4.44662 7.52263 4.05365 7.43212 3.67916C7.29785 3.12363 6.92447 2.72505 6.50051 2.38782C6.08867 2.06024 5.52031 1.70867 4.83859 1.28698Z" fill="white"/>
</svg>
