<svg width="20" height="20" viewBox="0 0 20 20" fill="none" xmlns="http://www.w3.org/2000/svg">
<path fill-rule="evenodd" clip-rule="evenodd" d="M9.99992 1.45898C5.28249 1.45898 1.45825 5.28322 1.45825 10.0007C1.45825 14.7181 5.28249 18.5423 9.99992 18.5423C14.7174 18.5423 18.5416 14.7181 18.5416 10.0007C18.5416 5.28322 14.7174 1.45898 9.99992 1.45898ZM0.208252 10.0007C0.208252 4.59286 4.59213 0.208984 9.99992 0.208984C15.4077 0.208984 19.7916 4.59286 19.7916 10.0007C19.7916 15.4084 15.4077 19.7923 9.99992 19.7923C4.59213 19.7923 0.208252 15.4084 0.208252 10.0007Z" fill="#696C68"/>
<path d="M4.22681 11.375C4.22681 12.6278 4.97542 13.3611 6.30458 13.3611C7.80181 13.3611 8.48931 12.6049 8.48931 10.9472V6.23403C8.48931 6.03574 8.32856 5.875 8.13028 5.875C7.93199 5.875 7.77125 6.03574 7.77125 6.23403V10.9472C7.77125 12.0549 7.45806 12.4368 6.57195 12.4368H6.04486C5.29625 12.4368 4.83792 12.009 4.83792 11.2681C4.83792 10.9887 4.91772 10.6384 5.04018 10.2983C5.10095 10.1295 5.01453 9.93876 4.8428 9.88679C4.69676 9.8426 4.54004 9.91559 4.48841 10.0592C4.32472 10.5144 4.22681 10.9882 4.22681 11.375Z" fill="#696C68"/>
<path d="M9.53631 10.1833C9.53631 11.1535 9.94117 11.5278 10.9419 11.5278H11.3032C12.3802 11.5278 12.8921 11.0694 12.8921 10.1146C12.8921 9.88542 12.8615 9.55694 12.8004 9.15208L12.7505 8.81852C12.7233 8.63631 12.5525 8.5114 12.3706 8.54068C12.1873 8.57017 12.0641 8.74468 12.0977 8.9273L12.1587 9.25903C12.2275 9.69444 12.2504 9.93889 12.2504 10.1146C12.2504 10.5347 11.9983 10.6646 11.3032 10.6646H11.1405H10.8884C10.4377 10.6646 10.2467 10.5347 10.2467 10.1146V6.23021C10.2467 6.03403 10.0877 5.875 9.89152 5.875C9.69534 5.875 9.53631 6.03403 9.53631 6.23021V10.1833Z" fill="#696C68"/>
<path d="M11.2726 12.9257C11.2726 13.2236 11.4254 13.3611 11.6546 13.3611H11.7691C11.9983 13.3611 12.1587 13.2236 12.1587 12.9257C12.1587 12.6201 11.9983 12.4903 11.7691 12.4903H11.6546C11.4254 12.4903 11.2726 12.6201 11.2726 12.9257Z" fill="#696C68"/>
<path d="M10.1955 12.9257C10.1955 13.2236 10.3483 13.3611 10.5775 13.3611H10.6921C10.9212 13.3611 11.0816 13.2236 11.0816 12.9257C11.0816 12.6201 10.9212 12.4903 10.6921 12.4903H10.5775C10.3483 12.4903 10.1955 12.6201 10.1955 12.9257Z" fill="#696C68"/>
<path d="M13.5117 12.7882V13.0632C13.5117 13.2277 13.6451 13.3611 13.8096 13.3611C15.2457 13.3611 15.8186 12.3757 15.8186 11.1153C15.8186 10.7562 15.7728 10.3285 15.6888 9.84722L15.6376 9.54021C15.607 9.35641 15.4315 9.23353 15.2483 9.26761C15.0691 9.30096 14.95 9.47225 14.9811 9.65188L15.0853 10.2521C15.1311 10.55 15.1693 10.8479 15.1693 11.1229C15.1693 11.9479 14.8332 12.4979 13.802 12.4979C13.6417 12.4979 13.5117 12.6279 13.5117 12.7882Z" fill="#696C68"/>
<path fill-rule="evenodd" clip-rule="evenodd" d="M4.65186 12.9586C4.25822 12.5798 4.0603 12.0354 4.0603 11.3757C4.0603 10.9643 4.16364 10.4709 4.33174 10.0034C4.41527 9.77113 4.66569 9.65967 4.89124 9.72792C5.16202 9.80987 5.28745 10.1046 5.19715 10.3554C5.07802 10.6863 5.00475 11.0162 5.00475 11.2687C5.00475 11.6042 5.10762 11.849 5.27617 12.0106C5.44569 12.1732 5.70187 12.2708 6.04502 12.2708H6.57211C6.99599 12.2708 7.23244 12.179 7.37443 12.0033C7.52499 11.817 7.60475 11.496 7.60475 10.9479V6.23468C7.60475 5.94435 7.84011 5.70898 8.13044 5.70898C8.42077 5.70898 8.65614 5.94435 8.65614 6.23468V10.9479C8.65614 11.7951 8.48118 12.4478 8.08208 12.8883C7.67974 13.3324 7.07955 13.5284 6.30475 13.5284C5.61037 13.5284 5.04463 13.3365 4.65186 12.9586ZM9.74924 11.3409C9.47394 11.0795 9.36981 10.687 9.36981 10.184V6.23086C9.36981 5.94264 9.60346 5.70898 9.89168 5.70898C10.1799 5.70898 10.4136 5.94264 10.4136 6.23086V10.1152C10.4136 10.3043 10.4568 10.38 10.5041 10.4187C10.5608 10.4649 10.6699 10.4986 10.8886 10.4986H11.3033C11.6509 10.4986 11.8473 10.4641 11.9554 10.4028C12.0034 10.3756 12.0317 10.3442 12.0503 10.3058C12.0703 10.2645 12.0839 10.2048 12.0839 10.1152C12.0839 9.95326 12.0627 9.71976 11.9946 9.28774L11.934 8.95809C11.8835 8.68352 12.0687 8.42113 12.3443 8.37678C12.6178 8.33277 12.8746 8.52057 12.9155 8.79454L12.9653 9.12786C13.027 9.5361 13.0589 9.87396 13.0589 10.1152C13.0589 10.6216 12.9225 11.0282 12.6125 11.3043C12.3065 11.577 11.8613 11.6951 11.3033 11.6951H10.942C10.4275 11.6951 10.0224 11.6002 9.74924 11.3409ZM12.8005 9.15273L12.7507 8.81917C12.7235 8.63696 12.5527 8.51206 12.3708 8.54133C12.1875 8.57083 12.0643 8.74533 12.0979 8.92795L12.1589 9.25968C12.2276 9.6951 12.2505 9.93954 12.2505 10.1152C12.2505 10.5354 11.9985 10.6652 11.3033 10.6652H10.8886C10.4379 10.6652 10.2469 10.5354 10.2469 10.1152V6.23086C10.2469 6.03468 10.0879 5.87565 9.89168 5.87565C9.69551 5.87565 9.53647 6.03468 9.53647 6.23086V10.184C9.53647 11.1541 9.94134 11.5284 10.942 11.5284H11.3033C12.3804 11.5284 12.8922 11.0701 12.8922 10.1152C12.8922 9.88607 12.8617 9.5576 12.8005 9.15273ZM11.1762 12.5941C11.1539 12.5514 11.1261 12.5124 11.0924 12.4778C10.9836 12.366 10.8376 12.3243 10.6922 12.3243H10.5776C10.432 12.3243 10.2869 12.3662 10.1796 12.4795C10.0737 12.5915 10.029 12.7477 10.029 12.9263C10.029 13.1022 10.0743 13.2574 10.1789 13.3695C10.2849 13.4831 10.4295 13.5284 10.5776 13.5284H10.6922C10.8401 13.5284 10.9855 13.4834 11.0932 13.3712C11.1264 13.3366 11.154 13.2977 11.1762 13.2552C11.1975 13.2969 11.224 13.3352 11.256 13.3695C11.362 13.4831 11.5066 13.5284 11.6547 13.5284H11.7693C11.9172 13.5284 12.0626 13.4834 12.1703 13.3712C12.2773 13.2597 12.3255 13.1043 12.3255 12.9263C12.3255 12.7457 12.2778 12.5892 12.1695 12.4778C12.0607 12.366 11.9147 12.3243 11.7693 12.3243H11.6547C11.5091 12.3243 11.3639 12.3662 11.2567 12.4795C11.2243 12.5138 11.1976 12.5522 11.1762 12.5941ZM13.3452 13.0638V12.7888C13.3452 12.5365 13.5498 12.3319 13.8021 12.3319C14.2893 12.3319 14.5773 12.2026 14.7477 12.01C14.9218 11.8133 15.0028 11.5179 15.0028 11.1236C15.0028 10.8626 14.9665 10.5759 14.921 10.2796L14.8171 9.68103C14.7703 9.41149 14.949 9.15445 15.218 9.10441C15.4929 9.05326 15.7562 9.23766 15.8022 9.51346L15.8531 9.81921C15.8531 9.81899 15.8532 9.81942 15.8531 9.81921C15.938 10.3056 15.9855 10.7441 15.9855 11.1159C15.9855 11.7681 15.8377 12.3717 15.483 12.8155C15.1235 13.2656 14.5695 13.5284 13.8098 13.5284C13.5532 13.5284 13.3452 13.3204 13.3452 13.0638ZM15.6889 9.84787L15.6378 9.54086C15.6071 9.35706 15.4316 9.23418 15.2485 9.26826C15.0692 9.30161 14.9501 9.4729 14.9813 9.65253L15.0855 10.2527C15.1313 10.5507 15.1695 10.8486 15.1695 11.1236C15.1695 11.9486 14.8334 12.4986 13.8021 12.4986C13.6418 12.4986 13.5119 12.6285 13.5119 12.7888V13.0638C13.5119 13.2284 13.6452 13.3618 13.8098 13.3618C15.2459 13.3618 15.8188 12.3763 15.8188 11.1159C15.8188 10.7569 15.773 10.3291 15.6889 9.84787ZM4.22697 11.3757C4.22697 12.6284 4.97558 13.3618 6.30475 13.3618C7.80197 13.3618 8.48947 12.6055 8.48947 10.9479V6.23468C8.48947 6.03639 8.32873 5.87565 8.13044 5.87565C7.93216 5.87565 7.77141 6.03639 7.77141 6.23468V10.9479C7.77141 12.0555 7.45822 12.4375 6.57211 12.4375H6.04502C5.29641 12.4375 4.83808 12.0097 4.83808 11.2687C4.83808 10.9894 4.91788 10.6391 5.04034 10.2989C5.10111 10.1301 5.01469 9.93941 4.84296 9.88744C4.69692 9.84325 4.5402 9.91624 4.48858 10.0598C4.32488 10.5151 4.22697 10.9889 4.22697 11.3757ZM11.6547 13.3618C11.4255 13.3618 11.2728 13.2243 11.2728 12.9263C11.2728 12.6208 11.4255 12.4909 11.6547 12.4909H11.7693C11.9985 12.4909 12.1589 12.6208 12.1589 12.9263C12.1589 13.2243 11.9985 13.3618 11.7693 13.3618H11.6547ZM10.1957 12.9263C10.1957 13.2243 10.3485 13.3618 10.5776 13.3618H10.6922C10.9214 13.3618 11.0818 13.2243 11.0818 12.9263C11.0818 12.6208 10.9214 12.4909 10.6922 12.4909H10.5776C10.3485 12.4909 10.1957 12.6208 10.1957 12.9263Z" fill="#696C68"/>
</svg>
