<svg width="20" height="20" viewBox="0 0 20 20" fill="none" xmlns="http://www.w3.org/2000/svg">
<path d="M9.37492 10.8333C9.37492 11.1783 9.65492 11.4583 9.99992 11.4583C10.3449 11.4583 10.6249 11.1783 10.6249 10.8333V9.16667C10.6249 8.82167 10.3449 8.54167 9.99992 8.54167C9.65492 8.54167 9.37492 8.82167 9.37492 9.16667V10.8333Z" fill="#696C68"/>
<path d="M9.99992 6.875C9.65492 6.875 9.37492 6.595 9.37492 6.25V4.58333C9.37492 4.23833 9.65492 3.95833 9.99992 3.95833C10.3449 3.95833 10.6249 4.23833 10.6249 4.58333V6.25C10.6249 6.595 10.3449 6.875 9.99992 6.875Z" fill="#696C68"/>
<path d="M9.37492 15.4167C9.37492 15.7617 9.65492 16.0417 9.99992 16.0417C10.3449 16.0417 10.6249 15.7617 10.6249 15.4167V13.75C10.6249 13.405 10.3449 13.125 9.99992 13.125C9.65492 13.125 9.37492 13.405 9.37492 13.75V15.4167Z" fill="#696C68"/>
<path fill-rule="evenodd" clip-rule="evenodd" d="M3.86662 17.8C5.02412 18.9583 6.68742 18.9583 9.99992 18.9583L10.0015 18.96C13.3138 18.96 14.9766 18.96 16.1349 17.8017L16.1316 17.7983C17.2899 16.6408 17.29 14.9775 17.29 11.665V8.33171C17.29 5.01921 17.2899 3.35666 16.1316 2.19832C14.9741 1.04004 13.3109 1.04004 9.99871 1.04004H9.99787C6.68565 1.04004 5.02319 1.04004 3.86491 2.19832L3.86662 2.20003C2.70828 3.35753 2.70825 5.02083 2.70825 8.33333V11.6667C2.70825 14.9792 2.70828 16.6416 3.86662 17.8ZM4.75073 3.08415L4.74911 3.08252C5.54161 2.29085 7.03077 2.29085 9.99911 2.29085C12.9674 2.29085 14.4574 2.29085 15.2491 3.08252C16.0408 3.87502 16.0408 5.36419 16.0408 8.33252V11.6659C16.0408 14.6342 16.0408 16.1242 15.2491 16.9159L15.2507 16.9175C14.4582 17.7091 12.9691 17.7091 10.0007 17.7091C7.0324 17.7091 5.5424 17.7091 4.75073 16.9175C3.95907 16.125 3.95907 14.6358 3.95907 11.6675V8.33415C3.95907 5.36581 3.95907 3.87581 4.75073 3.08415Z" fill="#696C68"/>
</svg>
