<svg width="16" height="16" viewBox="0 0 16 16" fill="none" xmlns="http://www.w3.org/2000/svg">
<path fill-rule="evenodd" clip-rule="evenodd" d="M5.99992 0.832031C3.14645 0.832031 0.833252 3.14523 0.833252 5.9987C0.833252 8.85217 3.14645 11.1654 5.99992 11.1654C7.24658 11.1654 8.39012 10.7238 9.28268 9.98861L10.3093 11.0152C10.048 11.5668 10.1455 12.246 10.6019 12.7024L12.6296 14.7301C13.21 15.3105 14.1509 15.3105 14.7313 14.7301C15.3117 14.1497 15.3117 13.2087 14.7313 12.6284L12.7036 10.6006C12.2473 10.1443 11.568 10.0468 11.0163 10.3081L9.9898 9.28151C10.725 8.38894 11.1666 7.24538 11.1666 5.9987C11.1666 3.14523 8.85339 0.832031 5.99992 0.832031ZM1.83325 5.9987C1.83325 3.69751 3.69873 1.83203 5.99992 1.83203C8.30111 1.83203 10.1666 3.69751 10.1666 5.9987C10.1666 8.29988 8.30111 10.1654 5.99992 10.1654C3.69873 10.1654 1.83325 8.29988 1.83325 5.9987ZM11.9965 11.3078C11.8066 11.1179 11.4988 11.1179 11.309 11.3078C11.1191 11.4976 11.1191 11.8054 11.309 11.9953L13.3367 14.023C13.5265 14.2128 13.8343 14.2128 14.0242 14.023C14.214 13.8331 14.214 13.5253 14.0242 13.3355L11.9965 11.3078Z" fill="#9DA4AE"/>
</svg>
