<svg width="20" height="20" viewBox="0 0 20 20" fill="none" xmlns="http://www.w3.org/2000/svg">
<path fill-rule="evenodd" clip-rule="evenodd" d="M7.08264 6.45866C5.93204 6.45866 4.9993 7.3914 4.9993 8.54199C4.9993 9.69259 5.93204 10.6253 7.08264 10.6253C8.23323 10.6253 9.16597 9.69259 9.16597 8.54199C9.16597 7.3914 8.23323 6.45866 7.08264 6.45866ZM6.2493 8.54199C6.2493 8.08176 6.6224 7.70866 7.08264 7.70866C7.54287 7.70866 7.91597 8.08176 7.91597 8.54199C7.91597 9.00223 7.54287 9.37533 7.08264 9.37533C6.6224 9.37533 6.2493 9.00223 6.2493 8.54199Z" fill="#696C68"/>
<path d="M4.66615 13.2927C5.19906 12.5847 6.11592 12.18 7.07854 12.1695C8.03778 12.1591 8.95131 12.5405 9.49538 13.2855C9.69896 13.5642 10.09 13.6252 10.3687 13.4216C10.6475 13.2181 10.7084 12.827 10.5049 12.5483C9.67718 11.4149 8.34431 10.9057 7.06496 10.9196C5.78899 10.9335 4.47505 11.468 3.66742 12.541C3.45985 12.8168 3.51515 13.2087 3.79094 13.4163C4.06673 13.6238 4.45858 13.5685 4.66615 13.2927Z" fill="#696C68"/>
<path d="M11.8751 7.91699C11.8751 7.57181 12.1549 7.29199 12.5001 7.29199H15.8334C16.1786 7.29199 16.4584 7.57181 16.4584 7.91699C16.4584 8.26217 16.1786 8.54199 15.8334 8.54199H12.5001C12.1549 8.54199 11.8751 8.26217 11.8751 7.91699Z" fill="#696C68"/>
<path d="M12.5001 10.6253C12.1549 10.6253 11.8751 10.9051 11.8751 11.2503C11.8751 11.5955 12.1549 11.8753 12.5001 11.8753H14.1667C14.5119 11.8753 14.7917 11.5955 14.7917 11.2503C14.7917 10.9051 14.5119 10.6253 14.1667 10.6253H12.5001Z" fill="#696C68"/>
<path fill-rule="evenodd" clip-rule="evenodd" d="M18.9584 10.0451V9.95556C18.9584 8.324 18.9584 7.03934 18.8314 6.0357C18.7015 5.00858 18.429 4.18125 17.8122 3.52597C17.1905 2.86534 16.3969 2.56853 15.4127 2.42794C14.4608 2.29196 13.2456 2.29198 11.7163 2.29199H8.28383C6.75457 2.29198 5.53934 2.29196 4.58746 2.42794C3.60325 2.56853 2.80971 2.86534 2.18793 3.52597C1.5712 4.18125 1.2987 5.00857 1.16873 6.03569C1.04173 7.03937 1.04174 8.32396 1.04175 9.95558V10.0451C1.04174 11.6767 1.04173 12.9613 1.16873 13.965C1.2987 14.9921 1.5712 15.8194 2.18793 16.4747C2.80971 17.1353 3.60325 17.4321 4.58746 17.5727C5.53933 17.7087 6.75455 17.7087 8.28381 17.7087H11.7164C13.2456 17.7087 14.4608 17.7087 15.4127 17.5727C16.3969 17.4321 17.1905 17.1353 17.8122 16.4747C18.429 15.8194 18.7015 14.9921 18.8314 13.965C18.9584 12.9613 18.9584 11.6767 18.9584 10.0451ZM16.902 4.38268C17.2616 4.76473 17.4772 5.29085 17.5913 6.19262C17.7072 7.10868 17.7084 8.31411 17.7084 10.0003C17.7084 11.6865 17.7072 12.892 17.5913 13.808C17.4772 14.7098 17.2616 15.2359 16.902 15.618C16.5474 15.9947 16.0672 16.2165 15.2359 16.3353C14.3827 16.4572 13.2568 16.4587 11.6667 16.4587H8.33341C6.74333 16.4587 5.6175 16.4572 4.76423 16.3353C3.93301 16.2165 3.45272 15.9947 3.09818 15.618C2.7386 15.2359 2.52295 14.7098 2.40884 13.808C2.29293 12.892 2.29175 11.6865 2.29175 10.0003C2.29175 8.31411 2.29293 7.10867 2.40884 6.19262C2.52295 5.29084 2.7386 4.76473 3.09818 4.38268C3.45272 4.00598 3.93301 3.78412 4.76423 3.66538C5.61751 3.54349 6.74333 3.54199 8.33341 3.54199L11.6667 3.54199C13.2568 3.54199 14.3827 3.54349 15.2359 3.66538C16.0672 3.78412 16.5474 4.00598 16.902 4.38268Z" fill="#696C68"/>
</svg>
