<svg width="20" height="20" viewBox="0 0 20 20" fill="none" xmlns="http://www.w3.org/2000/svg">
<path d="M7.2915 9.99943C7.2915 8.50366 8.50407 7.2911 9.99984 7.2911C10.3601 7.2911 10.7026 7.36112 11.0153 7.48773C11.3353 7.61725 11.6997 7.46286 11.8292 7.14291C11.9587 6.82295 11.8043 6.45858 11.4843 6.32906C11.0251 6.14316 10.5236 6.0411 9.99984 6.0411C7.81371 6.0411 6.0415 7.8133 6.0415 9.99943C6.0415 10.2653 6.0678 10.5256 6.11812 10.7778L6.12553 10.815C6.1611 10.9944 6.20525 11.217 6.28517 11.398C6.39685 11.6509 6.59415 11.8697 6.91674 11.9674C7.27173 12.075 7.5718 11.9642 7.79298 11.8145C7.96425 11.6986 8.13804 11.5246 8.29329 11.3692L8.77511 10.8873C9.01919 10.6432 9.01919 10.2475 8.77511 10.0034C8.53104 9.75935 8.13531 9.75935 7.89123 10.0034L7.43777 10.4569C7.40489 10.4898 7.37477 10.5199 7.34684 10.5476L7.34395 10.5331C7.30961 10.3611 7.2915 10.1827 7.2915 9.99943Z" fill="#696C68"/>
<path d="M12.5768 9.60797C12.6089 9.5759 12.6384 9.54642 12.6658 9.51917L12.6676 9.52929C12.6942 9.68157 12.7082 9.83862 12.7082 9.99943C12.7082 11.4952 11.4956 12.7078 9.99984 12.7078C9.63953 12.7078 9.29712 12.6377 8.98435 12.5111C8.66439 12.3816 8.30002 12.536 8.1705 12.856C8.04099 13.1759 8.19537 13.5403 8.51533 13.6698C8.97458 13.8557 9.47606 13.9578 9.99984 13.9578C12.186 13.9578 13.9582 12.1856 13.9582 9.99943C13.9582 9.76618 13.9379 9.53715 13.899 9.31414L13.8924 9.27614C13.8606 9.09308 13.8213 8.86648 13.7446 8.68173C13.6977 8.56854 13.6266 8.44228 13.5122 8.32995C13.3946 8.2145 13.2579 8.13979 13.116 8.09495C12.7576 7.98163 12.4531 8.09271 12.229 8.24391C12.0557 8.3609 11.8795 8.5373 11.7217 8.69529L11.2762 9.14082C11.0321 9.3849 11.0321 9.78063 11.2762 10.0247C11.5203 10.2688 11.916 10.2688 12.1601 10.0247L12.5768 9.60797Z" fill="#696C68"/>
<path fill-rule="evenodd" clip-rule="evenodd" d="M7.25157 1.62332C7.01457 1.59139 6.81477 1.66036 6.67875 1.72008C6.5537 1.77498 6.41263 1.85512 6.27578 1.93286L4.79689 2.77253C4.65717 2.85182 4.51402 2.93305 4.40148 3.01315C4.27997 3.09963 4.11578 3.2373 4.02154 3.46009C3.91866 3.7033 3.95185 3.94843 3.97629 4.09022C4.00274 4.24364 4.05163 4.43186 4.10413 4.634L4.11011 4.65702C4.44031 5.92873 3.63372 7.29677 2.32799 7.64883L2.30499 7.65503C2.10744 7.70828 1.92233 7.75817 1.77756 7.81068C1.64212 7.85981 1.41577 7.95203 1.25627 8.16023C1.10969 8.35157 1.07083 8.56126 1.05554 8.70968C1.04143 8.84658 1.04147 9.01033 1.04151 9.16965L1.04151 10.829C1.04147 10.9883 1.04143 11.1521 1.05554 11.289C1.07083 11.4374 1.10968 11.647 1.25625 11.8384C1.41575 12.0466 1.6421 12.1388 1.77752 12.1879C1.92229 12.2405 2.10739 12.2904 2.30494 12.3436L2.32795 12.3498C3.63319 12.7018 4.43926 14.0696 4.10886 15.3415L4.10288 15.3645C4.05035 15.5666 4.00144 15.7548 3.97498 15.9083C3.95052 16.0501 3.91731 16.2952 4.02018 16.5384C4.11442 16.7612 4.27861 16.8989 4.40013 16.9854C4.51269 17.0655 4.65587 17.1468 4.79561 17.2261L6.27444 18.0657C6.41129 18.1434 6.55242 18.2236 6.67746 18.2785C6.8135 18.3382 7.01332 18.4072 7.25033 18.3753C7.50798 18.3405 7.69896 18.1926 7.80877 18.1002C7.92538 18.0021 8.05935 17.8684 8.20181 17.7262L8.21858 17.7095C9.19131 16.7388 10.8097 16.7388 11.7824 17.7094L11.7992 17.7262C11.9417 17.8683 12.0757 18.002 12.1922 18.1001C12.3021 18.1925 12.493 18.3404 12.7507 18.3752C12.9877 18.4071 13.1875 18.3381 13.3236 18.2784C13.4486 18.2235 13.5897 18.1434 13.7265 18.0656L15.2055 17.226C15.3452 17.1467 15.4884 17.0654 15.6009 16.9853C15.7224 16.8988 15.8866 16.7611 15.9809 16.5383C16.0837 16.295 16.0505 16.0499 16.026 15.9081C15.9996 15.7547 15.9506 15.5665 15.8981 15.3645L15.8921 15.3414C15.5615 14.0693 16.367 12.7018 17.6718 12.3498L17.6947 12.3436C17.8923 12.2904 18.0774 12.2404 18.2222 12.1879C18.3576 12.1388 18.584 12.0466 18.7435 11.8384C18.89 11.647 18.9289 11.4373 18.9442 11.2889C18.9583 11.152 18.9582 10.9883 18.9582 10.829V9.16966C18.9582 9.01034 18.9583 8.84659 18.9442 8.70969C18.9289 8.56129 18.89 8.3516 18.7434 8.16027C18.5839 7.95206 18.3576 7.85983 18.2222 7.81071C18.0774 7.75819 17.8923 7.70828 17.6947 7.65502L17.6717 7.64883C16.3665 7.29682 15.5604 5.92902 15.8908 4.65716L15.8968 4.63417C15.9493 4.43205 15.9983 4.24381 16.0247 4.09039C16.0492 3.94859 16.0824 3.70346 15.9795 3.46023C15.8853 3.23743 15.7211 3.09974 15.5996 3.01325C15.487 2.93314 15.3439 2.8519 15.2041 2.77261L13.7252 1.93295C13.5884 1.8552 13.4473 1.77506 13.3223 1.72016C13.1862 1.66044 12.9864 1.59147 12.7494 1.6234C12.4918 1.6581 12.3008 1.80604 12.191 1.8984C12.0744 1.99647 11.9404 2.13016 11.7979 2.27232L11.7811 2.28909C10.8091 3.25883 9.19197 3.25881 8.21988 2.28902L8.20308 2.27226C8.0606 2.13009 7.92661 1.9964 7.81001 1.89833C7.7002 1.80596 7.50921 1.65803 7.25157 1.62332ZM6.87221 3.03165C6.95131 2.98674 7.01345 2.95149 7.06737 2.92224L7.07572 2.91773C7.13865 2.97641 7.22054 3.05772 7.33704 3.17395C8.79702 4.63047 11.2039 4.63054 12.664 3.17403C12.7805 3.0578 12.8624 2.97649 12.9253 2.91781L12.9336 2.92232C12.9876 2.95157 13.0497 2.98682 13.1288 3.03173L14.566 3.84776C14.6466 3.8935 14.7101 3.92955 14.764 3.96154L14.7748 3.96799C14.7551 4.05643 14.7248 4.17437 14.681 4.34286C14.1725 6.30041 15.4009 8.33106 17.3463 8.85571C17.5088 8.89955 17.6227 8.93054 17.7067 8.95633L17.707 8.96722C17.7082 9.02933 17.7082 9.10167 17.7082 9.19365V10.805C17.7082 10.897 17.7082 10.9693 17.707 11.0314L17.7067 11.0423C17.6227 11.0681 17.5088 11.0991 17.3462 11.143C15.4009 11.6677 14.1736 13.6985 14.6823 15.6558C14.7261 15.8242 14.7564 15.9422 14.7761 16.0306L14.7653 16.037C14.7114 16.069 14.6479 16.1051 14.5674 16.1508L13.1301 16.9668C13.051 17.0117 12.9889 17.047 12.9349 17.0763L12.9266 17.0808C12.8637 17.0221 12.7818 16.9408 12.6654 16.8246C11.2047 15.367 8.79628 15.3671 7.33563 16.8246C7.21917 16.9409 7.13731 17.0222 7.0744 17.0808L7.06606 17.0763C7.01214 17.0471 6.94999 17.0118 6.87089 16.9669L5.43364 16.1509C5.35307 16.1051 5.28963 16.0691 5.23573 16.0371L5.2249 16.0307C5.24458 15.9422 5.27493 15.8243 5.3187 15.6558C5.82723 13.6982 4.59882 11.6676 2.65343 11.1429C2.49087 11.0991 2.37702 11.0681 2.29296 11.0423L2.29274 11.0314C2.29154 10.9693 2.29151 10.897 2.29151 10.805L2.29151 9.19365C2.29151 9.10167 2.29154 9.02932 2.29274 8.96721L2.29296 8.95632C2.37702 8.93054 2.49086 8.89956 2.6534 8.85573C4.59884 8.33118 5.82833 6.30067 5.31999 4.34288C5.27623 4.17433 5.24588 4.05637 5.22621 3.96792L5.23706 3.96146C5.29095 3.92947 5.3544 3.89342 5.43496 3.84768L6.87221 3.03165Z" fill="#696C68"/>
</svg>
