<svg width="80" height="80" viewBox="0 0 80 80" fill="none" xmlns="http://www.w3.org/2000/svg">
<path opacity="0.4" d="M19.9475 4.28221C20.2786 4.53934 20.3324 4.99852 20.4399 5.91687L20.7062 8.19063L20.722 8.2857C21.0285 10.1254 21.3368 11.9765 21.7163 13.251C22.1321 14.6478 22.7598 15.9536 23.9697 16.9785C25.1796 18.0035 26.5708 18.4079 28.017 18.5885C29.3593 18.7561 31.009 18.756 32.9056 18.7559H39.5915C41.4881 18.756 43.1378 18.7561 44.4801 18.5885C45.9263 18.4079 47.3175 18.0035 48.5274 16.9785C49.7373 15.9536 50.365 14.6478 50.7808 13.251C51.1618 11.9714 51.4693 10.1254 51.7769 8.27883L51.789 8.20627L52.073 5.90646C52.1858 4.99363 52.2421 4.53722 52.5728 4.28226C52.9035 4.02729 53.3414 4.08644 54.2171 4.20472L54.4012 4.23017C57.8796 4.72244 60.7337 5.76847 62.9781 8.13095C65.2053 10.4754 66.1757 13.4264 66.6354 17.0253C67.0828 20.5279 67.0827 25.001 67.0827 30.6388L67.0811 44.3049C67.081 44.9306 67.081 45.2435 66.9319 45.4849C66.7828 45.7264 66.4862 45.875 65.893 46.1723C63.1559 47.5442 60.7081 49.3972 58.6657 51.1883C55.915 53.6006 53.4039 56.345 51.3274 58.8341C51.1459 59.0517 51.0551 59.1605 50.9679 59.2277C50.7113 59.4253 50.4393 59.4834 50.1244 59.4078C50.0173 59.3821 49.8755 59.3128 49.5919 59.1741C48.8515 58.812 48.1357 58.5432 47.46 58.3496L47.4566 58.3486L47.4438 58.345C47.3297 58.312 45.9529 57.9224 44.5892 57.9224C39.9868 57.9224 36.2559 61.6533 36.2559 66.2557C36.2559 69.9945 38.7153 73.1546 42.1068 74.212C42.2245 74.2487 42.2856 74.2584 42.3613 74.3557C42.6831 74.7695 42.3996 75.4226 41.8753 75.4226L31.055 75.4226C25.7203 75.4226 21.4497 75.4227 18.0975 74.9483C14.6191 74.456 11.765 73.41 9.52061 71.0475C7.29342 68.7031 6.32296 65.752 5.86331 62.1532C5.41594 58.6506 5.41597 54.1774 5.41602 48.5397L5.41602 30.6387C5.41597 25.001 5.41594 20.5279 5.86331 17.0253C6.32296 13.4264 7.29343 10.4754 9.52061 8.13095C11.765 5.76847 14.6191 4.72244 18.0975 4.23017L18.2954 4.20285C19.176 4.08434 19.6163 4.02508 19.9475 4.28221Z" fill="#AE6675"/>
<path d="M46.9192 4.10215C47.2157 4.43937 47.152 4.95546 47.0245 5.98763L46.8334 7.5351C46.4952 9.56395 46.2727 10.8649 45.9889 11.8184C45.7225 12.7132 45.4845 12.9976 45.2957 13.1575C45.1069 13.3175 44.7872 13.5055 43.8608 13.6211C42.8652 13.7455 41.5312 13.75 39.4441 13.75L33.0533 13.75C30.9662 13.75 29.6323 13.7455 28.6366 13.6211C27.7103 13.5055 27.3906 13.3175 27.2018 13.1575C27.013 12.9976 26.775 12.7132 26.5086 11.8184C26.2251 10.8661 26.0029 9.56728 25.6654 7.54288L25.4818 5.97531C25.3615 4.94812 25.3014 4.43452 25.5977 4.09966C25.894 3.76479 26.4078 3.76196 27.4356 3.7563C28.5827 3.74998 29.7884 3.74999 31.0532 3.75L41.4439 3.75C42.712 3.74999 43.9227 3.74998 45.0725 3.75635C46.106 3.76207 46.6227 3.76494 46.9192 4.10215Z" fill="#AE6675"/>
<path d="M20.4219 36.25C20.4219 34.8693 21.5412 33.75 22.9219 33.75L49.5885 33.75C50.9693 33.75 52.0885 34.8693 52.0885 36.25C52.0885 37.6307 50.9693 38.75 49.5885 38.75L22.9219 38.75C21.5412 38.75 20.4219 37.6307 20.4219 36.25Z" fill="#AE6675"/>
<path d="M20.4219 52.9167C20.4219 51.536 21.5412 50.4167 22.9219 50.4167L36.2552 50.4167C37.6359 50.4167 38.7552 51.536 38.7552 52.9167C38.7552 54.2974 37.6359 55.4167 36.2552 55.4167L22.9219 55.4167C21.5412 55.4167 20.4219 54.2974 20.4219 52.9167Z" fill="#AE6675"/>
<path d="M72.3615 56.0597C74.0969 55.4451 75.0054 53.5401 74.3908 51.8048C73.7762 50.0694 71.8712 49.1609 70.1359 49.7755C67.2088 50.8122 64.4107 52.7893 61.9553 54.9427C59.4653 57.1264 57.1373 59.6616 55.1597 62.0323C53.6954 63.7876 52.4006 65.4798 51.35 66.9157C50.3875 65.7628 49.4286 64.9202 48.5144 64.3107C47.5997 63.701 46.7636 63.348 46.0707 63.15C46.0346 63.1397 45.9984 63.129 45.9615 63.1181C45.6459 63.0251 45.2814 62.9176 44.582 62.9176C42.7411 62.9176 41.2487 64.41 41.2487 66.2509C41.2487 67.9866 42.5753 69.4125 44.2699 69.5698C44.3454 69.5953 44.5353 69.6704 44.8164 69.8577C45.4806 70.3006 46.7983 71.4704 48.2673 74.4083C48.8045 75.4828 49.8784 76.1851 51.0782 76.2466C52.2778 76.308 53.418 75.7187 54.0623 74.705C54.3555 74.2648 55.2228 72.9636 55.7734 72.1836C56.8769 70.6203 58.4394 68.5079 60.2789 66.3029C62.1248 64.0902 64.2086 61.8338 66.3509 59.955C68.5278 58.0459 70.5827 56.6897 72.3615 56.0597Z" fill="#AE6675"/>
</svg>
