<svg width="40" height="40" viewBox="0 0 40 40" fill="none" xmlns="http://www.w3.org/2000/svg">
<g opacity="0.4">
<path d="M16.6671 3.75C12.2949 3.75 8.75045 7.29441 8.75045 11.6667C8.75045 16.0389 12.2949 19.5833 16.6671 19.5833C21.0394 19.5833 24.5838 16.0389 24.5838 11.6667C24.5838 7.29441 21.0394 3.75 16.6671 3.75Z" fill="#AE6675"/>
<path d="M25.3323 24.4156C20.027 21.3059 13.307 21.3059 8.00171 24.4156C7.83378 24.514 7.62466 24.6301 7.38678 24.7621C6.33238 25.3475 4.71217 26.2469 3.60318 27.3154C2.91071 27.9826 2.22811 28.8839 2.10349 30.0062C1.96996 31.2087 2.5072 32.3184 3.53441 33.2818C5.28455 34.9231 7.39774 36.25 10.135 36.25H23.1991C25.9363 36.25 28.0495 34.9231 29.7996 33.2818C30.8269 32.3184 31.3641 31.2087 31.2306 30.0062C31.1059 28.8839 30.4233 27.9826 29.7309 27.3154C28.6219 26.2469 27.002 25.3477 25.9476 24.7623C25.7096 24.6302 25.5004 24.5141 25.3323 24.4156Z" fill="#AE6675"/>
</g>
<path d="M29.0639 4.42922C29.7376 4.09766 30.5935 3.75 31.666 3.75C32.7385 3.75 33.5946 4.09764 34.2685 4.42913C34.5133 4.54952 34.716 4.65585 34.8945 4.7495L34.8946 4.74953C35.2649 4.94382 35.5313 5.08357 35.8535 5.18119L35.8843 5.19051C36.1042 5.2571 36.3218 5.32299 36.4948 5.38738C36.6366 5.44016 36.972 5.56598 37.2388 5.84758C37.4721 6.09385 37.5795 6.3612 37.6378 6.55538C37.6845 6.71062 37.7176 6.88614 37.7417 7.01322L37.7417 7.01326L37.7471 7.04191C38.4676 10.8369 36.8766 14.5526 32.943 15.9834L32.9075 15.9964C32.5643 16.1214 32.2115 16.25 31.6677 16.25C31.124 16.25 30.7711 16.1214 30.4279 15.9964L30.3925 15.9834C26.459 14.5528 24.8662 10.8374 25.5866 7.04198L25.592 7.01333C25.616 6.88628 25.6492 6.71076 25.6958 6.5555C25.7542 6.36134 25.8615 6.09401 26.0948 5.84775C26.3615 5.56613 26.6969 5.44027 26.8387 5.38749C27.0117 5.32307 27.2293 5.25715 27.4492 5.19052L27.48 5.1812C27.8019 5.08361 28.068 4.94396 28.438 4.74974C28.6165 4.65606 28.8191 4.54969 29.0639 4.42922Z" fill="#AE6675"/>
</svg>
