<svg width="20" height="20" viewBox="0 0 20 20" fill="none" xmlns="http://www.w3.org/2000/svg">
<path fill-rule="evenodd" clip-rule="evenodd" d="M10.0003 1.04102C7.58408 1.04102 5.62533 2.99977 5.62533 5.41602C5.62533 7.83226 7.58408 9.79102 10.0003 9.79102C12.4166 9.79102 14.3753 7.83226 14.3753 5.41602C14.3753 2.99977 12.4166 1.04102 10.0003 1.04102ZM6.87533 5.41602C6.87533 3.69013 8.27444 2.29102 10.0003 2.29102C11.7262 2.29102 13.1253 3.69013 13.1253 5.41602C13.1253 7.14191 11.7262 8.54102 10.0003 8.54102C8.27444 8.54102 6.87533 7.14191 6.87533 5.41602Z" fill="#696C68"/>
<path d="M11.4919 12.6227C9.32562 11.9898 6.94071 12.2632 4.96821 13.4377C4.82829 13.521 4.67498 13.608 4.51439 13.6991C3.92055 14.036 3.22719 14.4293 2.74378 14.9025C2.44367 15.1962 2.31575 15.4386 2.29528 15.6258C2.27903 15.7744 2.31661 16.0195 2.69214 16.3773C3.55534 17.1997 4.43249 17.7077 5.49286 17.7077H13.3338C13.679 17.7077 13.9588 17.9875 13.9588 18.3327C13.9588 18.6778 13.679 18.9577 13.3338 18.9577H5.49286C3.97761 18.9577 2.80612 18.2124 1.82991 17.2823C1.26406 16.7432 0.98201 16.1365 1.05268 15.49C1.11914 14.882 1.48468 14.3858 1.86941 14.0092C2.48454 13.4071 3.38247 12.9005 3.97648 12.5654C4.112 12.4889 4.23178 12.4213 4.32869 12.3636C6.60699 11.007 9.35152 10.6951 11.8424 11.4228C12.1737 11.5196 12.3639 11.8667 12.2671 12.198C12.1703 12.5293 11.8232 12.7195 11.4919 12.6227Z" fill="#696C68"/>
<path d="M15.8337 12.291C15.2103 12.291 14.792 12.7461 14.792 13.2045C14.792 13.5497 14.5122 13.8295 14.167 13.8295C13.8218 13.8295 13.542 13.5497 13.542 13.2045C13.542 11.9635 14.616 11.041 15.8337 11.041C17.0513 11.041 18.1253 11.9635 18.1253 13.2045C18.1253 13.6457 17.985 14.0547 17.749 14.3933C17.6032 14.6023 17.4333 14.8013 17.2781 14.9794L17.194 15.0755C17.0652 15.2228 16.9476 15.3571 16.839 15.4949C16.5678 15.839 16.4587 16.0787 16.4587 16.2814V16.666C16.4587 17.0112 16.1788 17.291 15.8337 17.291C15.4885 17.291 15.2087 17.0112 15.2087 16.666V16.2814C15.2087 15.6345 15.5518 15.1086 15.8573 14.721C15.9878 14.5555 16.1309 14.3922 16.2602 14.2445L16.3358 14.158C16.4903 13.9808 16.6202 13.8266 16.7235 13.6784C16.8218 13.5375 16.8753 13.3758 16.8753 13.2045C16.8753 12.7461 16.457 12.291 15.8337 12.291Z" fill="#696C68"/>
<path d="M15.2005 18.3327C15.2005 17.9875 15.4804 17.7077 15.8255 17.7077H15.833C16.1782 17.7077 16.458 17.9875 16.458 18.3327C16.458 18.6779 16.1782 18.9577 15.833 18.9577H15.8255C15.4804 18.9577 15.2005 18.6779 15.2005 18.3327Z" fill="#696C68"/>
</svg>
