<svg width="20" height="20" viewBox="0 0 20 20" fill="none" xmlns="http://www.w3.org/2000/svg">
<path fill-rule="evenodd" clip-rule="evenodd" d="M9.99976 1.04102C7.58351 1.04102 5.62476 2.99977 5.62476 5.41602C5.62476 7.83226 7.58351 9.79102 9.99976 9.79102C12.416 9.79102 14.3748 7.83226 14.3748 5.41602C14.3748 2.99977 12.416 1.04102 9.99976 1.04102ZM6.87476 5.41602C6.87476 3.69013 8.27387 2.29102 9.99976 2.29102C11.7256 2.29102 13.1248 3.69013 13.1248 5.41602C13.1248 7.14191 11.7256 8.54102 9.99976 8.54102C8.27387 8.54102 6.87476 7.14191 6.87476 5.41602Z" fill="#696C68"/>
<path fill-rule="evenodd" clip-rule="evenodd" d="M15.1905 12.5653C15.0549 12.4889 14.9353 12.4214 14.8383 12.3637C11.8766 10.6001 8.12316 10.6001 5.16146 12.3637C5.06453 12.4214 4.9448 12.4889 4.80924 12.5654C4.21523 12.9005 3.31731 13.4071 2.70217 14.0092C2.31745 14.3858 1.9519 14.882 1.88545 15.49C1.81477 16.1365 2.09683 16.7432 2.66268 17.2823C3.63888 18.2124 4.81037 18.9577 6.32563 18.9577H13.6742C15.1894 18.9577 16.3609 18.2124 17.3371 17.2823C17.903 16.7432 18.185 16.1365 18.1144 15.49C18.0479 14.882 17.6824 14.3858 17.2976 14.0092C16.6825 13.4071 15.7845 12.9005 15.1905 12.5653ZM5.80097 13.4377C8.36862 11.9088 11.6312 11.9088 14.1988 13.4377C14.3387 13.521 14.492 13.608 14.6526 13.6991C15.2465 14.036 15.9399 14.4293 16.4233 14.9025C16.7234 15.1963 16.8513 15.4386 16.8718 15.6258C16.888 15.7744 16.8504 16.0195 16.4749 16.3773C15.6117 17.1997 14.7346 17.7077 13.6742 17.7077H6.32563C5.26525 17.7077 4.38811 17.1997 3.5249 16.3773C3.14937 16.0195 3.1118 15.7744 3.12804 15.6258C3.14851 15.4386 3.27644 15.1963 3.57654 14.9025C4.05995 14.4293 4.7533 14.036 5.34714 13.6991C5.5077 13.608 5.66109 13.521 5.80097 13.4377Z" fill="#696C68"/>
</svg>
