<svg width="40" height="40" viewBox="0 0 40 40" fill="none" xmlns="http://www.w3.org/2000/svg">
<g opacity="0.4">
<path d="M11.368 9.01317C11.2867 8.88184 11.1287 8.85806 10.8125 8.81051C10.5475 8.77066 10.2762 8.75 10.0001 8.75C7.00858 8.75 4.58346 11.1751 4.58346 14.1667C4.58346 17.1582 7.00858 19.5833 10.0001 19.5833C10.9055 19.5833 11.7589 19.3612 12.509 18.9685C12.7919 18.8204 12.9334 18.7463 12.9673 18.5958C13.0013 18.4454 12.8912 18.2991 12.6711 18.0066C11.5173 16.4734 10.8335 14.5666 10.8335 12.5C10.8335 11.5116 10.9899 10.5597 11.2794 9.6678C11.3926 9.31894 11.4492 9.14451 11.368 9.01317Z" fill="#AE6675"/>
<path d="M11.2136 22.6504C11.5582 22.4373 12.0271 22.1688 12.5056 21.9123C13.1366 21.5741 13.452 21.4051 13.4234 21.1778C13.3949 20.9506 13.0716 20.8709 12.4251 20.7115C9.68285 20.0353 6.7461 20.5219 4.28374 22.1713C4.19192 22.2329 4.07243 22.3085 3.93303 22.3968C3.28058 22.8098 2.19112 23.4996 1.45198 24.3135C0.98367 24.8292 0.515421 25.5346 0.430311 26.4105C0.339665 27.3434 0.70515 28.2156 1.41276 28.9741C2.35907 29.9883 3.51222 30.9185 5.21858 31.1782C5.61738 31.2389 5.81678 31.2693 5.93645 31.1452C6.05611 31.0211 6.01133 30.7847 5.92176 30.3118C5.83225 29.8392 5.80754 29.3417 5.86224 28.8221C6.03935 27.1394 6.99095 25.9161 7.71484 25.1803C8.83654 24.0401 10.3892 23.1323 11.2136 22.6504Z" fill="#AE6675"/>
<path d="M27.0336 18.5958C26.9997 18.4454 27.1098 18.2991 27.3299 18.0066C28.4837 16.4734 29.1675 14.5666 29.1675 12.5C29.1675 11.5116 29.0111 10.5597 28.7216 9.6678C28.6084 9.31894 28.5518 9.14451 28.633 9.01317C28.7142 8.88184 28.8723 8.85806 29.1885 8.81051C29.4535 8.77066 29.7248 8.75 30.0009 8.75C32.9924 8.75 35.4175 11.1751 35.4175 14.1667C35.4175 17.1582 32.9924 19.5833 30.0009 19.5833C29.0955 19.5833 28.2421 19.3612 27.492 18.9685C27.209 18.8204 27.0675 18.7463 27.0336 18.5958Z" fill="#AE6675"/>
<path d="M28.7872 22.6504C28.4426 22.4373 27.9736 22.1688 27.4951 21.9123C26.8642 21.5741 26.5487 21.4051 26.5773 21.1778C26.6059 20.9506 26.9292 20.8709 27.5757 20.7115C30.3179 20.0353 33.2547 20.5219 35.717 22.1713C35.8088 22.2329 35.9283 22.3085 36.0677 22.3968C36.7202 22.8098 37.8097 23.4996 38.5488 24.3135C39.0171 24.8292 39.4854 25.5346 39.5705 26.4105C39.6611 27.3434 39.2956 28.2156 38.588 28.9741C37.6417 29.9883 36.4886 30.9185 34.7822 31.1782C34.3834 31.2389 34.184 31.2693 34.0643 31.1452C33.9447 31.0211 33.9894 30.7847 34.079 30.3118C34.1685 29.8392 34.1932 29.3417 34.1385 28.8221C33.9614 27.1394 33.0098 25.9161 32.2859 25.1803C31.1642 24.0401 29.6115 23.1323 28.7872 22.6504Z" fill="#AE6675"/>
</g>
<path d="M20.0033 5.41675C16.0912 5.41675 12.9199 8.58806 12.9199 12.5001C12.9199 16.4121 16.0912 19.5834 20.0033 19.5834C23.9153 19.5834 27.0866 16.4121 27.0866 12.5001C27.0866 8.58806 23.9153 5.41675 20.0033 5.41675Z" fill="#AE6675"/>
<path d="M27.1879 24.1222C22.7916 21.4038 17.2154 21.4038 12.8191 24.1222C12.6895 24.2024 12.5254 24.2984 12.3367 24.4088C11.483 24.9084 10.1276 25.7015 9.20275 26.6415C8.62188 27.232 8.04255 28.0369 7.93692 29.0404C7.82391 30.114 8.27958 31.1077 9.14886 31.9677C10.5849 33.3885 12.3638 34.5834 14.6962 34.5834H25.3108C27.6432 34.5834 29.4221 33.3885 30.8581 31.9677C31.7274 31.1077 32.1831 30.114 32.0701 29.0404C31.9645 28.0369 31.3851 27.232 30.8042 26.6415C29.8794 25.7015 28.5241 24.9084 27.6703 24.4088C27.4818 24.2985 27.3175 24.2023 27.1879 24.1222Z" fill="#AE6675"/>
</svg>
