<svg width="40" height="40" viewBox="0 0 40 40" fill="none" xmlns="http://www.w3.org/2000/svg">
<path d="M30.3812 25.132L30.3813 25.132C31.5693 25.8023 33.3652 26.8154 34.5955 28.0196C35.3649 28.7728 36.096 29.7653 36.2289 30.9812C36.3702 32.2743 35.8061 33.4877 34.6744 34.5659C32.722 36.426 30.3791 37.9166 27.3485 37.9166H12.6514C9.62092 37.9166 7.27795 36.426 5.32553 34.5659C4.19384 33.4877 3.62973 32.2743 3.77108 30.9812C3.90398 29.7653 4.63507 28.7728 5.40452 28.0196C6.6348 26.8154 8.43065 25.8023 9.61867 25.132L9.61869 25.132C9.8898 24.9791 10.1292 24.844 10.3231 24.7285C16.2465 21.2015 23.7535 21.2015 29.6769 24.7285C29.8707 24.844 30.1101 24.979 30.3812 25.132Z" fill="#AE6675"/>
<path opacity="0.4" d="M11.25 10.8333C11.25 6.00076 15.1675 2.08325 20 2.08325C24.8325 2.08325 28.75 6.00076 28.75 10.8333C28.75 15.6657 24.8325 19.5833 20 19.5833C15.1675 19.5833 11.25 15.6657 11.25 10.8333Z" fill="#AE6675"/>
</svg>
