<svg width="20" height="20" viewBox="0 0 20 20" fill="none" xmlns="http://www.w3.org/2000/svg">
<path fill-rule="evenodd" clip-rule="evenodd" d="M9.99992 2.7085C8.04391 2.7085 6.45825 4.29415 6.45825 6.25016C6.45825 8.20617 8.04391 9.79183 9.99992 9.79183C11.9559 9.79183 13.5416 8.20617 13.5416 6.25016C13.5416 4.29415 11.9559 2.7085 9.99992 2.7085ZM7.70825 6.25016C7.70825 4.98451 8.73427 3.9585 9.99992 3.9585C11.2656 3.9585 12.2916 4.98451 12.2916 6.25016C12.2916 7.51582 11.2656 8.54183 9.99992 8.54183C8.73427 8.54183 7.70825 7.51582 7.70825 6.25016Z" fill="#696C68"/>
<path d="M4.58329 4.37516C3.08752 4.37516 1.87495 5.58772 1.87495 7.0835C1.87495 8.57927 3.08752 9.79183 4.58329 9.79183C4.92847 9.79183 5.20829 9.51201 5.20829 9.16683C5.20829 8.82165 4.92847 8.54183 4.58329 8.54183C3.77787 8.54183 3.12496 7.88891 3.12496 7.0835C3.12496 6.27808 3.77787 5.62516 4.58329 5.62516C4.92847 5.62516 5.20829 5.34534 5.20829 5.00016C5.20829 4.65498 4.92847 4.37516 4.58329 4.37516Z" fill="#696C68"/>
<path d="M4.78908 10.7772C4.75798 10.4334 4.45408 10.1799 4.11031 10.211C3.3282 10.2818 2.56774 10.5827 1.8975 11.0988C1.85888 11.1285 1.80801 11.1655 1.74824 11.209C1.46433 11.4156 0.979581 11.7682 0.652905 12.1818C0.44417 12.446 0.248971 12.7918 0.213827 13.2076C0.177021 13.643 0.323001 14.0661 0.635965 14.4517C1.11501 15.0419 1.77234 15.6252 2.68825 15.6252C3.03343 15.6252 3.31325 15.3453 3.31325 15.0002C3.31325 14.655 3.03343 14.3752 2.68825 14.3752C2.35533 14.3752 2.01935 14.1726 1.60652 13.6639C1.46304 13.4871 1.45405 13.376 1.45939 13.3129C1.46639 13.23 1.51045 13.1127 1.63377 12.9566C1.84147 12.6937 2.13263 12.4797 2.41563 12.2717C2.49861 12.2107 2.58089 12.1502 2.66015 12.0892C3.15212 11.7103 3.68934 11.5042 4.22293 11.456C4.56671 11.4249 4.82018 11.121 4.78908 10.7772Z" fill="#696C68"/>
<path d="M14.9999 4.37516C14.6547 4.37516 14.3749 4.65498 14.3749 5.00016C14.3749 5.34534 14.6547 5.62516 14.9999 5.62516C15.8053 5.62516 16.4583 6.27808 16.4583 7.0835C16.4583 7.88891 15.8053 8.54183 14.9999 8.54183C14.6547 8.54183 14.3749 8.82165 14.3749 9.16683C14.3749 9.51201 14.6547 9.79183 14.9999 9.79183C16.4957 9.79183 17.7083 8.57927 17.7083 7.0835C17.7083 5.58772 16.4957 4.37516 14.9999 4.37516Z" fill="#696C68"/>
<path d="M15.8896 10.211C15.5458 10.1799 15.2419 10.4334 15.2108 10.7772C15.1797 11.121 15.4332 11.4249 15.7769 11.456C16.3105 11.5042 16.8478 11.7103 17.3397 12.0892C17.419 12.1502 17.5012 12.2107 17.5842 12.2717C17.8672 12.4797 18.1584 12.6937 18.3661 12.9566C18.4894 13.1127 18.5335 13.23 18.5405 13.3129C18.5458 13.376 18.5368 13.4871 18.3934 13.6639C17.9805 14.1726 17.6445 14.3752 17.3116 14.3752C16.9664 14.3752 16.6866 14.655 16.6866 15.0002C16.6866 15.3453 16.9664 15.6252 17.3116 15.6252C18.2275 15.6252 18.8849 15.0419 19.3639 14.4517C19.6769 14.0661 19.8229 13.643 19.786 13.2076C19.7509 12.7918 19.5557 12.446 19.347 12.1818C19.0203 11.7682 18.5356 11.4156 18.2517 11.2091C18.192 11.1656 18.141 11.1285 18.1024 11.0988C17.4321 10.5827 16.6717 10.2818 15.8896 10.211Z" fill="#696C68"/>
<path fill-rule="evenodd" clip-rule="evenodd" d="M6.40784 12.0612C8.60599 10.702 11.3941 10.702 13.5922 12.0612C13.657 12.1013 13.7391 12.1493 13.8334 12.2045C14.2602 12.4543 14.938 12.8509 15.4004 13.3209C15.6909 13.6161 15.9805 14.0186 16.0333 14.5203C16.0898 15.0571 15.862 15.554 15.4274 15.984C14.7093 16.6944 13.8199 17.2918 12.6537 17.2918H7.3464C6.18018 17.2918 5.29074 16.6944 4.57272 15.984C4.13808 15.554 3.91025 15.0571 3.96675 14.5203C4.01956 14.0186 4.30923 13.6161 4.59967 13.3209C5.06209 12.8509 5.73974 12.4543 6.16663 12.2045C6.26095 12.1493 6.34303 12.1013 6.40784 12.0612ZM12.9348 13.1244C11.1396 12.0143 8.86052 12.0143 7.06525 13.1244C6.95748 13.191 6.84193 13.2592 6.7227 13.3295C6.29614 13.581 5.82258 13.8602 5.49074 14.1975C5.28658 14.4051 5.21985 14.5565 5.20988 14.6512C5.20361 14.7108 5.20662 14.8528 5.45186 15.0954C6.06231 15.6993 6.65244 16.0418 7.3464 16.0418H12.6537C13.3476 16.0418 13.9378 15.6993 14.5482 15.0954C14.7935 14.8527 14.7965 14.7108 14.7902 14.6512C14.7802 14.5565 14.7135 14.4051 14.5093 14.1975C14.1775 13.8602 13.704 13.581 13.2774 13.3295C13.1582 13.2592 13.0426 13.191 12.9348 13.1244Z" fill="#696C68"/>
</svg>
