<svg width="20" height="20" viewBox="0 0 20 20" fill="none" xmlns="http://www.w3.org/2000/svg">
<path d="M5.83301 3.74935C5.37277 3.74935 4.99967 4.12245 4.99967 4.58268C4.99967 5.04292 5.37277 5.41602 5.83301 5.41602H5.84049C6.30073 5.41602 6.67382 5.04292 6.67382 4.58268C6.67382 4.12245 6.30073 3.74935 5.84049 3.74935H5.83301Z" fill="#696C68"/>
<path d="M8.33301 4.58268C8.33301 4.12245 8.7061 3.74935 9.16634 3.74935H9.17384C9.63408 3.74935 10.0072 4.12245 10.0072 4.58268C10.0072 5.04292 9.63408 5.41602 9.17384 5.41602H9.16634C8.7061 5.41602 8.33301 5.04292 8.33301 4.58268Z" fill="#696C68"/>
<path fill-rule="evenodd" clip-rule="evenodd" d="M14.4269 1.19267C15.575 1.34817 16.4856 1.6734 17.2006 2.39368C17.9149 3.11332 18.2369 4.02879 18.3909 5.18317C18.5414 6.31038 18.5414 7.7544 18.5413 9.59408V9.68879C18.5414 11.5285 18.5414 12.9725 18.3909 14.0997C18.2369 15.2541 17.9149 16.1696 17.2006 16.8892C16.8774 17.2148 16.5095 17.4641 16.089 17.6529C15.7741 17.7942 15.4042 17.6535 15.2628 17.3386C15.1215 17.0237 15.2622 16.6538 15.5771 16.5125C15.8657 16.3829 16.1043 16.2192 16.3134 16.0086C16.7584 15.5603 17.0161 14.9518 17.1519 13.9344C17.29 12.8994 17.2913 11.5388 17.2913 9.64143C17.2913 8.92389 17.2912 8.28311 17.2835 7.70768L2.72461 7.70768C2.7115 8.28027 2.70801 8.92077 2.70801 9.64143C2.70801 11.5388 2.70932 12.8994 2.84744 13.9344C2.98322 14.9518 3.24092 15.5603 3.68595 16.0086C3.89496 16.2192 4.13366 16.3829 4.42231 16.5125C4.73721 16.6539 4.87789 17.0237 4.73652 17.3386C4.59516 17.6535 4.22528 17.7942 3.91038 17.6529C3.48991 17.4641 3.12199 17.2148 2.7988 16.8892C2.08446 16.1696 1.76248 15.2541 1.60842 14.0997C1.45799 12.9725 1.458 11.5285 1.45801 9.6888L1.45801 9.64143C1.45801 7.77213 1.47929 6.33217 1.65584 5.20974C1.83557 4.06707 2.18565 3.18472 2.88944 2.47571C3.59409 1.76583 4.46977 1.41466 5.60422 1.23566C6.71695 1.06009 8.14519 1.04102 9.99967 1.04102H10.0476C11.8729 1.041 13.3071 1.041 14.4269 1.19267ZM17.1519 5.34851C17.1964 5.68206 17.2267 6.04943 17.2474 6.45768L2.77768 6.45768C2.80436 6.06935 2.84088 5.72039 2.89066 5.40397C3.04608 4.41583 3.321 3.81529 3.77658 3.35632C4.2313 2.89823 4.82298 2.62439 5.79904 2.47039C6.7968 2.31296 8.12221 2.29102 9.99967 2.29102C11.8834 2.29102 13.2329 2.29236 14.2591 2.43136C15.2669 2.56785 15.869 2.82662 16.3134 3.2743C16.7584 3.72263 17.0161 4.33108 17.1519 5.34851Z" fill="#696C68"/>
<path fill-rule="evenodd" clip-rule="evenodd" d="M13.4322 14.5003C13.1695 13.7076 12.6375 13.2891 12.0902 13.1177C12.09 12.9368 12.0903 12.7447 12.0913 12.6015C12.0924 12.4554 12.0922 12.2838 12.0804 12.1183C12.0692 11.9622 12.0453 11.767 11.9797 11.5864C11.3721 9.86287 8.96271 9.71646 8.12496 11.3668C7.90888 11.7727 7.91775 12.2243 7.92299 12.491C7.92375 12.5298 7.92444 12.5647 7.92434 12.5949C7.92388 12.7398 7.92379 12.9291 7.92384 13.1073C7.07347 13.3535 6.67395 14.0802 6.55764 14.5452C6.51767 14.705 6.49661 14.9204 6.4834 15.1232C6.46932 15.3394 6.46156 15.5887 6.45899 15.8398C6.45389 16.3364 6.46874 16.8747 6.50206 17.2077L6.50708 17.2578L6.52008 17.3066C6.791 18.3219 7.50639 18.7779 8.18905 18.9172L8.22356 18.9242L8.25865 18.9273C8.66421 18.9633 10.087 18.9584 10.8491 18.9557C10.9985 18.9552 11.1224 18.9548 11.2084 18.9547C11.6814 18.9628 12.1684 18.8799 12.5893 18.6022C13.0226 18.3164 13.3099 17.8747 13.4661 17.3128L13.475 17.2809L13.4804 17.2483C13.5149 17.0418 13.539 16.506 13.5421 15.9999C13.5437 15.7362 13.5397 15.4609 13.5268 15.2152C13.5145 14.9826 13.4923 14.7334 13.4453 14.5452L13.4396 14.5225L13.4322 14.5003ZM9.23772 11.9362C9.58696 11.2417 10.5675 11.3358 10.8015 12.004L10.8049 12.0136C10.8106 12.029 10.8249 12.0867 10.8335 12.2073C10.8416 12.32 10.8424 12.4494 10.8414 12.5923C10.8405 12.7145 10.8401 12.8695 10.8401 13.0225H9.17383C9.17383 12.872 9.17395 12.72 9.17434 12.5989C9.17452 12.5424 9.1745 12.4915 9.17448 12.4455C9.17436 12.1481 9.17432 12.054 9.22896 11.953L9.23347 11.9447L9.23772 11.9362ZM7.77027 14.8486C7.79694 14.7419 7.86718 14.5905 7.98936 14.4733C8.09805 14.369 8.26572 14.2725 8.54934 14.2725H11.4663C11.6158 14.2725 11.7687 14.3102 11.8979 14.3949C12.0159 14.4724 12.1461 14.6095 12.2371 14.8684C12.2515 14.9384 12.2677 15.0761 12.2785 15.2811C12.2898 15.4945 12.2936 15.7438 12.2921 15.9923C12.2906 16.2401 12.2838 16.4813 12.2744 16.6768C12.2698 16.7747 12.2646 16.8589 12.2593 16.9254C12.2567 16.9586 12.2542 16.9859 12.2519 17.0072L12.2509 17.0157C12.1575 17.3275 12.0254 17.4768 11.9011 17.5588C11.7613 17.651 11.5508 17.7108 11.2257 17.7047H11.214C11.1088 17.7047 10.9625 17.7052 10.791 17.7057C10.0363 17.7081 8.79233 17.712 8.40538 17.685C8.25646 17.6502 8.12598 17.5889 8.02025 17.497C7.91741 17.4076 7.81189 17.267 7.74099 17.0308C7.71736 16.7559 7.70432 16.3007 7.70892 15.8526C7.71135 15.6165 7.71859 15.3911 7.73076 15.2044C7.7438 15.0043 7.76024 14.8887 7.77027 14.8486Z" fill="#696C68"/>
</svg>
