<svg width="20" height="20" viewBox="0 0 20 20" fill="none" xmlns="http://www.w3.org/2000/svg">
<path fill-rule="evenodd" clip-rule="evenodd" d="M11.5406 7.61762L11.4725 7.58006C10.7854 7.20144 10.2235 6.89178 9.76088 6.70021C9.29124 6.50573 8.80962 6.38173 8.31931 6.51024C8.04076 6.58325 7.77927 6.71284 7.55581 6.8935C7.14556 7.22517 7.00054 7.70008 6.93692 8.17866C6.87538 8.64157 6.8754 9.24036 6.87543 9.95483V10.0439C6.8754 10.7584 6.87538 11.3572 6.93692 11.8201C7.00054 12.2987 7.14556 12.7736 7.55581 13.1053C7.77927 13.2859 8.04076 13.4155 8.31931 13.4885C8.80962 13.617 9.29124 13.493 9.76088 13.2985C10.2235 13.107 10.7854 12.7973 11.4725 12.4187L11.5407 12.3811C12.1693 12.0347 12.6885 11.7487 13.0621 11.4835C13.4365 11.2179 13.7917 10.8888 13.9093 10.4088C13.9753 10.1393 13.9753 9.85942 13.9093 9.58996C13.7917 9.10995 13.4365 8.78081 13.0621 8.51521C12.6885 8.2501 12.1693 7.96401 11.5406 7.61762ZM8.63622 7.7194C8.7256 7.69598 8.89166 7.6932 9.28263 7.8551C9.67308 8.01679 10.1739 8.2917 10.9028 8.69338C11.5747 9.06361 12.0303 9.3158 12.3388 9.53467C12.6534 9.75788 12.6891 9.86247 12.6952 9.88734C12.7133 9.96143 12.7133 10.0373 12.6952 10.1114C12.6891 10.1363 12.6534 10.2409 12.3388 10.4641C12.0303 10.683 11.5747 10.9351 10.9028 11.3054C10.1739 11.7071 9.67308 11.982 9.28263 12.1437C8.89166 12.3056 8.7256 12.3028 8.63622 12.2794C8.5221 12.2494 8.42192 12.1981 8.34169 12.1332C8.30362 12.1024 8.22448 12.0199 8.17602 11.6554C8.12675 11.2848 8.12543 10.7702 8.12543 9.99938C8.12543 9.2286 8.12675 8.71397 8.17602 8.34339C8.22448 7.97889 8.30362 7.89633 8.34169 7.86555C8.42192 7.80069 8.5221 7.74932 8.63622 7.7194Z" fill="#696C68"/>
<path fill-rule="evenodd" clip-rule="evenodd" d="M10.0004 2.29102C8.45158 2.29102 6.96353 2.44398 5.58105 2.7258L5.47498 2.74739C3.89612 3.06876 2.84412 3.28288 1.93757 4.44845C1.04076 5.6015 1.04126 6.93868 1.04204 9.00968L1.04204 10.989C1.04126 13.06 1.04076 14.3972 1.93757 15.5503C2.84412 16.7158 3.89612 16.9299 5.47498 17.2513L5.58105 17.2729C6.96353 17.5547 8.45158 17.7077 10.0004 17.7077C11.5493 17.7077 13.0373 17.5547 14.4198 17.2729L14.5259 17.2513C16.1047 16.9299 17.1567 16.7158 18.0633 15.5503C18.9601 14.3972 18.9596 13.06 18.9588 10.989L18.9588 9.00968C18.9596 6.93868 18.9601 5.6015 18.0633 4.44845C17.1567 3.28288 16.1047 3.06876 14.5259 2.74739L14.4198 2.7258C13.0373 2.44398 11.5493 2.29102 10.0004 2.29102ZM5.83072 3.95061C7.12879 3.686 8.53311 3.54102 10.0004 3.54102C11.4677 3.54102 12.872 3.686 14.1701 3.95061C15.8802 4.2992 16.4756 4.44318 17.0766 5.21587C17.6808 5.99269 17.7087 6.86488 17.7087 9.19639L17.7087 10.8023C17.7087 13.1338 17.6808 14.006 17.0766 14.7828C16.4756 15.5555 15.8802 15.6995 14.1701 16.0481C12.872 16.3127 11.4677 16.4577 10.0004 16.4577C8.53311 16.4577 7.12879 16.3127 5.83072 16.0481C4.12064 15.6995 3.52524 15.5555 2.92427 14.7828C2.32008 14.006 2.29208 13.1338 2.29208 10.8023V9.19639C2.29208 6.86488 2.32008 5.99269 2.92427 5.21587C3.52524 4.44318 4.12064 4.2992 5.83072 3.95061Z" fill="#696C68"/>
</svg>
